<?xml version="1.0" encoding="UTF-8" standalone="no"?>
<svg
   xmlns:osb="http://www.openswatchbook.org/uri/2009/osb"
   xmlns:dc="http://purl.org/dc/elements/1.1/"
   xmlns:cc="http://creativecommons.org/ns#"
   xmlns:rdf="http://www.w3.org/1999/02/22-rdf-syntax-ns#"
   xmlns:svg="http://www.w3.org/2000/svg"
   xmlns="http://www.w3.org/2000/svg"
   xmlns:xlink="http://www.w3.org/1999/xlink"
   xmlns:sodipodi="http://sodipodi.sourceforge.net/DTD/sodipodi-0.dtd"
   xmlns:inkscape="http://www.inkscape.org/namespaces/inkscape"
   viewBox="0 0 235 110"
   height="110"
   width="235"
   xml:space="preserve"
   version="1.1"
   id="svg3520"
   inkscape:version="0.92.1 unknown"
   sodipodi:docname="zero-lliurex-dropbox-installer.svg"><metadata
     id="metadata35"><rdf:RDF><cc:Work
         rdf:about=""><dc:format>image/svg+xml</dc:format><dc:type
           rdf:resource="http://purl.org/dc/dcmitype/StillImage" /><dc:title></dc:title></cc:Work></rdf:RDF></metadata><sodipodi:namedview
     pagecolor="#ffffff"
     bordercolor="#666666"
     borderopacity="1"
     objecttolerance="10"
     gridtolerance="10"
     guidetolerance="10"
     inkscape:pageopacity="0"
     inkscape:pageshadow="2"
     inkscape:window-width="1920"
     inkscape:window-height="1031"
     id="namedview33"
     showgrid="false"
     inkscape:zoom="2.6434346"
     inkscape:cx="239.78505"
     inkscape:cy="-33.322219"
     inkscape:window-x="1920"
     inkscape:window-y="0"
     inkscape:window-maximized="1"
     inkscape:current-layer="svg3520"
     borderlayer="true"
     inkscape:snap-bbox="false"
     inkscape:object-paths="true"
     inkscape:snap-intersection-paths="true"
     inkscape:snap-smooth-nodes="true"
     inkscape:snap-midpoints="true"
     inkscape:snap-global="false" /><defs
     id="defs3524"><linearGradient
       inkscape:collect="always"
       id="linearGradient5197"><stop
         style="stop-color:#fdfded;stop-opacity:1"
         offset="0"
         id="stop5193" /><stop
         style="stop-color:#d9d9ca;stop-opacity:1"
         offset="1"
         id="stop5195" /></linearGradient><linearGradient
       id="linearGradient6709"
       osb:paint="solid"><stop
         style="stop-color:#000000;stop-opacity:1;"
         offset="0"
         id="stop6711" /></linearGradient><marker
       inkscape:stockid="Arrow1Lstart"
       orient="auto"
       refY="0.0"
       refX="0.0"
       id="Arrow1Lstart"
       style="overflow:visible"
       inkscape:isstock="true"><path
         id="path6435"
         d="M 0.0,0.0 L 5.0,-5.0 L -12.5,0.0 L 5.0,5.0 L 0.0,0.0 z "
         style="fill-rule:evenodd;stroke:#000000;stroke-width:1.0pt"
         transform="scale(0.8) translate(12.5,0)" /></marker><linearGradient
       id="linearGradient6197"
       osb:paint="solid"><stop
         style="stop-color:#000080;stop-opacity:1;"
         offset="0"
         id="stop6199" /></linearGradient><linearGradient
       id="linearGradient4745"
       osb:paint="solid"><stop
         style="stop-color:#000000;stop-opacity:1;"
         offset="0"
         id="stop4747" /></linearGradient><clipPath
       id="clipPath3554"
       clipPathUnits="userSpaceOnUse"><path
         id="path3556"
         d="M 0,170 446,170 446,0 0,0 0,170 Z"
         inkscape:connector-curvature="0" /></clipPath><filter
       style="color-interpolation-filters:sRGB"
       x="-0.25"
       width="1.5"
       y="-0.25"
       height="1.5"
       inkscape:menu="Non realistic 3D shaders"
       inkscape:menu-tooltip="Satiny glass effect"
       inkscape:label="Frosted Glass"
       id="filter4705"><feGaussianBlur
         in="SourceGraphic"
         result="result8"
         stdDeviation="5"
         id="feGaussianBlur4707" /><feComposite
         result="result18"
         operator="xor"
         in2="result8"
         in="SourceGraphic"
         id="feComposite4709" /><feComposite
         in2="result18"
         result="result16"
         operator="arithmetic"
         k2="0.5"
         k1="1"
         in="result8"
         id="feComposite4711" /><feComposite
         in="result16"
         operator="atop"
         result="result6"
         in2="result8"
         id="feComposite4713" /><feOffset
         in="result6"
         result="result17"
         id="feOffset4715" /><feDisplacementMap
         result="result4"
         scale="100"
         yChannelSelector="A"
         xChannelSelector="A"
         in="result17"
         in2="result16"
         id="feDisplacementMap4717" /><feComposite
         k3="1"
         in="result17"
         operator="arithmetic"
         result="result2"
         in2="result4"
         id="feComposite4719" /><feComposite
         operator="out"
         in="result2"
         result="fbSourceGraphic"
         in2="result17"
         id="feComposite4721" /><feComposite
         result="result14"
         operator="over"
         in2="fbSourceGraphic"
         in="fbSourceGraphic"
         id="feComposite4723" /><feComposite
         in="result14"
         operator="in"
         in2="SourceGraphic"
         result="result15"
         id="feComposite4725" /></filter><filter
       inkscape:label="Sharpen"
       inkscape:menu="Image Effects"
       inkscape:menu-tooltip="Sharpen edges and boundaries within the object, force=0.15"
       style="color-interpolation-filters:sRGB;"
       id="filter7133"><feMorphology
         radius="4.3"
         in="SourceAlpha"
         result="result91"
         id="feMorphology7135" /><feComposite
         operator="out"
         in="SourceGraphic"
         in2="result91"
         id="feComposite7137" /><feGaussianBlur
         result="result0"
         stdDeviation="1.2"
         id="feGaussianBlur7139" /><feDiffuseLighting
         diffuseConstant="1"
         id="feDiffuseLighting7141"><feDistantLight
           elevation="66"
           azimuth="225"
           id="feDistantLight7143" /></feDiffuseLighting><feBlend
         mode="multiply"
         in2="SourceGraphic"
         id="feBlend7145" /><feComposite
         operator="in"
         in2="SourceAlpha"
         id="feComposite7147"
         result="fbSourceGraphic" /><feColorMatrix
         result="fbSourceGraphicAlpha"
         in="fbSourceGraphic"
         values="0 0 0 -1 0 0 0 0 -1 0 0 0 0 -1 0 0 0 0 1 0"
         id="feColorMatrix7149" /><feColorMatrix
         id="feColorMatrix7151"
         values="0 0 0 0 0 0 0 0 0 0 0 0 0 0 0 0.21 0.72 0.07 0 0 "
         result="result1"
         in="fbSourceGraphic" /><feColorMatrix
         id="feColorMatrix7153"
         values="1 0 0 0 0 0 1 0 0 0 0 0 1 0 0 0 0 0 2 0 "
         result="result9" /><feComposite
         id="feComposite7155"
         in2="result9"
         in="fbSourceGraphic"
         operator="in"
         result="result4" /><feFlood
         id="feFlood7157"
         result="result2"
         flood-color="rgb(0,0,0)" /><feComposite
         id="feComposite7159"
         in2="result9"
         operator="in"
         result="result10" /><feComposite
         id="feComposite7161"
         in2="result4"
         operator="atop" /><feGaussianBlur
         id="feGaussianBlur7163"
         stdDeviation="3"
         result="result8" /><feOffset
         id="feOffset7165"
         dx="3"
         dy="3"
         result="result3"
         in="result8" /><feFlood
         id="feFlood7167"
         flood-opacity="1"
         flood-color="rgb(219,173,62)"
         result="result5" /><feMerge
         id="feMerge7169"
         result="result6"><feMergeNode
           id="feMergeNode7171"
           in="result5" /><feMergeNode
           id="feMergeNode7173"
           in="result3" /><feMergeNode
           id="feMergeNode7175"
           in="result4" /></feMerge><feComposite
         id="feComposite7177"
         in2="fbSourceGraphic"
         operator="in"
         result="fbSourceGraphic" /><feColorMatrix
         result="fbSourceGraphicAlpha"
         in="fbSourceGraphic"
         values="0 0 0 -1 0 0 0 0 -1 0 0 0 0 -1 0 0 0 0 1 0"
         id="feColorMatrix4240" /><feConvolveMatrix
         id="feConvolveMatrix4242"
         order="3 3"
         kernelMatrix="0 -0.15 0 -0.15 1.6 -0.15 0 -0.15 0"
         divisor="1"
         in="fbSourceGraphic"
         targetX="1"
         targetY="1" /></filter><radialGradient
       inkscape:collect="always"
       xlink:href="#linearGradient5197"
       id="radialGradient5201"
       cx="116.90695"
       cy="55.292297"
       fx="116.90695"
       fy="55.292297"
       r="121.72187"
       gradientTransform="matrix(2.1374799,0,0,0.45307406,-132.97932,30.240792)"
       gradientUnits="userSpaceOnUse" /></defs><rect
     style="color:#000000;clip-rule:nonzero;display:inline;overflow:visible;visibility:visible;opacity:1;isolation:auto;mix-blend-mode:normal;color-interpolation:sRGB;color-interpolation-filters:linearRGB;solid-color:#000000;solid-opacity:1;vector-effect:none;fill:url(#radialGradient5201);fill-opacity:1;fill-rule:nonzero;stroke:none;stroke-width:0;stroke-linecap:square;stroke-linejoin:round;stroke-miterlimit:4;stroke-dasharray:none;stroke-dashoffset:0;stroke-opacity:1;paint-order:normal;color-rendering:auto;image-rendering:auto;shape-rendering:auto;text-rendering:auto;enable-background:accumulate"
     id="rect4946"
     width="243.44374"
     height="116.35078"
     x="-4.814918"
     y="-2.8830895" /><rect
     style="fill:#5fbcd3;fill-opacity:0.78494628;stroke:#006ad4;stroke-width:8.62216759;stroke-linecap:round;stroke-linejoin:round;stroke-miterlimit:4;stroke-dasharray:none;stroke-opacity:0.71684588"
     id="rect6429"
     width="226.42882"
     height="101.36572"
     x="255.74854"
     y="131.12239" /><text
     xml:space="preserve"
     style="font-style:normal;font-weight:normal;line-height:0%;font-family:sans-serif;letter-spacing:0px;word-spacing:0px;fill:#003380;fill-opacity:0.78431373;stroke:none;stroke-width:1px;stroke-linecap:butt;stroke-linejoin:miter;stroke-opacity:1"
     x="319.95816"
     y="214.14043"
     id="text7195"
     transform="scale(1.0412484,0.96038563)"><tspan
       sodipodi:role="line"
       id="tspan7197"
       x="319.95816"
       y="214.14043"
       style="font-style:normal;font-variant:normal;font-weight:normal;font-stretch:normal;font-size:29.77352333px;line-height:1.25;font-family:OpenDyslexic;-inkscape-font-specification:OpenDyslexic;fill:#003380;fill-opacity:0.78431373">installer</tspan></text>
<g
     transform="matrix(0.58281116,0,0,-0.56582728,240.82233,216.08257)"
     id="g3528"
     style="filter:url(#filter7133)"><g
       transform="translate(76.1162,130.9785)"
       id="g3530"><path
         id="path3532"
         style="fill:#007ee5;fill-opacity:1;fill-rule:nonzero;stroke:none"
         d="m 0,0 -29.63,-19.346 20.487,-16.406 29.875,18.447 z"
         inkscape:connector-curvature="0" /></g><g
       transform="translate(46.4863,78.8198)"
       id="g3534"><path
         id="path3536"
         style="fill:#007ee5;fill-opacity:1;fill-rule:nonzero;stroke:none"
         d="M 0,0 29.63,-19.346 50.362,-2.04 20.487,16.407 Z"
         inkscape:connector-curvature="0" /></g><g
       transform="translate(96.8486,76.7798)"
       id="g3538"><path
         id="path3540"
         style="fill:#007ee5;fill-opacity:1;fill-rule:nonzero;stroke:none"
         d="M 0,0 20.733,-17.306 50.362,2.04 29.875,18.447 Z"
         inkscape:connector-curvature="0" /></g><g
       transform="translate(147.2109,111.6328)"
       id="g3542"><path
         id="path3544"
         style="fill:#007ee5;fill-opacity:1;fill-rule:nonzero;stroke:none"
         d="M 0,0 -29.629,19.346 -50.362,2.041 -20.487,-16.406 Z"
         inkscape:connector-curvature="0" /></g><g
       transform="translate(96.9092,73.0566)"
       id="g3546"><path
         id="path3548"
         style="fill:#007ee5;fill-opacity:1;fill-rule:nonzero;stroke:none"
         d="m 0,0 -20.793,-17.254 -8.897,5.809 v -6.513 L 0,-35.763 29.691,-17.958 v 6.513 l -8.896,-5.809 z"
         inkscape:connector-curvature="0" /></g><g
       id="g3550"><g
         clip-path="url(#clipPath3554)"
         id="g3552"><g
           transform="translate(173.7266,102.6348)"
           id="g3558"><path
             id="path3560"
             style="fill:#007ee5;fill-opacity:1;fill-rule:nonzero;stroke:none"
             d="m 0,0 h 1.955 c 4.619,0 10.961,-0.547 10.961,-16.562 0,-17.032 -6.419,-17.58 -10.961,-17.58 H 0 Z M -11.43,-43.126 H 2.269 c 3.992,0 9.627,0 14.248,3.594 5.636,4.297 8.533,13.047 8.533,22.814 C 25.05,8.908 8.844,8.986 0.859,8.986 H -11.43 Z"
             inkscape:connector-curvature="0" /></g><g
           transform="translate(202.7119,98.0259)"
           id="g3562"><path
             id="path3564"
             style="fill:#007ee5;fill-opacity:1;fill-rule:nonzero;stroke:none"
             d="m 0,0 v -38.517 h 10.723 v 16.641 c 0,2.969 0,11.876 7.905,11.876 0.393,0 0.861,0 1.799,-0.157 V 0.312 c -0.546,0.157 -1.092,0.236 -1.878,0.236 -6.261,0 -8.14,-6.564 -9.079,-9.845 L 9.47,0 Z"
             inkscape:connector-curvature="0" /></g><g
           transform="translate(240.333,91.3848)"
           id="g3566"><path
             id="path3568"
             style="fill:#007ee5;fill-opacity:1;fill-rule:nonzero;stroke:none"
             d="m 0,0 c 3.29,0 4.541,-2.656 4.541,-12.579 0,-10.313 -1.409,-12.579 -4.541,-12.579 -3.209,0 -4.617,2.345 -4.617,12.579 0,9.453 1.096,12.579 4.54,12.579 z m 0,7.501 c -11.506,0 -15.732,-8.048 -15.732,-20.08 0,-12.422 4.538,-20.078 15.655,-20.078 11.272,0 15.734,7.734 15.734,20.078 0,12.032 -4.226,20.08 -15.657,20.08"
             inkscape:connector-curvature="0" /></g><g
           transform="translate(269.7393,82.5566)"
           id="g3570"><path
             id="path3572"
             style="fill:#007ee5;fill-opacity:1;fill-rule:nonzero;stroke:none"
             d="m 0,0 c 0,3.437 0,8.905 4.853,8.905 4.149,0 4.461,-5.389 4.461,-12.187 0,-8.126 -0.389,-12.891 -4.775,-12.891 C 0,-16.173 0,-12.891 0,-7.344 Z M -10.568,15.469 V -36.096 H 0 v 15.859 c 1.174,-1.249 3.131,-3.357 7.358,-3.357 12.289,0 13.074,14.844 13.074,20.312 0,6.485 -1.252,12.502 -5.011,16.329 -1.877,1.875 -4.775,2.97 -7.358,2.97 -5.245,0 -7.359,-3.828 -8.69,-6.329 v 5.781 z"
             inkscape:connector-curvature="0" /></g><g
           transform="translate(303.9316,84.4312)"
           id="g3574"><path
             id="path3576"
             style="fill:#007ee5;fill-opacity:1;fill-rule:nonzero;stroke:none"
             d="m 0,0 c 0,1.953 0,3.906 1.255,5.392 0.782,1.015 2.034,1.639 3.443,1.639 3.053,0 4.697,-2.578 4.697,-12.734 0,-9.923 -1.486,-12.578 -4.854,-12.578 C 0,-18.281 0,-13.282 0,-8.905 Z m -10.568,27.189 v -52.111 h 6.341 c 0.861,2.734 1.253,3.515 2.037,5 0.937,-1.953 2.739,-5.781 8.924,-5.781 2.036,0 4.149,0.39 6.262,1.483 7.046,3.672 7.516,15.236 7.516,18.83 0,9.296 -2.975,19.533 -12.449,19.533 C 3.445,14.143 1.334,11.641 0,10 v 17.189 z"
             inkscape:connector-curvature="0" /></g><g
           transform="translate(342.8721,91.3848)"
           id="g3578"><path
             id="path3580"
             style="fill:#007ee5;fill-opacity:1;fill-rule:nonzero;stroke:none"
             d="m 0,0 c 3.285,0 4.539,-2.656 4.539,-12.579 0,-10.313 -1.408,-12.579 -4.539,-12.579 -3.211,0 -4.622,2.345 -4.622,12.579 0,9.453 1.098,12.579 4.543,12.579 z m 0,7.501 c -11.509,0 -15.736,-8.048 -15.736,-20.08 0,-12.422 4.542,-20.078 15.657,-20.078 11.272,0 15.734,7.734 15.734,20.078 0,12.032 -4.228,20.08 -15.655,20.08"
             inkscape:connector-curvature="0" /></g><g
           transform="translate(358.1104,98.0259)"
           id="g3582"><path
             id="path3584"
             style="fill:#007ee5;fill-opacity:1;fill-rule:nonzero;stroke:none"
             d="M 0,0 9.943,-18.83 -1.485,-38.517 h 9.313 l 6.498,11.561 5.636,-11.561 H 31.626 L 20.118,-16.954 30.059,0 H 20.746 L 15.813,-8.906 11.665,0 Z"
             inkscape:connector-curvature="0" /></g></g><text
         xml:space="preserve"
         style="font-style:normal;font-variant:normal;font-weight:normal;font-stretch:normal;line-height:0%;font-family:OpenDyslexicAlta;-inkscape-font-specification:OpenDyslexicAlta;letter-spacing:0px;word-spacing:0px;fill:#000000;fill-opacity:1;stroke:none;stroke-width:1px;stroke-linecap:butt;stroke-linejoin:miter;stroke-opacity:1"
         x="181.5336"
         y="-37.06794"
         id="text7191"
         transform="scale(0.9853216,-1.0148971)"><tspan
           sodipodi:role="line"
           id="tspan7193"
           x="181.5336"
           y="-37.06794"
           style="font-size:69.6552887px;line-height:1.25"> </tspan></text>
</g></g><style
     id="style4827"
     type="text/css">
	.st0{fill:#0061FF;}
	.st1{display:none;}
	.st2{display:inline;}
	.st3{fill:none;}
</style><g
     id="g4854"
     transform="matrix(0.62265528,0,0,0.62265528,16.629845,35.137297)"><path
       id="path4829"
       d="M 37.6,12 18.8,24 37.6,36 18.8,48 0,35.9 18.8,23.9 0,12 18.8,0 Z m -18.9,39.8 18.8,-12 18.8,12 -18.8,12 z M 37.6,35.9 56.4,23.9 37.6,12 56.3,0 75.1,12 56.3,24 75.1,36 56.3,48 Z"
       class="st0"
       inkscape:connector-curvature="0"
       style="fill:#0061ff" /><path
       id="path4831"
       d="M 89.8,12 H 105 c 9.7,0 17.7,5.6 17.7,18.4 v 2.7 c 0,12.9 -7.5,18.7 -17.4,18.7 H 89.8 Z m 8.5,7.2 v 25.3 h 6.5 c 5.5,0 9.2,-3.6 9.2,-11.6 v -2.1 c 0,-8 -3.9,-11.6 -9.5,-11.6 z m 28.9,0.4 h 6.8 l 1.1,7.5 c 1.3,-5.1 4.6,-7.8 10.6,-7.8 h 2.1 v 8.6 h -3.5 c -6.9,0 -8.6,2.4 -8.6,9.2 v 14.8 h -8.4 V 19.6 Z m 22.3,16.8 v -0.9 c 0,-10.8 6.9,-16.7 16.3,-16.7 9.6,0 16.3,5.9 16.3,16.7 v 0.9 c 0,10.6 -6.5,16.3 -16.3,16.3 C 155.4,52.6 149.5,47 149.5,36.4 Z m 24,-0.1 v -0.8 c 0,-6 -3,-9.6 -7.8,-9.6 -4.7,0 -7.8,3.3 -7.8,9.6 v 0.8 c 0,5.8 3,9.1 7.8,9.1 4.8,-0.1 7.8,-3.3 7.8,-9.1 z m 13,-16.7 h 7 l 0.8,6.1 c 1.7,-4.1 5.3,-6.9 10.6,-6.9 8.2,0 13.6,5.9 13.6,16.8 v 0.9 c 0,10.6 -6,16.2 -13.6,16.2 -5.1,0 -8.6,-2.3 -10.3,-6 V 63 h -8.2 z M 210,36.3 v -0.7 c 0,-6.4 -3.3,-9.6 -7.7,-9.6 -4.7,0 -7.8,3.6 -7.8,9.6 v 0.6 c 0,5.7 3,9.3 7.7,9.3 4.8,-0.1 7.8,-3.2 7.8,-9.2 z m 20.9,9.6 -0.7,5.9 H 223 v -43 h 8.2 v 16.5 c 1.8,-4.2 5.4,-6.5 10.5,-6.5 7.7,0.1 13.4,5.4 13.4,16.1 v 1 c 0,10.7 -5.4,16.8 -13.6,16.8 -5.4,-0.1 -8.9,-2.6 -10.6,-6.8 z m 15.6,-10 v -0.8 c 0,-5.9 -3.2,-9.2 -7.7,-9.2 -4.6,0 -7.8,3.7 -7.8,9.3 v 0.7 c 0,6 3.1,9.5 7.7,9.5 4.9,0 7.8,-3.1 7.8,-9.5 z m 12.2,0.5 v -0.9 c 0,-10.8 6.9,-16.7 16.3,-16.7 9.6,0 16.3,5.9 16.3,16.7 v 0.9 C 291.3,47 284.7,52.7 275,52.7 264.6,52.6 258.7,47 258.7,36.4 Z m 24.1,-0.1 v -0.8 c 0,-6 -3,-9.6 -7.8,-9.6 -4.7,0 -7.8,3.3 -7.8,9.6 v 0.8 c 0,5.8 3,9.1 7.8,9.1 4.8,-0.1 7.8,-3.3 7.8,-9.1 z M 302.3,35.1 291,19.6 h 9.7 l 6.5,9.7 6.6,-9.7 h 9.6 L 311.9,35 324,51.8 h -9.5 l -7.4,-10.7 -7.2,10.7 H 290 Z"
       inkscape:connector-curvature="0" /><g
       class="st1"
       id="Editble"
       style="display:none"><g
         id="g4837"
         class="st2"
         style="display:inline"><rect
           id="rect4833"
           height="71.800003"
           width="506"
           class="st3"
           y="5"
           x="-105"
           style="fill:none" /><path
           id="path4835"
           d="m 0.2,13.6 h 16.3 c 10.4,0 19,6.1 19,19.8 v 2.9 c 0,13.8 -8,20 -18.7,20 H 0.2 Z m 9.2,7.7 v 27.2 h 7 c 5.9,0 9.9,-3.9 9.9,-12.5 v -2.2 c 0,-8.6 -4.1,-12.5 -10.2,-12.5 z m 31,0.5 h 7.3 l 1.1,8 c 1.4,-5.5 4.9,-8.3 11.3,-8.3 h 2.2 v 9.2 h -3.7 c -7.4,0 -9.2,2.6 -9.2,9.9 v 15.8 h -9 c 0,0 0,-34.6 0,-34.6 z m 23.9,18 v -1 c 0,-11.6 7.4,-17.9 17.5,-17.9 10.3,0 17.5,6.4 17.5,17.9 v 1 c 0,11.4 -7,17.5 -17.5,17.5 -11.2,0 -17.5,-6.1 -17.5,-17.5 z m 25.8,-0.1 v -0.8 c 0,-6.5 -3.2,-10.3 -8.3,-10.3 -5,0 -8.4,3.5 -8.4,10.3 v 0.8 c 0,6.2 3.2,9.7 8.3,9.7 5.2,0 8.4,-3.4 8.4,-9.7 z M 104,21.8 h 7.6 l 0.9,6.6 c 1.9,-4.4 5.7,-7.4 11.4,-7.4 8.8,0 14.6,6.4 14.6,18 v 1 c 0,11.4 -6.4,17.3 -14.6,17.3 -5.5,0 -9.2,-2.5 -11,-6.5 V 68.3 H 104 Z m 25.3,18 V 39 c 0,-6.9 -3.5,-10.3 -8.3,-10.3 -5,0 -8.4,3.8 -8.4,10.3 v 0.7 c 0,6.1 3.2,10 8.2,10 5.2,-0.2 8.5,-3.6 8.5,-9.9 z m 22.4,10.3 -0.7,6.3 h -7.8 V 10.2 H 152 V 28 c 1.9,-4.5 5.8,-7 11.2,-7 8.2,0.1 14.3,5.8 14.3,17.3 v 1 c 0,11.5 -5.8,18 -14.6,18 -5.6,0 -9.4,-2.8 -11.2,-7.2 z m 16.8,-10.8 v -0.8 c 0,-6.4 -3.5,-9.8 -8.3,-9.8 -5,0 -8.4,4 -8.4,10 v 0.7 c 0,6.5 3.3,10.2 8.3,10.2 5.2,-0.1 8.4,-3.5 8.4,-10.3 z m 13.1,0.5 v -1 c 0,-11.6 7.4,-17.9 17.5,-17.9 10.3,0 17.5,6.4 17.5,17.9 v 1 c 0,11.4 -7.1,17.5 -17.5,17.5 -11.2,0 -17.5,-6.1 -17.5,-17.5 z m 25.8,-0.1 v -0.8 c 0,-6.5 -3.2,-10.3 -8.3,-10.3 -5,0 -8.4,3.5 -8.4,10.3 v 0.8 c 0,6.2 3.2,9.7 8.3,9.7 5.2,0 8.4,-3.4 8.4,-9.7 z m 20.9,-1.3 -12.1,-16.7 h 10.4 l 7,10.4 7.1,-10.4 H 251 l -12.3,16.6 13,18 h -10.2 l -8,-11.5 -7.7,11.5 h -10.6 z"
           inkscape:connector-curvature="0" /></g></g></g></svg>