<?xml version="1.0" encoding="UTF-8" standalone="no"?>
<svg
   xmlns:dc="http://purl.org/dc/elements/1.1/"
   xmlns:cc="http://creativecommons.org/ns#"
   xmlns:rdf="http://www.w3.org/1999/02/22-rdf-syntax-ns#"
   xmlns:svg="http://www.w3.org/2000/svg"
   xmlns="http://www.w3.org/2000/svg"
   xmlns:sodipodi="http://sodipodi.sourceforge.net/DTD/sodipodi-0.dtd"
   xmlns:inkscape="http://www.inkscape.org/namespaces/inkscape"
   inkscape:export-ydpi="96"
   inkscape:export-xdpi="96"
   inkscape:export-filename="/home/lliurex/Desarrollo/zero-lliurex-installers/zero-lliurex-autofirma.install/usr/share/zero-lliurex-autofirma/autofirma.png"
   sodipodi:docname="autofirma.svg"
   inkscape:version="1.0 (1.0+r73)"
   id="svg8"
   version="1.1"
   viewBox="0 0 16.933333 16.933333"
   height="64"
   width="64">
  <defs
     id="defs2" />
  <sodipodi:namedview
     inkscape:window-maximized="1"
     inkscape:window-y="30"
     inkscape:window-x="0"
     inkscape:window-height="903"
     inkscape:window-width="1920"
     units="px"
     showgrid="false"
     inkscape:document-rotation="0"
     inkscape:current-layer="g1705"
     inkscape:document-units="mm"
     inkscape:cy="55.646504"
     inkscape:cx="-4.0108939"
     inkscape:zoom="3.959798"
     inkscape:pageshadow="2"
     inkscape:pageopacity="0.0"
     borderopacity="1.0"
     bordercolor="#666666"
     pagecolor="#ffffff"
     id="base" />
  <metadata
     id="metadata5">
    <rdf:RDF>
      <cc:Work
         rdf:about="">
        <dc:format>image/svg+xml</dc:format>
        <dc:type
           rdf:resource="http://purl.org/dc/dcmitype/StillImage" />
        <dc:title></dc:title>
      </cc:Work>
    </rdf:RDF>
  </metadata>
  <g
     id="layer1"
     inkscape:groupmode="layer"
     inkscape:label="Capa 1">
    <g
       id="g1973"
       transform="matrix(0.2572496,0,0,0.2572496,-63.471734,-248.48953)">
      <path
         d="m 25.347716,1000.8026 q 0,3.8183 2.168848,5.6664 1.145518,0.9776 2.688149,0.9776 1.344074,0 2.336856,-0.5346 1.038603,-0.5193 1.695367,-1.6037 0.565122,-0.9012 0.809499,-2.0009 0.290198,-1.1302 0.290198,-2.5048 0,-4.12386 -2.321583,-5.81926 -0.534575,-0.3665 -1.252433,-0.6262 -0.656764,-0.1833 -1.374622,-0.1833 -2.413224,0 -3.787846,1.9398 -0.244377,0.4124 -0.504028,0.9775 -0.305471,0.6567 -0.397112,1.1149 -0.229104,0.7179 -0.259651,1.283 -0.09164,0.61096 -0.09164,1.31356 z m 10.050011,-7.37716 q 0.06109,-0.5651 0.305472,-0.8095 0.290198,-0.2902 0.687311,-0.2902 0.47348,0 0.748405,0.2902 0.290198,0.2749 0.290198,0.8706 v 14.64736 q 0,1.1149 -1.038603,1.1149 -0.366566,0 -0.717858,-0.2749 -0.274925,-0.2902 -0.274925,-0.7178 v -2.23 q -2.382677,3.2227 -4.856996,3.2227 -3.406007,0 -5.467939,-2.5354 -1.939744,-2.3063 -1.939744,-5.8498 0,-5.49836 3.787846,-7.59086 1.542631,-0.947 3.283819,-0.947 2.688148,0 5.086099,2.8256 z"
         style="font-style:normal;font-variant:normal;font-weight:300;font-stretch:normal;font-size:medium;line-height:999.2%;font-family:UnDinaru;-inkscape-font-specification:'UnDinaru Light';letter-spacing:3.91004px;word-spacing:0px;fill:#ffffff;fill-opacity:1;stroke:none;stroke-width:0.09375;stroke-linecap:butt;stroke-linejoin:miter;stroke-miterlimit:4;stroke-dasharray:none;stroke-opacity:1"
         id="path3447"
         inkscape:connector-curvature="0" />
      <path
         d="m 45.233908,993.48654 q 0,-1.1608 1.06915,-1.1608 0.458207,0 0.778952,0.3208 0.305471,0.2749 0.305471,0.84 v 9.34736 q 0,1.0692 0.290198,1.9092 0.24438,0.7943 0.8095,1.451 0.5193,0.611 1.31353,0.9317 0.7484,0.3208 1.8481,0.3208 4.35297,0 4.35297,-4.6127 v -9.34736 q 0,-1.1608 1.05387,-1.1608 0.47348,0 0.77896,0.2902 0.32074,0.2138 0.32074,0.8706 v 9.42376 q 0,3.7726 -2.81034,5.4679 -1.45099,0.8706 -3.7573,0.8706 -2.03138,0 -3.45182,-0.84 -1.405171,-0.779 -2.214671,-2.3216 -0.274924,-0.6568 -0.504028,-1.5579 -0.183282,-0.7789 -0.183282,-1.619 z"
         style="font-style:normal;font-variant:normal;font-weight:300;font-stretch:normal;font-size:medium;line-height:999.2%;font-family:UnDinaru;-inkscape-font-specification:'UnDinaru Light';letter-spacing:3.91004px;word-spacing:0px;fill:#ffffff;fill-opacity:1;stroke:none;stroke-width:0.09375;stroke-linecap:butt;stroke-linejoin:miter;stroke-miterlimit:4;stroke-dasharray:none;stroke-opacity:1"
         id="path3449"
         inkscape:connector-curvature="0" />
      <path
         d="m 66.891839,994.35714 h -1.57318 q -0.47348,0 -0.74841,-0.2749 -0.27492,-0.2444 -0.35129,-0.5957 0,-0.9317 1.0997,-0.9317 h 1.57318 v -4.1697 q 0,-0.4582 0.30547,-0.7484 0.35129,-0.2443 0.7484,-0.2443 1.16079,0 1.16079,1.0538 v 4.1086 h 1.52736 q 0.53458,0 0.79423,0.2444 l -0.0458,-0.03 q 0.29019,0.3512 0.29019,0.7178 0,0.2902 -0.24437,0.5957 -0.25965,0.2749 -0.62622,0.2749 h -1.69537 v 13.83786 q 0,0.3665 -0.35129,0.7789 -0.15273,0.1222 -0.39711,0.2138 -0.32075,0.061 -0.47348,0.061 -0.36657,0 -0.68731,-0.3054 -0.30547,-0.2902 -0.30547,-0.8095 z"
         style="font-style:normal;font-variant:normal;font-weight:300;font-stretch:normal;font-size:medium;line-height:999.2%;font-family:UnDinaru;-inkscape-font-specification:'UnDinaru Light';letter-spacing:3.91004px;word-spacing:0px;fill:#ffffff;fill-opacity:1;stroke:none;stroke-width:0.09375;stroke-linecap:butt;stroke-linejoin:miter;stroke-miterlimit:4;stroke-dasharray:none;stroke-opacity:1"
         id="path3451"
         inkscape:connector-curvature="0" />
      <path
         d="m 78.744129,1000.8026 q 0,2.4743 1.19134,4.5057 1.28298,2.1383 3.78784,2.1383 1.64955,0 2.81034,-0.9165 1.08443,-0.84 1.69537,-2.4437 0.30547,-0.8706 0.42766,-1.5885 0.13746,-0.7178 0.13746,-1.6953 0,-1.72596 -0.56512,-3.28386 -0.50403,-1.4357 -1.63427,-2.3674 -0.61095,-0.5193 -1.31353,-0.7636 -0.65677,-0.2139 -1.49681,-0.2139 -1.66482,0 -2.74924,0.8095 -1.0997,0.8553 -1.69537,2.4743 -0.27493,0.6568 -0.44293,1.6038 -0.15274,0.9317 -0.15274,1.74116 z m -2.21467,0 q 0,-1.28296 0.21383,-2.27576 0.21383,-1.0386 0.71786,-2.0619 0.94696,-1.9398 2.59651,-3.0395 1.72591,-1.0997 3.72675,-1.0997 2.15357,0 3.81839,1.1608 1.619,1.1303 2.53541,3.07 0.42766,1.0233 0.65677,2.0314 0.18328,1.0997 0.18328,2.21466 0,4.8875 -3.34491,7.3007 -1.63427,1.1455 -3.84894,1.1455 -1.63427,0 -2.97835,-0.6873 -1.40517,-0.6873 -2.39795,-1.9092 -0.91641,-1.1913 -1.37462,-2.6576 -0.50403,-1.4662 -0.50403,-3.1921 z"
         style="font-style:normal;font-variant:normal;font-weight:300;font-stretch:normal;font-size:medium;line-height:999.2%;font-family:UnDinaru;-inkscape-font-specification:'UnDinaru Light';letter-spacing:3.91004px;word-spacing:0px;fill:#ffffff;fill-opacity:1;stroke:none;stroke-width:0.09375;stroke-linecap:butt;stroke-linejoin:miter;stroke-miterlimit:4;stroke-dasharray:none;stroke-opacity:1"
         id="path3453"
         inkscape:connector-curvature="0" />
      <g
         transform="matrix(3.3875214,0,0,3.3875214,-293.68245,-2358.456)"
         id="g1705">
        <g
           transform="matrix(0.53333377,0,0,0.53333377,73.799997,457.32331)"
           id="g2448">
          <path
             d="m 174.02907,1000.8142 q 0,3.8183 2.16884,5.6664 1.14552,0.9776 2.68815,0.9776 1.34408,0 2.33686,-0.5346 1.0386,-0.5193 1.69537,-1.6037 0.56512,-0.9012 0.8095,-2.0009 0.29019,-1.1302 0.29019,-2.5048 0,-4.12386 -2.32158,-5.81926 -0.53457,-0.3665 -1.25243,-0.6262 -0.65677,-0.1833 -1.37462,-0.1833 -2.41323,0 -3.78785,1.9398 -0.24438,0.4124 -0.50403,0.9775 -0.30547,0.6567 -0.39711,1.1149 -0.22909,0.7179 -0.25965,1.283 -0.0916,0.61096 -0.0916,1.31356 z m 10.05001,-7.37716 q 0.0611,-0.5651 0.30547,-0.8095 0.2902,-0.2902 0.68731,-0.2902 0.47348,0 0.7484,0.2902 0.2902,0.2749 0.2902,0.8706 v 14.64736 q 0,1.1149 -1.0386,1.1149 -0.36657,0 -0.71786,-0.2749 -0.27492,-0.2902 -0.27492,-0.7178 v -2.23 q -2.38268,3.2227 -4.857,3.2227 -3.40601,0 -5.46794,-2.5354 -1.93974,-2.3063 -1.93974,-5.8498 0,-5.49836 3.78784,-7.59086 1.54264,-0.947 3.28382,-0.947 2.68815,0 5.0861,2.8256 z"
             style="font-style:normal;font-variant:normal;font-weight:300;font-stretch:normal;font-size:medium;line-height:999.2%;font-family:UnDinaru;-inkscape-font-specification:'UnDinaru Light';letter-spacing:3.91004px;word-spacing:0px;opacity:1;fill:#760000;fill-opacity:1;stroke:none;stroke-width:0.09375;stroke-linecap:butt;stroke-linejoin:miter;stroke-miterlimit:4;stroke-dasharray:none;stroke-opacity:1"
             id="path3463"
             inkscape:connector-curvature="0" />
          <path
             inkscape:connector-curvature="0"
             id="path3479"
             d="m 178.96241,982.58194 a 18.216987,18.216987 0 0 0 -18.21698,18.21696 18.216987,18.216987 0 0 0 18.21698,18.217 v -2.0156 a 16.201537,16.201537 0 0 1 -16.20145,-16.2014 16.201537,16.201537 0 0 1 16.20145,-16.20147 16.201537,16.201537 0 0 1 16.20147,16.20147 h 2.01553 a 18.216987,18.216987 0 0 0 -18.217,-18.21696 z"
             style="opacity:1;fill:#760000;fill-opacity:1;stroke:none;stroke-width:2.29798;stroke-miterlimit:4;stroke-dasharray:none;stroke-opacity:1" />
        </g>
      </g>
    </g>
  </g>
</svg>
