<?xml version="1.0" encoding="UTF-8" standalone="no"?>
<!-- Created with Inkscape (http://www.inkscape.org/) -->

<svg
   width="235"
   height="110"
   id="svg2"
   version="1.1"
   inkscape:version="1.4 (1:1.4+202410161351+e7c3feb100)"
   sodipodi:docname="zero-lliurex-azure-cli.svg"
   xml:space="preserve"
   xmlns:inkscape="http://www.inkscape.org/namespaces/inkscape"
   xmlns:sodipodi="http://sodipodi.sourceforge.net/DTD/sodipodi-0.dtd"
   xmlns:xlink="http://www.w3.org/1999/xlink"
   xmlns="http://www.w3.org/2000/svg"
   xmlns:svg="http://www.w3.org/2000/svg"
   xmlns:rdf="http://www.w3.org/1999/02/22-rdf-syntax-ns#"
   xmlns:cc="http://creativecommons.org/ns#"
   xmlns:dc="http://purl.org/dc/elements/1.1/"
   xmlns:a="http://ns.adobe.com/AdobeSVGViewerExtensions/3.0/"><defs
     id="defs4"><linearGradient
       id="linearGradient2"
       inkscape:collect="always"><stop
         style="stop-color:#65d2f2;stop-opacity:0.6901961"
         offset="0"
         id="stop10" /><stop
         style="stop-color:#ffffff;stop-opacity:1"
         offset="1"
         id="stop11" /></linearGradient><linearGradient
       id="linearGradient12"
       inkscape:collect="always"><stop
         style="stop-color:#0a5fac;stop-opacity:1"
         offset="0"
         id="stop12" /><stop
         style="stop-color:#3bc9f3;stop-opacity:1"
         offset="1"
         id="stop13" /></linearGradient><linearGradient
       id="XMLID_1_-9"
       gradientUnits="userSpaceOnUse"
       x1="128.9995"
       y1="11"
       x2="128.9995"
       y2="245.0005"><stop
         offset="0"
         style="stop-color:#494949"
         id="stop4132-6" /><stop
         offset="1"
         style="stop-color:#000000"
         id="stop4133-8" /><a:midPointStop
         offset="0"
         style="stop-color:#494949"
         id="midPointStop4134" /><a:midPointStop
         offset="0.5"
         style="stop-color:#494949"
         id="midPointStop4135" /><a:midPointStop
         offset="1"
         style="stop-color:#000000"
         id="midPointStop4136" /></linearGradient><linearGradient
       id="XMLID_2_-0"
       gradientUnits="userSpaceOnUse"
       x1="29.0532"
       y1="29.0532"
       x2="226.9471"
       y2="226.9471"><stop
         offset="0"
         style="stop-color:#FFFFFF"
         id="stop4140-9" /><stop
         offset="1"
         style="stop-color:#DADADA"
         id="stop4141-6" /><a:midPointStop
         offset="0"
         style="stop-color:#FFFFFF"
         id="midPointStop4142" /><a:midPointStop
         offset="0.5"
         style="stop-color:#FFFFFF"
         id="midPointStop4143" /><a:midPointStop
         offset="1"
         style="stop-color:#DADADA"
         id="midPointStop4144" /></linearGradient><linearGradient
       id="XMLID_3_-3"
       gradientUnits="userSpaceOnUse"
       x1="111.0884"
       y1="53.2495"
       x2="111.0884"
       y2="160.7919"><stop
         offset="0"
         style="stop-color:#616161"
         id="stop4152-8" /><stop
         offset="1"
         style="stop-color:#494949"
         id="stop4153-5" /><a:midPointStop
         offset="0"
         style="stop-color:#616161"
         id="midPointStop4154" /><a:midPointStop
         offset="0.5"
         style="stop-color:#616161"
         id="midPointStop4155" /><a:midPointStop
         offset="1"
         style="stop-color:#494949"
         id="midPointStop4156" /></linearGradient><linearGradient
       id="XMLID_4_-7"
       gradientUnits="userSpaceOnUse"
       x1="111.0425"
       y1="157.0293"
       x2="111.0425"
       y2="57.003399"><stop
         offset="0"
         style="stop-color:#828282"
         id="stop4159-2" /><stop
         offset="1"
         style="stop-color:#B2B2B2"
         id="stop4160-9" /><a:midPointStop
         offset="0"
         style="stop-color:#828282"
         id="midPointStop4161" /><a:midPointStop
         offset="0.5"
         style="stop-color:#828282"
         id="midPointStop4162" /><a:midPointStop
         offset="1"
         style="stop-color:#B2B2B2"
         id="midPointStop4163" /></linearGradient><linearGradient
       id="XMLID_5_-0"
       gradientUnits="userSpaceOnUse"
       x1="114.8843"
       y1="157.02831"
       x2="114.8843"
       y2="57.003601"><stop
         offset="0"
         style="stop-color:#828282"
         id="stop4166-6" /><stop
         offset="0.75"
         style="stop-color:#B2B2B2"
         id="stop4167-0" /><stop
         offset="1"
         style="stop-color:#FFFFFF"
         id="stop4168-0" /><a:midPointStop
         offset="0"
         style="stop-color:#828282"
         id="midPointStop4169" /><a:midPointStop
         offset="0.5"
         style="stop-color:#828282"
         id="midPointStop4170" /><a:midPointStop
         offset="0.75"
         style="stop-color:#B2B2B2"
         id="midPointStop4171" /><a:midPointStop
         offset="0.5"
         style="stop-color:#B2B2B2"
         id="midPointStop4172" /><a:midPointStop
         offset="1"
         style="stop-color:#FFFFFF"
         id="midPointStop4173" /></linearGradient><linearGradient
       id="XMLID_6_-8"
       gradientUnits="userSpaceOnUse"
       x1="142.3262"
       y1="90.817902"
       x2="142.3262"
       y2="198.3613"><stop
         offset="0"
         style="stop-color:#0053BD"
         id="stop4176-3" /><stop
         offset="1"
         style="stop-color:#00008D"
         id="stop4177-3" /><a:midPointStop
         offset="0"
         style="stop-color:#0053BD"
         id="midPointStop4178" /><a:midPointStop
         offset="0.5"
         style="stop-color:#0053BD"
         id="midPointStop4179" /><a:midPointStop
         offset="1"
         style="stop-color:#00008D"
         id="midPointStop4180" /></linearGradient><linearGradient
       id="XMLID_7_-9"
       gradientUnits="userSpaceOnUse"
       x1="142.27831"
       y1="194.5977"
       x2="142.27831"
       y2="94.5718"><stop
         offset="0"
         style="stop-color:#006DFF"
         id="stop4183-6" /><stop
         offset="1"
         style="stop-color:#57ADFF"
         id="stop4184-8" /><a:midPointStop
         offset="0"
         style="stop-color:#006DFF"
         id="midPointStop4185" /><a:midPointStop
         offset="0.5"
         style="stop-color:#006DFF"
         id="midPointStop4186" /><a:midPointStop
         offset="1"
         style="stop-color:#57ADFF"
         id="midPointStop4187" /></linearGradient><linearGradient
       id="XMLID_8_-7"
       gradientUnits="userSpaceOnUse"
       x1="146.12109"
       y1="194.59669"
       x2="146.12109"
       y2="94.571999"><stop
         offset="0"
         style="stop-color:#006DFF"
         id="stop4190-9" /><stop
         offset="0.75"
         style="stop-color:#57ADFF"
         id="stop4191-5" /><stop
         offset="1"
         style="stop-color:#FFFFFF"
         id="stop4192-5" /><a:midPointStop
         offset="0"
         style="stop-color:#006DFF"
         id="midPointStop4193" /><a:midPointStop
         offset="0.5"
         style="stop-color:#006DFF"
         id="midPointStop4194" /><a:midPointStop
         offset="0.75"
         style="stop-color:#57ADFF"
         id="midPointStop4195" /><a:midPointStop
         offset="0.5"
         style="stop-color:#57ADFF"
         id="midPointStop4196" /><a:midPointStop
         offset="1"
         style="stop-color:#FFFFFF"
         id="midPointStop4197" /></linearGradient><linearGradient
       id="linearGradient4948-199-3"><stop
         id="stop2912-0"
         offset="0"
         style="stop-color:#abd738;stop-opacity:1" /><stop
         id="stop2914-7"
         offset="1"
         style="stop-color:#518705;stop-opacity:1" /></linearGradient><linearGradient
       id="a7fee970-a784-4bb1-af8d-63d18e5f7db9"
       x1="-1027.165"
       x2="-997.48199"
       y1="147.642"
       y2="68.560997"
       gradientTransform="matrix(1.5625,0,0,-1.5625,2031.432,1374.1712)"
       gradientUnits="userSpaceOnUse"><stop
         offset="0"
         stop-color="#3ccbf4"
         id="stop8" /><stop
         offset="1"
         stop-color="#2892df"
         id="stop9" /></linearGradient><linearGradient
       id="ac2a6fc2-ca48-4327-9a3c-d4dcc3256e15"
       x1="-1023.725"
       x2="-1029.98"
       y1="108.083"
       y2="105.968"
       gradientTransform="matrix(1.5625,0,0,-1.5625,2031.432,1374.1712)"
       gradientUnits="userSpaceOnUse"><stop
         offset="0"
         stop-opacity=".3"
         id="stop3" /><stop
         offset=".071"
         stop-opacity=".2"
         id="stop4" /><stop
         offset=".321"
         stop-opacity=".1"
         id="stop5" /><stop
         offset=".623"
         stop-opacity=".05"
         id="stop6" /><stop
         offset="1"
         stop-opacity="0"
         id="stop7" /></linearGradient><linearGradient
       id="e399c19f-b68f-429d-b176-18c2117ff73c"
       x1="-1032.172"
       x2="-1059.213"
       y1="145.312"
       y2="65.426003"
       gradientTransform="matrix(1.5625,0,0,-1.5625,2031.432,1374.1712)"
       gradientUnits="userSpaceOnUse"><stop
         offset="0"
         stop-color="#114a8b"
         id="stop1" /><stop
         offset="1"
         stop-color="#0669bc"
         id="stop2" /></linearGradient><linearGradient
       inkscape:collect="always"
       xlink:href="#linearGradient12"
       id="linearGradient13"
       x1="116.88172"
       y1="1067.2018"
       x2="207.08618"
       y2="1067.2018"
       gradientUnits="userSpaceOnUse"
       gradientTransform="matrix(0.8747605,0,0,0.8747605,16.969872,133.69563)" /><linearGradient
       inkscape:collect="always"
       xlink:href="#linearGradient12"
       id="linearGradient15"
       x1="19.646446"
       y1="32"
       x2="28.707108"
       y2="32"
       gradientUnits="userSpaceOnUse" /><linearGradient
       inkscape:collect="always"
       xlink:href="#linearGradient12"
       id="linearGradient17"
       x1="161.98395"
       y1="1081.9291"
       x2="184.07484"
       y2="1081.9291"
       gradientUnits="userSpaceOnUse" /><linearGradient
       inkscape:collect="always"
       xlink:href="#linearGradient2"
       id="linearGradient11"
       x1="0"
       y1="1012.5196"
       x2="158.66702"
       y2="1099.4487"
       gradientUnits="userSpaceOnUse" /></defs><sodipodi:namedview
     id="base"
     pagecolor="#ffffff"
     bordercolor="#666666"
     borderopacity="1.0"
     inkscape:pageopacity="0.0"
     inkscape:pageshadow="2"
     inkscape:zoom="2.4007812"
     inkscape:cx="104.13277"
     inkscape:cy="120.16922"
     inkscape:document-units="px"
     inkscape:current-layer="layer1"
     showgrid="false"
     inkscape:window-width="1920"
     inkscape:window-height="1008"
     inkscape:window-x="0"
     inkscape:window-y="0"
     inkscape:window-maximized="1"
     borderlayer="true"
     showguides="false"
     inkscape:showpageshadow="0"
     inkscape:pagecheckerboard="0"
     inkscape:deskcolor="#d1d1d1" /><metadata
     id="metadata7"><rdf:RDF><cc:Work
         rdf:about=""><dc:format>image/svg+xml</dc:format><dc:type
           rdf:resource="http://purl.org/dc/dcmitype/StillImage" /><dc:title /></cc:Work></rdf:RDF></metadata><g
     inkscape:label="Capa 1"
     inkscape:groupmode="layer"
     id="layer1"
     transform="translate(0,-1012.5196)"><rect
       style="fill:url(#linearGradient11);stroke:none;stroke-width:1.9533;fill-opacity:1"
       id="rect2"
       width="235"
       height="110"
       x="0"
       y="1012.5196" /><g
       id="g3036"
       transform="matrix(0.67845299,0,0,0.67845299,1960.6369,-459.99638)"><path
         style="fill:#9b9ea0;stroke-width:1.06666672"
         d="m -321.6,1014.6468 c -26.09196,-1.2206 -44.5951,-5.013 -67.33063,-13.8 -23.31494,-9.01106 -38.37226,-18.30971 -59.75139,-36.89953 -6.97737,-6.06704 -21.66668,-22.2813 -23.69738,-26.15749 -2.07583,-3.96235 -1.4109,-9.21904 1.80821,-14.29506 1.66585,-2.62676 10.90585,-13.16981 20.53333,-23.42899 9.62749,-10.25919 21.82453,-23.41647 27.10453,-29.23841 15.50395,-17.0953 16.13414,-17.64099 20.37234,-17.64099 4.87288,0 7.11837,1.24827 14.53474,8.0799 17.42642,16.05245 41.54983,30.79461 60.99506,37.27498 10.40306,3.46694 27.88473,4.70712 38.14693,2.7062 12.87537,-2.51042 26.13532,-12.2945 31.23939,-23.05052 4.49206,-9.46631 1.20867,-20.21788 -9.92923,-32.51366 -9.50997,-10.49861 -17.92389,-15.71401 -59.35923,-36.79413 -33.22528,-16.90327 -38.25894,-19.69272 -53.87447,-29.85506 -36.81071,-23.95585 -61.69898,-53.63004 -72.89666,-86.91438 -1.59474,-4.74027 -3.40054,-14.08483 -4.43177,-22.93333 -4.79401,-41.1348 7.63283,-77.24192 36.90742,-107.23737 19.88623,-20.37591 46.24228,-34.6575 75.09548,-40.69211 65.25544,-13.64808 129.86723,4.28761 175.30741,48.66385 7.24575,7.07609 14.6278,14.69305 16.40457,16.92656 4.3167,5.4264 5.13806,12.10621 2.0821,16.93278 -3.00185,4.74109 -61.86844,63.64157 -65.47445,65.51214 -6.16482,3.19791 -9.46153,1.62514 -26.9863,-12.87442 -17.55039,-14.52077 -39.7078,-24.83269 -55.60644,-25.8789 -7.03837,-0.46317 -10.15462,-0.12555 -16.53334,1.79126 -14.06733,4.22726 -20.20731,9.49005 -23.36399,20.02608 -2.15901,7.20614 1.83038,16.08078 10.04057,22.33587 6.67792,5.08771 27.90109,16.64581 60.39653,32.89184 33.62764,16.81209 42.03074,21.45765 57.6,31.84345 29.63189,19.76657 46.61586,37.26624 58.4862,60.26202 13.44035,26.03731 18.02742,54.40182 14.18745,87.72929 -4.95869,43.03691 -33.39393,83.03304 -75.31037,105.92923 -5.88314,3.21357 -14.53661,7.3199 -19.22994,9.1251 -10.45565,4.0217 -31.17878,9.1658 -42.66667,10.5913 -9.94544,1.2341 -34.04813,2.0855 -44.8,1.5825 z m 346.133333,-0.4281 c -39.290442,-2.0853 -74.735562,-17.14161 -100.332522,-42.61911 -18.34015,-18.25453 -30.475331,-39.46852 -37.706731,-65.91654 -4.39394,-16.07037 -5.96366,-28.98852 -5.95265,-48.98802 0.0108,-19.60128 1.28798,-29.4533 5.64035,-43.5087 7.06793,-22.82489 17.180161,-39.32699 34.050209,-55.56639 12.680512,-12.20648 21.059062,-18.44303 33.368011,-24.83739 16.509835,-8.57666 26.910411,-11.79532 59.733333,-18.48563 2.966859,-0.60475 31.433878,-1.38812 64.15632,-1.76552 68.788497,-0.79334 63.334987,0.26769 63.273127,-12.3104 -0.11265,-22.90968 -10.78235,-46.34302 -24.2788,-53.3223 -5.6094,-2.90073 -18.668855,-5.97966 -25.26254,-5.95596 -17.279573,0.0621 -40.792149,9.24067 -59.400651,23.18811 -11.325429,8.48863 -14.947114,9.84698 -19.700512,7.3889 -3.764597,-1.94675 -62.558122,-61.29898 -65.497824,-66.12024 -4.407552,-7.22862 -2.330218,-11.77708 12.494528,-27.35759 15.741675,-16.54419 32.6971097,-29.62121 53.683019,-41.40346 9.861099,-5.53638 27.475765,-11.73368 43.733333,-15.38651 15.267862,-3.43048 15.823147,-3.47551 43.2,-3.50372 26.459377,-0.0273 28.394807,0.11094 42.133337,3.00846 45.72553,9.64377 77.41214,33.90918 97.98728,75.03806 7.33032,14.65299 14.29235,38.92022 17.19651,59.94097 2.19293,15.87274 2.23959,19.57816 2.27224,180.46257 0.0321,157.93542 -0.0427,164.38921 -1.94104,167.68921 -4.01777,6.9842 -3.80384,6.9613 -59.38479,6.3631 l -50.00312,-0.5382 -3.2222,-2.879 c -2.96209,-2.6467 -3.28115,-3.6213 -3.95242,-12.07289 -0.70939,-8.93161 -2.08281,-12.50752 -4.80381,-12.50752 -0.72791,0 -5.82913,3.04787 -11.33607,6.77306 -23.1105,15.63315 -44.188541,23.31275 -69.212583,25.21685 -7.333334,0.558 -14.053334,0.9528 -14.933334,0.8773 -0.88,-0.075 -8.08,-0.4812 -16,-0.9015 z M 72.299435,908.18275 c 25.11057,-4.99701 45.361185,-18.31966 56.659975,-37.27593 1.99435,-3.34597 5.30561,-10.98188 7.35838,-16.9687 3.43199,-10.00929 3.74102,-11.94335 3.84059,-24.03697 0.10219,-12.40728 -0.0273,-13.26213 -2.28647,-15.10006 -3.57253,-2.90639 -15.80801,-3.44174 -68.005243,-2.97553 -45.44687,0.40592 -45.949654,0.43446 -54.933334,3.11859 -17.183701,5.13409 -25.376458,11.30915 -31.533824,23.76773 -9.087914,18.38815 -4.33025,41.79099 11.548907,56.80883 7.2010667,6.81048 19.486635,12.91093 28.531317,14.16736 10.201792,1.41718 38.521952,0.54395 48.819702,-1.50532 z M 312.53485,1013.0454 c -1.80889,-0.3708 -4.29548,-1.5708 -5.52575,-2.6666 -5.43374,-4.84 -5.14243,12.3468 -5.14243,-303.39701 0,-272.92675 0.13071,-294.81518 1.78129,-298.29352 0.97972,-2.0646 3.25972,-4.66223 5.06666,-5.77253 3.13157,-1.9242 5.96858,-2.00569 60.5988,-1.74073 l 57.31343,0.27798 3.48657,3.48715 3.48658,3.48716 0.25405,297.84617 c 0.20074,235.34495 -0.0236,298.39353 -1.06906,300.45443 -0.72771,1.4346 -2.78508,3.4621 -4.57192,4.5057 -2.98031,1.7406 -7.75916,1.9218 -57.81908,2.1917 -30.01364,0.1619 -56.05025,-0.01 -57.85914,-0.3799 z m 389.33182,-0.5998 c -1.46667,-0.2477 -10.10667,-1.659 -19.2,-3.1364 -17.62358,-2.8632 -35.14859,-7.9978 -54.93334,-16.09461 -11.88693,-4.86467 -16.20522,-7.06468 -27.73333,-14.129 -3.52,-2.15702 -8.85781,-5.38827 -11.86176,-7.18053 -15.9568,-9.52052 -48.02571,-39.29444 -62.54347,-58.06764 -25.44192,-32.89941 -42.20074,-73.60968 -47.40245,-115.14908 -1.75917,-14.04848 -1.92453,-26.40994 -1.92507,-143.90201 -5.5e-4,-120.87014 0.11178,-128.73895 1.88411,-131.98195 3.72949,-6.82406 2.46645,-6.69096 62.86229,-6.62452 58.92683,0.0649 60.18326,0.17471 64.21824,5.61601 2.18838,2.95097 2.23787,4.10317 2.54582,59.2 l 0.31402,56.19046 2.64491,2.66666 2.6448,2.66667 54.64256,0.26991 c 60.94453,0.30103 57.81259,-0.0943 61.84096,7.80591 1.70229,3.33838 1.86517,8.33737 1.86667,57.29177 0,58.41481 -0.0459,58.91664 -5.99392,62.81611 -2.75563,1.80663 -7.03307,1.98875 -58.31755,2.48297 l -55.34389,0.53333 -2.03819,2.51816 C 608.91712,777.62283 608,780.3406 608,782.27733 c 0,10.6238 7.24149,33.89316 15.09621,48.509 8.04235,14.965 24.1024,31.83233 38.82347,40.77488 14.39563,8.74488 23.95552,12.50151 38.93323,15.29909 35.64394,6.65763 58.49024,1.08005 88.65696,-21.64415 11.6161,-8.75029 15.57888,-10.1143 21.09589,-7.26134 1.90805,0.98672 20.63232,18.93145 41.60939,39.8772 40.79296,40.73198 40.56757,40.44525 37.99136,48.31816 -1.52171,4.65042 -17.78368,18.93216 -33.74848,29.63907 -28.35115,19.01375 -60.77376,30.86986 -98.05803,35.85726 -10.35136,1.3847 -49.76544,1.9418 -56.53333,0.7991 z M 993.6,588.01753 c -3.52,-1.47325 -9.52,-3.40148 -13.33333,-4.28494 -11.24928,-2.60622 -19.06358,-5.83585 -27.59414,-11.40471 -4.41226,-2.88035 -13.08064,-8.10873 -19.26314,-11.61862 -6.1824,-3.50989 -15.08864,-9.64117 -19.79179,-13.62508 -4.70304,-3.98391 -13.55723,-10.96269 -19.67595,-15.50838 -6.11882,-4.5457 -14.23232,-11.44294 -18.02997,-15.32719 -9.35701,-9.57032 -25.64107,-32.44567 -32.36299,-45.46228 -3.02954,-5.86667 -7.90336,-13.78667 -10.83072,-17.6 -10.72746,-13.9743 -15.4064,-28.00621 -14.12394,-42.35747 0.75818,-8.48482 -0.56512,-24.11716 -3.6496,-43.11234 -2.87126,-17.68187 -3.79179,-38.9251 -2.1791,-50.28631 1.5279,-10.76291 0.98336,-13.16146 -4.9393,-21.76103 -5.48843,-7.96886 -5.71051,-12.62781 -1.38219,-28.98636 1.90827,-7.212 4.49664,-14.63909 5.75189,-16.50461 3.13654,-4.66142 8.78507,-6.40749 18.20427,-5.62722 14.10325,1.16826 41.62528,2.81679 62.55456,3.7469 22.32704,0.99222 25.9328,1.81661 28.37963,6.48844 1.90901,3.64491 1.16192,8.20684 -3.49376,21.33333 -4.4831,12.63983 -5.52918,23.15372 -2.59659,26.09573 0.90411,0.90702 4.83968,2.53529 8.7456,3.61838 14.66005,4.06511 16.3584,6.67396 16.04064,24.6407 -0.62165,35.14746 14.99797,74.81452 38.10325,96.76549 16.34688,15.53022 23.38807,20.50179 41.22177,29.1056 11.1206,5.36514 17.8306,9.23781 18.9404,10.9316 0.9452,1.44267 2.153,6.08179 2.6838,10.30917 1.1803,9.39942 2.5865,11.65348 10.7126,17.17187 5.1442,3.49331 6.615,5.15998 7.6744,8.69599 1.2874,4.2968 1.1997,4.58512 -4.9471,16.25327 -3.4417,6.53337 -9.1935,16.2033 -12.7817,21.48872 -3.5882,5.28542 -8.1347,13.68542 -10.1033,18.66667 -4.8937,12.38254 -8.7111,18.91542 -14.1379,24.19485 -7.699,7.48981 -13.1821,8.40223 -23.7963,3.95983 z m 244.7842,-58.95768 c -2.0447,-1.09623 -7.5575,-4.26849 -12.2509,-7.04948 -4.6933,-2.78098 -16.4533,-9.18719 -26.1333,-14.236 -18.8421,-9.82756 -38.8186,-21.32295 -41.8667,-24.09218 -3.9999,-3.63389 -1.9032,-8.01629 6.1524,-12.85996 10.4302,-6.27141 19.8523,-13.35713 25.4645,-19.15002 8.6269,-8.90457 22.9804,-26.49886 27.8702,-34.16266 5.2811,-8.27724 13.2944,-25.24327 14.0058,-29.654 0.7716,-4.7826 -2.4081,-7.46864 -12.2929,-10.38484 -9.2703,-2.73489 -12.9333,-5.83536 -12.9333,-10.94687 0,-1.95771 0.7691,-9.29952 1.7091,-16.31516 6.5824,-49.12678 -17.1872,-100.75983 -59.0002,-128.16225 -9.4753,-6.20969 -14.4554,-8.61157 -30.4049,-14.66426 -15.714,-5.96329 -17.8902,-9.70821 -14.1129,-24.2856 0.9118,-3.51874 1.5118,-8.14802 1.3334,-10.2873 -0.2786,-3.34014 -0.9273,-4.19099 -4.5912,-6.02294 -3.9571,-1.97859 -6.4377,-2.13573 -34.1963,-2.16633 -27.9216,-0.0308 -30.1495,-0.17393 -33.204,-2.13333 -1.8008,-1.15519 -11.8389,-11.22034 -22.3069,-22.36701 -10.4679,-11.14667 -24.84733,-26.26667 -31.95421,-33.6 -7.10677,-7.333338 -13.72032,-14.520143 -14.69674,-15.970682 -2.40683,-3.575801 -2.32566,-10.933853 0.14538,-13.170086 4.79296,-4.337557 39.39367,-15.823373 53.54617,-17.774793 4.4,-0.606696 11.84,-1.935028 16.5333,-2.951846 6.9397,-1.503513 13.9116,-1.842537 37.3333,-1.815435 26.2711,0.0304 30.3409,0.288879 46.3485,2.943583 9.6516,1.600642 22.0174,4.341782 27.4795,6.091423 5.462,1.749641 10.4524,3.181165 11.0896,3.181165 4.9589,0 45.66,19.078192 61.8001,28.968117 17.1895,10.533024 42.0664,30.946434 45.2755,37.151944 0.8837,1.70903 1.6086,5.65117 1.6108,8.7603 0,6.82194 1.1466,8.84995 12.8935,22.90069 15.2688,18.2633 29.2502,41.41098 39.8252,65.93478 5.8577,13.58442 13.0395,35.46027 14.3631,43.75084 0.562,3.52 2.1192,12.16 3.4606,19.2 2.1317,11.18884 2.4399,16.15657 2.4483,39.46667 0.011,24.42396 -0.2295,27.93604 -2.8337,41.76004 -3.2272,17.13167 -4.9531,22.05181 -8.3784,23.88495 -3.4327,1.83712 -14.6152,0.7427 -26.0492,-2.5494 -9.5433,-2.74769 -29.0505,-6.58607 -39.7104,-7.81372 -6.5047,-0.74909 -8.0138,0.922 -5.506,6.09672 1.4528,2.99764 19.1552,22.33629 41.108,44.90743 10.1644,10.45066 11.0417,11.68163 11.0417,15.4925 0,4.87142 -6.3903,16.77656 -14.6191,27.2354 -2.9076,3.69568 -6.9096,9.11941 -8.8933,12.05274 -5.1734,7.65011 -23.8082,27.68467 -30.3318,32.60995 -6.3549,4.79808 -10.6564,5.36832 -16.5716,2.19691 z"
         id="path3050"
         inkscape:connector-curvature="0" /><path
         style="fill:#e3c608;stroke-width:1.06666672"
         d="m -316.26667,1012.4035 c -25.9673,-0.7594 -47.89704,-4.6768 -67.13673,-11.9931 -23.87072,-9.07733 -37.08487,-16.53564 -55.65951,-31.41527 -9.1818,-7.3553 -27.12859,-25.64485 -30.42765,-31.0088 -4.3086,-7.00538 -1.93702,-11.52244 16.26373,-30.977 6.56382,-7.01599 19.61692,-21.07937 29.00686,-31.25195 9.38995,-10.17259 18.16539,-18.99352 19.50098,-19.60205 3.8163,-1.73882 7.71073,-0.10892 14.1887,5.93825 19.2273,17.94868 43.142,32.64819 63.59696,39.09076 9.42595,2.96883 29.42737,4.08521 39.16788,2.18616 13.1503,-2.56385 26.09133,-11.98819 31.7951,-23.15485 3.77165,-7.384 3.5407,-16.10036 -0.62963,-23.76263 -4.59452,-8.44164 -15.77928,-19.87734 -25.70183,-26.27846 -4.82244,-3.111 -24.03734,-13.44221 -42.69979,-22.95825 -33.25785,-16.95827 -53.1625,-28.45203 -65.93173,-38.07165 -24.06432,-18.1287 -42.96945,-39.30003 -53.06409,-59.425 -19.92998,-39.73303 -16.41797,-90.227 8.87536,-127.60551 5.94039,-8.7787 23.83164,-26.7414 34.05539,-34.19138 17.16348,-12.5069 36.54721,-20.76888 58.87178,-25.09312 13.81108,-2.67518 17.49186,-2.95711 38.72822,-2.9664 21.53024,-0.01 24.61425,0.23152 37.37367,2.91984 15.36842,3.23801 35.17866,9.55497 44.22633,14.10262 10.87656,5.46689 28.87819,16.74018 36.5986,22.91938 11.65509,9.32842 30.0511,28.74844 31.55814,33.31482 2.32359,7.04054 0.38973,9.55232 -33.3115,43.26642 -30.91926,30.93107 -31.2265,31.2 -35.64337,31.2 -3.73681,0 -5.3648,-0.7757 -10.09524,-4.8101 -37.37765,-31.87784 -67.59946,-41.457 -93.75809,-29.7177 -13.90232,6.23898 -20.35998,20.40716 -14.66413,32.17321 5.04877,10.42935 11.26519,14.40317 67.04893,42.86073 52.95874,27.0164 67.03578,35.75601 88.84843,55.16071 24.3078,21.62441 39.36667,50.3778 43.474,83.0092 2.14978,17.07924 0.8162,40.891 -3.16561,56.52395 -9.56038,37.53489 -35.01676,68.95077 -72.05752,88.92664 -27.5669,14.86663 -60.8774,21.81213 -99.23264,20.69053 z m 331.200003,-1.0111 c -10.712245,-1.392 -33.356992,-7.2856 -43.603861,-11.3484 -40.796576,-16.17561 -71.722132,-52.09161 -82.825472,-96.19101 -4.76203,-18.91346 -6.2971,-34.335 -5.51204,-55.37457 0.57478,-15.40405 1.03897,-18.57513 4.53915,-31.00905 4.25674,-15.1215 10.57654,-28.79151 18.871546,-40.82004 5.517515,-8.0009 21.188779,-23.74309 30.950773,-31.09084 16.273856,-12.24917 37.60528,-20.96729 64.7799043,-26.47545 L 20.8,715.2994 76.266667,714.89652 c 30.506663,-0.22159 57.053443,-0.66379 58.992833,-0.9827 6.26491,-1.03016 7.67888,-3.53487 7.63662,-13.52749 -0.0966,-22.8393 -8.57424,-43.72837 -21.56636,-53.13981 -6.93322,-5.02239 -20.21124,-8.92494 -30.12976,-8.85545 -16.726304,0.11721 -44.185259,10.53407 -59.37584,22.52491 -9.655072,7.62133 -11.748299,8.78915 -15.82416,8.82839 -3.493067,0.0336 -5.727893,-1.97936 -34.725013,-31.27816 -17.831296,-18.01681 -31.790304,-32.99709 -32.872374,-35.27739 -1.822549,-3.84073 -1.813248,-4.10198 0.30063,-8.44955 2.737429,-5.63001 19.108661,-23.25234 29.457621,-31.70877 26.283872,-21.47733 52.654304,-34.33466 82.446496,-40.19814 13.220843,-2.60201 16.898933,-2.87533 39.125973,-2.90729 22.524897,-0.0324 25.791907,0.20774 39.906947,2.93333 17.30157,3.34091 28.03013,7.09254 42.63598,14.90925 40.29946,21.56732 65.9284,64.32932 72.69103,121.28534 1.98761,16.74004 2.08996,25.43254 2.09454,177.90093 0.005,172.84848 0.25298,165.16298 -5.45316,169.15968 -2.20718,1.546 -7.85821,1.7394 -50.8136,1.7394 -52.93265,0 -54.29037,-0.1441 -56.5353,-6.0021 -0.64594,-1.6855 -1.37543,-6.76719 -1.62108,-11.2926 -0.75587,-13.92396 -3.40249,-14.58721 -17.8985,-4.48537 -15.38419,10.72077 -30.874398,18.09157 -46.140681,21.95527 -12.302282,3.1137 -14.258144,3.3051 -36.466176,3.5698 -12.906666,0.1538 -25.146666,0.061 -27.2,-0.2056 z M 68.266667,911.18278 c 20.075616,-3.27014 35.816333,-10.22356 47.612673,-21.03276 9.16057,-8.39401 15.47901,-17.13466 19.71731,-27.27611 5.14052,-12.30032 6.31705,-17.61016 7.00015,-31.59284 0.71339,-14.60276 -0.5359,-19.00162 -5.8162,-20.47929 -1.60266,-0.4485 -27.87393,-0.81545 -58.3806,-0.81545 -54.751957,0 -55.576139,0.0317 -63.962549,2.45961 -17.4259523,5.04494 -26.70752,12.12076 -33.241771,25.34191 -3.29536,6.66771 -3.933867,9.16909 -4.390656,17.20043 -0.964672,16.96133 4.684789,31.04039 17.0848747,42.57732 8.503264,7.91136 18.0247253,12.64652 28.5101013,14.17849 4.4,0.64286 9.2,1.37376 10.666667,1.6242 4.58416,0.78279 24.61088,-0.46063 35.2,-2.18551 z m 241.737113,97.65412 c -1.5495,-1.2188 -3.2972,-3.1128 -3.88378,-4.2088 -0.70343,-1.3144 -1.07178,-102.65007 -1.08196,-297.67088 -0.0141,-269.13827 0.13759,-295.91165 1.68955,-298.28025 3.68474,-5.62362 4.63741,-5.70528 62.82901,-5.38578 52.67668,0.28922 53.81593,0.34001 56.76612,2.5313 1.65584,1.22988 3.60354,3.38988 4.32822,4.8 1.03621,2.01627 1.32096,65.3936 1.33334,296.75014 0.014,260.89217 -0.16741,294.54037 -1.60234,297.31527 -3.33231,6.444 -2.55488,6.3651 -62.71845,6.3651 -53.90971,0 -54.89037,-0.038 -57.65971,-2.2161 z m 396.66289,1.5432 c -1.76,-0.2748 -9.88555,-1.4449 -18.05664,-2.6001 -20.6831,-2.9241 -36.7472,-7.3302 -57.14336,-15.67341 -48.15488,-19.69812 -93.0959,-58.38404 -119.76352,-103.09411 -11.3119,-18.96532 -20.17814,-40.14736 -25.4543,-60.81247 -6.75242,-26.4468 -6.46826,-20.68816 -7.18826,-145.68035 C 478.69728,619.45299 478.64,558.14262 478.93333,546.2744 l 0.53334,-21.5786 2.95776,-2.95473 2.95786,-2.95474 h 55.75616 c 51.92107,0 55.95787,0.13222 58.68971,1.92245 1.61355,1.05734 3.39232,3.1286 3.95275,4.60277 0.59498,1.56472 1.04416,24.73894 1.07925,55.67755 0.0437,38.12274 0.4176,54.04504 1.33333,56.73056 0.86731,2.54304 2.46347,4.32795 5.00651,5.59835 3.40235,1.69963 8.38688,1.86515 56.21643,1.86666 35.4609,10e-4 53.3072,0.3771 55.02378,1.15921 1.39734,0.63666 3.43776,2.67647 4.5344,4.53293 1.88672,3.19388 1.98016,6.30014 1.73846,57.77577 -0.23734,50.54583 -0.392,54.58936 -2.18411,57.06708 -3.64309,5.03692 -5.67573,5.20894 -62.31083,5.27313 l -53.11509,0.0602 -2.61824,2.61819 c -2.07232,2.07241 -2.61813,3.71546 -2.61813,7.88216 0,18.35355 11.30709,48.06303 24.704,64.90994 16.94613,21.31006 41.46837,36.783 67.56266,42.63036 10.63766,2.38374 15.32267,2.86244 27.73334,2.83362 13.48469,-0.0312 15.92928,-0.34184 25.19957,-3.20114 11.59221,-3.57549 26.92608,-11.65798 37.20939,-19.61326 14.05952,-10.87649 17.5729,-11.82754 24.41472,-6.609 3.9537,3.01563 61.67136,60.48628 70.72981,70.42709 8.27467,9.0808 7.09387,12.70528 -8.43541,25.89218 -31.12779,26.43258 -69.27542,43.44837 -111.25142,49.62397 -10.86144,1.598 -50.59477,2.9439 -57.06666,1.933 z M 993.6,588.01753 c -3.52,-1.47325 -9.52,-3.40148 -13.33333,-4.28494 -11.24928,-2.60622 -19.06358,-5.83585 -27.59414,-11.40471 -4.41226,-2.88035 -13.08064,-8.10873 -19.26314,-11.61862 -6.1824,-3.50989 -15.08864,-9.64117 -19.79179,-13.62508 -4.70304,-3.98391 -13.55723,-10.96269 -19.67595,-15.50838 -6.11882,-4.5457 -14.23232,-11.44294 -18.02997,-15.32719 -9.35701,-9.57032 -25.64107,-32.44567 -32.36299,-45.46228 -3.02954,-5.86667 -7.8464,-13.72021 -10.7041,-17.4523 -5.35382,-6.99192 -9.47648,-14.35739 -12.27936,-21.93837 -1.18614,-3.20799 -1.70304,-10.19545 -1.97835,-26.74267 -0.28171,-16.93509 -0.92277,-25.39269 -2.62752,-34.66666 -1.296,-7.04995 -2.50848,-19.20173 -2.8512,-28.57385 -0.53035,-14.50549 -0.33205,-17.40385 1.79477,-26.23326 2.68886,-11.16294 2.77643,-10.77113 -4.74837,-21.25656 -5.38805,-7.50799 -5.57013,-10.29725 -1.66347,-25.48312 3.61526,-14.05325 4.93803,-16.8851 9.1872,-19.6693 2.88683,-1.89147 8.23542,-1.75452 72.98838,1.86878 31.51541,1.76347 32.32597,2.46055 25.72202,22.12158 -5.58794,16.63637 -6.93877,23.54637 -5.5712,28.4992 1.56672,5.67408 4.08811,8.15913 6.80384,6.70571 2.96342,-1.58596 9.64587,-0.51296 13.38443,2.14916 5.34357,3.80501 7.58144,11.00792 8.73867,28.12695 0.56554,8.36626 1.5408,17.37137 2.16725,20.01137 5.10048,21.49435 14.04949,41.38484 26.35979,58.58892 10.12309,14.14739 29.45525,30.36993 46.34793,38.89268 13.4075,6.76442 21.2059,12.03922 23.9176,16.1778 0.9927,1.51503 2.1874,5.17431 2.6549,8.13174 1.1188,7.07776 2.8712,9.53348 10.5,14.71407 5.1442,3.49331 6.615,5.15998 7.6744,8.69599 1.2874,4.2968 1.1997,4.58512 -4.9471,16.25327 -3.4417,6.53337 -9.1935,16.2033 -12.7817,21.48872 -3.5882,5.28542 -8.1347,13.68542 -10.1033,18.66667 -4.8937,12.38254 -8.7111,18.91542 -14.1379,24.19485 -7.699,7.48981 -13.1821,8.40223 -23.7963,3.95983 z m 246.2457,-67.04089 c -1.8448,-0.80273 -5.2285,-3.15278 -7.5193,-5.22233 -2.5444,-2.29873 -6.214,-4.27876 -9.431,-5.08883 -2.8965,-0.72931 -9.5928,-3.52702 -14.8808,-6.21714 -5.288,-2.69011 -12.5205,-6.22412 -16.0723,-7.85334 -3.5517,-1.62922 -9.3307,-5.46267 -12.8421,-8.51878 -3.5116,-3.05611 -7.5108,-6.29868 -8.8872,-7.20571 l -2.5025,-1.64916 3.0781,-1.95885 c 1.6929,-1.07739 4.2052,-3.35109 5.5829,-5.05267 1.3776,-1.70158 4.8221,-4.26808 7.6544,-5.70332 2.9296,-1.4845 5.4687,-3.61463 5.8896,-4.94088 0.4071,-1.28223 4.1625,-5.79885 8.3456,-10.03692 18.3966,-18.63844 23.9233,-25.45425 26.7676,-33.01093 1.5106,-4.01314 3.2336,-7.88361 3.829,-8.60104 0.5954,-0.71743 2.49,-4.2098 4.2101,-7.76081 4.9587,-10.23654 8.6414,-10.92812 15.6942,-2.94719 2.2209,2.51318 5.9989,5.80229 8.3953,7.30913 2.3966,1.50682 7.1966,5.9747 10.6667,9.92858 3.4702,3.95389 7.7493,8.70629 9.5093,10.56089 1.76,1.85459 6.32,7.157 10.1334,11.78312 3.8133,4.62614 8.4933,9.91179 10.4,11.74591 1.9066,1.83413 3.4666,4.33594 3.4666,5.5596 0,4.96104 -6.4677,16.56892 -13.1482,23.59779 -3.7077,3.90091 -7.7988,8.94154 -9.0913,11.2014 -3.4144,5.96931 -18.9507,22.58105 -25.6675,27.4442 -6.206,4.49343 -8.3555,4.91083 -13.5806,2.63728 z m -8.9028,-22.99031 c 0.9565,0 0.5293,-5.73179 -0.5584,-7.49165 -0.7865,-1.27279 -4.4501,-1.37901 -5.209,-0.15102 -0.3029,0.48987 0,2.66816 0.6617,4.84065 0.8223,2.679 1.6937,3.7653 2.7082,3.37601 0.8226,-0.3157 1.9015,-0.57399 2.3975,-0.57399 z m 78.3407,-103.98632 c -4.7206,-1.39668 -13.1206,-3.32006 -18.6666,-4.27418 -5.5461,-0.95411 -14.8221,-2.929 -20.6136,-4.38865 -7.8928,-1.98927 -12.7232,-2.5796 -19.288,-2.35723 -8.1757,0.27692 -8.986,0.10485 -12.1853,-2.5871 -1.8849,-1.58607 -5.4453,-3.40233 -7.912,-4.03616 -18.6825,-4.80062 -20.5063,-6.0728 -19.632,-13.69418 2.8715,-25.02815 3.0822,-29.46251 1.924,-40.48737 -3.8343,-36.49715 -20.7235,-69.25469 -48.0882,-93.26958 -12.8073,-11.23945 -24.3989,-17.88626 -42.551,-24.39936 -15.3091,-5.49307 -17.2192,-8.43272 -13.4824,-20.75035 1.6639,-5.48492 2.0729,-11.85933 0.9489,-14.7884 -1.3374,-3.48531 -8.1458,-5.39319 -26.6593,-7.4707 -3.0003,-0.33669 -13.2447,-0.1177 -22.7651,0.48664 -11.9044,0.75566 -18.5883,0.75457 -21.4036,-0.003 -3.3538,-0.90308 -7.818,-4.99726 -24.7015,-22.65394 -11.3343,-11.85341 -26.41686,-27.58143 -33.5167,-34.95116 -22.07552,-22.914831 -21.43637,-24.768457 12.37547,-35.887417 9.09773,-2.991769 21.46973,-5.97912 33.60003,-8.113078 18.3317,-3.224921 20.4299,-3.374152 46.4,-3.300102 32.1856,0.09178 48.0041,2.065495 72.5333,9.050141 38.8283,11.056309 78.7705,32.545773 106.4749,57.284986 9.4135,8.40605 10.8584,10.96817 10.8584,19.25459 0,3.51095 0.4624,7.59965 1.0276,9.08601 0.5651,1.48636 4.6837,6.9176 9.1526,12.06944 9.7364,11.22444 23.6856,31.84242 31.9562,47.23363 19.8857,37.00721 28.9652,72.45254 30.0785,117.42358 0.4966,20.05977 0.2767,24.93433 -1.708,37.86667 -3.4035,22.17787 -4.3713,25.88649 -7.3712,28.24617 -3.3529,2.63751 -6.2189,2.53688 -16.7854,-0.5894 z"
         id="path3048"
         inkscape:connector-curvature="0" /><path
         style="fill:#759296;stroke-width:1.06666672"
         d="m -316.26667,1012.4035 c -25.9673,-0.7594 -47.89704,-4.6768 -67.13673,-11.9931 -23.87072,-9.07733 -37.08487,-16.53564 -55.65951,-31.41527 -9.1818,-7.3553 -27.12859,-25.64485 -30.42765,-31.0088 -4.3086,-7.00538 -1.93702,-11.52244 16.26373,-30.977 6.56382,-7.01599 19.61692,-21.07937 29.00686,-31.25195 9.38995,-10.17259 18.16539,-18.99352 19.50098,-19.60205 3.8163,-1.73882 7.71073,-0.10892 14.1887,5.93825 19.2273,17.94868 43.142,32.64819 63.59696,39.09076 9.42595,2.96883 29.42737,4.08521 39.16788,2.18616 13.1503,-2.56385 26.09133,-11.98819 31.7951,-23.15485 3.77165,-7.384 3.5407,-16.10036 -0.62963,-23.76263 -4.59452,-8.44164 -15.77928,-19.87734 -25.70183,-26.27846 -4.82244,-3.111 -24.03734,-13.44221 -42.69979,-22.95825 -33.25785,-16.95827 -53.1625,-28.45203 -65.93173,-38.07165 -24.06432,-18.1287 -42.96945,-39.30003 -53.06409,-59.425 -19.92998,-39.73303 -16.41797,-90.227 8.87536,-127.60551 5.94039,-8.7787 23.83164,-26.7414 34.05539,-34.19138 17.16348,-12.5069 36.54721,-20.76888 58.87178,-25.09312 13.81108,-2.67518 17.49186,-2.95711 38.72822,-2.9664 21.53024,-0.01 24.61425,0.23152 37.37367,2.91984 15.36842,3.23801 35.17866,9.55497 44.22633,14.10262 10.87656,5.46689 28.87819,16.74018 36.5986,22.91938 11.65509,9.32842 30.0511,28.74844 31.55814,33.31482 2.32359,7.04054 0.38973,9.55232 -33.3115,43.26642 -30.91926,30.93107 -31.2265,31.2 -35.64337,31.2 -3.73681,0 -5.3648,-0.7757 -10.09524,-4.8101 -37.37765,-31.87784 -67.59946,-41.457 -93.75809,-29.7177 -13.90232,6.23898 -20.35998,20.40716 -14.66413,32.17321 5.04877,10.42935 11.26519,14.40317 67.04893,42.86073 52.95874,27.0164 67.03578,35.75601 88.84843,55.16071 24.3078,21.62441 39.36667,50.3778 43.474,83.0092 2.14978,17.07924 0.8162,40.891 -3.16561,56.52395 -9.56038,37.53489 -35.01676,68.95077 -72.05752,88.92664 -27.5669,14.86663 -60.8774,21.81213 -99.23264,20.69053 z m 331.200003,-1.0111 c -10.712245,-1.392 -33.356992,-7.2856 -43.603861,-11.3484 -40.796576,-16.17561 -71.722132,-52.09161 -82.825472,-96.19101 -4.76203,-18.91346 -6.2971,-34.335 -5.51204,-55.37457 0.57478,-15.40405 1.03897,-18.57513 4.53915,-31.00905 4.25674,-15.1215 10.57654,-28.79151 18.871546,-40.82004 5.517515,-8.0009 21.188779,-23.74309 30.950773,-31.09084 16.273856,-12.24917 37.60528,-20.96729 64.7799043,-26.47545 L 20.8,715.2994 76.266667,714.89652 c 30.506663,-0.22159 57.053443,-0.66379 58.992833,-0.9827 6.26491,-1.03016 7.67888,-3.53487 7.63662,-13.52749 -0.0966,-22.8393 -8.57424,-43.72837 -21.56636,-53.13981 -6.93322,-5.02239 -20.21124,-8.92494 -30.12976,-8.85545 -16.726304,0.11721 -44.185259,10.53407 -59.37584,22.52491 -9.655072,7.62133 -11.748299,8.78915 -15.82416,8.82839 -3.493067,0.0336 -5.727893,-1.97936 -34.725013,-31.27816 -17.831296,-18.01681 -31.790304,-32.99709 -32.872374,-35.27739 -1.822549,-3.84073 -1.813248,-4.10198 0.30063,-8.44955 2.737429,-5.63001 19.108661,-23.25234 29.457621,-31.70877 26.283872,-21.47733 52.654304,-34.33466 82.446496,-40.19814 13.220843,-2.60201 16.898933,-2.87533 39.125973,-2.90729 22.524897,-0.0324 25.791907,0.20774 39.906947,2.93333 17.30157,3.34091 28.03013,7.09254 42.63598,14.90925 40.29946,21.56732 65.9284,64.32932 72.69103,121.28534 1.98761,16.74004 2.08996,25.43254 2.09454,177.90093 0.005,172.84848 0.25298,165.16298 -5.45316,169.15968 -2.20718,1.546 -7.85821,1.7394 -50.8136,1.7394 -52.93265,0 -54.29037,-0.1441 -56.5353,-6.0021 -0.64594,-1.6855 -1.37543,-6.76719 -1.62108,-11.2926 -0.75587,-13.92396 -3.40249,-14.58721 -17.8985,-4.48537 -15.38419,10.72077 -30.874398,18.09157 -46.140681,21.95527 -12.302282,3.1137 -14.258144,3.3051 -36.466176,3.5698 -12.906666,0.1538 -25.146666,0.061 -27.2,-0.2056 z M 68.266667,911.18278 c 20.075616,-3.27014 35.816333,-10.22356 47.612673,-21.03276 9.16057,-8.39401 15.47901,-17.13466 19.71731,-27.27611 5.14052,-12.30032 6.31705,-17.61016 7.00015,-31.59284 0.71339,-14.60276 -0.5359,-19.00162 -5.8162,-20.47929 -1.60266,-0.4485 -27.87393,-0.81545 -58.3806,-0.81545 -54.751957,0 -55.576139,0.0317 -63.962549,2.45961 -17.4259523,5.04494 -26.70752,12.12076 -33.241771,25.34191 -3.29536,6.66771 -3.933867,9.16909 -4.390656,17.20043 -0.964672,16.96133 4.684789,31.04039 17.0848747,42.57732 8.503264,7.91136 18.0247253,12.64652 28.5101013,14.17849 4.4,0.64286 9.2,1.37376 10.666667,1.6242 4.58416,0.78279 24.61088,-0.46063 35.2,-2.18551 z m 241.737113,97.65412 c -1.5495,-1.2188 -3.2972,-3.1128 -3.88378,-4.2088 -0.70343,-1.3144 -1.07178,-102.65007 -1.08196,-297.67088 -0.0141,-269.13827 0.13759,-295.91165 1.68955,-298.28025 3.68474,-5.62362 4.63741,-5.70528 62.82901,-5.38578 52.67668,0.28922 53.81593,0.34001 56.76612,2.5313 1.65584,1.22988 3.60354,3.38988 4.32822,4.8 1.03621,2.01627 1.32096,65.3936 1.33334,296.75014 0.014,260.89217 -0.16741,294.54037 -1.60234,297.31527 -3.33231,6.444 -2.55488,6.3651 -62.71845,6.3651 -53.90971,0 -54.89037,-0.038 -57.65971,-2.2161 z m 396.66289,1.5432 c -1.76,-0.2748 -9.88555,-1.4449 -18.05664,-2.6001 -20.6831,-2.9241 -36.7472,-7.3302 -57.14336,-15.67341 -48.15488,-19.69812 -93.0959,-58.38404 -119.76352,-103.09411 -11.3119,-18.96532 -20.17814,-40.14736 -25.4543,-60.81247 -6.75242,-26.4468 -6.46826,-20.68816 -7.18826,-145.68035 C 478.69728,619.45299 478.64,558.14262 478.93333,546.2744 l 0.53334,-21.5786 2.95776,-2.95473 2.95786,-2.95474 h 55.75616 c 51.92107,0 55.95787,0.13222 58.68971,1.92245 1.61355,1.05734 3.39232,3.1286 3.95275,4.60277 0.59498,1.56472 1.04416,24.73894 1.07925,55.67755 0.0437,38.12274 0.4176,54.04504 1.33333,56.73056 0.86731,2.54304 2.46347,4.32795 5.00651,5.59835 3.40235,1.69963 8.38688,1.86515 56.21643,1.86666 35.4609,10e-4 53.3072,0.3771 55.02378,1.15921 1.39734,0.63666 3.43776,2.67647 4.5344,4.53293 1.88672,3.19388 1.98016,6.30014 1.73846,57.77577 -0.23734,50.54583 -0.392,54.58936 -2.18411,57.06708 -3.64309,5.03692 -5.67573,5.20894 -62.31083,5.27313 l -53.11509,0.0602 -2.61824,2.61819 c -2.07232,2.07241 -2.61813,3.71546 -2.61813,7.88216 0,18.35355 11.30709,48.06303 24.704,64.90994 16.94613,21.31006 41.46837,36.783 67.56266,42.63036 10.63766,2.38374 15.32267,2.86244 27.73334,2.83362 13.48469,-0.0312 15.92928,-0.34184 25.19957,-3.20114 11.59221,-3.57549 26.92608,-11.65798 37.20939,-19.61326 14.05952,-10.87649 17.5729,-11.82754 24.41472,-6.609 3.9537,3.01563 61.67136,60.48628 70.72981,70.42709 8.27467,9.0808 7.09387,12.70528 -8.43541,25.89218 -31.12779,26.43258 -69.27542,43.44837 -111.25142,49.62397 -10.86144,1.598 -50.59477,2.9439 -57.06666,1.933 z M 1239.8457,520.97664 c -1.8448,-0.80273 -5.2285,-3.15278 -7.5193,-5.22233 -2.5444,-2.29873 -6.214,-4.27876 -9.431,-5.08883 -2.8965,-0.72931 -9.5928,-3.52702 -14.8808,-6.21714 -5.288,-2.69011 -12.5205,-6.22412 -16.0723,-7.85334 -3.5517,-1.62922 -9.3307,-5.46267 -12.8421,-8.51878 -3.5116,-3.05611 -7.5108,-6.29868 -8.8872,-7.20571 l -2.5025,-1.64916 3.0781,-1.95885 c 1.6929,-1.07739 4.2052,-3.35109 5.5829,-5.05267 1.3776,-1.70158 4.8221,-4.26808 7.6544,-5.70332 2.9296,-1.4845 5.4687,-3.61463 5.8896,-4.94088 0.4071,-1.28223 4.1625,-5.79885 8.3456,-10.03692 18.3966,-18.63844 23.9233,-25.45425 26.7676,-33.01093 1.5106,-4.01314 3.2336,-7.88361 3.829,-8.60104 0.5954,-0.71743 2.49,-4.2098 4.2101,-7.76081 4.9587,-10.23654 8.6414,-10.92812 15.6942,-2.94719 2.2209,2.51318 5.9989,5.80229 8.3953,7.30913 2.3966,1.50682 7.1966,5.9747 10.6667,9.92858 3.4702,3.95389 7.7493,8.70629 9.5093,10.56089 1.76,1.85459 6.32,7.157 10.1334,11.78312 3.8133,4.62614 8.4933,9.91179 10.4,11.74591 1.9066,1.83413 3.4666,4.33594 3.4666,5.5596 0,4.96104 -6.4677,16.56892 -13.1482,23.59779 -3.7077,3.90091 -7.7988,8.94154 -9.0913,11.2014 -3.4144,5.96931 -18.9507,22.58105 -25.6675,27.4442 -6.206,4.49343 -8.3555,4.91083 -13.5806,2.63728 z m -8.9028,-22.99031 c 0.9565,0 0.5293,-5.73179 -0.5584,-7.49165 -0.7865,-1.27279 -4.4501,-1.37901 -5.209,-0.15102 -0.3029,0.48987 0,2.66816 0.6617,4.84065 0.8223,2.679 1.6937,3.7653 2.7082,3.37601 0.8226,-0.3157 1.9015,-0.57399 2.3975,-0.57399 z m -211.0611,-23.50216 c -1.3849,-1.15381 -2.3449,-2.14182 -2.1333,-2.19556 5.7244,-1.45356 11.7612,0.42359 10.0849,3.1359 -1.1579,1.87336 -5.1393,1.40251 -7.9516,-0.94034 z m 289.4018,-80.48416 c -4.7206,-1.39668 -13.1206,-3.32006 -18.6666,-4.27418 -5.5461,-0.95411 -14.8221,-2.929 -20.6136,-4.38865 -7.8928,-1.98927 -12.7232,-2.5796 -19.288,-2.35723 -8.1757,0.27692 -8.986,0.10485 -12.1853,-2.5871 -1.8849,-1.58607 -5.4453,-3.40233 -7.912,-4.03616 -18.6825,-4.80062 -20.5063,-6.0728 -19.632,-13.69418 2.8715,-25.02815 3.0822,-29.46251 1.924,-40.48737 -3.8343,-36.49715 -20.7235,-69.25469 -48.0882,-93.26958 -12.8073,-11.23945 -24.3989,-17.88626 -42.551,-24.39936 -15.3091,-5.49307 -17.2192,-8.43272 -13.4824,-20.75035 1.6639,-5.48492 2.0729,-11.85933 0.9489,-14.7884 -1.3374,-3.48531 -8.1458,-5.39319 -26.6593,-7.4707 -3.0003,-0.33669 -13.2447,-0.1177 -22.7651,0.48664 -11.9044,0.75566 -18.5883,0.75457 -21.4036,-0.003 -3.3538,-0.90308 -7.818,-4.99726 -24.7015,-22.65394 -11.3343,-11.85341 -26.41686,-27.58143 -33.5167,-34.95116 -22.07552,-22.914831 -21.43637,-24.768457 12.37547,-35.887417 9.09773,-2.991769 21.46973,-5.97912 33.60003,-8.113078 18.3317,-3.224921 20.4299,-3.374152 46.4,-3.300102 32.1856,0.09178 48.0041,2.065495 72.5333,9.050141 38.8283,11.056309 78.7705,32.545773 106.4749,57.284986 9.4135,8.40605 10.8584,10.96817 10.8584,19.25459 0,3.51095 0.4624,7.59965 1.0276,9.08601 0.5651,1.48636 4.6837,6.9176 9.1526,12.06944 9.7364,11.22444 23.6856,31.84242 31.9562,47.23363 19.8857,37.00721 28.9652,72.45254 30.0785,117.42358 0.4966,20.05977 0.2767,24.93433 -1.708,37.86667 -3.4035,22.17787 -4.3713,25.88649 -7.3712,28.24617 -3.3529,2.63751 -6.2189,2.53688 -16.7854,-0.5894 z M 844.99584,379.87263 c 0.43125,-3.72268 5.35296,-5.86137 7.81728,-3.39696 2.39381,2.39373 -0.6752,6.31066 -4.94443,6.31066 -2.86826,0 -3.1744,-0.31052 -2.87285,-2.9137 z m 40.75648,-29.56693 c -2.62837,-2.74302 -7.63563,-6.33843 -11.12747,-7.98977 -3.49173,-1.65135 -7.91082,-4.19296 -9.82005,-5.64803 -3.99424,-3.04397 -14.01429,-8.27751 -16.91915,-8.83692 -1.51168,-0.29113 -2.23274,0.58774 -3.088,3.76391 -1.53461,5.6991 -5.35616,8.54585 -10.44618,7.78159 -4.50475,-0.67636 -6.93526,-3.21556 -8.6928,-9.08153 -1.02038,-3.40568 -0.9311,-4.57496 0.5392,-7.06392 1.72298,-2.91683 1.67584,-3.11065 -2.13675,-8.78035 -7.60917,-11.31584 -8.6384,-12.80834 -12.61931,-18.29871 -6.77856,-9.34879 -7.0305,-11.61234 -3.03808,-27.29563 3.67467,-14.43497 4.98678,-17.2766 9.27456,-20.0861 2.88683,-1.89147 8.23542,-1.75452 72.98838,1.86878 31.51541,1.76347 32.32597,2.46055 25.72202,22.12158 -7.28768,21.69693 -7.81333,29.79585 -2.25984,34.82165 1.17579,1.0641 2.13782,2.54349 2.13782,3.28755 0,0.74407 1.17546,2.74983 2.61216,4.45725 l 2.61226,3.10442 -2.87893,4.04513 c -2.52853,3.55288 -2.89419,5.1113 -3.00533,12.8065 -0.21227,14.692 -3.91019,18.94109 -17.06208,19.60524 l -8.01376,0.40467 z"
         id="path3046"
         inkscape:connector-curvature="0" /><path
         style="fill:#5e5f5f;stroke-width:1.06666672"
         d="m -321.6,1011.4091 c -48.9021,-2.9896 -85.82421,-16.95956 -119.61156,-45.25656 -8.73499,-7.31557 -25.40969,-24.72485 -27.8173,-29.04276 -3.54428,-6.35641 -0.49988,-11.67852 17.58333,-30.73848 6.88171,-7.25342 19.66223,-21.02955 28.40117,-30.61361 8.73893,-9.58408 16.98354,-17.92431 18.32134,-18.53386 3.92217,-1.78705 7.50744,-0.1441 15.30899,7.01538 21.75997,19.96912 49.14005,35.40287 70.37975,39.67204 10.6516,2.14097 28.51817,1.65925 36.97995,-0.99707 11.57556,-3.6338 22.43826,-13.02635 27.73402,-23.98051 2.73904,-5.66562 2.2687,-15.12937 -1.09343,-22.00132 -3.99504,-8.16557 -16.23335,-20.81961 -26.79193,-27.70205 -4.90669,-3.19833 -20.09769,-11.43666 -33.75779,-18.30738 -58.03206,-29.18884 -78.4208,-42.51384 -101.20007,-66.13905 -22.25945,-23.08607 -34.07897,-46.65874 -37.90523,-75.59754 -4.05776,-30.68966 3.25514,-60.7861 21.21981,-87.33075 5.71225,-8.44043 22.95048,-25.71957 32.78228,-32.86008 26.30865,-19.10707 52.84582,-27.28167 91.96636,-28.32959 26.91402,-0.72095 45.8017,2.0567 69.34207,10.19757 14.08635,4.87141 23.07429,9.24922 37.66903,18.34769 14.28467,8.90515 21.33162,14.67272 34.72675,28.42211 12.73253,13.06926 14.86346,17.02292 12.35778,22.92825 -0.85978,2.0263 -14.77371,17.00325 -32.3192,34.7884 -30.7415,31.16138 -30.81934,31.2302 -35.29178,31.2 -3.81671,-0.0258 -5.40066,-0.81927 -10.66667,-5.34363 -22.8891,-19.66546 -46.10387,-31.81687 -64.35763,-33.68703 -13.24375,-1.35686 -30.53475,3.23125 -37.6552,9.99168 -11.39392,10.81783 -11.64544,25.53478 -0.62477,36.55545 5.52742,5.52741 20.40127,14.0274 56.45326,32.26145 60.03976,30.36635 77.82541,41.69197 100.26667,63.84822 39.29605,38.797 49.44273,105.27716 23.98437,157.14359 -10.4499,21.28963 -23.07206,36.64439 -41.31089,50.25441 -26.96709,20.12312 -56.45203,30.52623 -94.81254,33.45253 -13.66671,1.0426 -18.47069,1.1033 -30.26094,0.3825 z m 344.533333,-0.3363 c -21.6805437,-1.7905 -50.226666,-9.7894 -65.6,-18.38182 -11.99905,-6.70647 -22.054528,-14.27712 -31.473418,-23.69603 -21.519232,-21.51923 -35.177615,-50.24746 -40.606165,-85.40862 -1.74658,-11.31271 -1.9763,-40.78338 -0.39496,-50.66667 3.05619,-19.10084 11.54592,-40.22567 22.619215,-56.28289 5.718731,-8.29264 20.851254,-23.34892 30.908054,-30.75231 20.251178,-14.90808 48.488981,-24.67899 84.455402,-29.22348 4.642806,-0.58663 31.282806,-1.12297 59.2,-1.19186 27.917199,-0.0689 52.559819,-0.56955 54.761389,-1.11258 6.57977,-1.62292 7.63604,-4.37021 6.82838,-17.76011 -0.37854,-6.27556 -1.40525,-14.41182 -2.28158,-18.08058 -3.18756,-13.3447 -12.49573,-27.8575 -21.39461,-33.35731 -12.10633,-7.48212 -29.173141,-9.43294 -46.151051,-5.2753 -12.724309,3.116 -33.131125,13.09314 -44.45905,21.73657 -14.70832,11.22273 -11.341462,12.90336 -47.564416,-23.74266 -17.72784,-17.9349 -31.283019,-32.52151 -32.390283,-34.8549 -1.763253,-3.71579 -1.778656,-4.27585 -0.208139,-7.56928 2.561302,-5.37108 17.994976,-22.06749 28.416075,-30.74098 26.2673387,-21.86232 52.827157,-35.07231 82.135157,-40.85136 13.117611,-2.58658 16.679808,-2.84259 40,-2.87473 23.550857,-0.0324 26.798707,0.1967 40.575557,2.86302 46.2167,8.94458 80.95272,36.60366 99.46954,79.20407 5.03798,11.59053 12.66873,39.38247 14.20979,51.75343 1.07855,8.65806 1.46458,48.59443 1.71135,177.04657 0.30069,156.51662 0.21291,166.07712 -1.55713,169.60001 -1.32215,2.6315 -2.97763,4.0638 -5.60911,4.8529 -2.49642,0.7487 -19.57928,0.9254 -51.56076,0.5333 l -47.82744,-0.5862 -2.57256,-2.9928 c -2.05773,-2.3939 -2.57766,-4.20837 -2.59802,-9.06669 -0.0438,-10.4687 -2.6225,-17.27385 -6.54549,-17.27385 -0.45642,0 -6.16109,3.63598 -12.67705,8.07995 -6.51595,4.44396 -17.21077,10.69002 -23.76626,13.88012 -21.079478,10.25797 -48.88623,14.60177 -78.052417,12.19307 z m 44.202806,-98.87577 c 22.813536,-3.69997 36.758321,-9.83131 49.568501,-21.79459 18.34314,-17.13047 26.19915,-35.3911 26.5688,-61.75691 0.18286,-13.04243 0.063,-13.91298 -2.23217,-16.21653 -2.00792,-2.01521 -4.02761,-2.55666 -11.73333,-3.14557 -14.52435,-1.11 -94.782532,-0.95114 -103.70794,0.20528 -11.055573,1.43243 -23.3558187,5.7403 -31.03824,10.87043 -23.841557,15.92077 -25.266293,54.44728 -2.8309227,76.5513 16.4161067,16.17366 40.2028797,20.99585 75.4053017,15.28659 z m 242.214571,94.77077 c -2.28105,-2.281 -3.18539,-4.431 -3.7015,-8.79999 -0.37565,-3.17982 -0.54039,-136.34148 -0.36611,-295.91482 0.30053,-275.13922 0.41414,-290.27644 2.19852,-292.90226 1.0349,-1.52292 3.09748,-3.32292 4.58353,-4 1.9262,-0.87764 17.92267,-1.23059 55.71837,-1.22942 48.34298,0.001 53.34428,0.16607 56.73498,1.86667 2.04517,1.02576 4.31809,3.06501 5.05094,4.53168 1.0557,2.11281 1.33571,63.76791 1.34817,296.85297 0.0171,320.18187 0.43618,298.48837 -5.82114,301.33937 -2.05281,0.9353 -17.41901,1.2743 -57.76205,1.2743 h -54.96519 z m 392.51596,1.8841 c -3.81334,-0.5547 -12.1055,-1.7448 -18.4271,-2.6446 -20.18261,-2.8726 -53.1664,-13.94465 -70.63957,-23.71236 -18.54624,-10.36756 -26.74272,-15.57985 -37.51211,-23.85468 -44.31317,-34.04846 -75.9472,-81.18378 -88.31242,-131.58727 -4.93536,-20.11719 -5.72704,-25.70325 -6.97206,-49.19149 -1.37376,-25.91717 -1.34368,-240.75871 0.0352,-248.21634 0.69046,-3.73538 1.90571,-6.30304 3.75115,-7.9255 l 2.72971,-2.4 h 53.84149 c 59.09525,0 59.67915,0.0577 62.20096,6.14594 0.99264,2.39633 1.37664,16.98802 1.51712,57.65257 0.18464,53.43672 0.22944,54.49994 2.42144,57.45619 4.02293,5.42581 5.43541,5.55358 62.11541,5.61843 l 52.61536,0.0602 2.98891,2.98881 c 2.20768,2.20777 3.13333,4.36803 3.54197,8.26667 0.30422,2.90281 0.48235,27.59785 0.39574,54.87785 -0.16672,52.56165 -0.19094,52.81818 -5.24843,55.70889 -1.80384,1.03098 -15.63467,1.48614 -57.46485,1.89111 -52.07915,0.50419 -55.21067,0.64333 -57.31243,2.54645 -3.14325,2.84616 -3.84139,8.23688 -2.35456,18.18016 2.72917,18.2519 12.84565,42.01653 23.72416,55.73045 20.94379,26.40291 49.29077,41.88612 84.63211,46.22645 24.53546,3.01324 49.0257,-4.22746 72.87584,-21.5462 4.29514,-3.11885 9.28608,-6.75064 11.09109,-8.07064 2.02261,-1.47913 4.81717,-2.4 7.28331,-2.4 5.02613,0 6.75904,1.56397 49.81642,44.95886 35.30187,35.57861 34.94614,35.07596 29.86667,42.20135 -6.68277,9.37452 -32.34144,27.8983 -53.74229,38.79815 -11.20619,5.70753 -33.65408,13.86815 -47.85771,17.39815 -18.5648,4.6137 -64.45387,7.337 -81.6,4.8424 z M 1019.8818,474.48417 c -1.3849,-1.15381 -2.3449,-2.14182 -2.1333,-2.19556 5.7244,-1.45356 11.7612,0.42359 10.0849,3.1359 -1.1579,1.87336 -5.1393,1.40251 -7.9516,-0.94034 z m 289.4018,-80.48416 c -4.7206,-1.39668 -13.1206,-3.32006 -18.6666,-4.27418 -5.5461,-0.95411 -14.8221,-2.929 -20.6136,-4.38865 -7.8928,-1.98927 -12.7232,-2.5796 -19.288,-2.35723 -8.1757,0.27692 -8.986,0.10485 -12.1853,-2.5871 -1.8849,-1.58607 -5.4453,-3.40233 -7.912,-4.03616 -18.6825,-4.80062 -20.5063,-6.0728 -19.632,-13.69418 2.8715,-25.02815 3.0822,-29.46251 1.924,-40.48737 -3.8343,-36.49715 -20.7235,-69.25469 -48.0882,-93.26958 -12.8073,-11.23945 -24.3989,-17.88626 -42.551,-24.39936 -15.3091,-5.49307 -17.2192,-8.43272 -13.4824,-20.75035 3.2429,-10.68998 1.5208,-17.38103 -5.1946,-20.18333 -6.8286,-2.84951 -26.7492,-4.15657 -44.0263,-2.88871 -19.6674,1.44328 -22.4845,0.86239 -29.1834,-6.01793 -18.8889,-19.40064 -60.48788,-63.740497 -61.54644,-65.60167 -1.9056,-3.3506 -1.64437,-7.566645 0.59456,-9.592767 5.02048,-4.543494 33.61768,-13.290588 56.16768,-17.180134 30.9489,-5.338231 60.7605,-5.676931 91.626,-1.040996 15.7448,2.364817 30.8701,6.33743 48.8807,12.83828 31.4263,11.343285 66.2997,32.266547 86.6264,51.974097 8.9326,8.66055 9.0026,8.76992 9.6654,15.12364 1.1579,11.09746 1.5713,11.98555 10.289,22.10017 15.5983,18.09787 32.9979,46.25123 42.7059,69.09983 12.8747,30.30188 18.8451,59.34329 19.7548,96.09025 0.4966,20.05976 0.2767,24.93432 -1.708,37.86666 -3.4035,22.17787 -4.3713,25.88649 -7.3712,28.24617 -3.3529,2.63751 -6.2189,2.53688 -16.7854,-0.5894 z M 844.99584,379.87263 c 0.43125,-3.72268 5.35296,-5.86137 7.81728,-3.39696 2.39381,2.39373 -0.6752,6.31066 -4.94443,6.31066 -2.86826,0 -3.1744,-0.31052 -2.87285,-2.9137 z m 40.75648,-29.56693 c -2.62837,-2.74302 -7.63563,-6.33843 -11.12747,-7.98977 -3.49173,-1.65135 -7.91082,-4.19296 -9.82005,-5.64803 -3.99424,-3.04397 -14.01429,-8.27751 -16.91915,-8.83692 -1.51168,-0.29113 -2.23274,0.58774 -3.088,3.76391 -1.53461,5.6991 -5.35616,8.54585 -10.44618,7.78159 -4.50475,-0.67636 -6.93526,-3.21556 -8.6928,-9.08153 -1.02038,-3.40568 -0.9311,-4.57496 0.5392,-7.06392 1.72586,-2.92168 1.67776,-3.11018 -2.35136,-9.21775 -2.26219,-3.42929 -5.35307,-8.51381 -6.86859,-11.29893 -1.51552,-2.78512 -4.02272,-6.56993 -5.57163,-8.41068 -5.40064,-6.41834 -5.61568,-9.63162 -1.71872,-25.68614 4.0399,-16.64317 6.34571,-20.13829 13.4304,-20.35752 2.24512,-0.0694 4.37462,-0.0919 4.73227,-0.0499 0.99573,0.11698 37.32608,2.18307 61.21643,3.48134 25.2736,1.37346 28.60597,2.36087 29.12725,8.63076 0.17995,2.16471 -0.36725,5.28471 -1.21589,6.93333 -0.84875,1.64862 -3.0928,8.44739 -4.98678,15.10839 -4.25365,14.9596 -4.04053,20.4287 0.97056,24.90612 1.81771,1.62409 3.30486,3.40283 3.30486,3.95276 0,0.54992 1.17546,2.39685 2.61216,4.10427 l 2.61226,3.10442 -2.87893,4.04513 c -2.52853,3.55288 -2.89419,5.1113 -3.00533,12.8065 -0.21227,14.692 -3.91019,18.94109 -17.06208,19.60524 l -8.01376,0.40467 -4.77867,-4.98731 z"
         id="path3044"
         inkscape:connector-curvature="0" /><path
         style="fill:#c80003;stroke-width:1.06666672"
         d="m -337.6,1007.2579 c -18.36829,-2.044 -31.32458,-5.0155 -45.33333,-10.39719 -31.77804,-12.208 -52.5739,-26.20366 -74.4,-50.07137 -14.44037,-15.7911 -14.79078,-14.44657 10.91204,-41.86968 8.24796,-8.8 19.96771,-21.52 26.04388,-28.26667 13.0791,-14.52233 15.8878,-17.05431 18.92602,-17.06136 1.30896,-0.003 6.31188,3.45652 11.73333,8.1137 21.84087,18.7619 47.01692,33.27997 65.45139,37.74332 18.94873,4.58786 36.24474,3.60952 49.8331,-2.81882 7.39876,-3.50017 15.92842,-11.44411 20.5669,-19.15463 3.38887,-5.63327 3.73309,-6.94787 3.73065,-14.24738 -0.003,-9.86784 -2.01536,-14.2666 -11.89809,-26.01161 -7.45531,-8.86015 -23.62474,-20.69383 -36.03043,-26.36906 -19.88063,-9.09479 -66.76454,-34.18792 -78.37143,-41.94583 -12.82022,-8.56889 -33.1092,-25.09513 -40.24194,-32.77877 -7.74052,-8.33837 -20.00451,-25.27714 -23.87584,-32.97684 -8.4146,-16.7358 -13.1295,-37.94266 -12.98909,-58.42274 0.15751,-22.97159 8.97373,-49.28996 23.09867,-68.95455 6.01386,-8.37243 24.93458,-26.78665 33.11084,-32.22446 17.81742,-11.84991 35.96387,-19.64152 52.8999,-22.71385 35.77307,-6.48949 67.28369,-4.93162 98.44377,4.86701 30.25912,9.51532 57.31793,26.57818 78.23109,49.33129 9.7747,10.63468 11.55491,13.63668 10.52354,17.746 -0.76674,3.05496 -48.81663,53.54863 -57.52742,60.45324 -7.31073,5.79485 -10.41573,5.5708 -18.28987,-1.31968 -19.7526,-17.28506 -43.05616,-29.82224 -60.01715,-32.28888 -11.00638,-1.60067 -26.71187,0.25873 -34.89868,4.13172 -19.28064,9.1212 -24.47979,29.51732 -11.33924,44.48357 6.21768,7.08155 17.83425,13.80761 66.24072,38.35377 34.6686,17.57989 48.71933,25.48869 63.54809,35.76956 12.09721,8.38708 27.61239,21.92116 34.78889,30.34677 21.44575,25.17852 31.88686,57.18654 30.38531,93.14851 -1.45295,34.79794 -12.57325,61.80882 -36.44894,88.53334 -16.94156,18.96301 -52.68938,38.57576 -79.67943,43.71547 -25.22204,4.803 -52.35105,5.9132 -77.12725,3.1561 z m 358.4,1.0111 c -24.8101973,-3.4486 -49.603264,-10.39653 -61.333333,-17.18782 -24.1088,-13.95811 -41.389024,-31.07709 -54.133291,-53.62819 -18.008876,-31.86686 -24.247526,-79.56713 -15.201156,-116.22694 5.6417,-22.86262 16.547023,-42.39755 32.474927,-58.17306 C -53.853739,739.7391 -28.375147,727.52124 9.6,721.33692 c 17.008608,-2.76989 19.490016,-2.88778 73.847755,-3.5084 l 56.247755,-0.64219 3.48558,-3.4974 c 3.40499,-3.41652 3.48196,-3.70015 3.32917,-12.26667 -0.57148,-32.04096 -12.21065,-53.56453 -33.80408,-62.51166 -10.07439,-4.17428 -19.739556,-5.22673 -31.128047,-3.38957 -17.333621,2.79622 -38.712117,12.21018 -53.185696,23.42018 -12.734058,9.8627 -12.184928,10.02984 -32.0514983,-9.75488 -24.3968537,-24.29636 -44.3312857,-45.72346 -44.9937177,-48.36283 -0.957952,-3.81676 2.443414,-8.8587 13.863179,-20.54986 22.363189,-22.89465 47.598037,-39.35141 74.503499,-48.58702 19.550549,-6.71095 53.127456,-10.28907 76.654011,-8.16865 28.03597,2.52685 42.75817,6.44321 63.36542,16.85632 25.15159,12.70941 46.25085,36.57371 58.71723,66.41204 5.80775,13.90087 11.93328,38.33107 13.24257,52.81475 1.84453,20.40474 1.69518,337.73882 -0.16035,340.71002 -2.65458,4.2506 -5.1126,4.4401 -53.42968,4.1186 l -46.5792,-0.31 -2.42099,-2.422 c -2.05254,-2.05344 -2.51987,-3.95269 -3.07076,-12.47969 -1.1386,-17.62388 -4.92875,-19.5134 -18.73979,-9.34246 -19.72437,14.52576 -33.702152,21.26965 -52.625693,25.39035 -11.182091,2.4349 -16.345067,2.9473 -32,3.1757 C 32.4,1008.5913 22.56,1008.5137 20.8,1008.269 Z m 53.670283,-94.666 c 31.503437,-6.67997 51.621857,-21.83498 63.672307,-47.96371 5.54492,-12.02294 7.01494,-18.92277 7.65273,-35.91963 0.54877,-14.62423 0.45705,-15.62174 -1.68364,-18.31364 -3.78355,-4.75782 -8.69391,-5.15303 -64.024459,-5.15303 -59.628021,0 -64.118965,0.44916 -79.614005,7.96253 -19.438336,9.42542 -28.095157,24.74636 -26.840992,47.5034 0.644096,11.68712 2.635808,18.12765 8.48496,27.4376 7.872224,12.53001 21.2374933,21.96977 36.606197,25.85459 12.333824,3.11769 37.387222,2.48487 55.746902,-1.40811 z m 239.289657,92.5657 c -1.87539,-0.7885 -3.84673,-2.6572 -4.43472,-4.2037 -0.69094,-1.8173 -1.05855,-104.27735 -1.05855,-295.03442 0,-320.50896 -0.47313,-297.49263 6.15273,-299.31463 1.60266,-0.44071 25.95393,-0.79017 54.11393,-0.77658 45.83936,0.0221 51.54943,0.21196 54.53741,1.81305 1.83557,0.98359 3.63143,2.55452 3.99077,3.49098 0.35935,0.93645 0.66598,133.74555 0.68139,295.13133 0.0248,260.34705 -0.15416,293.70677 -1.58792,295.89497 -2.91257,4.4451 -7.34429,4.7869 -59.60748,4.5976 -38.40133,-0.1391 -50.16368,-0.4953 -52.78756,-1.5986 z m 403.57339,1.0027 c -28.18304,-2.1334 -39.88362,-3.965 -57.13877,-8.94439 -24.8304,-7.1654 -36.09856,-12.16614 -63.92789,-28.37098 -26.57568,-15.4748 -55.75147,-43.57623 -75.72491,-72.93637 -6.51125,-9.57128 -19.78485,-35.92896 -24.44117,-48.53333 -4.16843,-11.2836 -9.5055,-32.34163 -12.16555,-48 -0.93333,-5.49448 -1.26837,-42.5843 -1.26837,-140.42091 0,-129.24681 0.0565,-133.01685 2.032,-135.2 2.01504,-2.22708 2.48245,-2.24576 56.20714,-2.24576 h 54.17526 l 2.99274,2.57366 2.99286,2.57368 0.24533,53.69299 c 0.13504,29.53116 0.50101,55.16893 0.81333,56.97283 0.31232,1.80391 2.03296,4.68391 3.82347,6.4 l 3.25568,3.12017 55.2352,0.53334 c 42.74571,0.41273 55.60779,0.84281 56.88299,1.90203 3.89642,3.23639 4.07648,6.08547 3.77376,59.69504 l -0.29643,52.47841 -2.42848,2.42893 -2.42848,2.42892 -55.86101,0.53333 c -53.10454,0.50702 -55.97216,0.63402 -58.11403,2.57366 -4.39765,3.98234 -4.88256,8.76811 -2.29643,22.66237 5.49664,29.53191 18.56331,52.7966 40.6912,72.44932 13.09718,11.63218 31.57046,21.36804 49.80278,26.24724 11.60672,3.1061 13.7985,3.35039 30.63445,3.41443 17.78176,0.0676 18.34016,1.8e-4 28.8,-3.47924 12.28032,-4.08499 25.51392,-11.29734 38.51797,-20.99235 4.99894,-3.72691 10.00502,-7.06692 11.12459,-7.42227 1.11957,-0.35534 3.62176,0.10656 5.56032,1.02651 1.93867,0.91993 19.71104,17.88468 39.49429,37.69948 42.76331,42.8315 40.67318,38.96396 27.70635,51.26875 -13.4304,12.74458 -41.37323,30.23778 -59.47019,37.23041 -25.5937,9.8893 -44.0432,13.9303 -74.07989,16.2254 -13.92117,1.0638 -16.07563,1.0994 -25.12011,0.4147 z M 1297.6,390.87388 c -11.1467,-1.94183 -23.192,-4.3097 -26.7674,-5.26194 -3.5754,-0.95225 -10.2224,-2.44343 -14.7712,-3.31374 -4.5487,-0.87032 -11.2233,-2.75842 -14.8325,-4.19578 -3.6093,-1.43736 -9.6017,-3.15977 -13.3167,-3.82758 -15.2537,-2.74209 -15.1424,-2.5015 -14.9109,-32.23868 0.1975,-25.36654 -0.2889,-29.27588 -6.1903,-49.7529 -4.1484,-14.39433 -8.907,-24.28457 -17.5279,-36.43027 -9.5454,-13.44805 -21.1043,-25.04669 -36.2164,-36.34099 -10.2636,-7.67062 -12.4302,-8.78959 -25.9132,-13.3827 -15.8825,-5.41052 -19.9535,-8.30748 -19.9535,-14.19883 0,-1.62734 1.4965,-7.8594 3.3257,-13.84899 l 3.3256,-10.89016 -2.4159,-2.57154 c -3.0827,-3.28144 -6.3396,-4.28246 -20.7687,-6.38328 -10.0855,-1.46839 -14.2427,-1.53353 -29.6009,-0.46383 -9.8272,0.68446 -19.0956,0.93628 -20.5964,0.55959 -3.4671,-0.87017 -9.9862,-6.86696 -22.1185,-20.34593 -5.2804,-5.86667 -17.0843,-18.28896 -26.2309,-27.6051 -18.57664,-18.921105 -21.45333,-22.395532 -21.45333,-25.910883 0,-3.201384 2.64074,-4.793498 15.46666,-9.324746 31.29967,-11.05784 68.69207,-15.933585 104.79577,-13.664746 27.4485,1.724931 40.6382,4.229815 66.8848,12.702229 34.1569,11.025891 72.6219,33.563146 95.7861,56.122586 4.6871,4.5648 5.0667,5.32687 5.0667,10.1742 0,9.52978 0.9189,11.66892 7.2167,16.79903 10.881,8.86359 23.6447,26.40738 38.3466,52.70743 13.5659,24.26797 23.0413,51.47786 27.6726,79.46666 2.6788,16.18861 2.992,20.65004 2.921,41.6 -0.077,22.53994 -2.1937,46.94534 -4.8236,55.60435 -2.4765,8.15432 -6.6661,8.69956 -32.4,4.21654 z M 889.06667,341.0677 c -10.19456,-5.35188 -27.7391,-15.38824 -31.46667,-18.00045 -1.46667,-1.02782 -9.09632,-5.15123 -16.95477,-9.16314 -13.5423,-6.91368 -14.6959,-7.76091 -22.10251,-16.23274 -9.50443,-10.87146 -9.98421,-12.70307 -6.824,-26.05187 3.71797,-15.70477 4.37013,-17.128 8.85845,-19.33215 3.64875,-1.79178 5.15648,-1.86592 17.04608,-0.83812 7.17387,0.62015 23.12342,1.63388 35.44342,2.25276 37.05866,1.86158 42.13333,2.78571 42.13333,7.67272 0,1.13327 -1.93984,7.9145 -4.31072,15.06939 -5.66357,17.09153 -6.3376,24.03615 -3.19637,32.934 2.21216,6.26613 2.31157,7.5982 1.36512,18.29195 -1.65739,18.72781 -5.25088,21.13608 -19.99136,13.39765 z"
         id="path3042"
         inkscape:connector-curvature="0" /><path
         style="fill:#b00006;stroke-width:1.06666672"
         d="m -337.6,1007.2579 c -18.36829,-2.044 -31.32458,-5.0155 -45.33333,-10.39719 -31.77804,-12.208 -52.5739,-26.20366 -74.4,-50.07137 -14.44037,-15.7911 -14.79078,-14.44657 10.91204,-41.86968 8.24796,-8.8 19.96771,-21.52 26.04388,-28.26667 13.0791,-14.52233 15.8878,-17.05431 18.92602,-17.06136 1.30896,-0.003 6.31188,3.45652 11.73333,8.1137 21.84087,18.7619 47.01692,33.27997 65.45139,37.74332 18.94873,4.58786 36.24474,3.60952 49.8331,-2.81882 7.39876,-3.50017 15.92842,-11.44411 20.5669,-19.15463 3.38887,-5.63327 3.73309,-6.94787 3.73065,-14.24738 -0.003,-9.86784 -2.01536,-14.2666 -11.89809,-26.01161 -7.45531,-8.86015 -23.62474,-20.69383 -36.03043,-26.36906 -19.88063,-9.09479 -66.76454,-34.18792 -78.37143,-41.94583 -12.82022,-8.56889 -33.1092,-25.09513 -40.24194,-32.77877 -7.74052,-8.33837 -20.00451,-25.27714 -23.87584,-32.97684 -8.4146,-16.7358 -13.1295,-37.94266 -12.98909,-58.42274 0.15751,-22.97159 8.97373,-49.28996 23.09867,-68.95455 6.01386,-8.37243 24.93458,-26.78665 33.11084,-32.22446 17.81742,-11.84991 35.96387,-19.64152 52.8999,-22.71385 35.77307,-6.48949 67.28369,-4.93162 98.44377,4.86701 30.25912,9.51532 57.31793,26.57818 78.23109,49.33129 9.7747,10.63468 11.55491,13.63668 10.52354,17.746 -0.76674,3.05496 -48.81663,53.54863 -57.52742,60.45324 -7.31073,5.79485 -10.41573,5.5708 -18.28987,-1.31968 -19.7526,-17.28506 -43.05616,-29.82224 -60.01715,-32.28888 -11.00638,-1.60067 -26.71187,0.25873 -34.89868,4.13172 -19.28064,9.1212 -24.47979,29.51732 -11.33924,44.48357 6.21768,7.08155 17.83425,13.80761 66.24072,38.35377 34.6686,17.57989 48.71933,25.48869 63.54809,35.76956 12.09721,8.38708 27.61239,21.92116 34.78889,30.34677 21.44575,25.17852 31.88686,57.18654 30.38531,93.14851 -1.45295,34.79794 -12.57325,61.80882 -36.44894,88.53334 -16.94156,18.96301 -52.68938,38.57576 -79.67943,43.71547 -25.22204,4.803 -52.35105,5.9132 -77.12725,3.1561 z m 358.4,1.0111 c -24.8101973,-3.4486 -49.603264,-10.39653 -61.333333,-17.18782 -24.1088,-13.95811 -41.389024,-31.07709 -54.133291,-53.62819 -18.008876,-31.86686 -24.247526,-79.56713 -15.201156,-116.22694 5.6417,-22.86262 16.547023,-42.39755 32.474927,-58.17306 C -53.853739,739.7391 -28.375147,727.52124 9.6,721.33692 c 17.008608,-2.76989 19.490016,-2.88778 73.847755,-3.5084 l 56.247755,-0.64219 3.48558,-3.4974 c 3.40499,-3.41652 3.48196,-3.70015 3.32917,-12.26667 -0.57148,-32.04096 -12.21065,-53.56453 -33.80408,-62.51166 -10.07439,-4.17428 -19.739556,-5.22673 -31.128047,-3.38957 -17.333621,2.79622 -38.712117,12.21018 -53.185696,23.42018 -12.734058,9.8627 -12.184928,10.02984 -32.0514983,-9.75488 -24.3968537,-24.29636 -44.3312857,-45.72346 -44.9937177,-48.36283 -0.957952,-3.81676 2.443414,-8.8587 13.863179,-20.54986 22.363189,-22.89465 47.598037,-39.35141 74.503499,-48.58702 19.550549,-6.71095 53.127456,-10.28907 76.654011,-8.16865 28.03597,2.52685 42.75817,6.44321 63.36542,16.85632 25.15159,12.70941 46.25085,36.57371 58.71723,66.41204 5.80775,13.90087 11.93328,38.33107 13.24257,52.81475 1.84453,20.40474 1.69518,337.73882 -0.16035,340.71002 -2.65458,4.2506 -5.1126,4.4401 -53.42968,4.1186 l -46.5792,-0.31 -2.42099,-2.422 c -2.05254,-2.05344 -2.51987,-3.95269 -3.07076,-12.47969 -1.1386,-17.62388 -4.92875,-19.5134 -18.73979,-9.34246 -19.72437,14.52576 -33.702152,21.26965 -52.625693,25.39035 -11.182091,2.4349 -16.345067,2.9473 -32,3.1757 C 32.4,1008.5913 22.56,1008.5137 20.8,1008.269 Z m 53.670283,-94.666 c 31.503437,-6.67997 51.621857,-21.83498 63.672307,-47.96371 5.54492,-12.02294 7.01494,-18.92277 7.65273,-35.91963 0.54877,-14.62423 0.45705,-15.62174 -1.68364,-18.31364 -3.78355,-4.75782 -8.69391,-5.15303 -64.024459,-5.15303 -59.628021,0 -64.118965,0.44916 -79.614005,7.96253 -19.438336,9.42542 -28.095157,24.74636 -26.840992,47.5034 0.644096,11.68712 2.635808,18.12765 8.48496,27.4376 7.872224,12.53001 21.2374933,21.96977 36.606197,25.85459 12.333824,3.11769 37.387222,2.48487 55.746902,-1.40811 z m 239.289657,92.5657 c -1.87539,-0.7885 -3.84673,-2.6572 -4.43472,-4.2037 -0.69094,-1.8173 -1.05855,-104.27735 -1.05855,-295.03442 0,-320.50896 -0.47313,-297.49263 6.15273,-299.31463 1.60266,-0.44071 25.95393,-0.79017 54.11393,-0.77658 45.83936,0.0221 51.54943,0.21196 54.53741,1.81305 1.83557,0.98359 3.63143,2.55452 3.99077,3.49098 0.35935,0.93645 0.66598,133.74555 0.68139,295.13133 0.0248,260.34705 -0.15416,293.70677 -1.58792,295.89497 -2.91257,4.4451 -7.34429,4.7869 -59.60748,4.5976 -38.40133,-0.1391 -50.16368,-0.4953 -52.78756,-1.5986 z m 403.57339,1.0027 c -28.18304,-2.1334 -39.88362,-3.965 -57.13877,-8.94439 -24.8304,-7.1654 -36.09856,-12.16614 -63.92789,-28.37098 -26.57568,-15.4748 -55.75147,-43.57623 -75.72491,-72.93637 -6.51125,-9.57128 -19.78485,-35.92896 -24.44117,-48.53333 -4.16843,-11.2836 -9.5055,-32.34163 -12.16555,-48 -0.93333,-5.49448 -1.26837,-42.5843 -1.26837,-140.42091 0,-129.24681 0.0565,-133.01685 2.032,-135.2 2.01504,-2.22708 2.48245,-2.24576 56.20714,-2.24576 h 54.17526 l 2.99274,2.57366 2.99286,2.57368 0.24533,53.69299 c 0.13504,29.53116 0.50101,55.16893 0.81333,56.97283 0.31232,1.80391 2.03296,4.68391 3.82347,6.4 l 3.25568,3.12017 55.2352,0.53334 c 42.74571,0.41273 55.60779,0.84281 56.88299,1.90203 3.89642,3.23639 4.07648,6.08547 3.77376,59.69504 l -0.29643,52.47841 -2.42848,2.42893 -2.42848,2.42892 -55.86101,0.53333 c -53.10454,0.50702 -55.97216,0.63402 -58.11403,2.57366 -4.39765,3.98234 -4.88256,8.76811 -2.29643,22.66237 5.49664,29.53191 18.56331,52.7966 40.6912,72.44932 13.09718,11.63218 31.57046,21.36804 49.80278,26.24724 11.60672,3.1061 13.7985,3.35039 30.63445,3.41443 17.78176,0.0676 18.34016,1.8e-4 28.8,-3.47924 12.28032,-4.08499 25.51392,-11.29734 38.51797,-20.99235 4.99894,-3.72691 10.00502,-7.06692 11.12459,-7.42227 1.11957,-0.35534 3.62176,0.10656 5.56032,1.02651 1.93867,0.91993 19.71104,17.88468 39.49429,37.69948 42.76331,42.8315 40.67318,38.96396 27.70635,51.26875 -13.4304,12.74458 -41.37323,30.23778 -59.47019,37.23041 -25.5937,9.8893 -44.0432,13.9303 -74.07989,16.2254 -13.92117,1.0638 -16.07563,1.0994 -25.12011,0.4147 z M 1311.4766,393.27018 c -11.3123,-1.86863 -10.6325,-7.37722 1.0911,-8.84199 6.3102,-0.7884 10.7431,-3.75795 9.6934,-6.49341 -1.3617,-3.54871 -1.8298,-25.99648 -0.6884,-33.01512 2.4104,-14.82186 2.4509,-20.87276 0.2067,-30.93333 -2.9499,-13.22441 -3.6539,-22.63216 -2.0354,-27.2 0.7275,-2.05334 1.7508,-3.73334 2.2742,-3.73334 3.1719,0 9.281,14.94158 11.3053,27.65008 0.6468,4.06088 1.1885,16.71715 1.2038,28.12506 l 0.028,20.74164 -4.9765,10.09379 -4.9766,10.09379 2.1736,4.98116 c 2.0426,4.68135 2.0647,5.08899 0.3656,6.77289 -2.4354,2.41372 -7.9509,3.03298 -15.6646,1.75878 z m -18.923,-11.08583 c -0.3716,-0.37165 -10.4283,-0.78519 -22.3481,-0.919 -20.5346,-0.2305 -22.0361,-0.38849 -28.6055,-3.00979 -3.8133,-1.52159 -10.0407,-3.32523 -13.8387,-4.0081 -7.9513,-1.42964 -10.4992,-2.54451 -13.071,-5.71931 -2.7202,-3.35814 -2.4932,-13.94852 0.4652,-21.70181 2.1414,-5.61207 2.3263,-7.74928 2.0345,-23.50668 -0.1767,-9.53333 0.03,-17.33333 0.4585,-17.33333 0.4287,0 2.8625,1.92 5.4084,4.26666 5.2337,4.82425 5.3729,4.85274 12.6764,2.59464 3.5499,-1.09753 7.1758,-1.42847 10.8429,-0.98967 7.1151,0.85138 12.3755,-0.62523 20.1827,-5.66541 3.4693,-2.23968 9.3319,-5.68202 13.0279,-7.64964 8.3469,-4.44345 10.2687,-7.09776 12.3219,-17.01773 1.3624,-6.58282 2.308,-8.56661 5.8304,-12.23135 3.4207,-3.55892 4.7069,-6.16342 6.9013,-13.97417 1.4833,-5.28 3.0355,-11.88 3.4494,-14.66667 0.4401,-2.96336 1.31,-5.06666 2.0955,-5.06666 0.7386,0 3.2943,2.1169 5.6792,4.70424 4.8701,5.28341 6.0482,9.20161 6.0606,20.15668 0.011,6.49254 -0.274,7.47774 -2.6584,9.30962 -1.4667,1.12678 -3.9124,2.05935 -5.4347,2.0724 -8.2234,0.0705 -10.0083,12.11259 -5.8538,39.49039 2.4368,16.05774 -0.2321,30.78134 -6.3004,34.75747 -4.355,2.85354 -14.2499,0.73352 -19.7441,-4.23031 -2.9371,-2.65344 -5.5624,-3.9291 -9.2506,-4.495 -8.3384,-1.27936 -20.8018,-0.95951 -25.7275,0.66027 -4.0291,1.3249 -5.3715,1.29646 -11.2,-0.23731 -5.3398,-1.40518 -7.1386,-1.49392 -9.2889,-0.45824 -2.5014,1.20481 -2.6514,1.73802 -2.4214,8.60285 0.3307,9.86466 1.5317,11.09094 10.7632,10.98991 5.3959,-0.0591 8.8404,0.61732 14.1943,2.78716 3.8881,1.57582 13.2481,5.01657 20.8,7.64614 7.5518,2.62956 14.9858,5.70665 16.52,6.83795 1.5343,1.13132 4.5765,2.8036 6.7606,3.71619 2.272,0.94929 3.779,2.23623 3.5221,3.00774 -0.5016,1.50673 -3.2099,2.32192 -4.2519,1.27987 z M 889.06667,341.0677 c -10.19456,-5.35188 -27.7391,-15.38824 -31.46667,-18.00045 -1.46667,-1.02782 -9.09632,-5.15123 -16.95477,-9.16314 -13.5423,-6.91368 -14.6959,-7.76091 -22.10251,-16.23274 -9.50443,-10.87146 -9.98421,-12.70307 -6.824,-26.05187 3.71797,-15.70477 4.37013,-17.128 8.85845,-19.33215 3.64875,-1.79178 5.15648,-1.86592 17.04608,-0.83812 7.17387,0.62015 23.12342,1.63388 35.44342,2.25276 37.05866,1.86158 42.13333,2.78571 42.13333,7.67272 0,1.13327 -1.93984,7.9145 -4.31072,15.06939 -5.66357,17.09153 -6.3376,24.03615 -3.19637,32.934 2.21216,6.26613 2.31157,7.5982 1.36512,18.29195 -1.65739,18.72781 -5.25088,21.13608 -19.99136,13.39765 z m 321.16493,-49.67736 c -0.955,-2.80259 -3.0781,-6.78501 -4.718,-8.84982 -1.64,-2.06481 -4.5212,-6.87419 -6.4026,-10.68753 -5.1365,-10.41052 -12.0336,-20.87795 -18.5779,-28.19462 -5.0847,-5.68494 -10.3998,-13.94897 -10.3998,-16.17 0,-1.2504 8.5087,0.36976 11.1988,2.13239 1.446,0.94749 3.0689,3.49346 3.6849,5.78088 1.4613,5.42725 6.11,11.38898 10.7163,13.74325 2.7249,1.39269 5.6062,1.82073 10.6667,1.58466 11.7922,-0.5501 15.2926,-0.49504 20.4258,0.32131 4.6456,0.7388 5.0827,0.60012 6.9131,-2.19351 1.505,-2.29703 1.9587,-5.08306 1.9743,-12.1266 0.02,-9.10664 0.011,-9.14578 -2.8091,-9.4719 -2.1101,-0.24423 -4.2161,0.9042 -8.2845,4.51746 -8.1586,7.24605 -8.9922,7.24438 -23.2522,-0.0464 -10.3834,-5.30872 -12.8948,-7.10443 -16.2824,-11.64206 -5.4691,-7.32591 -14.9245,-15.78167 -20.8607,-18.65533 -4.0938,-1.98179 -5.3711,-2.17576 -7.6099,-1.15571 -1.4797,0.6742 -2.465,1.81465 -2.1895,2.53434 4.0707,10.63778 4.4887,12.59916 2.9064,13.63798 -2.3464,1.54047 -8.3939,0.1506 -12.2965,-2.82605 -1.8746,-1.42981 -5.7543,-3.37663 -8.6216,-4.32625 -5.8709,-1.9444 -11.0799,-6.21775 -11.0799,-9.08972 0,-1.20129 1.0918,-2.18211 2.9334,-2.6353 1.6133,-0.39703 4.9369,-1.57351 7.3858,-2.61441 5.7235,-2.43283 5.258,-4.98438 -1.7271,-9.46669 -5.5792,-3.58012 -10.2256,-4.10256 -14.9158,-1.67714 -4.3604,2.2549 -4.5865,4.08803 -1.0901,8.84233 1.7065,2.32058 2.7928,4.52925 2.4139,4.90817 -0.8709,0.87094 -7.0793,0.8986 -9.3128,0.0415 -2.1843,-0.8382 -2.1603,-5.10562 0.048,-8.47545 1.3136,-2.00484 1.5634,-3.94111 1.0285,-7.97336 -0.3963,-2.98731 -0.1892,-7.24664 0.4718,-9.7011 1.0624,-3.94545 0.9458,-4.62292 -1.1854,-6.89149 -3.0286,-3.22382 -6.3352,-4.23377 -20.7165,-6.32764 -10.0855,-1.46839 -14.2427,-1.53353 -29.6009,-0.46383 -9.8272,0.68446 -19.0955,0.93628 -20.5963,0.55959 -3.4671,-0.87017 -9.9863,-6.86696 -22.1185,-20.34593 -5.2805,-5.86667 -17.0844,-18.28896 -26.23098,-27.6051 -18.57696,-18.921135 -21.45365,-22.395562 -21.45365,-25.910913 0,-3.201384 2.64074,-4.793498 15.46666,-9.324746 19.43767,-6.867106 44.07427,-11.780574 68.52907,-13.667236 18.2033,-1.404374 48.9513,-0.04925 65.328,2.879137 37.899,6.776851 77.7409,23.59514 109.6289,46.277158 10.8053,7.68594 24.8922,19.62418 27.3364,23.1671 0.7784,1.12818 1.6647,5.62869 1.9695,10.00114 0.5542,7.94879 0.555,7.95059 5.9115,12.8 6.0291,5.45847 15.2214,18.75219 17.2511,24.94829 1.4451,4.4115 1.0325,5.3479 -3.3103,7.51302 -5.5732,2.77856 -7.0528,12.74376 -2.5594,17.23726 1.44,1.44 3.0613,2.61819 3.6028,2.61819 1.8262,0 3.906,-3.4684 4.9791,-8.3036 1.4955,-6.73859 3.5605,-7.73348 8.8231,-4.25082 6.4009,4.2359 9.8957,11.06852 10.6304,20.78352 l 0.6114,8.08297 -3.0991,-0.76612 c -7.8109,-1.9309 -8.1975,-1.71589 -10.1366,5.63747 -2.2541,8.54857 -4.8561,11.30143 -10.6818,11.30143 -5.1397,0 -7.2982,-2.11247 -10.05,-9.83564 -0.9895,-2.77706 -3.6084,-8.88921 -5.82,-13.58254 -2.2114,-4.69334 -4.8111,-11.29052 -5.777,-14.66041 -2.2711,-7.92289 -5.3237,-10.27869 -10.111,-7.80307 -4.3401,2.24438 -8.4663,9.58126 -9.87,17.55013 -1.5277,8.67306 -0.7419,11.38779 3.7233,12.86142 6.3887,2.10846 7.9671,4.92646 10.969,19.58269 l 2.7591,13.4705 -6.849,6.95071 c -10.2255,10.37751 -13.5633,10.92473 -23.358,3.82953 -5.2794,-3.82445 -8.6426,-4.10266 -11.7716,-0.97377 -2.0626,2.06272 -2.1964,2.93142 -1.4365,9.33333 1.9797,16.67732 0.369,23.51484 -3.1241,13.26295 z"
         id="path3040"
         inkscape:connector-curvature="0" /><path
         style="fill:#010201;stroke-width:1.06666672"
         d="m -337.6,1007.2579 c -18.36829,-2.044 -31.32458,-5.0155 -45.33333,-10.39719 -31.77804,-12.208 -52.5739,-26.20366 -74.4,-50.07137 -14.44037,-15.7911 -14.79078,-14.44657 10.91204,-41.86968 8.24796,-8.8 19.96771,-21.52 26.04388,-28.26667 13.0791,-14.52233 15.8878,-17.05431 18.92602,-17.06136 1.30896,-0.003 6.31188,3.45652 11.73333,8.1137 21.84087,18.7619 47.01692,33.27997 65.45139,37.74332 18.94873,4.58786 36.24474,3.60952 49.8331,-2.81882 7.39876,-3.50017 15.92842,-11.44411 20.5669,-19.15463 3.38887,-5.63327 3.73309,-6.94787 3.73065,-14.24738 -0.003,-9.86784 -2.01536,-14.2666 -11.89809,-26.01161 -7.45531,-8.86015 -23.62474,-20.69383 -36.03043,-26.36906 -19.88063,-9.09479 -66.76454,-34.18792 -78.37143,-41.94583 -12.82022,-8.56889 -33.1092,-25.09513 -40.24194,-32.77877 -7.74052,-8.33837 -20.00451,-25.27714 -23.87584,-32.97684 -8.4146,-16.7358 -13.1295,-37.94266 -12.98909,-58.42274 0.15751,-22.97159 8.97373,-49.28996 23.09867,-68.95455 6.01386,-8.37243 24.93458,-26.78665 33.11084,-32.22446 17.81742,-11.84991 35.96387,-19.64152 52.8999,-22.71385 35.77307,-6.48949 67.28369,-4.93162 98.44377,4.86701 30.25912,9.51532 57.31793,26.57818 78.23109,49.33129 9.7747,10.63468 11.55491,13.63668 10.52354,17.746 -0.76674,3.05496 -48.81663,53.54863 -57.52742,60.45324 -7.31073,5.79485 -10.41573,5.5708 -18.28987,-1.31968 -19.7526,-17.28506 -43.05616,-29.82224 -60.01715,-32.28888 -11.00638,-1.60067 -26.71187,0.25873 -34.89868,4.13172 -19.28064,9.1212 -24.47979,29.51732 -11.33924,44.48357 6.21768,7.08155 17.83425,13.80761 66.24072,38.35377 34.6686,17.57989 48.71933,25.48869 63.54809,35.76956 12.09721,8.38708 27.61239,21.92116 34.78889,30.34677 21.44575,25.17852 31.88686,57.18654 30.38531,93.14851 -1.45295,34.79794 -12.57325,61.80882 -36.44894,88.53334 -16.94156,18.96301 -52.68938,38.57576 -79.67943,43.71547 -25.22204,4.803 -52.35105,5.9132 -77.12725,3.1561 z m 358.4,1.0111 c -24.8101973,-3.4486 -49.603264,-10.39653 -61.333333,-17.18782 -24.1088,-13.95811 -41.389024,-31.07709 -54.133291,-53.62819 -18.008876,-31.86686 -24.247526,-79.56713 -15.201156,-116.22694 5.6417,-22.86262 16.547023,-42.39755 32.474927,-58.17306 C -53.853739,739.7391 -28.375147,727.52124 9.6,721.33692 c 17.008608,-2.76989 19.490016,-2.88778 73.847755,-3.5084 l 56.247755,-0.64219 3.48558,-3.4974 c 3.40499,-3.41652 3.48196,-3.70015 3.32917,-12.26667 -0.57148,-32.04096 -12.21065,-53.56453 -33.80408,-62.51166 -10.07439,-4.17428 -19.739556,-5.22673 -31.128047,-3.38957 -17.333621,2.79622 -38.712117,12.21018 -53.185696,23.42018 -12.734058,9.8627 -12.184928,10.02984 -32.0514983,-9.75488 -24.3968537,-24.29636 -44.3312857,-45.72346 -44.9937177,-48.36283 -0.957952,-3.81676 2.443414,-8.8587 13.863179,-20.54986 22.363189,-22.89465 47.598037,-39.35141 74.503499,-48.58702 19.550549,-6.71095 53.127456,-10.28907 76.654011,-8.16865 28.03597,2.52685 42.75817,6.44321 63.36542,16.85632 25.15159,12.70941 46.25085,36.57371 58.71723,66.41204 5.80775,13.90087 11.93328,38.33107 13.24257,52.81475 1.84453,20.40474 1.69518,337.73882 -0.16035,340.71002 -2.65458,4.2506 -5.1126,4.4401 -53.42968,4.1186 l -46.5792,-0.31 -2.42099,-2.422 c -2.05254,-2.05344 -2.51987,-3.95269 -3.07076,-12.47969 -1.1386,-17.62388 -4.92875,-19.5134 -18.73979,-9.34246 -19.72437,14.52576 -33.702152,21.26965 -52.625693,25.39035 -11.182091,2.4349 -16.345067,2.9473 -32,3.1757 C 32.4,1008.5913 22.56,1008.5137 20.8,1008.269 Z m 53.670283,-94.666 c 31.503437,-6.67997 51.621857,-21.83498 63.672307,-47.96371 5.54492,-12.02294 7.01494,-18.92277 7.65273,-35.91963 0.54877,-14.62423 0.45705,-15.62174 -1.68364,-18.31364 -3.78355,-4.75782 -8.69391,-5.15303 -64.024459,-5.15303 -59.628021,0 -64.118965,0.44916 -79.614005,7.96253 -19.438336,9.42542 -28.095157,24.74636 -26.840992,47.5034 0.644096,11.68712 2.635808,18.12765 8.48496,27.4376 7.872224,12.53001 21.2374933,21.96977 36.606197,25.85459 12.333824,3.11769 37.387222,2.48487 55.746902,-1.40811 z m 239.289657,92.5657 c -1.87539,-0.7885 -3.84673,-2.6572 -4.43472,-4.2037 -0.69094,-1.8173 -1.05855,-104.27735 -1.05855,-295.03442 0,-320.50896 -0.47313,-297.49263 6.15273,-299.31463 1.60266,-0.44071 25.95393,-0.79017 54.11393,-0.77658 45.83936,0.0221 51.54943,0.21196 54.53741,1.81305 1.83557,0.98359 3.63143,2.55452 3.99077,3.49098 0.35935,0.93645 0.66598,133.74555 0.68139,295.13133 0.0248,260.34705 -0.15416,293.70677 -1.58792,295.89497 -2.91257,4.4451 -7.34429,4.7869 -59.60748,4.5976 -38.40133,-0.1391 -50.16368,-0.4953 -52.78756,-1.5986 z m 403.57339,1.0027 c -28.18304,-2.1334 -39.88362,-3.965 -57.13877,-8.94439 -24.8304,-7.1654 -36.09856,-12.16614 -63.92789,-28.37098 -26.57568,-15.4748 -55.75147,-43.57623 -75.72491,-72.93637 -6.51125,-9.57128 -19.78485,-35.92896 -24.44117,-48.53333 -4.16843,-11.2836 -9.5055,-32.34163 -12.16555,-48 -0.93333,-5.49448 -1.26837,-42.5843 -1.26837,-140.42091 0,-129.24681 0.0565,-133.01685 2.032,-135.2 2.01504,-2.22708 2.48245,-2.24576 56.20714,-2.24576 h 54.17526 l 2.99274,2.57366 2.99286,2.57368 0.24533,53.69299 c 0.13504,29.53116 0.50101,55.16893 0.81333,56.97283 0.31232,1.80391 2.03296,4.68391 3.82347,6.4 l 3.25568,3.12017 55.2352,0.53334 c 42.74571,0.41273 55.60779,0.84281 56.88299,1.90203 3.89642,3.23639 4.07648,6.08547 3.77376,59.69504 l -0.29643,52.47841 -2.42848,2.42893 -2.42848,2.42892 -55.86101,0.53333 c -53.10454,0.50702 -55.97216,0.63402 -58.11403,2.57366 -4.39765,3.98234 -4.88256,8.76811 -2.29643,22.66237 5.49664,29.53191 18.56331,52.7966 40.6912,72.44932 13.09718,11.63218 31.57046,21.36804 49.80278,26.24724 11.60672,3.1061 13.7985,3.35039 30.63445,3.41443 17.78176,0.0676 18.34016,1.8e-4 28.8,-3.47924 12.28032,-4.08499 25.51392,-11.29734 38.51797,-20.99235 4.99894,-3.72691 10.00502,-7.06692 11.12459,-7.42227 1.11957,-0.35534 3.62176,0.10656 5.56032,1.02651 1.93867,0.91993 19.71104,17.88468 39.49429,37.69948 42.76331,42.8315 40.67318,38.96396 27.70635,51.26875 -13.4304,12.74458 -41.37323,30.23778 -59.47019,37.23041 -25.5937,9.8893 -44.0432,13.9303 -74.07989,16.2254 -13.92117,1.0638 -16.07563,1.0994 -25.12011,0.4147 z M 889.06667,341.0677 c -10.19456,-5.35188 -27.7391,-15.38824 -31.46667,-18.00045 -1.46667,-1.02782 -9.09632,-5.15123 -16.95477,-9.16314 -13.5423,-6.91368 -14.6959,-7.76091 -22.10251,-16.23274 -9.50443,-10.87146 -9.98421,-12.70307 -6.824,-26.05187 3.71797,-15.70477 4.37013,-17.128 8.85845,-19.33215 3.64875,-1.79178 5.15648,-1.86592 17.04608,-0.83812 7.17387,0.62015 23.12342,1.63388 35.44342,2.25276 37.05866,1.86158 42.13333,2.78571 42.13333,7.67272 0,1.13327 -1.93984,7.9145 -4.31072,15.06939 -5.66357,17.09153 -6.3376,24.03615 -3.19637,32.934 2.21216,6.26613 2.31157,7.5982 1.36512,18.29195 -1.65739,18.72781 -5.25088,21.13608 -19.99136,13.39765 z M 1205.7197,224.95643 c -3.0142,-1.72877 -10.6942,-8.0167 -17.0667,-13.97319 -15.5507,-14.53555 -20.8862,-18.51062 -37.1863,-27.70487 -19.7477,-11.13883 -21.1237,-11.77352 -27.4125,-12.64387 -6.4951,-0.89889 -8.8991,-2.02651 -12.4778,-5.85261 -3.2254,-3.44846 -6.344,-4.42466 -20.9097,-6.54539 -10.0855,-1.46839 -14.2427,-1.53353 -29.6009,-0.46383 -9.8272,0.68446 -19.0956,0.93628 -20.5964,0.55959 -3.4671,-0.87017 -9.9862,-6.86696 -22.1185,-20.34593 -5.2804,-5.86667 -17.0843,-18.28896 -26.2309,-27.6051 -18.57664,-18.921105 -21.45333,-22.395532 -21.45333,-25.910883 0,-3.201384 2.64074,-4.793498 15.46666,-9.324746 31.29967,-11.05784 68.69207,-15.933585 104.79577,-13.664746 27.8409,1.749591 40.9824,4.280492 68.0042,13.096874 30.3823,9.912773 65.858,30.001991 88.837,50.306791 11.0091,9.72787 10.9371,9.58015 11.1849,22.94528 0.198,10.67775 0,11.95136 -2.7839,17.63532 -1.6486,3.36953 -6.146,10.08524 -9.9943,14.92381 -3.8484,4.83857 -8.7579,12.3974 -10.9103,16.7974 -5.8416,11.9419 -13.7798,25.8175 -16.3238,28.53333 -3.0146,3.21822 -6.6469,3.00856 -13.2232,-0.76323 z"
         id="path3038"
         inkscape:connector-curvature="0" /></g><path
       style="fill:#4dafff;fill-opacity:1;stroke:#004daf;stroke-width:1.63641655;stroke-miterlimit:4;stroke-dasharray:none;stroke-opacity:1"
       d="m 2741.1499,1107.7287 c -153.3744,0 -277.7,124.3255 -277.7,277.7 0,153.3745 124.3256,277.7 277.7,277.7 153.3745,0 277.7,-124.3255 277.7,-277.7 0,-153.3745 -124.3255,-277.7 -277.7,-277.7 z m 0,122.4667 c 85.7342,0 155.2334,69.4992 155.2334,155.2333 0,85.7342 -69.4992,155.2334 -155.2334,155.2334 -85.7341,0 -155.2333,-69.4992 -155.2333,-155.2334 0,-85.7341 69.4992,-155.2333 155.2333,-155.2333 z"
       id="path3158-4"
       inkscape:connector-curvature="0" /><line
       x1="292.48682"
       y1="1180.3085"
       x2="416.4953"
       y2="1180.3085"
       id="line1"
       style="stroke-width:10.334" /><g
       id="g1"
       transform="matrix(0.51651184,0,0,0.51651184,-148.03193,446.51979)"><path
         fill="url(#e399c19f-b68f-429d-b176-18c2117ff73c)"
         d="m 403.83512,1137.5212 h 40.68438 l -42.23438,125.1359 a 6.4875,6.4875 0 0 1 -6.14531,4.4125 h -31.6625 a 6.4765625,6.4765625 0 0 1 -6.1375,-8.5468 l 39.34844,-116.5891 a 6.4875,6.4875 0 0 1 6.14687,-4.4141 z"
         id="path9"
         style="fill:url(#e399c19f-b68f-429d-b176-18c2117ff73c);stroke-width:1.5625" /><path
         fill="#0078d4"
         d="m 462.95544,1221.454 h -64.51563 a 2.9859375,2.9859375 0 0 0 -2.03906,5.1703 l 41.45625,38.6938 a 6.5171875,6.5171875 0 0 0 4.44687,1.7515 h 36.53125 z"
         id="path10"
         style="stroke-width:1.5625" /><path
         fill="url(#ac2a6fc2-ca48-4327-9a3c-d4dcc3256e15)"
         d="m 403.83512,1137.5212 a 6.434375,6.434375 0 0 0 -6.16093,4.4984 l -39.28594,116.3969 a 6.46875,6.46875 0 0 0 6.10625,8.6531 h 32.47969 a 6.9421875,6.9421875 0 0 0 5.32812,-4.5312 l 7.83438,-23.0891 27.98437,26.1016 a 6.6203125,6.6203125 0 0 0 4.16563,1.5187 H 478.682 l -15.9625,-45.6156 -46.53281,0.011 28.47969,-83.9438 z"
         id="path11"
         style="fill:url(#ac2a6fc2-ca48-4327-9a3c-d4dcc3256e15);stroke-width:1.5625" /><path
         fill="url(#a7fee970-a784-4bb1-af8d-63d18e5f7db9)"
         d="m 455.79919,1141.9275 a 6.4765625,6.4765625 0 0 0 -6.1375,-4.4063 H 404.3195 a 6.478125,6.478125 0 0 1 6.1375,4.4063 l 39.35,116.5937 a 6.478125,6.478125 0 0 1 -6.1375,8.55 h 45.34375 a 6.478125,6.478125 0 0 0 6.13594,-8.55 z"
         id="path12"
         style="fill:url(#a7fee970-a784-4bb1-af8d-63d18e5f7db9);stroke-width:1.5625" /></g><rect
       x="120.01856"
       y="1035.0345"
       width="77.296936"
       height="64.414124"
       id="rect1"
       style="fill:none;stroke:url(#linearGradient13);stroke-width:3;stroke-dasharray:none" /><polyline
       points="20 40 28 32 20 24"
       id="polyline1"
       transform="matrix(1.610353,0,0,1.610353,107.13574,1015.7103)"
       style="fill:none;stroke:url(#linearGradient15);stroke-width:1.86294558;stroke-dasharray:none" /><line
       x1="158.66702"
       y1="1080.1244"
       x2="177.99129"
       y2="1080.1244"
       id="line1-6"
       style="fill:none;stroke:url(#linearGradient17);stroke-width:3;stroke-dasharray:none" /></g></svg>
