<?xml version="1.0" encoding="UTF-8" standalone="no"?>
<svg
   xmlns:dc="http://purl.org/dc/elements/1.1/"
   xmlns:cc="http://creativecommons.org/ns#"
   xmlns:rdf="http://www.w3.org/1999/02/22-rdf-syntax-ns#"
   xmlns:svg="http://www.w3.org/2000/svg"
   xmlns="http://www.w3.org/2000/svg"
   xmlns:sodipodi="http://sodipodi.sourceforge.net/DTD/sodipodi-0.dtd"
   xmlns:inkscape="http://www.inkscape.org/namespaces/inkscape"
   inkscape:export-ydpi="96"
   inkscape:export-xdpi="96"
   inkscape:export-filename="/home/lliurex/Desarrollo/zero-lliurex-installers/zero-lliurex-moodle.install/usr/share/zero-lliurex-moodle/moodle.png"
   sodipodi:docname="Moodle-Logo-RGB.svg"
   inkscape:version="1.0 (1.0+r73)"
   id="svg8"
   version="1.1"
   viewBox="0 0 16.933333 16.933334"
   height="64"
   width="64">
  <defs
     id="defs2" />
  <sodipodi:namedview
     inkscape:window-maximized="1"
     inkscape:window-y="30"
     inkscape:window-x="0"
     inkscape:window-height="903"
     inkscape:window-width="1920"
     units="px"
     showgrid="false"
     inkscape:document-rotation="0"
     inkscape:current-layer="Layer_1-2"
     inkscape:document-units="mm"
     inkscape:cy="7.1996237"
     inkscape:cx="108.327"
     inkscape:zoom="3.959798"
     inkscape:pageshadow="2"
     inkscape:pageopacity="0.0"
     borderopacity="1.0"
     bordercolor="#666666"
     pagecolor="#ffffff"
     id="base" />
  <metadata
     id="metadata5">
    <rdf:RDF>
      <cc:Work
         rdf:about="">
        <dc:format>image/svg+xml</dc:format>
        <dc:type
           rdf:resource="http://purl.org/dc/dcmitype/StillImage" />
        <dc:title></dc:title>
      </cc:Work>
    </rdf:RDF>
  </metadata>
  <g
     id="layer1"
     inkscape:groupmode="layer"
     inkscape:label="Capa 1">
    <g
       transform="matrix(0.04617071,0,0,0.04617071,0.15993586,-0.92604218)"
       id="Layer_2"
       data-name="Layer 2">
      <g
         id="Layer_1-2"
         data-name="Layer 1">
        <g
           transform="translate(7.5534301,11.31936)"
           id="g1593">
          <path
             id="path967"
             style="fill:#f98012"
             d="M 289.61,309.77 V 201.51 q 0,-33.94 -28,-33.95 -28,-0.01 -28.06,33.95 V 309.77 H 178.4 V 201.51 q 0,-33.94 -27.57,-33.95 -28.05,0 -28,33.95 V 309.77 H 67.67 V 195.12 q 0,-35.43 24.6,-53.63 21.66,-16.25 58.56,-16.25 37.41,0 55.12,19.19 15.26,-19.19 55.62,-19.19 36.9,0 58.54,16.25 24.6,18.19 24.61,53.63 v 114.65 z" />
          <path
             id="path979"
             style="fill:#333333"
             d="m 174.74,116.9 54.74,-40 -0.7,-2.44 C 130,86.57 85.08,95.15 0,144.47 l 0.79,2.24 6.76,0.07 c -0.62,6.81 -1.7,23.64 -0.32,48.95 -9.44,27.32 -0.24,45.88 8.4,66.07 1.37,-21 1.23,-44 -5.22,-66.89 -1.35,-25.14 -0.24,-41.67 0.37,-48.1 l 56.4,0.54 a 258,258 0 0 0 1.67,33.06 c 50.4,17.71 101.09,-0.06 128,-43.72 -7.47,-8.37 -22.11,-19.79 -22.11,-19.79 z" />
        </g>
      </g>
    </g>
  </g>
</svg>
