<?xml version="1.0" encoding="UTF-8" standalone="no"?>
<svg
   xmlns:a="http://ns.adobe.com/AdobeSVGViewerExtensions/3.0/"
   xmlns:dc="http://purl.org/dc/elements/1.1/"
   xmlns:cc="http://creativecommons.org/ns#"
   xmlns:rdf="http://www.w3.org/1999/02/22-rdf-syntax-ns#"
   xmlns:svg="http://www.w3.org/2000/svg"
   xmlns="http://www.w3.org/2000/svg"
   xmlns:xlink="http://www.w3.org/1999/xlink"
   xmlns:sodipodi="http://sodipodi.sourceforge.net/DTD/sodipodi-0.dtd"
   xmlns:inkscape="http://www.inkscape.org/namespaces/inkscape"
   sodipodi:docname="fonts.svg"
   inkscape:version="1.0 (1.0+r73)"
   id="svg1077"
   version="1.1"
   viewBox="0 0 16.933333 16.933334"
   height="64"
   width="64">
  <defs
     id="defs1071">
    <linearGradient
       inkscape:collect="always"
       xlink:href="#XMLID_1_"
       id="linearGradient3320"
       gradientUnits="userSpaceOnUse"
       x1="128.9995"
       y1="11"
       x2="128.9995"
       y2="245.0005" />
    <linearGradient
       id="XMLID_1_"
       gradientUnits="userSpaceOnUse"
       x1="128.9995"
       y1="11"
       x2="128.9995"
       y2="245.0005">
      <stop
         offset="0"
         style="stop-color:#494949"
         id="stop4132" />
      <stop
         offset="1"
         style="stop-color:#000000"
         id="stop4133" />
      <a:midPointStop
         offset="0"
         style="stop-color:#494949"
         id="midPointStop4134" />
      <a:midPointStop
         offset="0.5"
         style="stop-color:#494949"
         id="midPointStop4135" />
      <a:midPointStop
         offset="1"
         style="stop-color:#000000"
         id="midPointStop4136" />
    </linearGradient>
    <linearGradient
       inkscape:collect="always"
       xlink:href="#XMLID_2_"
       id="linearGradient3322"
       gradientUnits="userSpaceOnUse"
       x1="29.0532"
       y1="29.0532"
       x2="226.9471"
       y2="226.9471" />
    <linearGradient
       id="XMLID_2_"
       gradientUnits="userSpaceOnUse"
       x1="29.0532"
       y1="29.0532"
       x2="226.9471"
       y2="226.9471">
      <stop
         offset="0"
         style="stop-color:#FFFFFF"
         id="stop4140" />
      <stop
         offset="1"
         style="stop-color:#DADADA"
         id="stop4141" />
      <a:midPointStop
         offset="0"
         style="stop-color:#FFFFFF"
         id="midPointStop4142" />
      <a:midPointStop
         offset="0.5"
         style="stop-color:#FFFFFF"
         id="midPointStop4143" />
      <a:midPointStop
         offset="1"
         style="stop-color:#DADADA"
         id="midPointStop4144" />
    </linearGradient>
    <linearGradient
       inkscape:collect="always"
       xlink:href="#XMLID_3_"
       id="linearGradient3324"
       gradientUnits="userSpaceOnUse"
       x1="111.0884"
       y1="53.2495"
       x2="111.0884"
       y2="160.7919" />
    <linearGradient
       id="XMLID_3_"
       gradientUnits="userSpaceOnUse"
       x1="111.0884"
       y1="53.2495"
       x2="111.0884"
       y2="160.7919">
      <stop
         offset="0"
         style="stop-color:#616161"
         id="stop4152" />
      <stop
         offset="1"
         style="stop-color:#494949"
         id="stop4153" />
      <a:midPointStop
         offset="0"
         style="stop-color:#616161"
         id="midPointStop4154" />
      <a:midPointStop
         offset="0.5"
         style="stop-color:#616161"
         id="midPointStop4155" />
      <a:midPointStop
         offset="1"
         style="stop-color:#494949"
         id="midPointStop4156" />
    </linearGradient>
    <linearGradient
       inkscape:collect="always"
       xlink:href="#XMLID_4_"
       id="linearGradient3326"
       gradientUnits="userSpaceOnUse"
       x1="111.0425"
       y1="157.0293"
       x2="111.0425"
       y2="57.003399" />
    <linearGradient
       id="XMLID_4_"
       gradientUnits="userSpaceOnUse"
       x1="111.0425"
       y1="157.0293"
       x2="111.0425"
       y2="57.003399">
      <stop
         offset="0"
         style="stop-color:#828282"
         id="stop4159" />
      <stop
         offset="1"
         style="stop-color:#B2B2B2"
         id="stop4160" />
      <a:midPointStop
         offset="0"
         style="stop-color:#828282"
         id="midPointStop4161" />
      <a:midPointStop
         offset="0.5"
         style="stop-color:#828282"
         id="midPointStop4162" />
      <a:midPointStop
         offset="1"
         style="stop-color:#B2B2B2"
         id="midPointStop4163" />
    </linearGradient>
    <linearGradient
       inkscape:collect="always"
       xlink:href="#XMLID_5_"
       id="linearGradient3328"
       gradientUnits="userSpaceOnUse"
       x1="114.8843"
       y1="157.02831"
       x2="114.8843"
       y2="57.003601" />
    <linearGradient
       id="XMLID_5_"
       gradientUnits="userSpaceOnUse"
       x1="114.8843"
       y1="157.02831"
       x2="114.8843"
       y2="57.003601">
      <stop
         offset="0"
         style="stop-color:#828282"
         id="stop4166" />
      <stop
         offset="0.75"
         style="stop-color:#B2B2B2"
         id="stop4167" />
      <stop
         offset="1"
         style="stop-color:#FFFFFF"
         id="stop4168" />
      <a:midPointStop
         offset="0"
         style="stop-color:#828282"
         id="midPointStop4169" />
      <a:midPointStop
         offset="0.5"
         style="stop-color:#828282"
         id="midPointStop4170" />
      <a:midPointStop
         offset="0.75"
         style="stop-color:#B2B2B2"
         id="midPointStop4171" />
      <a:midPointStop
         offset="0.5"
         style="stop-color:#B2B2B2"
         id="midPointStop4172" />
      <a:midPointStop
         offset="1"
         style="stop-color:#FFFFFF"
         id="midPointStop4173" />
    </linearGradient>
    <linearGradient
       inkscape:collect="always"
       xlink:href="#XMLID_6_"
       id="linearGradient3330"
       gradientUnits="userSpaceOnUse"
       x1="142.3262"
       y1="90.817902"
       x2="142.3262"
       y2="198.3613" />
    <linearGradient
       id="XMLID_6_"
       gradientUnits="userSpaceOnUse"
       x1="142.3262"
       y1="90.817902"
       x2="142.3262"
       y2="198.3613">
      <stop
         offset="0"
         style="stop-color:#0053BD"
         id="stop4176" />
      <stop
         offset="1"
         style="stop-color:#00008D"
         id="stop4177" />
      <a:midPointStop
         offset="0"
         style="stop-color:#0053BD"
         id="midPointStop4178" />
      <a:midPointStop
         offset="0.5"
         style="stop-color:#0053BD"
         id="midPointStop4179" />
      <a:midPointStop
         offset="1"
         style="stop-color:#00008D"
         id="midPointStop4180" />
    </linearGradient>
    <linearGradient
       inkscape:collect="always"
       xlink:href="#XMLID_7_"
       id="linearGradient3332"
       gradientUnits="userSpaceOnUse"
       x1="142.27831"
       y1="194.5977"
       x2="142.27831"
       y2="94.5718" />
    <linearGradient
       id="XMLID_7_"
       gradientUnits="userSpaceOnUse"
       x1="142.27831"
       y1="194.5977"
       x2="142.27831"
       y2="94.5718">
      <stop
         offset="0"
         style="stop-color:#006DFF"
         id="stop4183" />
      <stop
         offset="1"
         style="stop-color:#57ADFF"
         id="stop4184" />
      <a:midPointStop
         offset="0"
         style="stop-color:#006DFF"
         id="midPointStop4185" />
      <a:midPointStop
         offset="0.5"
         style="stop-color:#006DFF"
         id="midPointStop4186" />
      <a:midPointStop
         offset="1"
         style="stop-color:#57ADFF"
         id="midPointStop4187" />
    </linearGradient>
    <linearGradient
       inkscape:collect="always"
       xlink:href="#XMLID_8_"
       id="linearGradient3334"
       gradientUnits="userSpaceOnUse"
       x1="146.12109"
       y1="194.59669"
       x2="146.12109"
       y2="94.571999" />
    <linearGradient
       id="XMLID_8_"
       gradientUnits="userSpaceOnUse"
       x1="146.12109"
       y1="194.59669"
       x2="146.12109"
       y2="94.571999">
      <stop
         offset="0"
         style="stop-color:#006DFF"
         id="stop4190" />
      <stop
         offset="0.75"
         style="stop-color:#57ADFF"
         id="stop4191" />
      <stop
         offset="1"
         style="stop-color:#FFFFFF"
         id="stop4192" />
      <a:midPointStop
         offset="0"
         style="stop-color:#006DFF"
         id="midPointStop4193" />
      <a:midPointStop
         offset="0.5"
         style="stop-color:#006DFF"
         id="midPointStop4194" />
      <a:midPointStop
         offset="0.75"
         style="stop-color:#57ADFF"
         id="midPointStop4195" />
      <a:midPointStop
         offset="0.5"
         style="stop-color:#57ADFF"
         id="midPointStop4196" />
      <a:midPointStop
         offset="1"
         style="stop-color:#FFFFFF"
         id="midPointStop4197" />
    </linearGradient>
  </defs>
  <sodipodi:namedview
     inkscape:window-maximized="1"
     inkscape:window-y="30"
     inkscape:window-x="0"
     inkscape:window-height="903"
     inkscape:window-width="1920"
     units="px"
     showgrid="false"
     inkscape:document-rotation="0"
     inkscape:current-layer="layer1"
     inkscape:document-units="mm"
     inkscape:cy="33.093975"
     inkscape:cx="141.21426"
     inkscape:zoom="1.979899"
     inkscape:pageshadow="2"
     inkscape:pageopacity="0.0"
     borderopacity="1.0"
     bordercolor="#666666"
     pagecolor="#ffffff"
     id="base" />
  <metadata
     id="metadata1074">
    <rdf:RDF>
      <cc:Work
         rdf:about="">
        <dc:format>image/svg+xml</dc:format>
        <dc:type
           rdf:resource="http://purl.org/dc/dcmitype/StillImage" />
        <dc:title></dc:title>
      </cc:Work>
    </rdf:RDF>
  </metadata>
  <g
     id="layer1"
     inkscape:groupmode="layer"
     inkscape:label="Capa 1">
    <g
       id="Layer_1"
       style="stroke:#000000"
       transform="matrix(0.06445119,0,0,0.05873566,0.21691435,0.94850219)">
      <g
         id="g4127">
        <path
           inkscape:connector-curvature="0"
           style="opacity:0.2;stroke:none"
           d="m 44,15.5 c -9.374,0 -17,7.626 -17,17 v 200 c 0,9.374 7.626,17 17,17 h 176 c 9.375,0 17,-7.626 17,-17 v -200 c 0,-9.374 -7.625,-17 -17,-17 z"
           id="path4128" />
        <path
           inkscape:connector-curvature="0"
           style="opacity:0.2;stroke:none"
           d="m 42,13.5 c -9.374,0 -17,7.626 -17,17 v 200 c 0,9.374 7.626,17 17,17 h 176 c 9.375,0 17,-7.626 17,-17 v -200 c 0,-9.374 -7.625,-17 -17,-17 z"
           id="path4129" />
        <path
           inkscape:connector-curvature="0"
           style="opacity:0.2;stroke:none"
           d="m 40,12.5 c -9.374,0 -17,7.626 -17,17 v 200 c 0,9.374 7.626,17 17,17 h 176 c 9.375,0 17,-7.626 17,-17 v -200 c 0,-9.374 -7.625,-17 -17,-17 z"
           id="path4130" />
        <linearGradient
           id="linearGradient1007"
           gradientUnits="userSpaceOnUse"
           x1="128.9995"
           y1="11"
           x2="128.9995"
           y2="245.0005">
          <stop
             offset="0"
             style="stop-color:#494949"
             id="stop1003" />
          <stop
             offset="1"
             style="stop-color:#000000"
             id="stop1005" />
          <a:midPointStop
             offset="0"
             style="stop-color:#494949"
             id="midPointStop4134" />
          <a:midPointStop
             offset="0.5"
             style="stop-color:#494949"
             id="midPointStop4135" />
          <a:midPointStop
             offset="1"
             style="stop-color:#000000"
             id="midPointStop4136" />
        </linearGradient>
        <path
           inkscape:connector-curvature="0"
           style="fill:url(#linearGradient3320);stroke:none"
           d="m 41,11 c -9.374,0 -17,7.626 -17,17 v 200 c 0,9.374 7.626,17 17,17 h 176 c 9.375,0 17,-7.626 17,-17 V 28 c 0,-9.374 -7.625,-17 -17,-17 z"
           id="path4137" />
        <path
           inkscape:connector-curvature="0"
           style="fill:#ffffff;stroke:none"
           d="m 28,228 c 0,6.627 5.373,12 12,12 h 176 c 6.627,0 12,-5.373 12,-12 V 28 c 0,-6.627 -5.373,-12 -12,-12 H 40 c -6.627,0 -12,5.373 -12,12 z"
           id="path4138" />
        <linearGradient
           id="linearGradient1015"
           gradientUnits="userSpaceOnUse"
           x1="29.0532"
           y1="29.0532"
           x2="226.9471"
           y2="226.9471">
          <stop
             offset="0"
             style="stop-color:#FFFFFF"
             id="stop1011" />
          <stop
             offset="1"
             style="stop-color:#DADADA"
             id="stop1013" />
          <a:midPointStop
             offset="0"
             style="stop-color:#FFFFFF"
             id="midPointStop4142" />
          <a:midPointStop
             offset="0.5"
             style="stop-color:#FFFFFF"
             id="midPointStop4143" />
          <a:midPointStop
             offset="1"
             style="stop-color:#DADADA"
             id="midPointStop4144" />
        </linearGradient>
        <path
           inkscape:connector-curvature="0"
           style="fill:url(#linearGradient3322);stroke:none"
           d="m 40,21 c -3.86,0 -7,3.14 -7,7 v 200 c 0,3.859 3.14,7 7,7 h 176 c 3.859,0 7,-3.141 7,-7 V 28 c 0,-3.86 -3.141,-7 -7,-7 z"
           id="path4145" />
        <path
           inkscape:connector-curvature="0"
           style="fill:none;stroke:none"
           d="M 256,256 H 0 V 0 h 256 z"
           id="path4146" />
      </g>
      <path
         inkscape:connector-curvature="0"
         style="opacity:0.2;stroke:none"
         d="m 158.085,58.745 c 0,0 -76.235,0 -77.883,0 -0.402,1.484 -8.018,29.566 -8.695,32.058 1.944,0 7.013,0 8.222,0 0.221,-0.81 0.535,-1.955 0.535,-1.955 4.267,-15.601 11.909,-18.458 26.385,-18.696 l 1.495,-0.025 -21.661,73.934 c -3.231,10.957 -5.583,11.99 -15.127,11.99 0,0 -1.184,0 -2.02,0 -0.324,1.166 -1.708,6.143 -2.232,8.033 2.688,0 47.457,0 49.03,0 0.324,-1.165 1.706,-6.143 2.232,-8.033 -1.448,0 -3.495,0 -3.495,0 -7.93,0 -11.245,-0.512 -11.245,-3.688 0,-3.361 1.998,-10.244 3.953,-16.533 l 0.159,-0.508 c 0,-0.002 18.801,-65.219 18.801,-65.219 h 6.313 c 11.876,0 13.056,2.335 13.056,8.07 0,3.249 -0.653,6.567 -1.291,9.383 0,0 -0.435,1.902 -0.739,3.247 1.871,0 6.839,0 8.016,0 0.435,-1.425 9.002,-29.509 9.78,-32.058 -1.488,0 -3.589,0 -3.589,0 z"
         id="path4147" />
      <path
         inkscape:connector-curvature="0"
         style="opacity:0.2;stroke:none"
         d="m 188.607,96.314 c 0,0 -76.235,0 -77.881,0 -0.404,1.484 -8.02,29.568 -8.696,32.06 1.943,0 7.011,0 8.221,0 0.222,-0.81 0.535,-1.958 0.535,-1.958 4.267,-15.6 11.909,-18.457 26.387,-18.695 l 1.493,-0.023 -21.661,73.935 c -3.231,10.954 -5.583,11.988 -15.127,11.988 0,0 -1.184,0 -2.02,0 -0.325,1.165 -1.707,6.145 -2.232,8.035 2.688,0 47.459,0 49.03,0 0.324,-1.166 1.706,-6.145 2.229,-8.035 -1.445,0 -3.493,0 -3.493,0 -7.93,0 -11.242,-0.513 -11.242,-3.689 0,-3.355 1.993,-10.228 3.944,-16.508 l 0.165,-0.533 c 0,-0.001 18.801,-65.218 18.801,-65.218 h 6.313 c 11.877,0 13.059,2.335 13.059,8.071 0,3.257 -0.655,6.572 -1.296,9.385 0,0 -0.432,1.901 -0.737,3.247 1.872,0 6.839,0 8.017,0 0.434,-1.425 9.002,-29.511 9.779,-32.06 -1.484,-0.002 -3.588,-0.002 -3.588,-0.002 z"
         id="path4148" />
      <path
         inkscape:connector-curvature="0"
         style="opacity:0.2;stroke:none"
         d="m 156.984,56.545 c 0,0 -76.235,0 -77.883,0 -0.402,1.485 -8.018,29.566 -8.695,32.058 1.944,0 7.013,0 8.222,0 0.221,-0.81 0.535,-1.955 0.535,-1.955 C 83.43,71.047 91.072,68.19 105.548,67.952 l 1.495,-0.024 -21.66,73.934 c -3.231,10.957 -5.584,11.991 -15.127,11.991 0,0 -1.184,0 -2.02,0 -0.324,1.165 -1.708,6.142 -2.232,8.032 2.688,0 47.457,0 49.029,0 0.324,-1.165 1.706,-6.142 2.232,-8.032 -1.448,0 -3.496,0 -3.496,0 -7.93,0 -11.245,-0.513 -11.245,-3.689 0,-3.361 1.998,-10.243 3.953,-16.533 l 0.159,-0.508 c 0,-10e-4 18.801,-65.219 18.801,-65.219 h 6.312 c 11.877,0 13.057,2.335 13.057,8.071 0,3.248 -0.653,6.566 -1.292,9.383 0,0 -0.434,1.902 -0.738,3.246 1.871,0 6.838,0 8.016,0 0.434,-1.424 9.002,-29.509 9.779,-32.058 -1.485,-10e-4 -3.587,-10e-4 -3.587,-10e-4 z"
         id="path4149" />
      <path
         inkscape:connector-curvature="0"
         style="opacity:0.2;stroke:none"
         d="m 187.508,94.114 c 0,0 -76.235,0 -77.881,0 -0.404,1.484 -8.02,29.568 -8.696,32.06 1.943,0 7.012,0 8.221,0 0.222,-0.81 0.535,-1.958 0.535,-1.958 4.267,-15.6 11.909,-18.457 26.388,-18.694 l 1.493,-0.024 -21.661,73.935 c -3.231,10.955 -5.583,11.988 -15.127,11.988 0,0 -1.184,0 -2.02,0 -0.324,1.165 -1.707,6.145 -2.232,8.035 2.688,0 47.459,0 49.029,0 0.325,-1.166 1.706,-6.145 2.23,-8.035 -1.446,0 -3.493,0 -3.493,0 -7.93,0 -11.243,-0.513 -11.243,-3.689 0,-3.355 1.994,-10.228 3.944,-16.507 l 0.166,-0.534 c 0,-0.001 18.801,-65.218 18.801,-65.218 h 6.313 c 11.876,0 13.058,2.335 13.058,8.07 0,3.257 -0.655,6.572 -1.295,9.384 0,0 -0.433,1.903 -0.737,3.248 1.871,0 6.839,0 8.016,0 0.435,-1.424 9.002,-29.511 9.78,-32.06 -1.487,-10e-4 -3.589,-10e-4 -3.589,-10e-4 z"
         id="path4150" />
      <linearGradient
         id="linearGradient1028"
         gradientUnits="userSpaceOnUse"
         x1="111.0884"
         y1="53.2495"
         x2="111.0884"
         y2="160.7919">
        <stop
           offset="0"
           style="stop-color:#616161"
           id="stop1024" />
        <stop
           offset="1"
           style="stop-color:#494949"
           id="stop1026" />
        <a:midPointStop
           offset="0"
           style="stop-color:#616161"
           id="midPointStop4154" />
        <a:midPointStop
           offset="0.5"
           style="stop-color:#616161"
           id="midPointStop4155" />
        <a:midPointStop
           offset="1"
           style="stop-color:#494949"
           id="midPointStop4156" />
      </linearGradient>
      <path
         inkscape:connector-curvature="0"
         style="fill:url(#linearGradient3324);stroke:none"
         d="m 154.784,54.345 c 0,0 -76.235,0 -77.883,0 -0.401,1.484 -8.018,29.565 -8.694,32.058 1.944,0 7.012,0 8.222,0 0.222,-0.81 0.535,-1.955 0.535,-1.955 4.267,-15.601 11.909,-18.458 26.385,-18.695 l 1.496,-0.025 -21.661,73.935 c -3.231,10.957 -5.584,11.99 -15.127,11.99 0,0 -1.184,0 -2.02,0 -0.325,1.165 -1.708,6.143 -2.232,8.033 2.688,0 47.457,0 49.029,0 0.325,-1.166 1.706,-6.143 2.232,-8.033 -1.448,0 -3.496,0 -3.496,0 -7.93,0 -11.245,-0.513 -11.245,-3.689 0,-3.361 1.998,-10.243 3.953,-16.533 l 0.159,-0.508 c 0,-0.001 18.801,-65.219 18.801,-65.219 h 6.312 c 11.877,0 13.057,2.335 13.057,8.071 0,3.249 -0.653,6.567 -1.291,9.383 0,0 -0.435,1.902 -0.739,3.246 1.871,0 6.838,0 8.016,0 0.434,-1.424 9.002,-29.509 9.779,-32.058 -1.486,-10e-4 -3.588,-10e-4 -3.588,-10e-4 z"
         id="path4157" />
      <linearGradient
         id="linearGradient1035"
         gradientUnits="userSpaceOnUse"
         x1="111.0425"
         y1="157.0293"
         x2="111.0425"
         y2="57.003399">
        <stop
           offset="0"
           style="stop-color:#828282"
           id="stop1031" />
        <stop
           offset="1"
           style="stop-color:#B2B2B2"
           id="stop1033" />
        <a:midPointStop
           offset="0"
           style="stop-color:#828282"
           id="midPointStop4161" />
        <a:midPointStop
           offset="0.5"
           style="stop-color:#828282"
           id="midPointStop4162" />
        <a:midPointStop
           offset="1"
           style="stop-color:#B2B2B2"
           id="midPointStop4163" />
      </linearGradient>
      <path
         inkscape:connector-curvature="0"
         style="fill:url(#linearGradient3326);stroke:none"
         d="m 154.784,57.003 -8.159,26.744 h -2.72 c 0.756,-3.325 1.359,-6.648 1.359,-9.973 0,-7.252 -2.417,-10.728 -15.714,-10.728 h -8.31 l -19.34,67.088 c -1.36,4.38 -4.232,13.446 -4.232,17.829 0,6.194 6.802,6.345 13.902,6.345 l -0.756,2.722 H 67.3 l 0.756,-2.722 c 11.028,0 14.201,-2.114 17.677,-13.898 l 22.664,-77.364 h -3.022 c -16.621,0 -26.138,3.022 -30.974,20.701 h -2.72 l 7.253,-26.744 z"
         id="path4164" />
      <linearGradient
         id="linearGradient1044"
         gradientUnits="userSpaceOnUse"
         x1="114.8843"
         y1="157.02831"
         x2="114.8843"
         y2="57.003601">
        <stop
           offset="0"
           style="stop-color:#828282"
           id="stop1038" />
        <stop
           offset="0.75"
           style="stop-color:#B2B2B2"
           id="stop1040" />
        <stop
           offset="1"
           style="stop-color:#FFFFFF"
           id="stop1042" />
        <a:midPointStop
           offset="0"
           style="stop-color:#828282"
           id="midPointStop4169" />
        <a:midPointStop
           offset="0.5"
           style="stop-color:#828282"
           id="midPointStop4170" />
        <a:midPointStop
           offset="0.75"
           style="stop-color:#B2B2B2"
           id="midPointStop4171" />
        <a:midPointStop
           offset="0.5"
           style="stop-color:#B2B2B2"
           id="midPointStop4172" />
        <a:midPointStop
           offset="1"
           style="stop-color:#FFFFFF"
           id="midPointStop4173" />
      </linearGradient>
      <path
         inkscape:connector-curvature="0"
         style="fill:url(#linearGradient3328);stroke:none"
         d="m 81.229,60.003 c -0.333,1.228 -1.154,4.256 -2.193,8.084 6.041,-6.45 14.644,-8.042 26.339,-8.042 h 3.022 c 0.945,0 1.834,0.445 2.401,1.202 0.394,0.525 0.599,1.157 0.599,1.798 0,0.282 -0.04,0.566 -0.121,0.843 l -22.664,77.364 c -1.874,6.352 -3.865,10.354 -6.942,12.776 6.781,0 8.687,0 15.33,0 -1.428,-1.371 -2.333,-3.302 -2.333,-6.066 0,-4.313 2.172,-11.658 4.208,-18.206 l 0.159,-0.513 19.323,-67.03 c 0.371,-1.285 1.546,-2.169 2.883,-2.169 h 8.31 c 11.489,0 16.848,2.692 18.27,9.502 1.456,-4.772 2.19,-7.179 2.912,-9.545 -7.029,0.002 -65.425,0.002 -69.503,0.002 z"
         id="path4174" />
      <linearGradient
         id="linearGradient1051"
         gradientUnits="userSpaceOnUse"
         x1="142.3262"
         y1="90.817902"
         x2="142.3262"
         y2="198.3613">
        <stop
           offset="0"
           style="stop-color:#0053BD"
           id="stop1047" />
        <stop
           offset="1"
           style="stop-color:#00008D"
           id="stop1049" />
        <a:midPointStop
           offset="0"
           style="stop-color:#0053BD"
           id="midPointStop4178" />
        <a:midPointStop
           offset="0.5"
           style="stop-color:#0053BD"
           id="midPointStop4179" />
        <a:midPointStop
           offset="1"
           style="stop-color:#00008D"
           id="midPointStop4180" />
      </linearGradient>
      <path
         inkscape:connector-curvature="0"
         style="fill:url(#linearGradient3330);stroke:none"
         d="m 186.021,91.914 c 0,0 -76.233,0 -77.881,0 -0.401,1.485 -8.018,29.568 -8.694,32.06 1.944,0 7.012,0 8.222,0 0.222,-0.811 0.535,-1.958 0.535,-1.958 4.267,-15.6 11.907,-18.458 26.385,-18.695 l 1.495,-0.023 -21.66,73.934 c -3.231,10.955 -5.584,11.988 -15.129,11.988 0,0 -1.182,0 -2.02,0 -0.322,1.165 -1.706,6.145 -2.232,8.035 2.688,0 47.459,0 49.031,0 0.324,-1.166 1.706,-6.145 2.23,-8.035 -1.448,0 -3.496,0 -3.496,0 -7.928,0 -11.242,-0.513 -11.242,-3.688 0,-3.356 1.996,-10.229 3.946,-16.508 l 0.166,-0.534 c 0,-0.001 18.801,-65.218 18.801,-65.218 h 6.312 c 11.877,0 13.057,2.335 13.057,8.071 0,3.257 -0.653,6.572 -1.296,9.384 0,0 -0.432,1.902 -0.736,3.247 1.871,0 6.84,0 8.018,0 0.434,-1.425 9.002,-29.511 9.779,-32.06 -1.488,0 -3.591,0 -3.591,0 z"
         id="path4181" />
      <linearGradient
         id="linearGradient1058"
         gradientUnits="userSpaceOnUse"
         x1="142.27831"
         y1="194.5977"
         x2="142.27831"
         y2="94.5718">
        <stop
           offset="0"
           style="stop-color:#006DFF"
           id="stop1054" />
        <stop
           offset="1"
           style="stop-color:#57ADFF"
           id="stop1056" />
        <a:midPointStop
           offset="0"
           style="stop-color:#006DFF"
           id="midPointStop4185" />
        <a:midPointStop
           offset="0.5"
           style="stop-color:#006DFF"
           id="midPointStop4186" />
        <a:midPointStop
           offset="1"
           style="stop-color:#57ADFF"
           id="midPointStop4187" />
      </linearGradient>
      <path
         inkscape:connector-curvature="0"
         style="fill:url(#linearGradient3332);stroke:none"
         d="m 186.021,94.571 -8.157,26.744 h -2.72 c 0.754,-3.323 1.359,-6.648 1.359,-9.973 0,-7.252 -2.419,-10.728 -15.714,-10.728 h -8.312 l -19.339,67.088 c -1.359,4.381 -4.23,13.447 -4.23,17.828 0,6.195 6.797,6.346 13.898,6.346 l -0.754,2.721 H 98.536 l 0.756,-2.721 c 11.03,0 14.204,-2.116 17.68,-13.9 l 22.664,-77.362 h -3.022 c -16.621,0 -26.14,3.022 -30.974,20.7 h -2.72 l 7.253,-26.744 h 75.848 z"
         id="path4188" />
      <linearGradient
         id="linearGradient1067"
         gradientUnits="userSpaceOnUse"
         x1="146.12109"
         y1="194.59669"
         x2="146.12109"
         y2="94.571999">
        <stop
           offset="0"
           style="stop-color:#006DFF"
           id="stop1061" />
        <stop
           offset="0.75"
           style="stop-color:#57ADFF"
           id="stop1063" />
        <stop
           offset="1"
           style="stop-color:#FFFFFF"
           id="stop1065" />
        <a:midPointStop
           offset="0"
           style="stop-color:#006DFF"
           id="midPointStop4193" />
        <a:midPointStop
           offset="0.5"
           style="stop-color:#006DFF"
           id="midPointStop4194" />
        <a:midPointStop
           offset="0.75"
           style="stop-color:#57ADFF"
           id="midPointStop4195" />
        <a:midPointStop
           offset="0.5"
           style="stop-color:#57ADFF"
           id="midPointStop4196" />
        <a:midPointStop
           offset="1"
           style="stop-color:#FFFFFF"
           id="midPointStop4197" />
      </linearGradient>
      <path
         inkscape:connector-curvature="0"
         style="fill:url(#linearGradient3334);stroke:none"
         d="m 112.467,97.571 c -0.333,1.228 -1.154,4.255 -2.193,8.083 6.041,-6.449 14.644,-8.04 26.339,-8.04 h 3.022 c 0.945,0 1.835,0.445 2.401,1.202 0.393,0.525 0.599,1.157 0.599,1.798 0,0.282 -0.04,0.566 -0.121,0.843 l -22.664,77.362 c -1.874,6.353 -3.866,10.354 -6.942,12.777 6.782,0 8.688,0 15.331,0 -1.427,-1.371 -2.331,-3.302 -2.331,-6.066 0,-4.311 2.171,-11.658 4.207,-18.206 l 0.158,-0.511 19.321,-67.031 c 0.37,-1.284 1.546,-2.169 2.883,-2.169 h 8.312 c 11.488,0 16.847,2.691 18.269,9.5 1.456,-4.772 2.19,-7.179 2.911,-9.544 -7.029,0.002 -65.424,0.002 -69.502,0.002 z"
         id="path4198" />
    </g>
  </g>
</svg>
