<?xml version="1.0" encoding="UTF-8" standalone="no"?>
<svg
   xmlns:dc="http://purl.org/dc/elements/1.1/"
   xmlns:cc="http://creativecommons.org/ns#"
   xmlns:rdf="http://www.w3.org/1999/02/22-rdf-syntax-ns#"
   xmlns:svg="http://www.w3.org/2000/svg"
   xmlns="http://www.w3.org/2000/svg"
   xmlns:xlink="http://www.w3.org/1999/xlink"
   xmlns:sodipodi="http://sodipodi.sourceforge.net/DTD/sodipodi-0.dtd"
   xmlns:inkscape="http://www.inkscape.org/namespaces/inkscape"
   sodipodi:docname="docker.svg"
   inkscape:version="1.0 (1.0+r73)"
   id="svg5130"
   version="1.1"
   viewBox="0 0 16.933333 16.933333"
   height="64"
   width="64">
  <defs
     id="defs5124">
    <clipPath
       id="clipPath8-5">
      <path
         inkscape:connector-curvature="0"
         d="M 76,2 V 48 H 54 V 71 H 35.580737 c -0.07818,0.665694 -0.141485,1.332869 -0.205737,2 -1.151162,12.530963 1.036422,24.087546 6.0625,33.96875 L 43.125,110 c 1.011403,1.81678 2.191241,3.52297 3.4375,5.1875 1.244725,1.66248 1.685716,2.58262 2.46875,3.6875 C 62.319911,133.81083 82.129473,141 105,141 155.64836,141 198.63299,118.56201 217.65625,68.15625 231.15302,69.54122 244.09968,66.080358 250,54.5625 240.60137,49.138835 228.52163,50.877226 221.5625,54.375 L 240,2 168,48 H 145 V 2 Z"
         id="path10-6" />
    </clipPath>
    <clipPath
       id="clipPath5095">
      <path
         inkscape:connector-curvature="0"
         d="M 76,2 V 48 H 54 V 71 H 35.580737 c -0.07818,0.665694 -0.141485,1.332869 -0.205737,2 -1.151162,12.530963 1.036422,24.087546 6.0625,33.96875 L 43.125,110 c 1.011403,1.81678 2.191241,3.52297 3.4375,5.1875 1.244725,1.66248 1.685716,2.58262 2.46875,3.6875 C 62.319911,133.81083 82.129473,141 105,141 155.64836,141 198.63299,118.56201 217.65625,68.15625 231.15302,69.54122 244.09968,66.080358 250,54.5625 240.60137,49.138835 228.52163,50.877226 221.5625,54.375 L 240,2 168,48 H 145 V 2 Z"
         id="path5093" />
    </clipPath>
    <clipPath
       id="clipPath5099">
      <path
         inkscape:connector-curvature="0"
         d="M 76,2 V 48 H 54 V 71 H 35.580737 c -0.07818,0.665694 -0.141485,1.332869 -0.205737,2 -1.151162,12.530963 1.036422,24.087546 6.0625,33.96875 L 43.125,110 c 1.011403,1.81678 2.191241,3.52297 3.4375,5.1875 1.244725,1.66248 1.685716,2.58262 2.46875,3.6875 C 62.319911,133.81083 82.129473,141 105,141 155.64836,141 198.63299,118.56201 217.65625,68.15625 231.15302,69.54122 244.09968,66.080358 250,54.5625 240.60137,49.138835 228.52163,50.877226 221.5625,54.375 L 240,2 168,48 H 145 V 2 Z"
         id="path5097" />
    </clipPath>
    <clipPath
       id="clipPath5103">
      <path
         inkscape:connector-curvature="0"
         d="M 76,2 V 48 H 54 V 71 H 35.580737 c -0.07818,0.665694 -0.141485,1.332869 -0.205737,2 -1.151162,12.530963 1.036422,24.087546 6.0625,33.96875 L 43.125,110 c 1.011403,1.81678 2.191241,3.52297 3.4375,5.1875 1.244725,1.66248 1.685716,2.58262 2.46875,3.6875 C 62.319911,133.81083 82.129473,141 105,141 155.64836,141 198.63299,118.56201 217.65625,68.15625 231.15302,69.54122 244.09968,66.080358 250,54.5625 240.60137,49.138835 228.52163,50.877226 221.5625,54.375 L 240,2 168,48 H 145 V 2 Z"
         id="path5101" />
    </clipPath>
  </defs>
  <sodipodi:namedview
     inkscape:window-maximized="1"
     inkscape:window-y="30"
     inkscape:window-x="0"
     inkscape:window-height="903"
     inkscape:window-width="1920"
     units="px"
     showgrid="false"
     inkscape:document-rotation="0"
     inkscape:current-layer="layer1"
     inkscape:document-units="mm"
     inkscape:cy="59.506931"
     inkscape:cx="51.812281"
     inkscape:zoom="2.8"
     inkscape:pageshadow="2"
     inkscape:pageopacity="0.0"
     borderopacity="1.0"
     bordercolor="#666666"
     pagecolor="#ffffff"
     id="base" />
  <metadata
     id="metadata5127">
    <rdf:RDF>
      <cc:Work
         rdf:about="">
        <dc:format>image/svg+xml</dc:format>
        <dc:type
           rdf:resource="http://purl.org/dc/dcmitype/StillImage" />
        <dc:title></dc:title>
      </cc:Work>
    </rdf:RDF>
  </metadata>
  <g
     id="layer1"
     inkscape:groupmode="layer"
     inkscape:label="Capa 1">
    <g
       transform="matrix(0.68703984,0,0,0.68703984,10.302915,13.424537)"
       id="g5770">
      <path
         d="M -0.74408328,-8.8735211 H 1.4655017 v 2.2587453 h 1.117237 c 0.515922,0 1.046594,-0.091913 1.535191,-0.25747 0.24008,-0.081406 0.509557,-0.1946929 0.746377,-0.3371681 -0.311913,-0.4072416 -0.471156,-0.921457 -0.518044,-1.4283224 -0.06366,-0.6893973 0.0754,-1.5867367 0.542005,-2.1263097 l 0.232267,-0.268648 0.276773,0.222485 c 0.69685,0.55986 1.282897,1.3421533 1.386195,2.2339547 0.839066,-0.2468084 1.824178,-0.1884323 2.563775,0.2384248 l 0.303427,0.1750798 -0.15971,0.3117056 c -0.625488,1.2207872 -1.933123,1.598944 -3.211569,1.5320277 -1.913037,4.7647656 -6.07793698,7.02056064 -11.127858,7.02056064 -2.6089557,0 -5.00262,-0.975279 -6.3656817,-3.29002104 -0.07992,-0.143787 -0.148353,-0.294138 -0.220932,-0.441813 -0.460754,-1.018907 -0.613787,-2.1351078 -0.509971,-3.2503776 l 0.03116,-0.3340634 h 1.889438 v -2.2587453 h 2.209586 v -2.2095859 h 4.4191717 v -2.209586 h 2.65154802 v 4.4191719"
         id="path14"
         style="display:inline;fill:#394d54;stroke-width:0.0966319"
         inkscape:connector-curvature="0" />
      <g
         id="g18"
         style="display:inline"
         transform="matrix(0.09663193,0,0,0.09663193,-14.996095,-13.292693)">
        <g
           transform="translate(0,-22.866)"
           id="g20">
          <path
             d="m 123.85901,3.8110794 h 19.81751 V 23.62805 h -19.81751 z"
             id="path22"
             style="fill:#00acd3"
             inkscape:connector-curvature="0" />
          <path
             d="m 123.85901,26.676485 h 19.81751 v 19.818043 h -19.81751 z"
             id="path24"
             style="fill:#20c2ef"
             inkscape:connector-curvature="0" />
          <path
             d="M 126.29235,21.976904 V 5.4611548 M 129.2642,21.976904 V 5.4611548 m 3.00184,16.5157492 V 5.4611548 m 3.00344,16.5157492 V 5.4611548 M 138.2724,21.976904 V 5.4611548 m 2.97131,16.5157492 V 5.4611548"
             id="path26"
             style="stroke:#394d54;stroke-width:1.56"
             inkscape:connector-curvature="0" />
          <use
             transform="translate(0,22.866)"
             id="use28"
             xlink:href="#path26"
             x="0"
             y="0"
             width="100%"
             height="100%" />
        </g>
        <use
           transform="matrix(1,0,0,-1,22.866,4.572651)"
           id="use30"
           xlink:href="#g20"
           x="0"
           y="0"
           width="100%"
           height="100%" />
      </g>
      <use
         transform="translate(-8.8383427,4.4191718)"
         id="use32"
         xlink:href="#g18"
         x="0"
         y="0"
         width="100%"
         height="100%"
         style="display:inline" />
      <use
         transform="translate(-4.4191717,4.4191718)"
         id="use34"
         xlink:href="#g18"
         x="0"
         y="0"
         width="100%"
         height="100%"
         style="display:inline" />
      <use
         transform="translate(2.7765325e-7,4.4191718)"
         id="use36"
         xlink:href="#g18"
         x="0"
         y="0"
         width="100%"
         height="100%"
         style="display:inline" />
      <path
         d="m 221.57014,54.379649 c 1.53332,-11.915247 -7.38383,-21.274779 -12.91407,-25.71836 -6.37269,7.367765 -7.36295,26.677556 2.63498,34.807431 -5.57952,4.956117 -17.33731,9.448435 -29.37574,9.448435 L 34,72.917155 C 32.829255,85.484184 34,146 34,146 h 217 l -0.98657,-91.424 c -9.39863,-5.423665 -21.48419,-3.694326 -28.44332,-0.196552"
         clip-path="url(#clipPath8-5)"
         id="path38"
         style="display:inline;fill:#17b5eb"
         inkscape:connector-curvature="0"
         transform="matrix(0.09663193,0,0,0.09663193,-14.996095,-13.292693)" />
      <path
         d="m 34,89 v 57 H 251 V 89"
         clip-path="url(#clipPath8-5)"
         id="path40"
         style="display:inline;fill-opacity:0.17"
         inkscape:connector-curvature="0"
         transform="matrix(0.09663193,0,0,0.09663193,-14.996095,-13.292693)" />
      <path
         d="M 111.23736,140.88997 C 97.697741,134.4648 90.265707,125.73081 86.130611,116.19562 L 45,118 l 21,28 45.23736,-5.11003"
         clip-path="url(#clipPath8-5)"
         id="path42"
         style="display:inline;fill:#d4edf1"
         inkscape:connector-curvature="0"
         transform="matrix(0.09663193,0,0,0.09663193,-14.996095,-13.292693)" />
      <path
         d="m 222.5,53.9375 v 0.03125 c -20.86119,26.889144 -50.78312,50.37872 -82.90625,62.71875 -28.65478,11.00767 -53.638381,11.06039 -70.875,2.21875 -1.85607,-1.04832 -3.675701,-2.21152 -5.5,-3.3125 C 50.582097,106.76175 43.464274,92.152308 44.0625,72.90625 H 34 V 146 H 251 V 50 h -25 z"
         clip-path="url(#clipPath8-5)"
         id="path44"
         style="display:inline;fill-opacity:0.085"
         inkscape:connector-curvature="0"
         transform="matrix(0.09663193,0,0,0.09663193,-14.996095,-13.292693)" />
      <path
         d="m -10.587263,-1.9837368 c 1.3688057,0.07492 2.8296192,0.08835 4.1038369,-0.311034"
         id="path46"
         style="display:inline;fill:none;stroke:#394d54;stroke-width:0.328549;stroke-linecap:round"
         inkscape:connector-curvature="0" />
      <path
         d="m -5.1231875,-2.9570128 c 0,0.29173 -0.2365095,0.52824 -0.5282393,0.52824 -0.2917815,0 -0.5283431,-0.23651 -0.5283431,-0.52824 0,-0.291729 0.2365616,-0.528343 0.5283431,-0.528343 0.2917298,0 0.5282393,0.236614 0.5282393,0.528343 z"
         id="path48"
         style="display:inline;fill:#d4edf1;stroke-width:0.0966319"
         inkscape:connector-curvature="0" />
      <path
         d="m -5.5144375,-3.3098618 c -0.046112,0.02665 -0.077318,0.07659 -0.077318,0.133728 0,0.08529 0.069142,0.154327 0.1544299,0.154327 0.058429,0 0.1091986,-0.03245 0.135437,-0.08037 0.018526,0.04466 0.028826,0.09372 0.028826,0.145166 0,0.208926 -0.1693868,0.378312 -0.3783639,0.378312 -0.2089256,0 -0.3784156,-0.169386 -0.3784156,-0.378312 0,-0.209028 0.16949,-0.378467 0.3784156,-0.378467 0.048337,0 0.094449,0.0091 0.1369893,0.02562 z"
         id="path50"
         style="display:inline;fill:#394d54;stroke-width:0.0966319"
         inkscape:connector-curvature="0" />
      <path
         d="M -14.996095,-4.5801318 H 9.5800557 c -0.535123,-0.135747 -1.693088,-0.319106 -1.502121,-1.0204067 -0.973002,1.1259307 -3.319572,0.7899007 -3.911777,0.2346984 -0.659485,0.9564923 -4.49865198,0.5929303 -4.76642098,-0.1522047 -0.82674902,0.970259 -3.38860902,0.970259 -4.21541002,0 -0.267872,0.745135 -4.1069878,1.108697 -4.7665239,0.1522047 -0.5922058,0.5552023 -2.9385678,0.8912323 -3.9116738,-0.2346984 0.190968,0.7013007 -0.966998,0.8846597 -1.502224,1.0204067"
         id="path52"
         style="display:inline;fill:#394d54;stroke-width:0.0966319"
         inkscape:connector-curvature="0" />
    </g>
  </g>
</svg>
