<?xml version="1.0" encoding="UTF-8" standalone="no"?>
<svg
   xmlns:dc="http://purl.org/dc/elements/1.1/"
   xmlns:cc="http://creativecommons.org/ns#"
   xmlns:rdf="http://www.w3.org/1999/02/22-rdf-syntax-ns#"
   xmlns:svg="http://www.w3.org/2000/svg"
   xmlns="http://www.w3.org/2000/svg"
   xmlns:sodipodi="http://sodipodi.sourceforge.net/DTD/sodipodi-0.dtd"
   xmlns:inkscape="http://www.inkscape.org/namespaces/inkscape"
   sodipodi:docname="llxhoot.svg"
   inkscape:version="1.0 (1.0+r73)"
   id="svg942"
   version="1.1"
   viewBox="0 0 16.933333 16.933334"
   height="64"
   width="64">
  <defs
     id="defs936" />
  <sodipodi:namedview
     inkscape:window-maximized="1"
     inkscape:window-y="30"
     inkscape:window-x="0"
     inkscape:window-height="903"
     inkscape:window-width="1920"
     units="px"
     showgrid="false"
     inkscape:document-rotation="0"
     inkscape:current-layer="layer1"
     inkscape:document-units="mm"
     inkscape:cy="108.34225"
     inkscape:cx="32.542363"
     inkscape:zoom="1.4"
     inkscape:pageshadow="2"
     inkscape:pageopacity="0.0"
     borderopacity="1.0"
     bordercolor="#666666"
     pagecolor="#ffffff"
     id="base" />
  <metadata
     id="metadata939">
    <rdf:RDF>
      <cc:Work
         rdf:about="">
        <dc:format>image/svg+xml</dc:format>
        <dc:type
           rdf:resource="http://purl.org/dc/dcmitype/StillImage" />
        <dc:title></dc:title>
      </cc:Work>
    </rdf:RDF>
  </metadata>
  <g
     id="layer1"
     inkscape:groupmode="layer"
     inkscape:label="Capa 1">
    <g
       style="font-style:normal;font-variant:normal;font-weight:normal;font-stretch:normal;font-size:29.3333px;line-height:1.25;font-family:Rufscript;-inkscape-font-specification:Rufscript;fill:#000000;fill-opacity:1;stroke:none"
       transform="matrix(0.19683365,0,0,0.19706179,12.462819,-203.142)"
       id="g2241">
      <g
         id="g2073"
         transform="matrix(0.6894491,0,0,0.6894491,-12.509819,333.82013)">
        <path
           id="path2028"
           d="m 9.32304,1093.276 c -10.151691,-10.9431 -19.077309,-20.5467 -19.834701,-21.3412 l -1.377077,-1.4447 21.235628,-17.1169 c 11.6796,-9.4143 21.40896,-17.1755 21.62082,-17.2471 0.54009,-0.1827 4.88838,4.1727 7.57999,7.5924 5.35032,6.7975 8.76182,14.4967 10.08015,22.7491 0.54191,3.3922 0.43437,11.0356 -0.20667,14.69 -1.48655,8.4746 -5.18018,16.1612 -11.23139,23.3731 -2.24873,2.6801 -7.36642,7.4626 -8.98613,8.3976 -0.26671,0.154 -7.24241,-7.1068 -18.88062,-19.6523 z"
           style="fill:#87aade;fill-opacity:1;stroke:#000000;stroke-width:0.318198;stroke-linecap:round;stroke-opacity:1" />
        <path
           id="path2032"
           d="m -30.497124,1050.4669 -17.404476,-18.8067 0.787466,-0.6221 c 1.645431,-1.2997 10.845397,-5.6147 14.487226,-6.7949 21.147581,-6.8532 45.004378,-2.9826 61.740558,10.0171 l 0.84054,0.6528 -21.14551,17.0592 c -11.630033,9.3825 -21.315571,17.1136 -21.523422,17.1802 -0.207847,0.067 -8.20992,-8.3419 -17.782382,-18.6856 z"
           style="fill:#ff5555;fill-opacity:1;stroke:#000000;stroke-width:0.318198;stroke-linecap:round;stroke-opacity:0" />
        <path
           id="path2036"
           d="m -60.268194,1103.9566 c -4.957463,-5.957 -8.292269,-12.5001 -10.124925,-19.8657 -1.255775,-5.0471 -1.55924,-12.792 -0.704863,-17.9892 1.179785,-7.1767 4.208907,-14.4377 8.592196,-20.5959 2.355232,-3.3089 7.748404,-8.8732 10.998638,-11.3476 l 2.244139,-1.7085 1.01388,1.0194 c 0.557634,0.5607 8.482319,9.054 17.610411,18.8739 l 16.596532,17.8545 -0.762668,0.7485 c -0.796096,0.7814 -42.519687,34.4375 -43.257485,34.8934 -0.265722,0.1642 -1.082488,-0.5329 -2.205855,-1.8828 z"
           style="fill:#d3bc5f;fill-opacity:1;stroke:#000000;stroke-width:0.318;stroke-linecap:round;stroke-miterlimit:4;stroke-dasharray:none;stroke-opacity:1" />
        <path
           id="path2038"
           d="m -15.390745,1125.6715 c -14.327142,-1.1701 -26.162536,-5.5531 -36.239223,-13.4202 -1.555635,-1.2146 -3.464823,-2.8712 -4.242641,-3.6815 -1.228441,-1.2797 -1.342238,-1.5281 -0.866293,-1.8915 0.791724,-0.6045 42.474002,-34.1965 43.165672,-34.7874 0.519416,-0.4438 2.493736,1.5677 18.87943,19.2348 10.06464,10.8517 19.0076,20.4681 19.87325,21.3697 l 1.5739,1.6393 -2.95244,1.8291 c -7.42193,4.5982 -15.90885,7.6821 -24.808346,9.0147 -3.428652,0.5135 -11.701493,0.912 -14.383309,0.693 z"
           style="fill:#000000;fill-opacity:0;stroke:#67be81;stroke-width:0.318198;stroke-linecap:round" />
        <path
           id="path2066"
           d="m -24.999997,1123.8572 c -9.13881,-1.9312 -15.711155,-4.6674 -23.000001,-9.5756 -5.826208,-3.9232 -8.620421,-6.5136 -7.999858,-7.4162 0.656711,-0.9551 42.079013,-34.2806 42.609532,-34.2806 0.224507,0 2.683069,2.3063 5.463472,5.125 6.925965,7.0215 33.676852,35.8816 33.676852,36.3322 0,0.2005 -1.63125,1.2948 -3.625,2.4319 -10.79696,6.1577 -20.63977,8.6314 -34.124997,8.5762 -5.849119,-0.024 -8.710646,-0.2865 -13,-1.1929 z"
           style="fill:#ffe680;fill-opacity:1;stroke:#000000;stroke-width:0.159;stroke-linecap:round;stroke-miterlimit:4;stroke-dasharray:none;stroke-opacity:1" />
      </g>
      <path
         d="m 8.2815845,1062.3396 q 3.8528605,0.7734 3.8528605,3.2083 0,2.1341 -2.9934865,5.5573 -3.4661419,3.9674 -3.4661419,5.9154 0,0.2291 0.042969,0.444 0.3294267,1.2747 0.3294267,1.9765 0,0.8451 -0.4726557,0.8451 -0.014323,0 -0.028646,0 -1.9908831,-0.1576 -2.0481747,-0.4011 -0.143229,-0.6588 -0.143229,-1.2747 0,-0.9023 0.3007809,-1.7474 0.429687,-1.1458 4.8554632,-7.8633 0.9166656,-1.3893 0.9166656,-2.2487 0,-1.1028 -1.4466129,-1.375 -0.143229,-0.029 -0.3007809,-0.029 -1.6041649,0 -5.9869723,2.3489 -0.1145832,0.057 -0.2291664,0.057 -0.55859315,0 -1.46093586,-1.1028 0,-0.014 0,-0.043 0,-0.1719 0.47265571,-0.7448 0.429687,-0.4583 1.60416485,-1.2031 1.2460923,-0.7734 1.3320297,-0.8451 0.9023427,-0.8593 2.6783823,-1.332 0.8020824,-0.2005 1.4752588,-0.2005 0.3867183,0 0.716145,0.057 z m -2.1197893,23.2031 q -0.6158847,0.5156 -1.1315091,0.5156 -0.1718748,0 -0.3151038,-0.043 -0.6445305,-0.2148 -1.2317694,-0.9453 -0.5872389,-0.7304 -0.5872389,-1.2317 0,-0.5157 0.8736969,-1.3607 0.7447908,-0.7162 1.3893213,-0.7162 0.1145832,0 0.2148435,0.029 1.6041648,0.3437 1.6041648,2.1198 0,0.9453 -0.8164053,1.6328 z"
         id="path2081" />
      <path
         id="path2081-6"
         d="m -18.304914,1040.464 q 3.852861,0.7735 3.852861,3.2083 0,2.1341 -2.993487,5.5574 -3.466142,3.9674 -3.466142,5.9154 0,0.2291 0.04297,0.4439 0.329427,1.2748 0.329427,1.9765 0,0.8451 -0.472656,0.8451 -0.01432,0 -0.02865,0 -1.990883,-0.1576 -2.048174,-0.4011 -0.143229,-0.6588 -0.143229,-1.2747 0,-0.9023 0.30078,-1.7474 0.429687,-1.1458 4.855464,-7.8633 0.916665,-1.3893 0.916665,-2.2487 0,-1.1028 -1.446613,-1.375 -0.143229,-0.029 -0.300781,-0.029 -1.604164,0 -5.986972,2.3489 -0.114583,0.057 -0.229166,0.057 -0.558593,0 -1.460936,-1.1028 0,-0.014 0,-0.043 0,-0.1719 0.472656,-0.7448 0.429687,-0.4583 1.604164,-1.203 1.246093,-0.7735 1.33203,-0.8452 0.902343,-0.8593 2.678382,-1.332 0.802083,-0.2005 1.475259,-0.2005 0.386719,0 0.716145,0.057 z m -2.119789,23.2031 q -0.615885,0.5156 -1.131509,0.5156 -0.171875,0 -0.315104,-0.043 -0.644531,-0.2148 -1.231769,-0.9453 -0.587239,-0.7304 -0.587239,-1.2317 0,-0.5157 0.873697,-1.3606 0.74479,-0.7163 1.389321,-0.7163 0.114583,0 0.214843,0.029 1.604165,0.3437 1.604165,2.1199 0,0.9452 -0.816405,1.6327 z"
         style="font-style:normal;font-variant:normal;font-weight:normal;font-stretch:normal;font-size:29.3333px;line-height:1.25;font-family:Rufscript;-inkscape-font-specification:Rufscript;fill:#000000;fill-opacity:1;stroke:none" />
      <path
         style="font-style:normal;font-variant:normal;font-weight:normal;font-stretch:normal;font-size:29.3333px;line-height:1.25;font-family:Rufscript;-inkscape-font-specification:Rufscript;fill:#000000;fill-opacity:1;stroke:none"
         d="m -44.234333,1062.2547 q 3.852861,0.7735 3.852861,3.2083 0,2.1341 -2.993487,5.5574 -3.466142,3.9674 -3.466142,5.9154 0,0.2291 0.04297,0.4439 0.329427,1.2748 0.329427,1.9765 0,0.8451 -0.472656,0.8451 -0.01432,0 -0.02865,0 -1.990883,-0.1576 -2.048174,-0.4011 -0.143229,-0.6588 -0.143229,-1.2747 0,-0.9023 0.30078,-1.7474 0.429687,-1.1458 4.855464,-7.8633 0.916665,-1.3893 0.916665,-2.2487 0,-1.1028 -1.446613,-1.375 -0.143229,-0.029 -0.300781,-0.029 -1.604164,0 -5.986972,2.3489 -0.114583,0.057 -0.229166,0.057 -0.558593,0 -1.460936,-1.1028 0,-0.014 0,-0.043 0,-0.1719 0.472656,-0.7448 0.429687,-0.4583 1.604164,-1.203 1.246093,-0.7735 1.33203,-0.8452 0.902343,-0.8593 2.678382,-1.332 0.802083,-0.2005 1.475259,-0.2005 0.386719,0 0.716145,0.057 z m -2.119789,23.2031 q -0.615885,0.5156 -1.131509,0.5156 -0.171875,0 -0.315104,-0.043 -0.644531,-0.2148 -1.231769,-0.9453 -0.587239,-0.7304 -0.587239,-1.2317 0,-0.5157 0.873697,-1.3606 0.74479,-0.7163 1.389321,-0.7163 0.114583,0 0.214843,0.029 1.604165,0.3437 1.604165,2.1199 0,0.9452 -0.816405,1.6327 z"
         id="path2081-6-7" />
      <path
         style="font-style:normal;font-variant:normal;font-weight:normal;font-stretch:normal;font-size:29.3333px;line-height:1.25;font-family:Rufscript;-inkscape-font-specification:Rufscript;fill:#000000;fill-opacity:1;stroke:none"
         d="m -18.171909,1082.4212 q 3.852861,0.7735 3.852861,3.2083 0,2.1341 -2.993487,5.5574 -3.466142,3.9674 -3.466142,5.9154 0,0.2291 0.04297,0.4439 0.329427,1.2748 0.329427,1.9765 0,0.8451 -0.472656,0.8451 -0.01432,0 -0.02865,0 -1.990883,-0.1576 -2.048174,-0.4011 -0.143229,-0.6588 -0.143229,-1.2747 0,-0.9023 0.30078,-1.7474 0.429687,-1.1458 4.855464,-7.8633 0.916665,-1.3893 0.916665,-2.2487 0,-1.1028 -1.446613,-1.375 -0.143229,-0.029 -0.300781,-0.029 -1.604164,0 -5.986972,2.3489 -0.114583,0.057 -0.229166,0.057 -0.558593,0 -1.460936,-1.1028 0,-0.014 0,-0.043 0,-0.1719 0.472656,-0.7448 0.429687,-0.4583 1.604164,-1.203 1.246093,-0.7735 1.33203,-0.8452 0.902343,-0.8593 2.678382,-1.332 0.802083,-0.2005 1.475259,-0.2005 0.386719,0 0.716145,0.057 z m -2.119789,23.2031 q -0.615885,0.5156 -1.131509,0.5156 -0.171875,0 -0.315104,-0.043 -0.644531,-0.2148 -1.231769,-0.9453 -0.587239,-0.7304 -0.587239,-1.2317 0,-0.5157 0.873697,-1.3606 0.74479,-0.7163 1.389321,-0.7163 0.114583,0 0.214843,0.029 1.604165,0.3437 1.604165,2.1199 0,0.9452 -0.816405,1.6327 z"
         id="path2081-6-5" />
    </g>
  </g>
</svg>
