<?xml version="1.0" encoding="UTF-8" standalone="no"?>
<svg
   inkscape:export-ydpi="96"
   inkscape:export-xdpi="96"
   inkscape:export-filename="/home/lliurex/Desarrollo/zero-lliurex-installers/zero-lliurex-autofirma.install/usr/share/zero-lliurex-autofirma/autofirma.png"
   sodipodi:docname="autofirma.svg"
   inkscape:version="1.3 (1:1.3+202307231459+0e150ed6c4)"
   id="svg8"
   version="1.1"
   viewBox="0 0 16.933333 16.933333"
   height="64"
   width="64"
   xmlns:inkscape="http://www.inkscape.org/namespaces/inkscape"
   xmlns:sodipodi="http://sodipodi.sourceforge.net/DTD/sodipodi-0.dtd"
   xmlns="http://www.w3.org/2000/svg"
   xmlns:svg="http://www.w3.org/2000/svg"
   xmlns:rdf="http://www.w3.org/1999/02/22-rdf-syntax-ns#"
   xmlns:cc="http://creativecommons.org/ns#"
   xmlns:dc="http://purl.org/dc/elements/1.1/">
  <defs
     id="defs2" />
  <sodipodi:namedview
     inkscape:window-maximized="1"
     inkscape:window-y="0"
     inkscape:window-x="0"
     inkscape:window-height="882"
     inkscape:window-width="1920"
     units="px"
     showgrid="false"
     inkscape:document-rotation="0"
     inkscape:current-layer="g1705"
     inkscape:document-units="mm"
     inkscape:cy="55.55839"
     inkscape:cx="-3.788072"
     inkscape:zoom="3.959798"
     inkscape:pageshadow="2"
     inkscape:pageopacity="0.0"
     borderopacity="1.0"
     bordercolor="#666666"
     pagecolor="#ffffff"
     id="base"
     inkscape:showpageshadow="2"
     inkscape:pagecheckerboard="0"
     inkscape:deskcolor="#d1d1d1" />
  <metadata
     id="metadata5">
    <rdf:RDF>
      <cc:Work
         rdf:about="">
        <dc:format>image/svg+xml</dc:format>
        <dc:type
           rdf:resource="http://purl.org/dc/dcmitype/StillImage" />
        <dc:title />
      </cc:Work>
    </rdf:RDF>
  </metadata>
  <g
     id="layer1"
     inkscape:groupmode="layer"
     inkscape:label="Capa 1">
    <g
       id="g1973"
       transform="matrix(0.2572496,0,0,0.2572496,-63.471734,-248.48953)">
      <path
         d="m 25.347716,1000.8026 q 0,3.8183 2.168848,5.6664 1.145518,0.9776 2.688149,0.9776 1.344074,0 2.336856,-0.5346 1.038603,-0.5193 1.695367,-1.6037 0.565122,-0.9012 0.809499,-2.0009 0.290198,-1.1302 0.290198,-2.5048 0,-4.12386 -2.321583,-5.81926 -0.534575,-0.3665 -1.252433,-0.6262 -0.656764,-0.1833 -1.374622,-0.1833 -2.413224,0 -3.787846,1.9398 -0.244377,0.4124 -0.504028,0.9775 -0.305471,0.6567 -0.397112,1.1149 -0.229104,0.7179 -0.259651,1.283 -0.09164,0.61096 -0.09164,1.31356 z m 10.050011,-7.37716 q 0.06109,-0.5651 0.305472,-0.8095 0.290198,-0.2902 0.687311,-0.2902 0.47348,0 0.748405,0.2902 0.290198,0.2749 0.290198,0.8706 v 14.64736 q 0,1.1149 -1.038603,1.1149 -0.366566,0 -0.717858,-0.2749 -0.274925,-0.2902 -0.274925,-0.7178 v -2.23 q -2.382677,3.2227 -4.856996,3.2227 -3.406007,0 -5.467939,-2.5354 -1.939744,-2.3063 -1.939744,-5.8498 0,-5.49836 3.787846,-7.59086 1.542631,-0.947 3.283819,-0.947 2.688148,0 5.086099,2.8256 z"
         style="font-style:normal;font-variant:normal;font-weight:300;font-stretch:normal;font-size:medium;line-height:999.2%;font-family:UnDinaru;-inkscape-font-specification:'UnDinaru Light';letter-spacing:3.91004px;word-spacing:0px;fill:#ffffff;fill-opacity:1;stroke:none;stroke-width:0.09375;stroke-linecap:butt;stroke-linejoin:miter;stroke-miterlimit:4;stroke-dasharray:none;stroke-opacity:1"
         id="path3447"
         inkscape:connector-curvature="0" />
      <path
         d="m 45.233908,993.48654 q 0,-1.1608 1.06915,-1.1608 0.458207,0 0.778952,0.3208 0.305471,0.2749 0.305471,0.84 v 9.34736 q 0,1.0692 0.290198,1.9092 0.24438,0.7943 0.8095,1.451 0.5193,0.611 1.31353,0.9317 0.7484,0.3208 1.8481,0.3208 4.35297,0 4.35297,-4.6127 v -9.34736 q 0,-1.1608 1.05387,-1.1608 0.47348,0 0.77896,0.2902 0.32074,0.2138 0.32074,0.8706 v 9.42376 q 0,3.7726 -2.81034,5.4679 -1.45099,0.8706 -3.7573,0.8706 -2.03138,0 -3.45182,-0.84 -1.405171,-0.779 -2.214671,-2.3216 -0.274924,-0.6568 -0.504028,-1.5579 -0.183282,-0.7789 -0.183282,-1.619 z"
         style="font-style:normal;font-variant:normal;font-weight:300;font-stretch:normal;font-size:medium;line-height:999.2%;font-family:UnDinaru;-inkscape-font-specification:'UnDinaru Light';letter-spacing:3.91004px;word-spacing:0px;fill:#ffffff;fill-opacity:1;stroke:none;stroke-width:0.09375;stroke-linecap:butt;stroke-linejoin:miter;stroke-miterlimit:4;stroke-dasharray:none;stroke-opacity:1"
         id="path3449"
         inkscape:connector-curvature="0" />
      <path
         d="m 66.891839,994.35714 h -1.57318 q -0.47348,0 -0.74841,-0.2749 -0.27492,-0.2444 -0.35129,-0.5957 0,-0.9317 1.0997,-0.9317 h 1.57318 v -4.1697 q 0,-0.4582 0.30547,-0.7484 0.35129,-0.2443 0.7484,-0.2443 1.16079,0 1.16079,1.0538 v 4.1086 h 1.52736 q 0.53458,0 0.79423,0.2444 l -0.0458,-0.03 q 0.29019,0.3512 0.29019,0.7178 0,0.2902 -0.24437,0.5957 -0.25965,0.2749 -0.62622,0.2749 h -1.69537 v 13.83786 q 0,0.3665 -0.35129,0.7789 -0.15273,0.1222 -0.39711,0.2138 -0.32075,0.061 -0.47348,0.061 -0.36657,0 -0.68731,-0.3054 -0.30547,-0.2902 -0.30547,-0.8095 z"
         style="font-style:normal;font-variant:normal;font-weight:300;font-stretch:normal;font-size:medium;line-height:999.2%;font-family:UnDinaru;-inkscape-font-specification:'UnDinaru Light';letter-spacing:3.91004px;word-spacing:0px;fill:#ffffff;fill-opacity:1;stroke:none;stroke-width:0.09375;stroke-linecap:butt;stroke-linejoin:miter;stroke-miterlimit:4;stroke-dasharray:none;stroke-opacity:1"
         id="path3451"
         inkscape:connector-curvature="0" />
      <path
         d="m 78.744129,1000.8026 q 0,2.4743 1.19134,4.5057 1.28298,2.1383 3.78784,2.1383 1.64955,0 2.81034,-0.9165 1.08443,-0.84 1.69537,-2.4437 0.30547,-0.8706 0.42766,-1.5885 0.13746,-0.7178 0.13746,-1.6953 0,-1.72596 -0.56512,-3.28386 -0.50403,-1.4357 -1.63427,-2.3674 -0.61095,-0.5193 -1.31353,-0.7636 -0.65677,-0.2139 -1.49681,-0.2139 -1.66482,0 -2.74924,0.8095 -1.0997,0.8553 -1.69537,2.4743 -0.27493,0.6568 -0.44293,1.6038 -0.15274,0.9317 -0.15274,1.74116 z m -2.21467,0 q 0,-1.28296 0.21383,-2.27576 0.21383,-1.0386 0.71786,-2.0619 0.94696,-1.9398 2.59651,-3.0395 1.72591,-1.0997 3.72675,-1.0997 2.15357,0 3.81839,1.1608 1.619,1.1303 2.53541,3.07 0.42766,1.0233 0.65677,2.0314 0.18328,1.0997 0.18328,2.21466 0,4.8875 -3.34491,7.3007 -1.63427,1.1455 -3.84894,1.1455 -1.63427,0 -2.97835,-0.6873 -1.40517,-0.6873 -2.39795,-1.9092 -0.91641,-1.1913 -1.37462,-2.6576 -0.50403,-1.4662 -0.50403,-3.1921 z"
         style="font-style:normal;font-variant:normal;font-weight:300;font-stretch:normal;font-size:medium;line-height:999.2%;font-family:UnDinaru;-inkscape-font-specification:'UnDinaru Light';letter-spacing:3.91004px;word-spacing:0px;fill:#ffffff;fill-opacity:1;stroke:none;stroke-width:0.09375;stroke-linecap:butt;stroke-linejoin:miter;stroke-miterlimit:4;stroke-dasharray:none;stroke-opacity:1"
         id="path3453"
         inkscape:connector-curvature="0" />
      <g
         transform="matrix(3.3875214,0,0,3.3875214,-293.68245,-2358.456)"
         id="g1705">
        <g
           id="g8"
           transform="matrix(0.05878908,0,0,0.05878908,160.1382,983.65262)">
          <path
             class="cls-1"
             d="M 61.74,214.91 73,258.46 H 64.5 L 57,227.09 42.86,258.46 H 35.68 L 21.62,227.27 13.9,258.46 H 5.58 l 11.16,-43.55 h 7.36 l 15.2,33.72 15.14,-33.72 z"
             transform="translate(-5.58,-6.4)"
             id="path1"
             style="fill:#003545" />
          <path
             class="cls-1"
             d="m 105.11,231.74 v -5.07 h 8.21 v 31.79 h -8.21 v -5.12 c -2.17,3.68 -6.63,5.79 -12.06,5.79 -11.35,0 -17.68,-8 -17.68,-17.2 0,-8.87 6,-16 16.47,-16 5.97,0.07 10.92,2.07 13.27,5.81 z m -21,10.62 c 0,5.85 3.68,10.86 10.8,10.86 6.87,0 10.61,-4.89 10.61,-10.68 0,-5.79 -3.86,-10.74 -11,-10.74 -6.84,0 -10.4,4.94 -10.4,10.56 z"
             transform="translate(-5.58,-6.4)"
             id="path2"
             style="fill:#003545" />
          <path
             class="cls-1"
             d="m 131.83,258.46 h -8.2 v -31.79 h 8.2 v 7.12 a 12.58,12.58 0 0 1 11.46,-7.79 14.84,14.84 0 0 1 5.13,0.84 l -1.75,6 a 18,18 0 0 0 -4.34,-0.6 c -5.92,0 -10.5,4.46 -10.5,11 z"
             transform="translate(-5.58,-6.4)"
             id="path3"
             style="fill:#003545" />
          <path
             class="cls-1"
             d="m 152.52,218.28 a 4.17,4.17 0 0 1 4.4,-4.28 4.33,4.33 0 0 1 4.47,4.41 4.15,4.15 0 0 1 -4.47,4.22 4.22,4.22 0 0 1 -4.4,-4.35 z m 0.36,8.39 h 8.21 v 23.23 c 0,1.44 0.3,2.47 1.5,2.47 a 8.85,8.85 0 0 0 1.57,-0.18 l 1.27,6 a 14.36,14.36 0 0 1 -5.43,1 c -3.44,0 -7.12,-1 -7.12,-8.81 z"
             transform="translate(-5.58,-6.4)"
             id="path4"
             style="fill:#003545" />
          <path
             class="cls-1"
             d="m 197.76,231.74 v -5.07 H 206 v 31.79 h -8.21 v -5.12 c -2.17,3.68 -6.63,5.79 -12.06,5.79 -11.34,0 -17.68,-8 -17.68,-17.2 0,-8.87 6,-16 16.47,-16 5.94,0.07 10.89,2.07 13.24,5.81 z m -21,10.62 c 0,5.85 3.68,10.86 10.8,10.86 6.88,0 10.62,-4.89 10.62,-10.68 0,-5.79 -3.87,-10.74 -11,-10.74 -6.85,0 -10.41,4.94 -10.41,10.56 z"
             transform="translate(-5.58,-6.4)"
             id="path5"
             style="fill:#003545" />
          <path
             class="cls-1"
             d="m 218.57,214.91 h 19.67 c 16.53,0 24.79,9.11 24.67,21.77 0.12,13.16 -9,21.78 -23.22,21.78 h -21.12 z m 5.43,3.86 v 35.89 h 15 c 13.15,0 18.16,-8.87 18.16,-18.1 0,-10.43 -6.27,-17.79 -18.16,-17.79 z"
             transform="translate(-5.58,-6.4)"
             id="path6"
             style="fill:#003545" />
          <path
             class="cls-1"
             d="m 296.45,258.46 h -25 V 214.91 H 294 c 8.62,0 16.83,1.62 16.71,11.28 0,6.81 -4.23,8.69 -8.69,9.41 6.33,0.54 10.14,4.58 10.14,11.1 0.04,9.77 -8.53,11.76 -15.71,11.76 z m -1.87,-24.55 c 8.63,0 10.56,-3.32 10.56,-7.54 0,-6.34 -3.86,-7.78 -10.56,-7.78 h -17.92 v 15.32 z m 0.24,3.68 h -18.16 v 17.19 h 18.94 c 5.31,0 10.92,-1.75 10.92,-8.44 0,-7.72 -6.45,-8.75 -11.7,-8.75 z"
             transform="translate(-5.58,-6.4)"
             id="path7"
             style="fill:#003545" />
          <path
             class="cls-1"
             d="M 314.08,7.35 A 4.18,4.18 0 0 0 311.24,6.4 c -2.83,0 -6.49,1.92 -8.46,2.95 L 302,9.75 a 26.86,26.86 0 0 1 -10.57,2.66 c -3.76,0.12 -7,0.34 -11.22,0.78 -25,2.57 -36.15,21.73 -46.89,40.26 C 227.47,63.53 221.43,74 213.15,82 a 54.4,54.4 0 0 1 -5.45,4.63 c -8.57,6.37 -19.33,10.92 -27.7,14.14 -8.06,3.08 -16.86,5.85 -25.36,8.53 -7.79,2.45 -15.14,4.77 -21.9,7.28 -3.05,1.13 -5.64,2 -7.93,2.76 -6.16,2 -10.6,3.53 -17.09,8 -2.53,1.73 -5.07,3.6 -6.79,5 A 71.62,71.62 0 0 0 87.38,146.61 84.25,84.25 0 0 1 76,160.27 c -1.37,1.34 -3.8,2 -7.44,2 -4.26,0 -9.43,-0.88 -14.9,-1.81 -5.64,-1 -11.47,-1.95 -16.47,-1.95 -4.06,0 -7.17,0.66 -9.49,2 0,0 -3.91,2.28 -5.56,5.23 l 1.62,0.73 a 33.21,33.21 0 0 1 6.92,5 34.72,34.72 0 0 0 7.2,5.12 6.18,6.18 0 0 1 2.22,1.41 c -0.68,1 -1.68,2.29 -2.73,3.67 -5.77,7.55 -9.14,12.32 -7.21,14.92 a 6.07,6.07 0 0 0 3,0.68 c 12.58,0 19.34,-3.27 27.89,-7.41 2.48,-1.2 5,-2.43 8,-3.7 5,-2.17 10.38,-5.63 16.09,-9.29 C 92.61,172 100.42,167 108,164.59 a 62.3,62.3 0 0 1 19.23,-2.7 c 8,0 16.42,1.07 24.54,2.11 6.05,0.78 12.32,1.58 18.47,1.95 2.39,0.14 4.6,0.21 6.75,0.21 a 78.21,78.21 0 0 0 8.61,-0.45 l 0.69,-0.24 c 4.31,-2.65 6.33,-8.34 8.29,-13.84 1.26,-3.54 2.32,-6.72 4,-8.74 a 2.55,2.55 0 0 1 0.32,-0.27 0.4,0.4 0 0 1 0.49,0.08 c 0,0 0,0.05 0,0.16 -1,21.51 -9.66,35.17 -18.42,47.31 l -5.85,6.27 c 0,0 8.19,0 12.85,-1.8 17,-5.08 29.83,-16.28 39.17,-34.14 a 145.7,145.7 0 0 0 6.17,-14.09 c 0.16,-0.4 1.63,-1.14 1.49,0.93 -0.05,0.61 -0.09,1.29 -0.14,2 v 0 c 0,0.42 0,0.85 -0.08,1.28 -0.24,3 -0.95,9.34 -0.95,9.34 l 5.25,-2.81 c 12.66,-8 22.42,-24.14 29.82,-49.25 3.08,-10.46 5.34,-20.85 7.33,-30 2.38,-11 4.43,-20.43 6.78,-24.09 3.69,-5.74 9.32,-9.62 14.77,-13.39 0.74,-0.51 1.49,-1 2.22,-1.54 6.85,-4.81 13.66,-10.36 15.16,-20.71 v -0.23 c 1.09,-7.72 0.17,-9.69 -0.88,-10.59 z"
             transform="translate(-5.58,-6.4)"
             id="path8"
             style="fill:#003545" />
        </g>
      </g>
    </g>
  </g>
</svg>
