<?xml version="1.0" encoding="UTF-8" standalone="no"?>
<svg
   width="235"
   height="110"
   viewBox="0 0 62.177082 29.104167"
   version="1.1"
   id="svg8"
   inkscape:version="1.3 (1:1.3+202307231459+0e150ed6c4)"
   sodipodi:docname="zero-lliurex-gns3.svg"
   xmlns:inkscape="http://www.inkscape.org/namespaces/inkscape"
   xmlns:sodipodi="http://sodipodi.sourceforge.net/DTD/sodipodi-0.dtd"
   xmlns:xlink="http://www.w3.org/1999/xlink"
   xmlns="http://www.w3.org/2000/svg"
   xmlns:svg="http://www.w3.org/2000/svg"
   xmlns:rdf="http://www.w3.org/1999/02/22-rdf-syntax-ns#"
   xmlns:cc="http://creativecommons.org/ns#"
   xmlns:dc="http://purl.org/dc/elements/1.1/">
  <defs
     id="defs2">
    <radialGradient
       cx="24"
       cy="38.5"
       r="6"
       fx="24"
       fy="38.5"
       id="radialGradient7112"
       xlink:href="#linearGradient7106"
       gradientUnits="userSpaceOnUse"
       gradientTransform="matrix(15.555556,0,0,5.7777765,-248.00001,-209.11107)" />
    <linearGradient
       id="linearGradient7106">
      <stop
         id="stop7108"
         style="stop-color:#000000;stop-opacity:1"
         offset="0" />
      <stop
         id="stop7110"
         style="stop-color:#000000;stop-opacity:0"
         offset="1" />
    </linearGradient>
    <linearGradient
       x1="8"
       y1="39"
       x2="38"
       y2="39"
       id="linearGradient3233"
       xlink:href="#linearGradient3235"
       gradientUnits="userSpaceOnUse"
       gradientTransform="matrix(5.3333333,0,0,5.3333333,-1.291434e-7,-207.99999)" />
    <linearGradient
       id="linearGradient3235">
      <stop
         id="stop3237"
         style="stop-color:#fce94f;stop-opacity:1"
         offset="0" />
      <stop
         id="stop3239"
         style="stop-color:#fce94f;stop-opacity:1"
         offset="0.5" />
      <stop
         id="stop3241"
         style="stop-color:#edd400;stop-opacity:1"
         offset="0.75" />
      <stop
         id="stop3243"
         style="stop-color:#c4a000;stop-opacity:1"
         offset="1" />
    </linearGradient>
    <radialGradient
       cx="23.5"
       cy="19.5"
       r="14.5"
       fx="23.5"
       fy="19.5"
       id="radialGradient7116"
       xlink:href="#linearGradient7106"
       gradientUnits="userSpaceOnUse"
       gradientTransform="matrix(2.9425285,0,0,1.2873563,58.850576,-17.103442)" />
    <linearGradient
       x1="21"
       y1="37.6782"
       x2="42.230766"
       y2="54.179626"
       id="linearGradient4751"
       xlink:href="#linearGradient12294"
       gradientUnits="userSpaceOnUse"
       gradientTransform="matrix(12,0,0,6.7872917,-165.33334,-255.73293)" />
    <linearGradient
       id="linearGradient12294">
      <stop
         id="stop12296"
         style="stop-color:#fef8c4;stop-opacity:1"
         offset="0" />
      <stop
         id="stop12298"
         style="stop-color:#edd400;stop-opacity:1"
         offset="1" />
    </linearGradient>
    <linearGradient
       x1="3"
       y1="27"
       x2="39"
       y2="28"
       id="linearGradient2846"
       xlink:href="#linearGradient2188"
       gradientUnits="userSpaceOnUse"
       gradientTransform="matrix(5.3333333,0,0,5.3333333,-1.291434e-7,-207.99999)" />
    <linearGradient
       id="linearGradient2188">
      <stop
         id="stop2190"
         style="stop-color:#c4a000;stop-opacity:1"
         offset="0" />
      <stop
         id="stop3626"
         style="stop-color:#edd400;stop-opacity:1"
         offset="0.20552924" />
      <stop
         id="stop2848"
         style="stop-color:#fce94f;stop-opacity:1"
         offset="0.5" />
      <stop
         id="stop2850"
         style="stop-color:#edd400;stop-opacity:1"
         offset="0.75" />
      <stop
         id="stop2192"
         style="stop-color:#c4a000;stop-opacity:1"
         offset="1" />
    </linearGradient>
    <radialGradient
       cx="13.819342"
       cy="8.8798504"
       r="14.5"
       fx="13.819342"
       fy="8.8798504"
       id="radialGradient19774"
       xlink:href="#linearGradient3570"
       gradientUnits="userSpaceOnUse"
       gradientTransform="matrix(1.9024965,2.4521072,-3.016456,3.8878768,86.747307,-183.96581)" />
    <linearGradient
       id="linearGradient3570">
      <stop
         id="stop3572"
         style="stop-color:#ffffff;stop-opacity:1"
         offset="0" />
      <stop
         id="stop3574"
         style="stop-color:#fce94f;stop-opacity:1"
         offset="1" />
    </linearGradient>
    <linearGradient
       x1="12"
       y1="14"
       x2="44.565216"
       y2="47.6875"
       id="linearGradient17109"
       xlink:href="#linearGradient3570"
       gradientUnits="userSpaceOnUse"
       gradientTransform="matrix(4.9066666,0,0,4.7407408,4.6223715e-6,-199.4074)" />
    <radialGradient
       cx="10.450585"
       cy="27.331398"
       r="7"
       fx="10.450585"
       fy="27.331398"
       id="radialGradient6717"
       xlink:href="#linearGradient6328"
       gradientUnits="userSpaceOnUse"
       gradientTransform="matrix(13.999998,14.636586,-2.3088315,11.717362,-26.537912,-554.33553)" />
    <linearGradient
       id="linearGradient6328">
      <stop
         id="stop6330"
         style="stop-color:#ffffff;stop-opacity:1"
         offset="0" />
      <stop
         id="stop6332"
         style="stop-color:#ffffff;stop-opacity:0"
         offset="1" />
    </linearGradient>
    <radialGradient
       cx="23.5"
       cy="19.5"
       r="14.5"
       fx="23.5"
       fy="19.5"
       id="radialGradient5545"
       xlink:href="#linearGradient7106"
       gradientUnits="userSpaceOnUse"
       gradientTransform="matrix(1.6551723,0,0,0.735632,86.436789,-126.34481)" />
    <radialGradient
       cx="13.071457"
       cy="21.094482"
       r="15.5"
       fx="13.071457"
       fy="21.094482"
       id="radialGradient17706"
       xlink:href="#linearGradient3570"
       gradientUnits="userSpaceOnUse"
       gradientTransform="matrix(7.6190416,12.046227,-9.8827178,8.6225861,177.84974,-446.03407)" />
    <radialGradient
       cx="21.624998"
       cy="16.749998"
       r="5.5"
       fx="21.624998"
       fy="16.749998"
       id="radialGradient5934"
       xlink:href="#linearGradient7499"
       gradientUnits="userSpaceOnUse"
       gradientTransform="matrix(3.7333338,0,0,-3.8787877,34.933336,-73.696962)" />
    <linearGradient
       id="linearGradient7499">
      <stop
         id="stop7501"
         style="stop-color:#fff5ac;stop-opacity:1"
         offset="0" />
      <stop
         id="stop7503"
         style="stop-color:#edd400;stop-opacity:1"
         offset="1" />
    </linearGradient>
    <radialGradient
       cx="23.078409"
       cy="12.74359"
       r="3.5"
       fx="23.078409"
       fy="12.74359"
       id="radialGradient3185"
       xlink:href="#linearGradient3570"
       gradientUnits="userSpaceOnUse"
       gradientTransform="matrix(5.8649264,-14.075821,-10.000003,-10.666666,103.63831,316.7792)" />
    <radialGradient
       cx="22.999998"
       cy="28.5"
       r="3"
       fx="22.999998"
       fy="28.5"
       id="radialGradient11865"
       xlink:href="#linearGradient8285"
       gradientUnits="userSpaceOnUse"
       gradientTransform="matrix(3.1999989,0,0,6.2222229,1.0666852,-239.15563)" />
    <linearGradient
       id="linearGradient8285">
      <stop
         id="stop8287"
         style="stop-color:#ff6c6c;stop-opacity:1"
         offset="0" />
      <stop
         id="stop8289"
         style="stop-color:#cc0000;stop-opacity:1"
         offset="1" />
    </linearGradient>
    <linearGradient
       x1="21"
       y1="26"
       x2="25"
       y2="31"
       id="linearGradient11867"
       xlink:href="#linearGradient6328"
       gradientUnits="userSpaceOnUse"
       gradientTransform="matrix(1.7777771,0,0,4.4444443,33.77778,-186.26671)" />
    <radialGradient
       cx="22.999998"
       cy="28.5"
       r="3"
       fx="22.999998"
       fy="28.5"
       id="radialGradient14259"
       xlink:href="#linearGradient8285"
       gradientUnits="userSpaceOnUse"
       gradientTransform="matrix(3.2,0,0,6.2222229,97.066661,-238.66669)" />
    <linearGradient
       x1="21"
       y1="26"
       x2="25"
       y2="31"
       id="linearGradient14261"
       xlink:href="#linearGradient6328"
       gradientUnits="userSpaceOnUse"
       gradientTransform="matrix(1.7777771,0,0,4.4444443,129.77778,-185.77777)" />
    <radialGradient
       cx="22.999998"
       cy="28.5"
       r="3"
       fx="22.999998"
       fy="28.5"
       id="radialGradient17172"
       xlink:href="#linearGradient8285"
       gradientUnits="userSpaceOnUse"
       gradientTransform="matrix(5.3333306,0,0,8.2962949,5.0855414e-5,-281.77775)" />
    <linearGradient
       x1="21"
       y1="26"
       x2="25"
       y2="31"
       id="linearGradient17174"
       xlink:href="#linearGradient6328"
       gradientUnits="userSpaceOnUse"
       gradientTransform="matrix(2.9629616,0,0,5.9259237,54.518544,-211.25921)" />
    <radialGradient
       cx="3.5"
       cy="16.969122"
       r="3.0477226"
       fx="3.5"
       fy="16.969122"
       id="radialGradient18124"
       xlink:href="#linearGradient14664"
       gradientUnits="userSpaceOnUse"
       gradientTransform="matrix(0.5290677,1.2697623,-1.3124555,0.7874732,23.91948,-1.0068978)" />
    <linearGradient
       id="linearGradient14664">
      <stop
         id="stop14666"
         style="stop-color:#ffffff;stop-opacity:1"
         offset="0" />
      <stop
         id="stop14668"
         style="stop-color:#eeeeec;stop-opacity:1"
         offset="1" />
    </linearGradient>
    <radialGradient
       cx="3.5"
       cy="16.969122"
       r="3.0477226"
       fx="3.5"
       fy="16.969122"
       id="radialGradient18126"
       xlink:href="#linearGradient14664"
       gradientUnits="userSpaceOnUse"
       gradientTransform="matrix(0.5290677,1.2697623,-1.3124555,0.7874732,23.91948,-1.0068978)" />
    <radialGradient
       cx="3.5"
       cy="16.969122"
       r="3.0477226"
       fx="3.5"
       fy="16.969122"
       id="radialGradient18128"
       xlink:href="#linearGradient14664"
       gradientUnits="userSpaceOnUse"
       gradientTransform="matrix(0.5290677,1.2697623,-1.3124555,0.7874732,23.91948,-1.0068978)" />
    <radialGradient
       cx="3.5"
       cy="16.969122"
       r="3.0477226"
       fx="3.5"
       fy="16.969122"
       id="radialGradient18099"
       xlink:href="#linearGradient14664"
       gradientUnits="userSpaceOnUse"
       gradientTransform="matrix(0.5290677,1.2697623,-1.3124555,0.7874732,23.91948,-1.0068978)" />
    <linearGradient
       x1="40.035717"
       y1="12.358853"
       x2="41.660713"
       y2="35.394569"
       id="linearGradient19742"
       xlink:href="#linearGradient19744"
       gradientUnits="userSpaceOnUse"
       gradientTransform="matrix(5.3333333,0,0,5.3333333,-1.291434e-7,-207.99999)" />
    <linearGradient
       id="linearGradient19744">
      <stop
         id="stop19746"
         style="stop-color:#ffffff;stop-opacity:1"
         offset="0" />
      <stop
         id="stop19748"
         style="stop-color:#edd400;stop-opacity:1"
         offset="0.78597295" />
      <stop
         id="stop19750"
         style="stop-color:#ffffff;stop-opacity:1"
         offset="1" />
    </linearGradient>
    <linearGradient
       id="SVGID_1_"
       gradientUnits="userSpaceOnUse"
       x1="404.2251"
       y1="365.32321"
       x2="384.2139"
       y2="136.595"
       gradientTransform="matrix(1.0930955,0,0,1.0930955,-283.62241,209.60237)">
      <stop
         offset="0"
         style="stop-color:#00A5CE"
         id="stop6" />
      <stop
         offset="0.1989"
         style="stop-color:#1295CB"
         id="stop8" />
      <stop
         offset="0.5994"
         style="stop-color:#426BC5"
         id="stop10" />
      <stop
         offset="1"
         style="stop-color:#783CBD"
         id="stop12" />
    </linearGradient>
  </defs>
  <sodipodi:namedview
     id="base"
     pagecolor="#ffffff"
     bordercolor="#666666"
     borderopacity="1.0"
     inkscape:pageopacity="0.0"
     inkscape:pageshadow="2"
     inkscape:zoom="2.8284271"
     inkscape:cx="121.97592"
     inkscape:cy="78.135299"
     inkscape:document-units="mm"
     inkscape:current-layer="layer1"
     inkscape:document-rotation="0"
     showgrid="false"
     units="px"
     inkscape:window-width="1920"
     inkscape:window-height="882"
     inkscape:window-x="0"
     inkscape:window-y="0"
     inkscape:window-maximized="1"
     inkscape:showpageshadow="2"
     inkscape:pagecheckerboard="0"
     inkscape:deskcolor="#d1d1d1"
     showguides="false" />
  <metadata
     id="metadata5">
    <rdf:RDF>
      <cc:Work
         rdf:about="">
        <dc:format>image/svg+xml</dc:format>
        <dc:type
           rdf:resource="http://purl.org/dc/dcmitype/StillImage" />
        <dc:title />
      </cc:Work>
    </rdf:RDF>
  </metadata>
  <g
     inkscape:label="Capa 1"
     inkscape:groupmode="layer"
     id="layer1">
    <rect
       style="fill:#000000;fill-opacity:1;stroke:none;stroke-width:0.554971;stop-color:#000000"
       id="rect887"
       width="62.177082"
       height="29.104166"
       x="6.357829e-07"
       y="3.1789145e-07" />
    <path
       style="-inkscape-font-specification:'Noto Sans Bold';opacity:0.86;fill:#0b9bcc;stroke-width:0.0701146"
       d="m 28.977503,12.52996 h 2.795412 v 3.654778 q -0.553155,0.187678 -1.1557,0.296334 -0.592667,0.108655 -1.353256,0.108655 -1.580445,0 -2.429934,-0.928511 -0.849489,-0.928511 -0.849489,-2.706512 0,-1.106311 0.424745,-1.916289 0.434622,-0.809978 1.254478,-1.254478 0.819855,-0.4445001 2.005189,-0.4445001 0.563034,0 1.106311,0.1185334 0.543278,0.1185334 0.987778,0.316089 l -0.493889,1.1952117 q -0.325966,-0.167923 -0.740833,-0.276578 -0.414867,-0.108656 -0.869245,-0.108656 -0.651933,0 -1.135944,0.296334 -0.474134,0.296333 -0.740834,0.839611 -0.256822,0.5334 -0.256822,1.264356 0,0.691444 0.187678,1.224844 0.187677,0.533401 0.592666,0.839612 0.404989,0.296333 1.056923,0.296333 0.316089,0 0.5334,-0.02963 0.227189,-0.02963 0.414867,-0.06914 V 13.77456 h -1.333501 z m 10.72726,3.96099 H 37.808229 L 34.73624,11.156948 h -0.03951 q 0.01976,0.503767 0.03951,1.007534 0.02963,0.503767 0.04939,1.007534 v 3.318934 h -1.3335 V 9.4382147 h 1.886656 l 3.062112,5.2846123 h 0.02963 q -0.0099,-0.493889 -0.02963,-0.9779 -0.01976,-0.484011 -0.03951,-0.968023 V 9.4382147 h 1.343378 z m 5.936542,-1.955801 q 0,0.938389 -0.681567,1.501423 -0.671689,0.553155 -1.916289,0.553155 -1.116189,0 -1.995312,-0.424744 v -1.392767 q 0.503767,0.217311 1.037167,0.404989 0.543278,0.1778 1.076678,0.1778 0.553156,0 0.780345,-0.207433 0.237067,-0.217312 0.237067,-0.543278 0,-0.2667 -0.187678,-0.454378 -0.1778,-0.187678 -0.484011,-0.345723 -0.306212,-0.167922 -0.701323,-0.3556 -0.246944,-0.118533 -0.5334,-0.276577 -0.286455,-0.167923 -0.553156,-0.404989 -0.256822,-0.246945 -0.424744,-0.592667 -0.167922,-0.345723 -0.167922,-0.829734 0,-0.948267 0.642055,-1.4717889 0.642056,-0.5334002 1.748367,-0.5334002 0.553156,0 1.047045,0.1284112 0.503767,0.1284111 1.047045,0.3654778 l -0.484011,1.1655781 q -0.484012,-0.197556 -0.869245,-0.306211 -0.385234,-0.108656 -0.790222,-0.108656 -0.424745,0 -0.651934,0.197556 -0.227189,0.197555 -0.227189,0.513644 0,0.375356 0.335845,0.592667 0.335844,0.217311 0.997655,0.5334 0.543278,0.256823 0.918634,0.5334 0.385233,0.276578 0.592667,0.651934 0.207433,0.375356 0.207433,0.928511 z m 5.442644,-3.516489 q 0,0.730955 -0.4445,1.165578 -0.434622,0.434622 -1.076678,0.592666 v 0.02963 q 0.849489,0.09878 1.284111,0.513644 0.444501,0.414867 0.444501,1.116189 0,0.612423 -0.306212,1.106312 -0.296333,0.484011 -0.928511,0.770467 -0.6223,0.276577 -1.610078,0.276577 -1.145823,0 -2.034823,-0.385233 v -1.264356 q 0.454378,0.227189 0.948267,0.345722 0.503767,0.118534 0.928511,0.118534 0.800101,0 1.11619,-0.276578 0.325966,-0.276578 0.325966,-0.780345 0,-0.296333 -0.148166,-0.493889 -0.148167,-0.207433 -0.523523,-0.306211 -0.365478,-0.108655 -1.027289,-0.108655 h -0.5334 v -1.145823 h 0.543278 q 0.651933,0 0.987778,-0.118533 0.345722,-0.128411 0.464256,-0.335845 0.128411,-0.217311 0.128411,-0.493889 0,-0.375355 -0.237067,-0.582789 -0.227189,-0.217311 -0.770467,-0.217311 -0.503767,0 -0.879122,0.1778 -0.365478,0.167922 -0.6223,0.335845 l -0.691445,-1.027289 q 0.414867,-0.2963339 0.968023,-0.4938895 0.563033,-0.1975556 1.3335,-0.1975556 1.086556,0 1.718734,0.4445001 0.642055,0.434622 0.642055,1.234723 z"
       id="text1"
       aria-label="GNS3" />
    <g
       id="g2"
       transform="matrix(0.07845367,0,0,0.07845367,0.70116952,-24.994317)">
      <path
         d="m 167.16999,421.66332 c 0,6.34 -5.13717,11.47729 -11.47726,11.47729 -6.33986,0 -11.47761,-5.13729 -11.47761,-11.47729 0,-6.34019 5.13775,-11.47804 11.47761,-11.47804 6.34009,0 11.47726,5.13785 11.47726,11.47804 z M 41.57341,479.37865 c -6.886487,37.71152 2.514172,64.92952 17.161614,84.38707 26.124988,36.83736 64.492516,43.28645 64.492516,43.28645 44.81704,8.52584 78.92153,-6.99569 99.36233,-26.23425 25.68784,-24.37577 24.81373,-48.53334 24.92311,-48.86119 0.21851,-11.25931 -3.49797,-19.34782 -10.05651,-24.92306 -11.0404,-9.29128 -24.4855,-5.68414 -24.4855,-5.68414 -23.2827,5.46564 -19.457,26.67165 -19.457,26.67165 1.31155,6.33984 4.59052,10.49362 8.30733,12.89839 7.10497,4.37239 14.64752,3.49799 14.64752,3.49799 11.14958,-1.31129 14.42894,-11.80519 13.77292,-17.05238 -1.09318,-8.30719 -8.63562,-9.83784 -8.63562,-9.83784 -2.84184,-0.54643 -5.02802,-0.10925 -6.66791,0.76517 -2.40425,0.98433 -3.38861,2.62342 -3.38861,2.62342 -1.74868,2.95142 -0.65568,4.59143 0.43749,5.24736 0.65611,0.43714 1.42132,0.43714 1.42132,0.43714 0.87411,0 1.42053,-0.2185 2.07653,-0.54638 1.53057,-0.8745 2.73256,-2.29597 5.02855,-1.42145 3.3886,1.31184 2.514,4.91929 2.514,4.91929 -0.76536,3.93499 -3.06079,5.79343 -5.57488,6.44908 -3.3886,0.8745 -6.88644,-0.21851 -6.88644,-0.21851 -12.02422,-4.9193 -6.66794,-16.943 -6.66794,-16.943 3.71635,-7.54269 12.02432,-8.41719 12.02432,-8.41719 13.00749,-2.07647 21.64316,6.6679 20.22168,21.42461 -1.63939,18.36446 -15.73999,30.49734 -30.82506,38.14961 -56.51289,29.07595 -98.7065,-7.76156 -98.7065,-7.76156 -15.740627,-14.97516 -12.0241,-30.82515 -10.275139,-35.853 0.655867,-1.85856 2.404853,-2.18667 3.279285,-2.18667 12.898524,-1.09269 23.610724,22.73676 24.703824,26.01608 2.2955,5.46552 5.90259,8.52567 9.29119,10.49354 7.65184,4.2631 15.74104,2.18631 15.74104,2.18631 11.14918,-3.82574 7.32358,-12.89835 7.32358,-12.89835 -1.31154,-3.60724 -3.27936,-4.5916 -4.80941,-4.48175 -1.42153,0 -2.51417,1.09316 -2.51417,1.09316 -0.54659,0.65552 -1.20277,1.09252 -1.74915,1.63926 -7.10531,6.01193 -10.6033,-0.32811 -10.6033,-0.32811 -2.51397,-4.04423 1.31224,-6.23061 1.31224,-6.23061 0.76515,-0.43697 1.53004,-0.65583 2.07635,-0.87447 2.84229,-0.874 2.40529,-3.27934 2.40529,-3.27934 -0.43714,-4.4811 -5.46562,-2.62337 -5.46562,-2.62337 -4.9188,1.74936 -6.44941,5.79346 -6.88681,7.54276 -0.10925,0.54665 -0.21864,0.9838 -0.9834,1.09305 -1.42087,0.2185 -1.42087,-2.2956 -1.42087,-2.2956 -0.43766,-17.92675 -5.3563,-25.90628 -7.65197,-28.74817 -0.65595,-0.87508 -1.74896,-1.42143 -2.0767,-1.6399 -5.13777,-2.29543 -10.82182,-6.7772 -10.82182,-6.7772 -10.821645,-7.76093 -6.55856,-14.75663 -6.55856,-14.75663 6.44925,-16.1782 11.69615,-21.75305 11.69615,-21.75305 4.37223,-4.15383 8.96356,-0.43707 8.96356,-0.43707 -3.38859,4.154 -6.01223,8.19861 -6.01223,8.19861 -7.76098,12.35148 -9.07272,17.38012 -9.07272,17.38012 -0.10931,0.43699 -0.10931,1.2022 0.54656,2.0769 7.97963,13.66362 29.51353,15.74023 29.62279,15.74023 5.903,0.87439 10.71217,0.10925 10.71217,0.10925 2.84217,-0.5464 3.27932,1.31202 3.27932,1.31202 0.32816,1.09313 1.53073,4.15392 1.53073,4.15392 2.07675,4.37191 5.24645,2.07639 5.24645,2.07639 1.2029,-0.87441 1.74925,-2.07639 1.74925,-3.06023 0,-0.98427 -0.54635,-1.63992 -0.54635,-1.63992 -1.42154,-2.07704 -1.85853,-4.04413 -1.85853,-4.04413 -0.65564,-2.40529 2.07709,-3.38858 2.07709,-3.38858 5.35574,-2.40531 8.3072,2.18559 8.3072,2.18559 2.84233,3.3886 8.52646,-0.87441 8.52646,-0.87441 4.59089,-3.49785 -1.09323,-8.96303 -1.09323,-8.96303 -11.80522,-10.82192 -25.68768,2.84173 -25.68768,2.84173 -0.76544,0.98401 -1.53071,0.98401 -1.53071,0.98401 -11.47697,0.32817 -22.40799,-8.08903 -22.40799,-8.52636 4.37237,-7.32359 12.78893,-20.11308 12.78893,-20.11308 l 44.48933,17.16181 c 1.74859,0.54637 3.60712,0.10928 3.60712,0.10928 l 69.30196,-13.99174 c 1.53069,-0.21862 1.3122,-2.07653 1.3122,-2.07653 0,-1.53068 -0.10984,-1.74919 -1.42146,-1.96769 -1.42085,-0.21851 -67.44413,-5.35634 -67.44413,-5.35634 -3.6071,-0.21853 -3.6071,-5.13719 0.10925,-5.46498 l 48.53404,-4.04469 c 1.09314,-0.10926 1.31163,-1.20245 1.31163,-1.20245 1.31159,-6.44938 0.87399,-14.86588 0.87399,-14.86588 14.10125,-15.7411 7.32407,-31.26273 7.32407,-31.26273 -8.63521,-21.4247 -27.65565,-21.75286 -27.65565,-21.75286 -31.26208,-34.54162 -72.36236,-30.49735 -72.36236,-30.49735 -1.85878,0 -1.96813,1.53056 -1.96813,1.53056 l -4.69982,29.73201 c -0.21882,1.63996 -1.09349,2.07694 -1.09349,2.07694 l -6.23028,4.91872 c -0.76548,0.76538 -0.98406,0.76538 -2.07708,0.76538 -0.98378,0.10951 -4.04425,0.54685 -4.04425,0.54685 -73.45622,15.63074 -84.0593,81.43551 -84.0593,81.43551 z m 198.5063,-70.39575 c 2.95154,9.40107 -5.13786,12.35249 -5.13786,12.35249 -1.53006,-7.3239 -6.88645,-17.59894 -6.88645,-17.59894 9.07316,-2.84204 12.02431,5.24645 12.02431,5.24645 z m -45.47307,16.7245 c 0,17.27084 -13.99154,31.37192 -31.3715,31.37192 -17.27088,0 -31.37183,-13.99182 -31.37183,-31.37192 0,-17.37995 14.10095,-31.37147 31.37183,-31.37147 17.37996,0 31.3715,14.10077 31.3715,31.37147 z"
         id="path14"
         inkscape:connector-curvature="0"
         style="fill:url(#SVGID_1_);stroke:#000000;stroke-width:2;stroke-miterlimit:4;stroke-dasharray:none;stroke-opacity:1" />
      <path
         style="fill:#ffffff;fill-opacity:1;stroke:#000000;stroke-width:1.91791;stroke-miterlimit:4;stroke-dasharray:none;stroke-opacity:1"
         d="m 151.83142,455.26154 c -23.96855,-9.44645 -27.34253,-42.34042 -5.74285,-55.98886 6.54544,-4.13594 12.74132,-5.73572 19.75212,-5.1 11.58014,1.05005 20.98272,7.77387 26.15388,18.70272 2.5761,5.44441 2.8107,6.75131 2.49607,13.90482 -0.41307,9.39154 -2.77208,14.98685 -8.89599,21.10029 -6.31829,6.30749 -12.06684,8.77216 -21.15927,9.07198 -5.8906,0.19424 -8.81671,-0.19833 -12.60396,-1.69095 z m 10.2743,-24.94922 c 5.58915,-3.97982 5.49073,-13.59528 -0.1798,-17.56708 -5.82683,-4.08126 -15.44947,-0.25379 -16.74672,6.66114 -1.81064,9.65158 8.95069,16.58523 16.92652,10.90594 z"
         id="path3756"
         inkscape:connector-curvature="0" />
      <path
         style="fill:#ffffff;fill-opacity:1;stroke:#000000;stroke-width:1.91791;stroke-miterlimit:4;stroke-dasharray:none;stroke-opacity:1"
         d="m 233.94777,420.0518 c -0.006,-0.92299 -1.46617,-5.0095 -3.24383,-9.08114 -3.04978,-6.98532 -3.12905,-7.43569 -1.40518,-7.98282 6.84649,-2.17299 13.23135,5.07043 11.19971,12.7057 -1.17825,4.42812 -6.5254,7.98563 -6.5507,4.35826 z"
         id="path3758"
         inkscape:connector-curvature="0" />
    </g>
  </g>
</svg>
