<?xml version="1.0" encoding="UTF-8" standalone="no"?>
<!-- Created with Inkscape (http://www.inkscape.org/) -->

<svg
   width="235"
   height="110"
   viewBox="0 0 62.177082 29.104167"
   version="1.1"
   id="svg1"
   xml:space="preserve"
   inkscape:version="1.3.2 (1:1.3.2+202311252150+091e20ef0f)"
   sodipodi:docname="zero-lliurex-nerd-dictation.svg"
   xmlns:inkscape="http://www.inkscape.org/namespaces/inkscape"
   xmlns:sodipodi="http://sodipodi.sourceforge.net/DTD/sodipodi-0.dtd"
   xmlns:xlink="http://www.w3.org/1999/xlink"
   xmlns="http://www.w3.org/2000/svg"
   xmlns:svg="http://www.w3.org/2000/svg"><sodipodi:namedview
     id="namedview1"
     pagecolor="#ffffff"
     bordercolor="#cccccc"
     borderopacity="1"
     inkscape:showpageshadow="0"
     inkscape:pageopacity="1"
     inkscape:pagecheckerboard="0"
     inkscape:deskcolor="#d1d1d1"
     inkscape:document-units="mm"
     showguides="true"
     inkscape:zoom="1.4142136"
     inkscape:cx="151.6744"
     inkscape:cy="65.760929"
     inkscape:window-width="1920"
     inkscape:window-height="1008"
     inkscape:window-x="0"
     inkscape:window-y="0"
     inkscape:window-maximized="1"
     inkscape:current-layer="g159" /><defs
     id="defs1"><linearGradient
       id="linearGradient39"
       inkscape:collect="always"><stop
         style="stop-color:#040063;stop-opacity:1;"
         offset="0"
         id="stop39" /><stop
         style="stop-color:#2cb4d2;stop-opacity:1;"
         offset="0.44486502"
         id="stop160" /><stop
         style="stop-color:#a7fffe;stop-opacity:1;"
         offset="1"
         id="stop40" /></linearGradient><linearGradient
       inkscape:collect="always"
       xlink:href="#linearGradient39"
       id="linearGradient40"
       x1="55.091915"
       y1="26.088522"
       x2="58.684086"
       y2="0"
       gradientUnits="userSpaceOnUse" /><filter
       inkscape:collect="always"
       style="color-interpolation-filters:sRGB"
       id="filter159"
       x="-0.0088910601"
       y="-0.024971347"
       width="1.0177821"
       height="1.0499427"><feGaussianBlur
         inkscape:collect="always"
         stdDeviation="0.16892646"
         id="feGaussianBlur159" /></filter><filter
       inkscape:collect="always"
       style="color-interpolation-filters:sRGB"
       id="filter160"
       x="-0.023341092"
       y="-0.022269191"
       width="1.0466822"
       height="1.0445384"><feGaussianBlur
         inkscape:collect="always"
         stdDeviation="0.16892646"
         id="feGaussianBlur160" /></filter></defs><g
     inkscape:label="Capa 1"
     inkscape:groupmode="layer"
     id="layer1"><rect
       style="fill:url(#linearGradient40);fill-opacity:1;stroke:none;stroke-width:0.529167;stroke-dasharray:none"
       id="rect44"
       width="62.177082"
       height="29.104166"
       x="0"
       y="0" /><g
       id="g134"
       transform="translate(0.25802208,0.07701229)"
       style="mix-blend-mode:normal;fill:#000000;filter:url(#filter160)"><path
         style="color:#27ae60;fill:#000000;fill-opacity:1;stroke:none;stroke-width:0.809656"
         d="m 57.711653,15.48129 -0.613566,0.389015 a 8.7456732,6.7755854 0 0 1 1.38527,3.657692 8.7456732,6.7755854 0 0 1 -1.391596,3.652945 l 0.623055,0.396919 a 9.5407304,7.3915464 0 0 0 1.563965,-4.049864 9.5407304,7.3915464 0 0 0 -1.567128,-4.046707 z m -1.859679,1.182858 -0.621474,0.393759 a 6.3604858,4.9276976 0 0 1 0.868168,2.473254 6.3604858,4.9276976 0 0 1 -0.866587,2.474828 l 0.621475,0.393762 a 7.155546,5.5436596 0 0 0 1.040535,-2.86859 7.155546,5.5436596 0 0 0 -1.042117,-2.867013 z"
         class="ColorScheme-PositiveText"
         id="path133" /><path
         id="path134"
         style="fill:#000000;stroke-width:0.0329695"
         d="m 46.383564,5.3722819 c -1.708424,0 -3.272019,0.6301844 -4.474301,1.6679839 h 1.536921 c 0.868659,-0.493936 1.871809,-0.7775416 2.940816,-0.7775416 0.893472,0 1.750902,0.1912574 2.552045,0.5703935 h 0.0029 c 2.096856,0.9725983 3.452305,3.095801 3.452305,5.4069583 v 1.064701 c 0,0.07253 0.01612,0.144994 0.04909,0.20764 l 1.309157,2.496085 c 0.07913,0.154957 0.102115,0.296741 0.05596,0.372571 -0.04616,0.07583 -0.181145,0.121737 -0.355882,0.121737 H 52.83608 c -0.247272,0 -0.445222,0.19795 -0.445222,0.445221 v 2.373858 c 0,0.487948 -0.388962,0.886715 -0.870317,0.903206 l -0.997452,-0.164443 v 0.902714 l 0.891915,0.148735 c 0.02308,0.0032 0.04908,0.0064 0.07216,0.0064 0.989084,0 1.793647,-0.804073 1.793647,-1.793156 v -1.928637 h 0.168369 c 0.497839,0 0.906712,-0.201282 1.117717,-0.550759 0.211001,-0.349475 0.200843,-0.804535 -0.02994,-1.246324 L 53.280809,13.19924 v -0.955728 c 0,-1.331966 -0.38243,-2.6210322 -1.104462,-3.7321021 C 51.470801,7.4300127 50.481679,6.5725737 49.314561,6.0285781 48.394714,5.5933817 47.408912,5.3722819 46.383564,5.3722819 Z" /></g><g
       id="g68"
       transform="translate(-0.13885293,0.07701229)"><path
         style="color:#27ae60;fill:#ffffff;fill-opacity:1;stroke:none;stroke-width:0.809656"
         d="m 57.711653,15.48129 -0.613566,0.389015 a 8.7456732,6.7755854 0 0 1 1.38527,3.657692 8.7456732,6.7755854 0 0 1 -1.391596,3.652945 l 0.623055,0.396919 a 9.5407304,7.3915464 0 0 0 1.563965,-4.049864 9.5407304,7.3915464 0 0 0 -1.567128,-4.046707 z m -1.859679,1.182858 -0.621474,0.393759 a 6.3604858,4.9276976 0 0 1 0.868168,2.473254 6.3604858,4.9276976 0 0 1 -0.866587,2.474828 l 0.621475,0.393762 a 7.155546,5.5436596 0 0 0 1.040535,-2.86859 7.155546,5.5436596 0 0 0 -1.042117,-2.867013 z"
         class="ColorScheme-PositiveText"
         id="path2" /><path
         id="path1"
         style="fill:#ffffff;stroke-width:0.0329695"
         d="m 46.383564,5.3722819 c -1.708424,0 -3.272019,0.6301844 -4.474301,1.6679839 h 1.536921 c 0.868659,-0.493936 1.871809,-0.7775416 2.940816,-0.7775416 0.893472,0 1.750902,0.1912574 2.552045,0.5703935 h 0.0029 c 2.096856,0.9725983 3.452305,3.095801 3.452305,5.4069583 v 1.064701 c 0,0.07253 0.01612,0.144994 0.04909,0.20764 l 1.309157,2.496085 c 0.07913,0.154957 0.102115,0.296741 0.05596,0.372571 -0.04616,0.07583 -0.181145,0.121737 -0.355882,0.121737 H 52.83608 c -0.247272,0 -0.445222,0.19795 -0.445222,0.445221 v 2.373858 c 0,0.487948 -0.388962,0.886715 -0.870317,0.903206 l -0.997452,-0.164443 v 0.902714 l 0.891915,0.148735 c 0.02308,0.0032 0.04908,0.0064 0.07216,0.0064 0.989084,0 1.793647,-0.804073 1.793647,-1.793156 v -1.928637 h 0.168369 c 0.497839,0 0.906712,-0.201282 1.117717,-0.550759 0.211001,-0.349475 0.200843,-0.804535 -0.02994,-1.246324 L 53.280809,13.19924 v -0.955728 c 0,-1.331966 -0.38243,-2.6210322 -1.104462,-3.7321021 C 51.470801,7.4300127 50.481679,6.5725737 49.314561,6.0285781 48.394714,5.5933817 47.408912,5.3722819 46.383564,5.3722819 Z" /></g><g
       id="g159"
       style="mix-blend-mode:normal;fill:#000000;filter:url(#filter159)"
       transform="translate(0.39687501)"><path
         d="M 7.5256287,12.673356 H 6.505402 L 4.3366182,9.0801048 h -0.025666 q 0.019249,0.2887434 0.032083,0.6224024 0.01925,0.3272428 0.025666,0.6609018 v 2.309947 H 3.6308009 V 8.0919607 h 1.0138102 l 2.1623673,3.5675853 h 0.01925 q -0.012833,-0.256661 -0.025666,-0.59032 -0.012833,-0.333659 -0.01925,-0.648069 V 8.0919607 H 7.5256287 Z M 10.0409,9.131437 q 0.699401,0 1.103641,0.4170738 0.410658,0.4170738 0.410658,1.1613902 v 0.410657 H 9.2580846 q 0.012833,0.474823 0.2630773,0.7379 0.2502443,0.256661 0.6929841,0.256661 0.333659,0 0.603153,-0.06416 0.269494,-0.07058 0.551821,-0.198913 v 0.648069 q -0.256661,0.121914 -0.532571,0.179663 -0.275911,0.05775 -0.660902,0.05775 -0.5069051,0 -0.9047294,-0.192495 Q 8.8795099,12.346114 8.6549317,11.948289 8.43677,11.550465 8.43677,10.960145 q 0,-0.891896 0.4427399,-1.3603021 Q 9.3222498,9.131437 10.0409,9.131437 Z m 0,0.5967363 q -0.3272425,0 -0.5325711,0.2117452 Q 9.3094167,10.145247 9.2773341,10.555904 H 10.772383 Q 10.765967,10.196579 10.586304,9.9655846 10.413058,9.7281733 10.0409,9.7281733 Z M 14.192384,9.131437 q 0.08341,0 0.179663,0.00642 0.102664,0.00642 0.173246,0.025666 l -0.07058,0.7507328 q -0.06416,-0.012833 -0.153996,-0.01925 -0.08983,-0.012833 -0.160413,-0.012833 -0.256661,0 -0.481239,0.1090808 -0.224578,0.1026644 -0.365742,0.3272424 -0.134747,0.218162 -0.134747,0.551821 v 1.803042 H 12.370093 V 9.1956022 h 0.622402 l 0.115497,0.6031528 h 0.0385 Q 13.300488,9.5228447 13.569982,9.3303491 13.839476,9.131437 14.192384,9.131437 Z m 2.014779,3.606084 q -0.609569,0 -0.981727,-0.455573 -0.372158,-0.455573 -0.372158,-1.341052 0,-0.898313 0.378574,-1.3538861 0.378575,-0.4555729 0.994561,-0.4555729 0.384991,0 0.628819,0.1475799 0.250244,0.14758 0.397824,0.3593251 h 0.0385 q -0.01925,-0.089831 -0.0385,-0.2759103 -0.01925,-0.1860791 -0.01925,-0.3464921 V 7.7968008 h 0.808481 v 4.8765552 h -0.628819 l -0.14758,-0.455573 h -0.03208 q -0.14758,0.218162 -0.391408,0.372158 -0.243828,0.14758 -0.635236,0.14758 z m 0.243828,-0.654485 q 0.449157,0 0.628819,-0.256661 0.186079,-0.25666 0.192496,-0.776399 v -0.102664 q 0,-0.558237 -0.179663,-0.853397 -0.173246,-0.3015765 -0.654485,-0.3015765 -0.372158,0 -0.57107,0.3079925 -0.192496,0.301577 -0.192496,0.853398 0,0.55182 0.198912,0.840564 0.198913,0.288743 0.577487,0.288743 z m 8.116885,-1.745293 q 0,1.16139 -0.648069,1.75171 -0.648068,0.583903 -1.809459,0.583903 h -1.28972 V 8.0919607 h 1.424467 q 0.705818,0 1.225556,0.2566608 0.526154,0.2566608 0.808481,0.7571494 0.288744,0.494072 0.288744,1.2319721 z m -0.859814,0.02567 q 0,-0.8213148 -0.378575,-1.206306 -0.372158,-0.3849912 -1.084392,-0.3849912 h -0.603153 v 3.2146762 h 0.494073 q 1.572047,0 1.572047,-1.623379 z m 2.162354,-2.5088596 q 0.186079,0 0.31441,0.096248 0.134746,0.089831 0.134746,0.3272426 0,0.2374112 -0.134746,0.333659 -0.128331,0.096248 -0.31441,0.096248 -0.186079,0 -0.320826,-0.096248 -0.12833,-0.096248 -0.12833,-0.333659 0,-0.2374113 0.12833,-0.3272426 0.134747,-0.096248 0.320826,-0.096248 z m 0.404241,1.3410528 V 12.673356 H 25.466175 V 9.1956022 Z m 2.43827,3.5419188 q -0.750733,0 -1.18064,-0.429907 -0.429907,-0.429906 -0.429907,-1.353885 0,-0.641652 0.211745,-1.0394766 0.218162,-0.4042408 0.596737,-0.5903198 0.378575,-0.1924956 0.86623,-0.1924956 0.327243,0 0.583903,0.064165 0.256661,0.064165 0.436324,0.1539964 L 29.559908,9.9848341 Q 29.360995,9.9078359 29.162083,9.8565037 28.963171,9.798755 28.777092,9.798755 q -0.846981,0 -0.846981,1.148557 0,0.558237 0.211746,0.840564 0.218161,0.282327 0.622402,0.282327 0.288743,0 0.513322,-0.07058 0.224578,-0.07058 0.429906,-0.192495 v 0.699401 q -0.198912,0.115497 -0.429906,0.173246 -0.224579,0.05775 -0.564654,0.05775 z m 3.156925,-0.648068 q 0.14758,0 0.288744,-0.02567 0.14758,-0.03208 0.269493,-0.07058 v 0.603153 q -0.12833,0.05775 -0.333659,0.09625 -0.205328,0.04491 -0.429906,0.04491 -0.29516,0 -0.538988,-0.09625 -0.243828,-0.102664 -0.384991,-0.346492 -0.141164,-0.243827 -0.141164,-0.680151 V 9.8051716 H 30.130975 V 9.452263 l 0.513322,-0.2823269 0.256661,-0.7378998 h 0.506905 v 0.7635659 h 0.988144 v 0.6095694 h -0.988144 v 1.8030424 q 0,0.243827 0.12833,0.365741 0.128331,0.115498 0.333659,0.115498 z m 2.643594,-2.958016 q 0.673735,0 1.020227,0.2951599 0.352909,0.2951599 0.352909,0.9111461 v 2.335613 h -0.571071 l -0.160413,-0.481239 h -0.02567 q -0.224578,0.282327 -0.474822,0.417074 -0.250245,0.12833 -0.680151,0.12833 -0.468406,0 -0.776399,-0.263077 -0.307993,-0.263077 -0.307993,-0.814898 0,-0.538988 0.391407,-0.808482 0.397825,-0.269494 1.19989,-0.301576 l 0.603153,-0.01925 v -0.173246 q 0,-0.327242 -0.160414,-0.4684057 -0.160413,-0.1475799 -0.449156,-0.1475799 -0.263077,0 -0.506905,0.076998 -0.237411,0.076998 -0.474822,0.1796626 L 33.236559,9.4330134 Q 33.49322,9.2982665 33.820462,9.2148517 34.154121,9.131437 34.513446,9.131437 Z m 0.14758,1.912123 q -0.532571,0.01925 -0.7379,0.186079 -0.205328,0.160413 -0.205328,0.436323 0,0.250245 0.141163,0.359326 0.14758,0.102664 0.384991,0.102664 0.352909,0 0.596737,-0.198912 0.243828,-0.205329 0.243828,-0.603153 v -0.29516 z m 3.58683,1.045893 q 0.14758,0 0.288744,-0.02567 0.14758,-0.03208 0.269494,-0.07058 v 0.603153 q -0.128331,0.05775 -0.33366,0.09625 -0.205328,0.04491 -0.429906,0.04491 -0.29516,0 -0.538988,-0.09625 -0.243828,-0.102664 -0.384991,-0.346492 -0.141164,-0.243827 -0.141164,-0.680151 V 9.8051716 H 36.508979 V 9.452263 l 0.513322,-0.2823269 0.256661,-0.7378998 h 0.506905 v 0.7635659 h 0.988144 v 0.6095694 h -0.988144 v 1.8030424 q 0,0.243827 0.12833,0.365741 0.128331,0.115498 0.333659,0.115498 z m 1.661867,-4.2349036 q 0.186079,0 0.314409,0.096248 0.134747,0.089831 0.134747,0.3272426 0,0.2374112 -0.134747,0.333659 -0.12833,0.096248 -0.314409,0.096248 -0.186079,0 -0.320826,-0.096248 -0.128331,-0.096248 -0.128331,-0.333659 0,-0.2374113 0.128331,-0.3272426 0.134747,-0.096248 0.320826,-0.096248 z m 0.40424,1.3410528 V 12.673356 H 39.505482 V 9.1956022 Z m 4.138648,1.7324608 q 0,0.86623 -0.449156,1.341052 -0.449156,0.468406 -1.219139,0.468406 -0.474822,0 -0.846981,-0.211745 -0.372158,-0.211745 -0.583903,-0.615986 -0.211745,-0.404241 -0.211745,-0.981727 0,-0.866231 0.44274,-1.3282201 0.449156,-0.4684059 1.219139,-0.4684059 0.481239,0 0.853397,0.2117451 0.372158,0.2053287 0.583903,0.6095694 0.211745,0.3978245 0.211745,0.9753115 z m -2.483193,0 q 0,0.55182 0.192496,0.853397 0.198912,0.301576 0.635235,0.301576 0.436324,0 0.628819,-0.301576 0.198912,-0.301577 0.198912,-0.853397 0,-0.551821 -0.198912,-0.846981 -0.192495,-0.29516 -0.635235,-0.29516 -0.429907,0 -0.628819,0.29516 -0.192496,0.29516 -0.192496,0.846981 z m 5.178124,-1.796626 q 0.583903,0 0.911146,0.3015764 0.333659,0.3015764 0.333659,0.9753106 v 2.265032 h -0.808482 v -2.104619 q 0,-0.782815 -0.641652,-0.782815 -0.487655,0 -0.667318,0.307993 -0.179662,0.307993 -0.179662,0.879063 v 1.700378 H 45.286751 V 9.1956022 h 0.622402 l 0.115498,0.4555729 h 0.04492 q 0.16683,-0.2694939 0.455573,-0.3914077 0.29516,-0.1283304 0.622403,-0.1283304 z"
         id="text134"
         style="font-weight:600;font-size:6.41652px;font-family:'Noto Sans';-inkscape-font-specification:'Noto Sans Semi-Bold';text-align:center;text-anchor:middle;stroke-width:0.874978"
         aria-label="Nerd Dictation" /><rect
         style="fill:#000000;stroke-width:1.34118"
         id="rect134"
         width="45.599007"
         height="0.72351599"
         x="3.2120707"
         y="13.828669" /><g
         id="g158"
         style="fill:#000000"><path
           style="font-size:5.0873px;font-family:'Noto Sans';-inkscape-font-specification:'Noto Sans';stroke-width:0.693721"
           d="m 16.489744,19.970089 q 0,0.483293 -0.351023,0.75292 -0.351024,0.269627 -0.946238,0.269627 -0.305238,0 -0.56469,-0.04579 -0.259453,-0.04579 -0.432421,-0.127182 V 20.38216 q 0.183143,0.0814 0.45277,0.147532 0.274714,0.06613 0.56469,0.06613 0.406984,0 0.610476,-0.157707 0.208579,-0.157706 0.208579,-0.427333 0,-0.178055 -0.07631,-0.300151 -0.07631,-0.122095 -0.26454,-0.223841 -0.183143,-0.106833 -0.513817,-0.223841 -0.462944,-0.167881 -0.702047,-0.412071 -0.234016,-0.244191 -0.234016,-0.666437 0,-0.289976 0.147531,-0.493468 0.147532,-0.208579 0.406984,-0.3205 0.26454,-0.11192 0.605389,-0.11192 0.300151,0 0.549428,0.05596 0.249278,0.05596 0.45277,0.147532 l -0.142444,0.391722 q -0.18823,-0.0814 -0.412072,-0.137357 -0.218753,-0.05596 -0.457856,-0.05596 -0.34085,0 -0.513818,0.147531 -0.172968,0.142445 -0.172968,0.381548 0,0.183143 0.07631,0.305238 0.07631,0.122095 0.249277,0.218754 0.172968,0.09666 0.468032,0.208579 0.3205,0.117008 0.539254,0.254365 0.223841,0.13227 0.335761,0.3205 0.117008,0.18823 0.117008,0.473119 z m 1.968784,-1.805992 q 0.503643,0 0.808881,0.351024 0.310325,0.351024 0.310325,1.058158 0,0.69696 -0.310325,1.058159 -0.305238,0.361198 -0.813968,0.361198 -0.315413,0 -0.523992,-0.117008 -0.203492,-0.122095 -0.3205,-0.279801 h -0.03052 q 0.01018,0.08648 0.02035,0.218753 0.01017,0.13227 0.01017,0.228929 v 1.119206 H 17.161267 V 18.21497 h 0.366285 l 0.06105,0.371373 h 0.02035 q 0.122095,-0.178055 0.3205,-0.300151 0.198405,-0.122095 0.529079,-0.122095 z m -0.0814,0.37646 q -0.417158,0 -0.590126,0.234016 -0.167881,0.234016 -0.178056,0.712222 v 0.08648 q 0,0.503643 0.162794,0.778357 0.167881,0.269627 0.615563,0.269627 0.249278,0 0.406984,-0.137357 0.162794,-0.137357 0.239103,-0.371373 0.0814,-0.239103 0.0814,-0.544341 0,-0.468032 -0.183143,-0.747833 -0.178055,-0.279802 -0.554516,-0.279802 z m 2.965895,-0.37646 q 0.351024,0 0.600301,0.152619 0.254365,0.152619 0.386635,0.432421 0.137357,0.274714 0.137357,0.646087 v 0.269627 H 20.60028 q 0.01018,0.462944 0.234016,0.707134 0.228928,0.239103 0.635912,0.239103 0.259453,0 0.457857,-0.04578 0.203492,-0.05087 0.417159,-0.142445 v 0.391722 q -0.208579,0.09157 -0.412071,0.13227 -0.203492,0.04579 -0.483294,0.04579 -0.386635,0 -0.686785,-0.157706 -0.295064,-0.157707 -0.462945,-0.468032 -0.162793,-0.315413 -0.162793,-0.768182 0,-0.447683 0.147532,-0.768183 0.152619,-0.320499 0.422245,-0.493468 0.274715,-0.172968 0.635913,-0.172968 z m -0.0051,0.366286 q -0.3205,0 -0.50873,0.208579 -0.183143,0.203492 -0.218754,0.569778 h 1.388833 q -0.0051,-0.345937 -0.162794,-0.559603 -0.157706,-0.218754 -0.498555,-0.218754 z m 2.87432,-0.366286 q 0.351024,0 0.600301,0.152619 0.254365,0.152619 0.386635,0.432421 0.137357,0.274714 0.137357,0.646087 v 0.269627 h -1.867039 q 0.01018,0.462944 0.234016,0.707134 0.228929,0.239103 0.635913,0.239103 0.259452,0 0.457857,-0.04578 0.203492,-0.05087 0.417158,-0.142445 v 0.391722 q -0.208579,0.09157 -0.412071,0.13227 -0.203492,0.04579 -0.483294,0.04579 -0.386634,0 -0.686785,-0.157706 -0.295063,-0.157707 -0.462944,-0.468032 -0.162794,-0.315413 -0.162794,-0.768182 0,-0.447683 0.147532,-0.768183 0.152619,-0.320499 0.422246,-0.493468 0.274714,-0.172968 0.635912,-0.172968 z m -0.0051,0.366286 q -0.3205,0 -0.50873,0.208579 -0.183143,0.203492 -0.218754,0.569778 h 1.388833 q -0.0051,-0.345937 -0.162794,-0.559603 -0.157706,-0.218754 -0.498555,-0.218754 z m 2.915019,2.462253 q -0.361199,0 -0.646087,-0.147532 -0.279802,-0.147531 -0.442596,-0.457857 -0.157706,-0.310325 -0.157706,-0.793619 0,-0.503642 0.167881,-0.819055 0.167881,-0.315412 0.45277,-0.462944 0.289976,-0.147532 0.656261,-0.147532 0.20858,0 0.401897,0.04579 0.193317,0.0407 0.315413,0.101746 l -0.137357,0.371373 q -0.122096,-0.04579 -0.284889,-0.08648 -0.162794,-0.0407 -0.305238,-0.0407 -0.803794,0 -0.803794,1.032722 0,0.493468 0.193318,0.758008 0.198405,0.259452 0.585039,0.259452 0.223842,0 0.391722,-0.04579 0.172969,-0.04578 0.315413,-0.11192 v 0.396809 q -0.137357,0.07122 -0.305238,0.106834 -0.162794,0.0407 -0.396809,0.0407 z m 1.795814,-2.782753 q 0,0.203492 -0.02544,0.381547 h 0.03052 q 0.13227,-0.208579 0.356111,-0.315412 0.228929,-0.106833 0.493468,-0.106833 0.498556,0 0.747833,0.239103 0.249278,0.234015 0.249278,0.758007 v 1.775468 h -0.442595 v -1.744944 q 0,-0.656262 -0.610476,-0.656262 -0.457857,0 -0.630825,0.259453 -0.167881,0.254365 -0.167881,0.732571 v 1.409182 h -0.447683 v -3.866348 h 0.447683 z m 4.929575,2.416467 q 0.101746,0 0.208579,-0.01526 0.106834,-0.02035 0.172968,-0.0407 v 0.340849 q -0.07122,0.03561 -0.203492,0.05596 -0.132269,0.02544 -0.254365,0.02544 -0.213666,0 -0.396809,-0.07122 -0.178055,-0.07631 -0.289976,-0.259453 -0.111921,-0.183142 -0.111921,-0.513817 V 18.560907 H 32.58593 V 18.34724 l 0.391722,-0.178055 0.178055,-0.579953 h 0.26454 v 0.625738 h 0.788531 v 0.345937 h -0.788531 v 1.577063 q 0,0.249277 0.117008,0.371372 0.122095,0.117008 0.310325,0.117008 z m 3.296561,-1.053071 q 0,0.676611 -0.345936,1.047984 -0.34085,0.371373 -0.925889,0.371373 -0.361198,0 -0.646087,-0.162794 -0.279802,-0.167881 -0.442595,-0.483293 -0.162794,-0.3205 -0.162794,-0.77327 0,-0.676611 0.340849,-1.042896 0.340849,-0.366286 0.925889,-0.366286 0.371373,0 0.651174,0.167881 0.284889,0.162794 0.442595,0.478206 0.162794,0.310326 0.162794,0.763095 z m -2.060357,0 q 0,0.483294 0.188231,0.768183 0.193317,0.279801 0.610476,0.279801 0.412071,0 0.605388,-0.279801 0.193318,-0.284889 0.193318,-0.768183 0,-0.483293 -0.193318,-0.758007 -0.193317,-0.274715 -0.610476,-0.274715 -0.417158,0 -0.605388,0.274715 -0.188231,0.274714 -0.188231,0.758007 z m 5.000805,1.053071 q 0.101746,0 0.208579,-0.01526 0.106834,-0.02035 0.172969,-0.0407 v 0.340849 q -0.07122,0.03561 -0.203492,0.05596 -0.13227,0.02544 -0.254365,0.02544 -0.213667,0 -0.39681,-0.07122 -0.178055,-0.07631 -0.289976,-0.259453 -0.111921,-0.183142 -0.111921,-0.513817 V 18.560907 H 38.822939 V 18.34724 l 0.391722,-0.178055 0.178055,-0.579953 h 0.26454 v 0.625738 h 0.788531 v 0.345937 h -0.788531 v 1.577063 q 0,0.249277 0.117008,0.371372 0.122095,0.117008 0.310325,0.117008 z m 1.97895,-2.462253 q 0.351024,0 0.600302,0.152619 0.254365,0.152619 0.386634,0.432421 0.137358,0.274714 0.137358,0.646087 v 0.269627 h -1.867039 q 0.01017,0.462944 0.234015,0.707134 0.228929,0.239103 0.635913,0.239103 0.259452,0 0.457857,-0.04578 0.203492,-0.05087 0.417158,-0.142445 v 0.391722 q -0.208579,0.09157 -0.412071,0.13227 -0.203492,0.04579 -0.483293,0.04579 -0.386635,0 -0.686786,-0.157706 -0.295063,-0.157707 -0.462944,-0.468032 -0.162794,-0.315413 -0.162794,-0.768182 0,-0.447683 0.147532,-0.768183 0.152619,-0.320499 0.422246,-0.493468 0.274714,-0.172968 0.635912,-0.172968 z m -0.0051,0.366286 q -0.3205,0 -0.50873,0.208579 -0.183143,0.203492 -0.218754,0.569778 h 1.388833 q -0.0051,-0.345937 -0.162794,-0.559603 -0.157706,-0.218754 -0.498555,-0.218754 z m 2.365588,1.01746 -0.94115,-1.332873 h 0.508729 l 0.702048,1.027635 0.69696,-1.027635 h 0.503643 l -0.941151,1.332873 0.992024,1.39392 h -0.50873 l -0.742746,-1.088682 -0.752921,1.088682 h -0.503642 z m 2.955719,1.078507 q 0.101746,0 0.208579,-0.01526 0.106833,-0.02035 0.172968,-0.0407 v 0.340849 q -0.07122,0.03561 -0.203492,0.05596 -0.132269,0.02544 -0.254365,0.02544 -0.213666,0 -0.396809,-0.07122 -0.178056,-0.07631 -0.289976,-0.259453 -0.111921,-0.183142 -0.111921,-0.513817 V 18.560907 H 46.118108 V 18.34724 l 0.391723,-0.178055 0.178055,-0.579953 h 0.26454 v 0.625738 h 0.788531 v 0.345937 h -0.788531 v 1.577063 q 0,0.249277 0.117008,0.371372 0.122095,0.117008 0.310325,0.117008 z"
           id="text135"
           aria-label="Speech to text" /><g
           id="g157"
           transform="translate(0,-0.70931287)"
           style="fill:#000000"><path
             style="font-size:4.1848px;font-family:'DejaVu Sans';-inkscape-font-specification:'DejaVu Sans';text-align:center;text-anchor:middle;stroke-width:0.570651"
             d="M 7.8975107,19.428414 7.3376302,20.94663 H 8.4594345 Z M 7.6645677,19.021786 H 8.132497 l 1.1626715,3.050735 H 8.8660631 L 8.5881662,21.289915 H 7.2129853 L 6.9350884,22.072521 H 6.4998528 Z m 2.0760531,0 h 0.4127582 v 3.050735 H 9.7406208 Z"
             id="text136"
             aria-label="AI" /><path
             id="path136"
             style="fill:#000000;stroke-width:0.486252"
             d="m 6.056548,17.414417 c -0.3657483,0 -0.660296,0.297011 -0.660296,0.665713 v 4.934062 c 0,0.368703 0.2945513,0.665713 0.660296,0.665713 h 4.897178 c 0.365748,0 0.660296,-0.29701 0.660296,-0.665713 V 18.08013 c 0,-0.368702 -0.294552,-0.665713 -0.660296,-0.665713 z m 0.2423474,0.310266 h 4.4124756 c 0.329544,0 0.594754,0.267363 0.594754,0.599555 v 4.445847 c 0,0.332181 -0.265224,0.599554 -0.594754,0.599554 H 6.2988954 c -0.329544,0 -0.5947543,-0.267363 -0.5947543,-0.599554 v -4.445847 c 0,-0.332217 0.2652245,-0.599555 0.5947543,-0.599555 z" /><g
             id="g141"
             transform="matrix(0.8982041,0,0,0.8982041,-57.394822,29.977245)"
             style="fill:#000000"><path
               id="path137"
               style="fill:#000000;stroke-width:0.869137"
               d="m 71.376841,-15.168713 c 0.133404,0 0.240801,0.159243 0.240801,0.357047 v 0.797201 c 0,0.197804 -0.107397,0.357047 -0.240801,0.357047 -0.133404,0 -0.240801,-0.159243 -0.240801,-0.357047 v -0.797201 c 0,-0.197804 0.107397,-0.357047 0.240801,-0.357047 z"
               sodipodi:nodetypes="sssssss" /><path
               id="path138"
               style="fill:#000000;stroke-width:0.734464"
               d="m 72.332564,-14.367516 c 0.130519,0 0.235594,0.11623 0.235594,0.260605 v 0.09683 c 0,0.144376 -0.105075,0.260606 -0.235594,0.260606 -0.130519,0 -0.235594,-0.11623 -0.235594,-0.260606 v -0.09683 c 0,-0.144375 0.105075,-0.260605 0.235594,-0.260605 z"
               sodipodi:nodetypes="sssssss" /><path
               id="path139"
               style="fill:#000000;stroke-width:0.734464"
               d="m 73.28308,-14.809373 c 0.130519,0 0.235594,0.11623 0.235594,0.260605 v 0.497257 c 0,0.144376 -0.105075,0.260606 -0.235594,0.260606 -0.13052,0 -0.235595,-0.11623 -0.235595,-0.260606 v -0.497257 c 0,-0.144375 0.105075,-0.260605 0.235595,-0.260605 z"
               sodipodi:nodetypes="sssssss" /><path
               id="path140"
               style="fill:#000000;stroke-width:0.734464"
               d="m 74.233595,-14.537814 c 0.130519,0 0.235594,0.11623 0.235594,0.260605 v 0.267125 c 0,0.144376 -0.105075,0.260606 -0.235594,0.260606 -0.130519,0 -0.235594,-0.11623 -0.235594,-0.260606 v -0.267125 c 0,-0.144375 0.105075,-0.260605 0.235594,-0.260605 z"
               sodipodi:nodetypes="sssssss" /><path
               id="path141"
               style="fill:#000000;stroke-width:0.869137"
               d="m 75.189318,-15.145982 c 0.133404,0 0.240801,0.159243 0.240801,0.357047 v 0.693055 c 0,0.197804 -0.107397,0.357047 -0.240801,0.357047 -0.133404,0 -0.240801,-0.159243 -0.240801,-0.357047 v -0.693055 c 0,-0.197804 0.107397,-0.357047 0.240801,-0.357047 z"
               sodipodi:nodetypes="sssssss" /></g><g
             id="g146"
             transform="matrix(0.8982041,0,0,-0.8982041,-57.394822,11.117062)"
             style="fill:#000000"><path
               id="path142"
               style="fill:#000000;stroke-width:0.869137"
               d="m 71.376841,-15.168713 c 0.133404,0 0.240801,0.159243 0.240801,0.357047 v 0.797201 c 0,0.197804 -0.107397,0.357047 -0.240801,0.357047 -0.133404,0 -0.240801,-0.159243 -0.240801,-0.357047 v -0.797201 c 0,-0.197804 0.107397,-0.357047 0.240801,-0.357047 z"
               sodipodi:nodetypes="sssssss" /><path
               id="path143"
               style="fill:#000000;stroke-width:0.734464"
               d="m 72.332564,-14.367516 c 0.130519,0 0.235594,0.11623 0.235594,0.260605 v 0.09683 c 0,0.144376 -0.105075,0.260606 -0.235594,0.260606 -0.130519,0 -0.235594,-0.11623 -0.235594,-0.260606 v -0.09683 c 0,-0.144375 0.105075,-0.260605 0.235594,-0.260605 z"
               sodipodi:nodetypes="sssssss" /><path
               id="path144"
               style="fill:#000000;stroke-width:0.734464"
               d="m 73.28308,-14.809373 c 0.130519,0 0.235594,0.11623 0.235594,0.260605 v 0.497257 c 0,0.144376 -0.105075,0.260606 -0.235594,0.260606 -0.13052,0 -0.235595,-0.11623 -0.235595,-0.260606 v -0.497257 c 0,-0.144375 0.105075,-0.260605 0.235595,-0.260605 z"
               sodipodi:nodetypes="sssssss" /><path
               id="path145"
               style="fill:#000000;stroke-width:0.734464"
               d="m 74.233595,-14.537814 c 0.130519,0 0.235594,0.11623 0.235594,0.260605 v 0.267125 c 0,0.144376 -0.105075,0.260606 -0.235594,0.260606 -0.130519,0 -0.235594,-0.11623 -0.235594,-0.260606 v -0.267125 c 0,-0.144375 0.105075,-0.260605 0.235594,-0.260605 z"
               sodipodi:nodetypes="sssssss" /><path
               id="path146"
               style="fill:#000000;stroke-width:0.869137"
               d="m 75.189318,-15.145982 c 0.133404,0 0.240801,0.159243 0.240801,0.357047 v 0.693055 c 0,0.197804 -0.107397,0.357047 -0.240801,0.357047 -0.133404,0 -0.240801,-0.159243 -0.240801,-0.357047 v -0.693055 c 0,-0.197804 0.107397,-0.357047 0.240801,-0.357047 z"
               sodipodi:nodetypes="sssssss" /></g><g
             id="g151"
             transform="matrix(0,0.8982041,0.8982041,0,17.886442,-45.276009)"
             style="fill:#000000"><path
               id="path147"
               style="fill:#000000;stroke-width:0.869137"
               d="m 71.376841,-15.168713 c 0.133404,0 0.240801,0.159243 0.240801,0.357047 v 0.797201 c 0,0.197804 -0.107397,0.357047 -0.240801,0.357047 -0.133404,0 -0.240801,-0.159243 -0.240801,-0.357047 v -0.797201 c 0,-0.197804 0.107397,-0.357047 0.240801,-0.357047 z"
               sodipodi:nodetypes="sssssss" /><path
               id="path148"
               style="fill:#000000;stroke-width:0.734464"
               d="m 72.332564,-14.367516 c 0.130519,0 0.235594,0.11623 0.235594,0.260605 v 0.09683 c 0,0.144376 -0.105075,0.260606 -0.235594,0.260606 -0.130519,0 -0.235594,-0.11623 -0.235594,-0.260606 v -0.09683 c 0,-0.144375 0.105075,-0.260605 0.235594,-0.260605 z"
               sodipodi:nodetypes="sssssss" /><path
               id="path149"
               style="fill:#000000;stroke-width:0.734464"
               d="m 73.28308,-14.809373 c 0.130519,0 0.235594,0.11623 0.235594,0.260605 v 0.497257 c 0,0.144376 -0.105075,0.260606 -0.235594,0.260606 -0.13052,0 -0.235595,-0.11623 -0.235595,-0.260606 v -0.497257 c 0,-0.144375 0.105075,-0.260605 0.235595,-0.260605 z"
               sodipodi:nodetypes="sssssss" /><path
               id="path150"
               style="fill:#000000;stroke-width:0.734464"
               d="m 74.233595,-14.537814 c 0.130519,0 0.235594,0.11623 0.235594,0.260605 v 0.267125 c 0,0.144376 -0.105075,0.260606 -0.235594,0.260606 -0.130519,0 -0.235594,-0.11623 -0.235594,-0.260606 v -0.267125 c 0,-0.144375 0.105075,-0.260605 0.235594,-0.260605 z"
               sodipodi:nodetypes="sssssss" /><path
               id="path151"
               style="fill:#000000;stroke-width:0.869137"
               d="m 75.189318,-15.145982 c 0.133404,0 0.240801,0.159243 0.240801,0.357047 v 0.693055 c 0,0.197804 -0.107397,0.357047 -0.240801,0.357047 -0.133404,0 -0.240801,-0.159243 -0.240801,-0.357047 v -0.693055 c 0,-0.197804 0.107397,-0.357047 0.240801,-0.357047 z"
               sodipodi:nodetypes="sssssss" /></g><g
             id="g156"
             transform="matrix(0,0.8982041,-0.8982041,0,-0.91928184,-45.283172)"
             style="fill:#000000"><path
               id="path152"
               style="fill:#000000;stroke-width:0.869137"
               d="m 71.376841,-15.168713 c 0.133404,0 0.240801,0.159243 0.240801,0.357047 v 0.797201 c 0,0.197804 -0.107397,0.357047 -0.240801,0.357047 -0.133404,0 -0.240801,-0.159243 -0.240801,-0.357047 v -0.797201 c 0,-0.197804 0.107397,-0.357047 0.240801,-0.357047 z"
               sodipodi:nodetypes="sssssss" /><path
               id="path153"
               style="fill:#000000;stroke-width:0.734464"
               d="m 72.332564,-14.367516 c 0.130519,0 0.235594,0.11623 0.235594,0.260605 v 0.09683 c 0,0.144376 -0.105075,0.260606 -0.235594,0.260606 -0.130519,0 -0.235594,-0.11623 -0.235594,-0.260606 v -0.09683 c 0,-0.144375 0.105075,-0.260605 0.235594,-0.260605 z"
               sodipodi:nodetypes="sssssss" /><path
               id="path154"
               style="fill:#000000;stroke-width:0.734464"
               d="m 73.28308,-14.809373 c 0.130519,0 0.235594,0.11623 0.235594,0.260605 v 0.497257 c 0,0.144376 -0.105075,0.260606 -0.235594,0.260606 -0.13052,0 -0.235595,-0.11623 -0.235595,-0.260606 v -0.497257 c 0,-0.144375 0.105075,-0.260605 0.235595,-0.260605 z"
               sodipodi:nodetypes="sssssss" /><path
               id="path155"
               style="fill:#000000;stroke-width:0.734464"
               d="m 74.233595,-14.537814 c 0.130519,0 0.235594,0.11623 0.235594,0.260605 v 0.267125 c 0,0.144376 -0.105075,0.260606 -0.235594,0.260606 -0.130519,0 -0.235594,-0.11623 -0.235594,-0.260606 v -0.267125 c 0,-0.144375 0.105075,-0.260605 0.235594,-0.260605 z"
               sodipodi:nodetypes="sssssss" /><path
               id="path156"
               style="fill:#000000;stroke-width:0.869137"
               d="m 75.189318,-15.145982 c 0.133404,0 0.240801,0.159243 0.240801,0.357047 v 0.693055 c 0,0.197804 -0.107397,0.357047 -0.240801,0.357047 -0.133404,0 -0.240801,-0.159243 -0.240801,-0.357047 v -0.693055 c 0,-0.197804 0.107397,-0.357047 0.240801,-0.357047 z"
               sodipodi:nodetypes="sssssss" /></g></g></g></g><g
       id="g107"><path
         d="M 7.5256287,12.673356 H 6.505402 L 4.3366182,9.0801048 h -0.025666 q 0.019249,0.2887434 0.032083,0.6224024 0.01925,0.3272428 0.025666,0.6609018 v 2.309947 H 3.6308009 V 8.0919607 h 1.0138102 l 2.1623673,3.5675853 h 0.01925 q -0.012833,-0.256661 -0.025666,-0.59032 -0.012833,-0.333659 -0.01925,-0.648069 V 8.0919607 H 7.5256287 Z M 10.0409,9.131437 q 0.699401,0 1.103641,0.4170738 0.410658,0.4170738 0.410658,1.1613902 v 0.410657 H 9.2580846 q 0.012833,0.474823 0.2630773,0.7379 0.2502443,0.256661 0.6929841,0.256661 0.333659,0 0.603153,-0.06416 0.269494,-0.07058 0.551821,-0.198913 v 0.648069 q -0.256661,0.121914 -0.532571,0.179663 -0.275911,0.05775 -0.660902,0.05775 -0.5069051,0 -0.9047294,-0.192495 Q 8.8795099,12.346114 8.6549317,11.948289 8.43677,11.550465 8.43677,10.960145 q 0,-0.891896 0.4427399,-1.3603021 Q 9.3222498,9.131437 10.0409,9.131437 Z m 0,0.5967363 q -0.3272425,0 -0.5325711,0.2117452 Q 9.3094167,10.145247 9.2773341,10.555904 H 10.772383 Q 10.765967,10.196579 10.586304,9.9655846 10.413058,9.7281733 10.0409,9.7281733 Z M 14.192384,9.131437 q 0.08341,0 0.179663,0.00642 0.102664,0.00642 0.173246,0.025666 l -0.07058,0.7507328 q -0.06416,-0.012833 -0.153996,-0.01925 -0.08983,-0.012833 -0.160413,-0.012833 -0.256661,0 -0.481239,0.1090808 -0.224578,0.1026644 -0.365742,0.3272424 -0.134747,0.218162 -0.134747,0.551821 v 1.803042 H 12.370093 V 9.1956022 h 0.622402 l 0.115497,0.6031528 h 0.0385 Q 13.300488,9.5228447 13.569982,9.3303491 13.839476,9.131437 14.192384,9.131437 Z m 2.014779,3.606084 q -0.609569,0 -0.981727,-0.455573 -0.372158,-0.455573 -0.372158,-1.341052 0,-0.898313 0.378574,-1.3538861 0.378575,-0.4555729 0.994561,-0.4555729 0.384991,0 0.628819,0.1475799 0.250244,0.14758 0.397824,0.3593251 h 0.0385 q -0.01925,-0.089831 -0.0385,-0.2759103 -0.01925,-0.1860791 -0.01925,-0.3464921 V 7.7968008 h 0.808481 v 4.8765552 h -0.628819 l -0.14758,-0.455573 h -0.03208 q -0.14758,0.218162 -0.391408,0.372158 -0.243828,0.14758 -0.635236,0.14758 z m 0.243828,-0.654485 q 0.449157,0 0.628819,-0.256661 0.186079,-0.25666 0.192496,-0.776399 v -0.102664 q 0,-0.558237 -0.179663,-0.853397 -0.173246,-0.3015765 -0.654485,-0.3015765 -0.372158,0 -0.57107,0.3079925 -0.192496,0.301577 -0.192496,0.853398 0,0.55182 0.198912,0.840564 0.198913,0.288743 0.577487,0.288743 z m 8.116885,-1.745293 q 0,1.16139 -0.648069,1.75171 -0.648068,0.583903 -1.809459,0.583903 h -1.28972 V 8.0919607 h 1.424467 q 0.705818,0 1.225556,0.2566608 0.526154,0.2566608 0.808481,0.7571494 0.288744,0.494072 0.288744,1.2319721 z m -0.859814,0.02567 q 0,-0.8213148 -0.378575,-1.206306 -0.372158,-0.3849912 -1.084392,-0.3849912 h -0.603153 v 3.2146762 h 0.494073 q 1.572047,0 1.572047,-1.623379 z m 2.162354,-2.5088596 q 0.186079,0 0.31441,0.096248 0.134746,0.089831 0.134746,0.3272426 0,0.2374112 -0.134746,0.333659 -0.128331,0.096248 -0.31441,0.096248 -0.186079,0 -0.320826,-0.096248 -0.12833,-0.096248 -0.12833,-0.333659 0,-0.2374113 0.12833,-0.3272426 0.134747,-0.096248 0.320826,-0.096248 z m 0.404241,1.3410528 V 12.673356 H 25.466175 V 9.1956022 Z m 2.43827,3.5419188 q -0.750733,0 -1.18064,-0.429907 -0.429907,-0.429906 -0.429907,-1.353885 0,-0.641652 0.211745,-1.0394766 0.218162,-0.4042408 0.596737,-0.5903198 0.378575,-0.1924956 0.86623,-0.1924956 0.327243,0 0.583903,0.064165 0.256661,0.064165 0.436324,0.1539964 L 29.559908,9.9848341 Q 29.360995,9.9078359 29.162083,9.8565037 28.963171,9.798755 28.777092,9.798755 q -0.846981,0 -0.846981,1.148557 0,0.558237 0.211746,0.840564 0.218161,0.282327 0.622402,0.282327 0.288743,0 0.513322,-0.07058 0.224578,-0.07058 0.429906,-0.192495 v 0.699401 q -0.198912,0.115497 -0.429906,0.173246 -0.224579,0.05775 -0.564654,0.05775 z m 3.156925,-0.648068 q 0.14758,0 0.288744,-0.02567 0.14758,-0.03208 0.269493,-0.07058 v 0.603153 q -0.12833,0.05775 -0.333659,0.09625 -0.205328,0.04491 -0.429906,0.04491 -0.29516,0 -0.538988,-0.09625 -0.243828,-0.102664 -0.384991,-0.346492 -0.141164,-0.243827 -0.141164,-0.680151 V 9.8051716 H 30.130975 V 9.452263 l 0.513322,-0.2823269 0.256661,-0.7378998 h 0.506905 v 0.7635659 h 0.988144 v 0.6095694 h -0.988144 v 1.8030424 q 0,0.243827 0.12833,0.365741 0.128331,0.115498 0.333659,0.115498 z m 2.643594,-2.958016 q 0.673735,0 1.020227,0.2951599 0.352909,0.2951599 0.352909,0.9111461 v 2.335613 h -0.571071 l -0.160413,-0.481239 h -0.02567 q -0.224578,0.282327 -0.474822,0.417074 -0.250245,0.12833 -0.680151,0.12833 -0.468406,0 -0.776399,-0.263077 -0.307993,-0.263077 -0.307993,-0.814898 0,-0.538988 0.391407,-0.808482 0.397825,-0.269494 1.19989,-0.301576 l 0.603153,-0.01925 v -0.173246 q 0,-0.327242 -0.160414,-0.4684057 -0.160413,-0.1475799 -0.449156,-0.1475799 -0.263077,0 -0.506905,0.076998 -0.237411,0.076998 -0.474822,0.1796626 L 33.236559,9.4330134 Q 33.49322,9.2982665 33.820462,9.2148517 34.154121,9.131437 34.513446,9.131437 Z m 0.14758,1.912123 q -0.532571,0.01925 -0.7379,0.186079 -0.205328,0.160413 -0.205328,0.436323 0,0.250245 0.141163,0.359326 0.14758,0.102664 0.384991,0.102664 0.352909,0 0.596737,-0.198912 0.243828,-0.205329 0.243828,-0.603153 v -0.29516 z m 3.58683,1.045893 q 0.14758,0 0.288744,-0.02567 0.14758,-0.03208 0.269494,-0.07058 v 0.603153 q -0.128331,0.05775 -0.33366,0.09625 -0.205328,0.04491 -0.429906,0.04491 -0.29516,0 -0.538988,-0.09625 -0.243828,-0.102664 -0.384991,-0.346492 -0.141164,-0.243827 -0.141164,-0.680151 V 9.8051716 H 36.508979 V 9.452263 l 0.513322,-0.2823269 0.256661,-0.7378998 h 0.506905 v 0.7635659 h 0.988144 v 0.6095694 h -0.988144 v 1.8030424 q 0,0.243827 0.12833,0.365741 0.128331,0.115498 0.333659,0.115498 z m 1.661867,-4.2349036 q 0.186079,0 0.314409,0.096248 0.134747,0.089831 0.134747,0.3272426 0,0.2374112 -0.134747,0.333659 -0.12833,0.096248 -0.314409,0.096248 -0.186079,0 -0.320826,-0.096248 -0.128331,-0.096248 -0.128331,-0.333659 0,-0.2374113 0.128331,-0.3272426 0.134747,-0.096248 0.320826,-0.096248 z m 0.40424,1.3410528 V 12.673356 H 39.505482 V 9.1956022 Z m 4.138648,1.7324608 q 0,0.86623 -0.449156,1.341052 -0.449156,0.468406 -1.219139,0.468406 -0.474822,0 -0.846981,-0.211745 -0.372158,-0.211745 -0.583903,-0.615986 -0.211745,-0.404241 -0.211745,-0.981727 0,-0.866231 0.44274,-1.3282201 0.449156,-0.4684059 1.219139,-0.4684059 0.481239,0 0.853397,0.2117451 0.372158,0.2053287 0.583903,0.6095694 0.211745,0.3978245 0.211745,0.9753115 z m -2.483193,0 q 0,0.55182 0.192496,0.853397 0.198912,0.301576 0.635235,0.301576 0.436324,0 0.628819,-0.301576 0.198912,-0.301577 0.198912,-0.853397 0,-0.551821 -0.198912,-0.846981 -0.192495,-0.29516 -0.635235,-0.29516 -0.429907,0 -0.628819,0.29516 -0.192496,0.29516 -0.192496,0.846981 z m 5.178124,-1.796626 q 0.583903,0 0.911146,0.3015764 0.333659,0.3015764 0.333659,0.9753106 v 2.265032 h -0.808482 v -2.104619 q 0,-0.782815 -0.641652,-0.782815 -0.487655,0 -0.667318,0.307993 -0.179662,0.307993 -0.179662,0.879063 v 1.700378 H 45.286751 V 9.1956022 h 0.622402 l 0.115498,0.4555729 h 0.04492 q 0.16683,-0.2694939 0.455573,-0.3914077 0.29516,-0.1283304 0.622403,-0.1283304 z"
         id="text1"
         style="font-weight:600;font-size:6.41652px;font-family:'Noto Sans';-inkscape-font-specification:'Noto Sans Semi-Bold';text-align:center;text-anchor:middle;fill:#ffffff;stroke-width:0.874978"
         aria-label="Nerd Dictation" /><rect
         style="fill:#ffffff;stroke-width:1.34118"
         id="rect1"
         width="45.599007"
         height="0.72351599"
         x="3.2120707"
         y="13.828669" /><g
         id="g106"><path
           style="font-size:5.0873px;font-family:'Noto Sans';-inkscape-font-specification:'Noto Sans';fill:#ffffff;stroke-width:0.693721"
           d="m 16.489744,19.970089 q 0,0.483293 -0.351023,0.75292 -0.351024,0.269627 -0.946238,0.269627 -0.305238,0 -0.56469,-0.04579 -0.259453,-0.04579 -0.432421,-0.127182 V 20.38216 q 0.183143,0.0814 0.45277,0.147532 0.274714,0.06613 0.56469,0.06613 0.406984,0 0.610476,-0.157707 0.208579,-0.157706 0.208579,-0.427333 0,-0.178055 -0.07631,-0.300151 -0.07631,-0.122095 -0.26454,-0.223841 -0.183143,-0.106833 -0.513817,-0.223841 -0.462944,-0.167881 -0.702047,-0.412071 -0.234016,-0.244191 -0.234016,-0.666437 0,-0.289976 0.147531,-0.493468 0.147532,-0.208579 0.406984,-0.3205 0.26454,-0.11192 0.605389,-0.11192 0.300151,0 0.549428,0.05596 0.249278,0.05596 0.45277,0.147532 l -0.142444,0.391722 q -0.18823,-0.0814 -0.412072,-0.137357 -0.218753,-0.05596 -0.457856,-0.05596 -0.34085,0 -0.513818,0.147531 -0.172968,0.142445 -0.172968,0.381548 0,0.183143 0.07631,0.305238 0.07631,0.122095 0.249277,0.218754 0.172968,0.09666 0.468032,0.208579 0.3205,0.117008 0.539254,0.254365 0.223841,0.13227 0.335761,0.3205 0.117008,0.18823 0.117008,0.473119 z m 1.968784,-1.805992 q 0.503643,0 0.808881,0.351024 0.310325,0.351024 0.310325,1.058158 0,0.69696 -0.310325,1.058159 -0.305238,0.361198 -0.813968,0.361198 -0.315413,0 -0.523992,-0.117008 -0.203492,-0.122095 -0.3205,-0.279801 h -0.03052 q 0.01018,0.08648 0.02035,0.218753 0.01017,0.13227 0.01017,0.228929 v 1.119206 H 17.161267 V 18.21497 h 0.366285 l 0.06105,0.371373 h 0.02035 q 0.122095,-0.178055 0.3205,-0.300151 0.198405,-0.122095 0.529079,-0.122095 z m -0.0814,0.37646 q -0.417158,0 -0.590126,0.234016 -0.167881,0.234016 -0.178056,0.712222 v 0.08648 q 0,0.503643 0.162794,0.778357 0.167881,0.269627 0.615563,0.269627 0.249278,0 0.406984,-0.137357 0.162794,-0.137357 0.239103,-0.371373 0.0814,-0.239103 0.0814,-0.544341 0,-0.468032 -0.183143,-0.747833 -0.178055,-0.279802 -0.554516,-0.279802 z m 2.965895,-0.37646 q 0.351024,0 0.600301,0.152619 0.254365,0.152619 0.386635,0.432421 0.137357,0.274714 0.137357,0.646087 v 0.269627 H 20.60028 q 0.01018,0.462944 0.234016,0.707134 0.228928,0.239103 0.635912,0.239103 0.259453,0 0.457857,-0.04578 0.203492,-0.05087 0.417159,-0.142445 v 0.391722 q -0.208579,0.09157 -0.412071,0.13227 -0.203492,0.04579 -0.483294,0.04579 -0.386635,0 -0.686785,-0.157706 -0.295064,-0.157707 -0.462945,-0.468032 -0.162793,-0.315413 -0.162793,-0.768182 0,-0.447683 0.147532,-0.768183 0.152619,-0.320499 0.422245,-0.493468 0.274715,-0.172968 0.635913,-0.172968 z m -0.0051,0.366286 q -0.3205,0 -0.50873,0.208579 -0.183143,0.203492 -0.218754,0.569778 h 1.388833 q -0.0051,-0.345937 -0.162794,-0.559603 -0.157706,-0.218754 -0.498555,-0.218754 z m 2.87432,-0.366286 q 0.351024,0 0.600301,0.152619 0.254365,0.152619 0.386635,0.432421 0.137357,0.274714 0.137357,0.646087 v 0.269627 h -1.867039 q 0.01018,0.462944 0.234016,0.707134 0.228929,0.239103 0.635913,0.239103 0.259452,0 0.457857,-0.04578 0.203492,-0.05087 0.417158,-0.142445 v 0.391722 q -0.208579,0.09157 -0.412071,0.13227 -0.203492,0.04579 -0.483294,0.04579 -0.386634,0 -0.686785,-0.157706 -0.295063,-0.157707 -0.462944,-0.468032 -0.162794,-0.315413 -0.162794,-0.768182 0,-0.447683 0.147532,-0.768183 0.152619,-0.320499 0.422246,-0.493468 0.274714,-0.172968 0.635912,-0.172968 z m -0.0051,0.366286 q -0.3205,0 -0.50873,0.208579 -0.183143,0.203492 -0.218754,0.569778 h 1.388833 q -0.0051,-0.345937 -0.162794,-0.559603 -0.157706,-0.218754 -0.498555,-0.218754 z m 2.915019,2.462253 q -0.361199,0 -0.646087,-0.147532 -0.279802,-0.147531 -0.442596,-0.457857 -0.157706,-0.310325 -0.157706,-0.793619 0,-0.503642 0.167881,-0.819055 0.167881,-0.315412 0.45277,-0.462944 0.289976,-0.147532 0.656261,-0.147532 0.20858,0 0.401897,0.04579 0.193317,0.0407 0.315413,0.101746 l -0.137357,0.371373 q -0.122096,-0.04579 -0.284889,-0.08648 -0.162794,-0.0407 -0.305238,-0.0407 -0.803794,0 -0.803794,1.032722 0,0.493468 0.193318,0.758008 0.198405,0.259452 0.585039,0.259452 0.223842,0 0.391722,-0.04579 0.172969,-0.04578 0.315413,-0.11192 v 0.396809 q -0.137357,0.07122 -0.305238,0.106834 -0.162794,0.0407 -0.396809,0.0407 z m 1.795814,-2.782753 q 0,0.203492 -0.02544,0.381547 h 0.03052 q 0.13227,-0.208579 0.356111,-0.315412 0.228929,-0.106833 0.493468,-0.106833 0.498556,0 0.747833,0.239103 0.249278,0.234015 0.249278,0.758007 v 1.775468 h -0.442595 v -1.744944 q 0,-0.656262 -0.610476,-0.656262 -0.457857,0 -0.630825,0.259453 -0.167881,0.254365 -0.167881,0.732571 v 1.409182 h -0.447683 v -3.866348 h 0.447683 z m 4.929575,2.416467 q 0.101746,0 0.208579,-0.01526 0.106834,-0.02035 0.172968,-0.0407 v 0.340849 q -0.07122,0.03561 -0.203492,0.05596 -0.132269,0.02544 -0.254365,0.02544 -0.213666,0 -0.396809,-0.07122 -0.178055,-0.07631 -0.289976,-0.259453 -0.111921,-0.183142 -0.111921,-0.513817 V 18.560907 H 32.58593 V 18.34724 l 0.391722,-0.178055 0.178055,-0.579953 h 0.26454 v 0.625738 h 0.788531 v 0.345937 h -0.788531 v 1.577063 q 0,0.249277 0.117008,0.371372 0.122095,0.117008 0.310325,0.117008 z m 3.296561,-1.053071 q 0,0.676611 -0.345936,1.047984 -0.34085,0.371373 -0.925889,0.371373 -0.361198,0 -0.646087,-0.162794 -0.279802,-0.167881 -0.442595,-0.483293 -0.162794,-0.3205 -0.162794,-0.77327 0,-0.676611 0.340849,-1.042896 0.340849,-0.366286 0.925889,-0.366286 0.371373,0 0.651174,0.167881 0.284889,0.162794 0.442595,0.478206 0.162794,0.310326 0.162794,0.763095 z m -2.060357,0 q 0,0.483294 0.188231,0.768183 0.193317,0.279801 0.610476,0.279801 0.412071,0 0.605388,-0.279801 0.193318,-0.284889 0.193318,-0.768183 0,-0.483293 -0.193318,-0.758007 -0.193317,-0.274715 -0.610476,-0.274715 -0.417158,0 -0.605388,0.274715 -0.188231,0.274714 -0.188231,0.758007 z m 5.000805,1.053071 q 0.101746,0 0.208579,-0.01526 0.106834,-0.02035 0.172969,-0.0407 v 0.340849 q -0.07122,0.03561 -0.203492,0.05596 -0.13227,0.02544 -0.254365,0.02544 -0.213667,0 -0.39681,-0.07122 -0.178055,-0.07631 -0.289976,-0.259453 -0.111921,-0.183142 -0.111921,-0.513817 V 18.560907 H 38.822939 V 18.34724 l 0.391722,-0.178055 0.178055,-0.579953 h 0.26454 v 0.625738 h 0.788531 v 0.345937 h -0.788531 v 1.577063 q 0,0.249277 0.117008,0.371372 0.122095,0.117008 0.310325,0.117008 z m 1.97895,-2.462253 q 0.351024,0 0.600302,0.152619 0.254365,0.152619 0.386634,0.432421 0.137358,0.274714 0.137358,0.646087 v 0.269627 h -1.867039 q 0.01017,0.462944 0.234015,0.707134 0.228929,0.239103 0.635913,0.239103 0.259452,0 0.457857,-0.04578 0.203492,-0.05087 0.417158,-0.142445 v 0.391722 q -0.208579,0.09157 -0.412071,0.13227 -0.203492,0.04579 -0.483293,0.04579 -0.386635,0 -0.686786,-0.157706 -0.295063,-0.157707 -0.462944,-0.468032 -0.162794,-0.315413 -0.162794,-0.768182 0,-0.447683 0.147532,-0.768183 0.152619,-0.320499 0.422246,-0.493468 0.274714,-0.172968 0.635912,-0.172968 z m -0.0051,0.366286 q -0.3205,0 -0.50873,0.208579 -0.183143,0.203492 -0.218754,0.569778 h 1.388833 q -0.0051,-0.345937 -0.162794,-0.559603 -0.157706,-0.218754 -0.498555,-0.218754 z m 2.365588,1.01746 -0.94115,-1.332873 h 0.508729 l 0.702048,1.027635 0.69696,-1.027635 h 0.503643 l -0.941151,1.332873 0.992024,1.39392 h -0.50873 l -0.742746,-1.088682 -0.752921,1.088682 h -0.503642 z m 2.955719,1.078507 q 0.101746,0 0.208579,-0.01526 0.106833,-0.02035 0.172968,-0.0407 v 0.340849 q -0.07122,0.03561 -0.203492,0.05596 -0.132269,0.02544 -0.254365,0.02544 -0.213666,0 -0.396809,-0.07122 -0.178056,-0.07631 -0.289976,-0.259453 -0.111921,-0.183142 -0.111921,-0.513817 V 18.560907 H 46.118108 V 18.34724 l 0.391723,-0.178055 0.178055,-0.579953 h 0.26454 v 0.625738 h 0.788531 v 0.345937 h -0.788531 v 1.577063 q 0,0.249277 0.117008,0.371372 0.122095,0.117008 0.310325,0.117008 z"
           id="text2"
           aria-label="Speech to text" /><g
           id="g85"
           transform="translate(0,-0.70931287)"><path
             style="font-size:4.1848px;font-family:'DejaVu Sans';-inkscape-font-specification:'DejaVu Sans';text-align:center;text-anchor:middle;fill:#ffffff;stroke-width:0.570651"
             d="M 7.8975107,19.428414 7.3376302,20.94663 H 8.4594345 Z M 7.6645677,19.021786 H 8.132497 l 1.1626715,3.050735 H 8.8660631 L 8.5881662,21.289915 H 7.2129853 L 6.9350884,22.072521 H 6.4998528 Z m 2.0760531,0 h 0.4127582 v 3.050735 H 9.7406208 Z"
             id="text5"
             aria-label="AI" /><path
             id="rect9"
             style="fill:#ffffff;stroke-width:0.486252"
             d="m 6.056548,17.414417 c -0.3657483,0 -0.660296,0.297011 -0.660296,0.665713 v 4.934062 c 0,0.368703 0.2945513,0.665713 0.660296,0.665713 h 4.897178 c 0.365748,0 0.660296,-0.29701 0.660296,-0.665713 V 18.08013 c 0,-0.368702 -0.294552,-0.665713 -0.660296,-0.665713 z m 0.2423474,0.310266 h 4.4124756 c 0.329544,0 0.594754,0.267363 0.594754,0.599555 v 4.445847 c 0,0.332181 -0.265224,0.599554 -0.594754,0.599554 H 6.2988954 c -0.329544,0 -0.5947543,-0.267363 -0.5947543,-0.599554 v -4.445847 c 0,-0.332217 0.2652245,-0.599555 0.5947543,-0.599555 z" /><g
             id="g14"
             transform="matrix(0.8982041,0,0,0.8982041,-57.394822,29.977245)"
             style="fill:#ffffff"><path
               id="rect10"
               style="stroke-width:0.869137"
               d="m 71.376841,-15.168713 c 0.133404,0 0.240801,0.159243 0.240801,0.357047 v 0.797201 c 0,0.197804 -0.107397,0.357047 -0.240801,0.357047 -0.133404,0 -0.240801,-0.159243 -0.240801,-0.357047 v -0.797201 c 0,-0.197804 0.107397,-0.357047 0.240801,-0.357047 z"
               sodipodi:nodetypes="sssssss" /><path
               id="rect11"
               style="stroke-width:0.734464"
               d="m 72.332564,-14.367516 c 0.130519,0 0.235594,0.11623 0.235594,0.260605 v 0.09683 c 0,0.144376 -0.105075,0.260606 -0.235594,0.260606 -0.130519,0 -0.235594,-0.11623 -0.235594,-0.260606 v -0.09683 c 0,-0.144375 0.105075,-0.260605 0.235594,-0.260605 z"
               sodipodi:nodetypes="sssssss" /><path
               id="rect12"
               style="stroke-width:0.734464"
               d="m 73.28308,-14.809373 c 0.130519,0 0.235594,0.11623 0.235594,0.260605 v 0.497257 c 0,0.144376 -0.105075,0.260606 -0.235594,0.260606 -0.13052,0 -0.235595,-0.11623 -0.235595,-0.260606 v -0.497257 c 0,-0.144375 0.105075,-0.260605 0.235595,-0.260605 z"
               sodipodi:nodetypes="sssssss" /><path
               id="rect13"
               style="stroke-width:0.734464"
               d="m 74.233595,-14.537814 c 0.130519,0 0.235594,0.11623 0.235594,0.260605 v 0.267125 c 0,0.144376 -0.105075,0.260606 -0.235594,0.260606 -0.130519,0 -0.235594,-0.11623 -0.235594,-0.260606 v -0.267125 c 0,-0.144375 0.105075,-0.260605 0.235594,-0.260605 z"
               sodipodi:nodetypes="sssssss" /><path
               id="rect14"
               style="stroke-width:0.869137"
               d="m 75.189318,-15.145982 c 0.133404,0 0.240801,0.159243 0.240801,0.357047 v 0.693055 c 0,0.197804 -0.107397,0.357047 -0.240801,0.357047 -0.133404,0 -0.240801,-0.159243 -0.240801,-0.357047 v -0.693055 c 0,-0.197804 0.107397,-0.357047 0.240801,-0.357047 z"
               sodipodi:nodetypes="sssssss" /></g><g
             id="g74"
             transform="matrix(0.8982041,0,0,-0.8982041,-57.394822,11.117062)"
             style="fill:#ffffff"><path
               id="path70"
               style="stroke-width:0.869137"
               d="m 71.376841,-15.168713 c 0.133404,0 0.240801,0.159243 0.240801,0.357047 v 0.797201 c 0,0.197804 -0.107397,0.357047 -0.240801,0.357047 -0.133404,0 -0.240801,-0.159243 -0.240801,-0.357047 v -0.797201 c 0,-0.197804 0.107397,-0.357047 0.240801,-0.357047 z"
               sodipodi:nodetypes="sssssss" /><path
               id="path71"
               style="stroke-width:0.734464"
               d="m 72.332564,-14.367516 c 0.130519,0 0.235594,0.11623 0.235594,0.260605 v 0.09683 c 0,0.144376 -0.105075,0.260606 -0.235594,0.260606 -0.130519,0 -0.235594,-0.11623 -0.235594,-0.260606 v -0.09683 c 0,-0.144375 0.105075,-0.260605 0.235594,-0.260605 z"
               sodipodi:nodetypes="sssssss" /><path
               id="path72"
               style="stroke-width:0.734464"
               d="m 73.28308,-14.809373 c 0.130519,0 0.235594,0.11623 0.235594,0.260605 v 0.497257 c 0,0.144376 -0.105075,0.260606 -0.235594,0.260606 -0.13052,0 -0.235595,-0.11623 -0.235595,-0.260606 v -0.497257 c 0,-0.144375 0.105075,-0.260605 0.235595,-0.260605 z"
               sodipodi:nodetypes="sssssss" /><path
               id="path73"
               style="stroke-width:0.734464"
               d="m 74.233595,-14.537814 c 0.130519,0 0.235594,0.11623 0.235594,0.260605 v 0.267125 c 0,0.144376 -0.105075,0.260606 -0.235594,0.260606 -0.130519,0 -0.235594,-0.11623 -0.235594,-0.260606 v -0.267125 c 0,-0.144375 0.105075,-0.260605 0.235594,-0.260605 z"
               sodipodi:nodetypes="sssssss" /><path
               id="path74"
               style="stroke-width:0.869137"
               d="m 75.189318,-15.145982 c 0.133404,0 0.240801,0.159243 0.240801,0.357047 v 0.693055 c 0,0.197804 -0.107397,0.357047 -0.240801,0.357047 -0.133404,0 -0.240801,-0.159243 -0.240801,-0.357047 v -0.693055 c 0,-0.197804 0.107397,-0.357047 0.240801,-0.357047 z"
               sodipodi:nodetypes="sssssss" /></g><g
             id="g79"
             transform="matrix(0,0.8982041,0.8982041,0,17.886442,-45.276009)"
             style="fill:#ffffff"><path
               id="path75"
               style="stroke-width:0.869137"
               d="m 71.376841,-15.168713 c 0.133404,0 0.240801,0.159243 0.240801,0.357047 v 0.797201 c 0,0.197804 -0.107397,0.357047 -0.240801,0.357047 -0.133404,0 -0.240801,-0.159243 -0.240801,-0.357047 v -0.797201 c 0,-0.197804 0.107397,-0.357047 0.240801,-0.357047 z"
               sodipodi:nodetypes="sssssss" /><path
               id="path76"
               style="stroke-width:0.734464"
               d="m 72.332564,-14.367516 c 0.130519,0 0.235594,0.11623 0.235594,0.260605 v 0.09683 c 0,0.144376 -0.105075,0.260606 -0.235594,0.260606 -0.130519,0 -0.235594,-0.11623 -0.235594,-0.260606 v -0.09683 c 0,-0.144375 0.105075,-0.260605 0.235594,-0.260605 z"
               sodipodi:nodetypes="sssssss" /><path
               id="path77"
               style="stroke-width:0.734464"
               d="m 73.28308,-14.809373 c 0.130519,0 0.235594,0.11623 0.235594,0.260605 v 0.497257 c 0,0.144376 -0.105075,0.260606 -0.235594,0.260606 -0.13052,0 -0.235595,-0.11623 -0.235595,-0.260606 v -0.497257 c 0,-0.144375 0.105075,-0.260605 0.235595,-0.260605 z"
               sodipodi:nodetypes="sssssss" /><path
               id="path78"
               style="stroke-width:0.734464"
               d="m 74.233595,-14.537814 c 0.130519,0 0.235594,0.11623 0.235594,0.260605 v 0.267125 c 0,0.144376 -0.105075,0.260606 -0.235594,0.260606 -0.130519,0 -0.235594,-0.11623 -0.235594,-0.260606 v -0.267125 c 0,-0.144375 0.105075,-0.260605 0.235594,-0.260605 z"
               sodipodi:nodetypes="sssssss" /><path
               id="path79"
               style="stroke-width:0.869137"
               d="m 75.189318,-15.145982 c 0.133404,0 0.240801,0.159243 0.240801,0.357047 v 0.693055 c 0,0.197804 -0.107397,0.357047 -0.240801,0.357047 -0.133404,0 -0.240801,-0.159243 -0.240801,-0.357047 v -0.693055 c 0,-0.197804 0.107397,-0.357047 0.240801,-0.357047 z"
               sodipodi:nodetypes="sssssss" /></g><g
             id="g84"
             transform="matrix(0,0.8982041,-0.8982041,0,-0.91928184,-45.283172)"
             style="fill:#ffffff"><path
               id="path80"
               style="stroke-width:0.869137"
               d="m 71.376841,-15.168713 c 0.133404,0 0.240801,0.159243 0.240801,0.357047 v 0.797201 c 0,0.197804 -0.107397,0.357047 -0.240801,0.357047 -0.133404,0 -0.240801,-0.159243 -0.240801,-0.357047 v -0.797201 c 0,-0.197804 0.107397,-0.357047 0.240801,-0.357047 z"
               sodipodi:nodetypes="sssssss" /><path
               id="path81"
               style="stroke-width:0.734464"
               d="m 72.332564,-14.367516 c 0.130519,0 0.235594,0.11623 0.235594,0.260605 v 0.09683 c 0,0.144376 -0.105075,0.260606 -0.235594,0.260606 -0.130519,0 -0.235594,-0.11623 -0.235594,-0.260606 v -0.09683 c 0,-0.144375 0.105075,-0.260605 0.235594,-0.260605 z"
               sodipodi:nodetypes="sssssss" /><path
               id="path82"
               style="stroke-width:0.734464"
               d="m 73.28308,-14.809373 c 0.130519,0 0.235594,0.11623 0.235594,0.260605 v 0.497257 c 0,0.144376 -0.105075,0.260606 -0.235594,0.260606 -0.13052,0 -0.235595,-0.11623 -0.235595,-0.260606 v -0.497257 c 0,-0.144375 0.105075,-0.260605 0.235595,-0.260605 z"
               sodipodi:nodetypes="sssssss" /><path
               id="path83"
               style="stroke-width:0.734464"
               d="m 74.233595,-14.537814 c 0.130519,0 0.235594,0.11623 0.235594,0.260605 v 0.267125 c 0,0.144376 -0.105075,0.260606 -0.235594,0.260606 -0.130519,0 -0.235594,-0.11623 -0.235594,-0.260606 v -0.267125 c 0,-0.144375 0.105075,-0.260605 0.235594,-0.260605 z"
               sodipodi:nodetypes="sssssss" /><path
               id="path84"
               style="stroke-width:0.869137"
               d="m 75.189318,-15.145982 c 0.133404,0 0.240801,0.159243 0.240801,0.357047 v 0.693055 c 0,0.197804 -0.107397,0.357047 -0.240801,0.357047 -0.133404,0 -0.240801,-0.159243 -0.240801,-0.357047 v -0.693055 c 0,-0.197804 0.107397,-0.357047 0.240801,-0.357047 z"
               sodipodi:nodetypes="sssssss" /></g></g></g></g></g></svg>
