<?xml version="1.0" encoding="UTF-8" standalone="no"?>
<svg
   xmlns:dc="http://purl.org/dc/elements/1.1/"
   xmlns:cc="http://creativecommons.org/ns#"
   xmlns:rdf="http://www.w3.org/1999/02/22-rdf-syntax-ns#"
   xmlns:svg="http://www.w3.org/2000/svg"
   xmlns="http://www.w3.org/2000/svg"
   xmlns:xlink="http://www.w3.org/1999/xlink"
   xmlns:sodipodi="http://sodipodi.sourceforge.net/DTD/sodipodi-0.dtd"
   xmlns:inkscape="http://www.inkscape.org/namespaces/inkscape"
   width="64"
   height="64"
   viewBox="0 0 16.933333 16.933334"
   version="1.1"
   id="svg7025"
   inkscape:version="1.0 (1.0+r73)"
   sodipodi:docname="flash.svg"
   inkscape:export-filename="/home/lliurex/Desarrollo/zero-lliurex-installers/zero-lliurex-flash.install/usr/share/zero-lliurex-flash/flash.png"
   inkscape:export-xdpi="96"
   inkscape:export-ydpi="96">
  <defs
     id="defs7019">
    <linearGradient
       inkscape:collect="always"
       xlink:href="#linearGradient5328"
       id="linearGradient5334"
       x1="1785.0028"
       y1="869.12018"
       x2="1337.5697"
       y2="317.21527"
       gradientUnits="userSpaceOnUse"
       gradientTransform="matrix(0.39360879,0,0,0.20153351,-1290.7224,-460.67172)" />
    <linearGradient
       id="linearGradient5328">
      <stop
         style="stop-color:#7c1315;stop-opacity:1;"
         offset="0"
         id="stop5330" />
      <stop
         style="stop-color:#e81c24;stop-opacity:1;"
         offset="1"
         id="stop5332" />
    </linearGradient>
    <linearGradient
       inkscape:collect="always"
       xlink:href="#linearGradient5360"
       id="linearGradient5366"
       x1="509.27768"
       y1="753.14532"
       x2="509.27768"
       y2="766.40424"
       gradientUnits="userSpaceOnUse"
       gradientTransform="matrix(0.26458333,0,0,0.26458333,-587.01186,163.56648)" />
    <linearGradient
       id="linearGradient5360">
      <stop
         style="stop-color:#ffffff;stop-opacity:1;"
         offset="0"
         id="stop5362" />
      <stop
         style="stop-color:#e7e7e7;stop-opacity:1;"
         offset="1"
         id="stop5364" />
    </linearGradient>
    <linearGradient
       gradientTransform="matrix(0.10073386,0,0,0.10073386,-501.22346,290.35898)"
       inkscape:collect="always"
       xlink:href="#linearGradient5376"
       id="linearGradient5382"
       x1="482.48386"
       y1="781.36462"
       x2="482.48386"
       y2="714.42279"
       gradientUnits="userSpaceOnUse" />
    <linearGradient
       id="linearGradient5376">
      <stop
         id="stop5384"
         offset="0"
         style="stop-color:#e7e7e7;stop-opacity:1;" />
      <stop
         style="stop-color:#ffffff;stop-opacity:1;"
         offset="1"
         id="stop5380" />
    </linearGradient>
    <linearGradient
       inkscape:collect="always"
       xlink:href="#linearGradient5320"
       id="linearGradient5326"
       x1="-95.114098"
       y1="101.63474"
       x2="421.45139"
       y2="101.63474"
       gradientUnits="userSpaceOnUse"
       gradientTransform="matrix(0.26458333,0,0,0.26458333,-495.71259,271.32955)" />
    <linearGradient
       id="linearGradient5320">
      <stop
         style="stop-color:#e5e5e5;stop-opacity:1;"
         offset="0"
         id="stop5322" />
      <stop
         style="stop-color:#ffffff;stop-opacity:1;"
         offset="1"
         id="stop5324" />
    </linearGradient>
  </defs>
  <sodipodi:namedview
     id="base"
     pagecolor="#ffffff"
     bordercolor="#666666"
     borderopacity="1.0"
     inkscape:pageopacity="0.0"
     inkscape:pageshadow="2"
     inkscape:zoom="2.8"
     inkscape:cx="-44.542517"
     inkscape:cy="84.457135"
     inkscape:document-units="mm"
     inkscape:current-layer="g7685"
     inkscape:document-rotation="0"
     showgrid="false"
     units="px"
     inkscape:window-width="1920"
     inkscape:window-height="903"
     inkscape:window-x="0"
     inkscape:window-y="30"
     inkscape:window-maximized="1" />
  <metadata
     id="metadata7022">
    <rdf:RDF>
      <cc:Work
         rdf:about="">
        <dc:format>image/svg+xml</dc:format>
        <dc:type
           rdf:resource="http://purl.org/dc/dcmitype/StillImage" />
        <dc:title />
      </cc:Work>
    </rdf:RDF>
  </metadata>
  <g
     inkscape:label="Capa 1"
     inkscape:groupmode="layer"
     id="layer1">
    <g
       id="g7685">
      <g
         id="g4773"
         transform="matrix(0.0457656,0,0,0.0893789,35.591351,-21.126632)">
        <rect
           transform="scale(1,-1)"
           ry="0"
           y="-425.82718"
           x="-777.68787"
           height="189.4556"
           width="370.00137"
           id="rect3846-5"
           style="fill:url(#linearGradient5334);fill-opacity:1;stroke:none;stroke-width:0.281648" />
      </g>
      <g
         id="g4764"
         transform="matrix(0.09512423,0,0,0.09512423,51.512093,-19.919779)">
        <path
           inkscape:connector-curvature="0"
           id="path3820-1"
           d="m -520.84376,366.43482 v -15.42328 l 2.64343,-0.26501 c 12.7041,-1.27349 18.77936,-4.01785 26.92371,-12.1622 9.4991,-9.4991 15.86016,-21.40527 26.39309,-49.40065 6.96965,-18.52456 12.74714,-29.77107 21.7988,-42.43374 7.90033,-11.05202 20.42018,-20.00793 34.43947,-24.63581 6.90753,-2.28021 16.30352,-3.9523 22.20941,-3.9523 h 2.26672 v 15.43776 15.43773 l -2.64343,0.23079 c -7.00556,0.61164 -12.68365,2.34942 -18.16587,5.55972 -7.29244,4.27032 -16.24915,15.23259 -21.28597,26.05222 -1.74781,3.75452 -2.71208,3.46522 11.54907,3.46522 h 12.53177 v 15.66101 15.66103 l -19.22354,0.1016 -19.22351,0.10157 -2.11423,4.67321 c -5.41996,11.98004 -11.74247,23.26187 -17.93682,32.00622 -11.90331,16.80355 -27.79429,25.93959 -49.98003,28.73457 -2.477,0.31205 -5.78128,0.56877 -7.34285,0.57049 l -2.83922,0.003 v -15.4233 z"
           style="fill:#ff0000;fill-opacity:1;stroke:none;stroke-width:0.264583" />
        <path
           inkscape:connector-curvature="0"
           id="path3820-2"
           d="m -520.83242,363.24392 v -15.42328 l 2.64343,-0.26501 c 12.70411,-1.27349 18.77936,-4.01785 26.92372,-12.1622 9.4991,-9.4991 15.86016,-21.40527 26.39309,-49.40065 6.96965,-18.52456 12.74714,-29.77107 21.7988,-42.43374 7.90033,-11.05202 20.42018,-20.00792 34.43947,-24.63577 6.90751,-2.28024 16.30351,-3.95232 22.20942,-3.95232 h 2.26669 v 15.43774 15.43773 l -2.64342,0.23079 c -7.00555,0.61164 -12.68365,2.34942 -18.16587,5.55972 -7.29243,4.27032 -16.24914,15.23259 -21.28595,26.05222 -1.74783,3.75452 -2.7121,3.46522 11.54905,3.46522 h 12.53177 v 15.66101 15.66103 l -19.22352,0.1016 -19.22352,0.10157 -2.11423,4.67321 c -5.41997,11.98004 -11.74248,23.26187 -17.93682,32.00622 -11.90332,16.80353 -27.79428,25.93959 -49.98004,28.73457 -2.47698,0.31205 -5.78126,0.56877 -7.34283,0.57049 l -2.83924,0.003 v -15.4233 z"
           style="fill:#800000;fill-opacity:1;stroke:none;stroke-width:0.264583" />
        <text
           id="text3032"
           y="366.54562"
           x="-455.8923"
           style="font-style:normal;font-variant:normal;font-weight:bold;font-stretch:normal;font-size:3.175px;line-height:0%;font-family:Verdana;-inkscape-font-specification:'Verdana Bold';letter-spacing:0px;word-spacing:0px;fill:url(#linearGradient5366);fill-opacity:1;stroke:none;stroke-width:0.264583"
           xml:space="preserve"><tspan
             style="font-size:8.46667px;line-height:1.25;fill:url(#linearGradient5366);fill-opacity:1;stroke-width:0.264583"
             y="366.54562"
             x="-455.8923"
             id="tspan3034"
             sodipodi:role="line">R</tspan></text>
        <circle
           id="path3042"
           style="fill:none;stroke:url(#linearGradient5382);stroke-width:1.59271;stroke-miterlimit:4;stroke-dasharray:none;stroke-opacity:1"
           cx="-452.65439"
           cy="363.45621"
           r="5.3675728" />
        <path
           inkscape:connector-curvature="0"
           id="path3820"
           d="m -520.87819,364.64525 v -15.42328 l 2.64342,-0.26499 c 12.70411,-1.27349 18.77936,-4.01786 26.92372,-12.16222 9.49911,-9.4991 15.86016,-21.40526 26.39309,-49.40063 6.96965,-18.52457 12.74714,-29.77108 21.7988,-42.43374 7.90033,-11.05202 20.42018,-20.00792 34.43947,-24.6358 6.90751,-2.28023 16.30351,-3.9523 22.20942,-3.9523 h 2.26669 v 15.43773 15.43773 l -2.64342,0.23079 c -7.00555,0.61163 -12.68365,2.34943 -18.16586,5.55973 -7.29243,4.27032 -16.24915,15.2326 -21.28596,26.05221 -1.74783,3.75454 -2.71209,3.46522 11.54905,3.46522 h 12.53177 v 15.66102 15.66102 l -19.22352,0.1016 -19.22352,0.10159 -2.11422,4.67318 c -5.41997,11.98006 -11.74249,23.26188 -17.93683,32.00622 -11.90332,16.80356 -27.79428,25.93961 -49.98004,28.73458 -2.47698,0.31205 -5.78126,0.56877 -7.34283,0.57049 l -2.83923,0.003 v -15.42326 z"
           style="fill:url(#linearGradient5326);fill-opacity:1;stroke:none;stroke-width:0.264583" />
      </g>
    </g>
  </g>
</svg>
