<?xml version="1.0" encoding="UTF-8" standalone="no"?>
<svg
   xmlns:dc="http://purl.org/dc/elements/1.1/"
   xmlns:cc="http://creativecommons.org/ns#"
   xmlns:rdf="http://www.w3.org/1999/02/22-rdf-syntax-ns#"
   xmlns:svg="http://www.w3.org/2000/svg"
   xmlns="http://www.w3.org/2000/svg"
   xmlns:xlink="http://www.w3.org/1999/xlink"
   xmlns:sodipodi="http://sodipodi.sourceforge.net/DTD/sodipodi-0.dtd"
   xmlns:inkscape="http://www.inkscape.org/namespaces/inkscape"
   inkscape:export-ydpi="96"
   inkscape:export-xdpi="96"
   inkscape:export-filename="/home/lliurex/Desarrollo/zero-lliurex-installers/rsrc/chrome.png"
   inkscape:version="1.0 (1.0+r73)"
   height="64"
   width="64"
   sodipodi:docname="chrome.svg"
   id="svg3135"
   version="1.1"
   viewBox="1 1 64 64">
  <metadata
     id="metadata3139">
    <rdf:RDF>
      <cc:Work
         rdf:about="">
        <dc:format>image/svg+xml</dc:format>
        <dc:type
           rdf:resource="http://purl.org/dc/dcmitype/StillImage" />
        <dc:title></dc:title>
      </cc:Work>
    </rdf:RDF>
  </metadata>
  <sodipodi:namedview
     inkscape:current-layer="svg3135"
     inkscape:window-maximized="1"
     inkscape:window-y="30"
     inkscape:window-x="0"
     inkscape:cy="44.780748"
     inkscape:cx="-102.88549"
     inkscape:zoom="2.03125"
     showgrid="false"
     id="namedview3137"
     inkscape:window-height="903"
     inkscape:window-width="1920"
     inkscape:pageshadow="2"
     inkscape:pageopacity="0"
     guidetolerance="10"
     gridtolerance="10"
     objecttolerance="10"
     borderopacity="1"
     bordercolor="#666666"
     pagecolor="#ffffff" />
  <style
     id="style3012"><![CDATA[.B{clip-path:url(#C)}.C{fill:#3e2723}.D{fill-opacity:.15}.E{fill-opacity:.2}]]></style>
  <defs
     id="defs3016">
    <circle
       r="88"
       cy="96"
       cx="96"
       id="A" />
    <path
       d="m 8,184 h 83.77 l 38.88,-38.88 V 116 H 61.35 L 8,24.48 Z"
       id="B" />
    <linearGradient
       y2="44.349998"
       x2="81.839996"
       y1="75.019997"
       x1="29.34"
       gradientUnits="userSpaceOnUse"
       id="linearGradient3760"
       xlink:href="#D"
       inkscape:collect="always" />
    <linearGradient
       y2="130.3"
       x2="52.540001"
       y1="164.5"
       x1="110.9"
       gradientUnits="userSpaceOnUse"
       id="linearGradient3762"
       xlink:href="#E"
       inkscape:collect="always" />
    <linearGradient
       y2="114.1"
       x2="136.60001"
       y1="49.799999"
       x1="121.9"
       gradientUnits="userSpaceOnUse"
       id="linearGradient3764"
       xlink:href="#H"
       inkscape:collect="always" />
    <linearGradient
       y2="114.1"
       x2="136.60001"
       y1="49.799999"
       x1="121.9"
       gradientUnits="userSpaceOnUse"
       id="linearGradient3766"
       xlink:href="#H"
       inkscape:collect="always" />
    <linearGradient
       y2="44.349998"
       x2="81.839996"
       y1="75.019997"
       x1="29.34"
       gradientUnits="userSpaceOnUse"
       id="linearGradient3768"
       xlink:href="#D"
       inkscape:collect="always" />
    <linearGradient
       y2="130.3"
       x2="52.540001"
       y1="164.5"
       x1="110.9"
       gradientUnits="userSpaceOnUse"
       id="linearGradient3770"
       xlink:href="#E"
       inkscape:collect="always" />
  </defs>
  <clipPath
     id="C">
    <use
       height="100%"
       width="100%"
       y="0"
       x="0"
       id="use3018"
       xlink:href="#A" />
  </clipPath>
  <radialGradient
     gradientUnits="userSpaceOnUse"
     gradientTransform="translate(-576)"
     r="84.080002"
     cy="55.950001"
     cx="668.20001"
     id="K">
    <stop
       id="stop3078"
       offset="0"
       stop-opacity=".2"
       stop-color="#3e2723" />
    <stop
       id="stop3080"
       offset="1"
       stop-opacity="0"
       stop-color="#3e2723" />
  </radialGradient>
  <radialGradient
     gradientUnits="userSpaceOnUse"
     gradientTransform="translate(-576)"
     r="78.040001"
     cy="48.52"
     cx="597.90002"
     id="N">
    <stop
       id="stop3101"
       offset="0"
       stop-opacity=".2"
       stop-color="#3e2723" />
    <stop
       id="stop3103"
       offset="1"
       stop-opacity="0"
       stop-color="#3e2723" />
  </radialGradient>
  <radialGradient
     gradientUnits="userSpaceOnUse"
     gradientTransform="translate(-576)"
     r="87.870003"
     cy="96.139999"
     cx="671.79999"
     id="O">
    <stop
       id="stop3108"
       offset="0"
       stop-opacity=".2"
       stop-color="#263238" />
    <stop
       id="stop3110"
       offset="1"
       stop-opacity="0"
       stop-color="#263238" />
  </radialGradient>
  <g
     transform="matrix(0.36363636,0,0,0.36363636,0.63636396,0.63636396)"
     id="g3758">
    <g
       class="B"
       transform="translate(-7,-7)"
       clip-path="url(#C)"
       id="g3076">
      <path
         d="m 21.97,8 v 108 h 39.4 L 96,56 h 88 V 8 Z"
         fill="#db4437"
         id="path3021" />
      <linearGradient
         id="D"
         x1="29.34"
         x2="81.839996"
         y1="75.019997"
         y2="44.349998"
         gradientUnits="userSpaceOnUse">
        <stop
           stop-color="#a52714"
           stop-opacity=".6"
           offset="0"
           id="stop3023" />
        <stop
           stop-color="#a52714"
           stop-opacity="0"
           offset=".66"
           id="stop3025" />
      </linearGradient>
      <path
         style="fill:url(#linearGradient3760)"
         d="m 21.97,8 v 108 h 39.4 L 96,56 h 88 V 8 Z"
         fill="url(#D)"
         id="path3028" />
      <path
         d="m 62.3,115.6 -39.82,-68.3 -0.58,1 39.54,67.8 z"
         class="C D"
         id="path3030" />
      <use
         xlink:href="#B"
         fill="#0f9d58"
         id="use3032"
         x="0"
         y="0"
         width="100%"
         height="100%" />
      <linearGradient
         id="E"
         x1="110.9"
         x2="52.540001"
         y1="164.5"
         y2="130.3"
         gradientUnits="userSpaceOnUse">
        <stop
           stop-color="#055524"
           stop-opacity=".4"
           offset="0"
           id="stop3034" />
        <stop
           stop-color="#055524"
           stop-opacity="0"
           offset=".33"
           id="stop3036" />
      </linearGradient>
      <path
         style="fill:url(#linearGradient3762)"
         d="m 8,184 h 83.77 l 38.88,-38.88 V 116 H 61.35 L 8,24.48 Z"
         fill="url(#E)"
         id="path3039" />
      <path
         d="m 129.8,117.3 -0.83,-0.48 -38.4,67.15 h 1.15 l 38.1,-66.64 z"
         fill="#263238"
         class="D"
         id="path3041" />
      <defs
         id="defs3044">
        <path
           id="F"
           d="m 8,184 h 83.77 l 38.88,-38.88 V 116 H 61.35 L 8,24.48 Z" />
      </defs>
      <clipPath
         id="G">
        <use
           xlink:href="#F"
           id="use3046"
           x="0"
           y="0"
           width="100%"
           height="100%" />
      </clipPath>
      <g
         clip-path="url(#G)"
         id="g3058">
        <path
           d="m 96,56 34.65,60 -38.88,68 H 184 V 56 Z"
           fill="#ffcd40"
           id="path3049" />
        <linearGradient
           id="H"
           x1="121.9"
           x2="136.60001"
           y1="49.799999"
           y2="114.1"
           gradientUnits="userSpaceOnUse">
          <stop
             stop-color="#ea6100"
             stop-opacity=".3"
             offset="0"
             id="stop3051" />
          <stop
             stop-color="#ea6100"
             stop-opacity="0"
             offset=".66"
             id="stop3053" />
        </linearGradient>
        <path
           style="fill:url(#linearGradient3764)"
           d="m 96,56 34.65,60 -38.88,68 H 184 V 56 Z"
           fill="url(#H)"
           id="path3056" />
      </g>
      <path
         d="m 96,56 34.65,60 -38.88,68 H 184 V 56 Z"
         fill="#ffcd40"
         id="path3060" />
      <path
         style="fill:url(#linearGradient3766)"
         d="m 96,56 34.65,60 -38.88,68 H 184 V 56 Z"
         fill="url(#H)"
         id="path3062" />
      <defs
         id="defs3065">
        <path
           id="I"
           d="m 96,56 34.65,60 -38.88,68 H 184 V 56 Z" />
      </defs>
      <clipPath
         id="J">
        <use
           xlink:href="#I"
           id="use3067"
           x="0"
           y="0"
           width="100%"
           height="100%" />
      </clipPath>
      <g
         clip-path="url(#J)"
         id="g3074">
        <path
           d="m 21.97,8 v 108 h 39.4 L 96,56 h 88 V 8 Z"
           fill="#db4437"
           id="path3070" />
        <path
           style="fill:url(#linearGradient3768)"
           d="m 21.97,8 v 108 h 39.4 L 96,56 h 88 V 8 Z"
           fill="url(#D)"
           id="path3072" />
      </g>
    </g>
    <g
       transform="translate(-7,-7)"
       id="g3099">
      <path
         style="fill:url(#K)"
         d="M 96,56 V 76.95 L 174.4,56 Z"
         fill="url(#K)"
         class="B"
         clip-path="url(#C)"
         id="path3083" />
      <g
         class="B"
         clip-path="url(#C)"
         id="g3097">
        <defs
           id="defs3086">
          <path
             id="L"
             d="M 21.97,8 V 48.34 L 61.36,116 96,56 h 88 V 8 Z" />
        </defs>
        <clipPath
           id="M">
          <use
             xlink:href="#L"
             id="use3088"
             x="0"
             y="0"
             width="100%"
             height="100%" />
        </clipPath>
        <g
           clip-path="url(#M)"
           id="g3095">
          <use
             xlink:href="#B"
             fill="#0f9d58"
             id="use3091"
             x="0"
             y="0"
             width="100%"
             height="100%" />
          <path
             style="fill:url(#linearGradient3770)"
             d="m 8,184 h 83.77 l 38.88,-38.88 V 116 H 61.35 L 8,24.48 Z"
             fill="url(#E)"
             id="path3093" />
        </g>
      </g>
    </g>
    <path
       style="fill:url(#N)"
       transform="translate(-7,-7)"
       d="M 21.97,48.45 79.22,105.69 61.36,116 Z"
       fill="url(#N)"
       class="B"
       clip-path="url(#C)"
       id="path3106" />
    <g
       transform="translate(-7,-7)"
       id="g3133">
      <path
         style="fill:url(#O)"
         d="m 91.83,183.9 20.96,-78.2 17.86,10.3 z"
         fill="url(#O)"
         class="B"
         clip-path="url(#C)"
         id="path3113" />
      <g
         class="B"
         clip-path="url(#C)"
         id="g3131">
        <circle
           cx="96"
           cy="96"
           r="40"
           fill="#f1f1f1"
           id="circle3115" />
        <circle
           cx="96"
           cy="96"
           r="32"
           fill="#4285f4"
           id="circle3117" />
        <path
           d="M 96,55 C 73.9,55 56,72.9 56,95 v 1 C 56,73.9 73.9,56 96,56 h 88 v -1 z"
           class="C E"
           id="path3119" />
        <path
           d="m 130.6,116 c -6.92,11.94 -19.8,20 -34.6,20 -14.8,0 -27.7,-8.06 -34.6,-20 H 61.36 L 8,24.48 v 1 L 61.4,117 c 6.92,11.94 19.8,20 34.6,20 14.8,0 27.68,-8.05 34.6,-20 h 0.05 v -1 h -0.06 z"
           fill="#ffffff"
           fill-opacity="0.1"
           id="path3121" />
        <path
           d="m 97,56 c -0.17,0 -0.33,0.02 -0.5,0.03 21.86,0.27 39.5,18.05 39.5,39.97 0,21.92 -17.64,39.7 -39.5,39.97 0.17,0 0.33,0.03 0.5,0.03 22.1,0 40,-17.9 40,-40 0,-22.1 -17.9,-40 -40,-40 z"
           opacity="0.1"
           class="C"
           id="path3123" />
        <path
           d="m 131,117.3 c 3.4,-5.88 5.37,-12.68 5.37,-19.96 A 39.87,39.87 0 0 0 134.5,85.25 c 0.95,3.42 1.5,7 1.5,10.73 0,7.28 -1.97,14.08 -5.37,19.96 l 0.02,0.04 -38.88,68 h 1.16 z"
           fill="#ffffff"
           class="E"
           id="path3125" />
        <path
           d="m 96,9 c 48.43,0 87.72,39.13 88,87.5 0,-0.17 0.01,-0.33 0.01,-0.5 0,-48.6 -39.4,-88 -88,-88 C 47.41,8 8,47.4 8,96 8,96.17 8.01,96.33 8.01,96.5 8.28,48.13 47.57,9 96,9 Z"
           fill="#ffffff"
           class="E"
           id="path3127" />
        <path
           d="m 96,183 c 48.43,0 87.72,-39.13 88,-87.5 0,0.17 0.01,0.33 0.01,0.5 0,48.6 -39.4,88 -88,88 C 47.41,184 8,144.6 8,96 c 0,-0.17 0.01,-0.33 0.01,-0.5 0.27,48.37 39.56,87.5 88,87.5 z"
           class="C D"
           id="path3129" />
      </g>
    </g>
  </g>
</svg>
