<?xml version="1.0" encoding="UTF-8" standalone="no"?>
<svg
   viewBox="0 0 64 64"
   height="64"
   width="64"
   version="1.1"
   id="svg31"
   sodipodi:docname="Google_Chrome_icon_(February_2022).svg"
   inkscape:version="1.1 (1:1.1+202105261517+ce6663b3b7)"
   xmlns:inkscape="http://www.inkscape.org/namespaces/inkscape"
   xmlns:sodipodi="http://sodipodi.sourceforge.net/DTD/sodipodi-0.dtd"
   xmlns="http://www.w3.org/2000/svg"
   xmlns:svg="http://www.w3.org/2000/svg">
  <sodipodi:namedview
     id="namedview33"
     pagecolor="#ffffff"
     bordercolor="#666666"
     borderopacity="1.0"
     inkscape:pageshadow="2"
     inkscape:pageopacity="0.0"
     inkscape:pagecheckerboard="0"
     showgrid="false"
     inkscape:zoom="3.53125"
     inkscape:cx="-54.938053"
     inkscape:cy="39.646018"
     inkscape:window-width="1920"
     inkscape:window-height="879"
     inkscape:window-x="0"
     inkscape:window-y="0"
     inkscape:window-maximized="1"
     inkscape:current-layer="svg31" />
  <defs
     id="defs17">
    <linearGradient
       id="a"
       x1="3.2172999"
       y1="15"
       x2="44.7812"
       y2="15"
       gradientUnits="userSpaceOnUse">
      <stop
         offset="0"
         stop-color="#d93025"
         id="stop2" />
      <stop
         offset="1"
         stop-color="#ea4335"
         id="stop4" />
    </linearGradient>
    <linearGradient
       id="b"
       x1="20.721901"
       y1="47.6791"
       x2="41.503899"
       y2="11.6837"
       gradientUnits="userSpaceOnUse">
      <stop
         offset="0"
         stop-color="#fcc934"
         id="stop7" />
      <stop
         offset="1"
         stop-color="#fbbc04"
         id="stop9" />
    </linearGradient>
    <linearGradient
       id="c"
       x1="26.598101"
       y1="46.501499"
       x2="5.8161001"
       y2="10.506"
       gradientUnits="userSpaceOnUse">
      <stop
         offset="0"
         stop-color="#1e8e3e"
         id="stop12" />
      <stop
         offset="1"
         stop-color="#34a853"
         id="stop14" />
    </linearGradient>
  </defs>
  <g
     id="g1109"
     transform="matrix(1.3333333,0,0,1.3333333,-3.8214563e-6,1.4848225e-5)">
    <circle
       cx="24"
       cy="23.994699"
       r="12"
       style="fill:#ffffff"
       id="circle19" />
    <path
       d="M 3.2154,36 A 24,24 0 1 0 12,3.2154 24,24 0 0 0 3.2154,36 Z M 34.3923,18 A 12,12 0 1 1 18,13.6077 12,12 0 0 1 34.3923,18 Z"
       style="fill:none"
       id="path21" />
    <path
       d="M 24,12 H 44.7812 A 23.9939,23.9939 0 0 0 3.2173,12.0029 L 13.6079,30 13.6172,29.9976 A 11.9852,11.9852 0 0 1 24,12 Z"
       style="fill:url(#a)"
       id="path23" />
    <circle
       cx="24"
       cy="24"
       r="9.5"
       style="fill:#1a73e8"
       id="circle25" />
    <path
       d="M 34.3913,30.0029 24.0007,48 A 23.994,23.994 0 0 0 44.78,12.0031 H 23.9989 l -0.0025,0.0093 a 11.985,11.985 0 0 1 10.3949,17.9905 z"
       style="fill:url(#b)"
       id="path27" />
    <path
       d="M 13.6086,30.0031 3.218,12.006 A 23.994,23.994 0 0 0 24.0025,48 L 34.3931,30.0029 34.3864,29.9961 a 11.9852,11.9852 0 0 1 -20.7778,0.007 z"
       style="fill:url(#c)"
       id="path29" />
  </g>
</svg>
