<?xml version="1.0" encoding="UTF-8" standalone="no"?>
<!-- Created with Inkscape (http://www.inkscape.org/) -->

<svg
   xmlns:dc="http://purl.org/dc/elements/1.1/"
   xmlns:cc="http://creativecommons.org/ns#"
   xmlns:rdf="http://www.w3.org/1999/02/22-rdf-syntax-ns#"
   xmlns:svg="http://www.w3.org/2000/svg"
   xmlns="http://www.w3.org/2000/svg"
   xmlns:sodipodi="http://sodipodi.sourceforge.net/DTD/sodipodi-0.dtd"
   xmlns:inkscape="http://www.inkscape.org/namespaces/inkscape"
   width="48"
   height="48"
   viewBox="0 0 12.7 12.7"
   version="1.1"
   id="svg8"
   inkscape:version="0.92.3 (2405546, 2018-03-11)"
   sodipodi:docname="s4a.svg"
   inkscape:export-filename="/home/quique/baikonur.png"
   inkscape:export-xdpi="96"
   inkscape:export-ydpi="96">
  <defs
     id="defs2">
    <linearGradient
       gradientUnits="userSpaceOnUse"
       x2="407.69"
       y2="504.13"
       x1="407.63"
       y1="543.77"
       id="a"
       gradientTransform="matrix(0.26458333,0,0,0.26458333,-101.75121,152.06084)">
      <stop
         id="stop818"
         stop-color="#c6cdd1" />
      <stop
         id="stop820"
         stop-color="#e0e5e7"
         offset="1" />
    </linearGradient>
    <linearGradient
       gradientUnits="userSpaceOnUse"
       x2="401.92"
       y2="532.44"
       x1="401.58"
       y1="513.81"
       id="b"
       gradientTransform="matrix(0.26458333,0,0,0.26458333,-101.75121,152.06084)">
      <stop
         id="stop823"
         stop-color="#9559b6" />
      <stop
         id="stop825"
         stop-color="#8e44ad"
         offset="1" />
    </linearGradient>
    <linearGradient
       gradientUnits="userSpaceOnUse"
       x2="417.53"
       y2="533.46"
       x1="417.87"
       y1="516.47"
       id="c"
       gradientTransform="matrix(0.26458333,0,0,0.26458333,-101.75121,152.06084)">
      <stop
         id="stop828"
         stop-color="#1d99f3" />
      <stop
         id="stop830"
         stop-color="#2972a7"
         offset="1" />
    </linearGradient>
    <linearGradient
       gradientUnits="userSpaceOnUse"
       x2="38.26"
       y2="35.796"
       x1="29.439"
       y1="26.03"
       id="d"
       gradientTransform="matrix(0.26458333,0,0,0.26458333,5.5393146,283.75389)">
      <stop
         id="stop833"
         stop-color="#292c2f" />
      <stop
         id="stop835"
         stop-opacity="0"
         stop-color="#292c2f"
         offset="1" />
    </linearGradient>
    <linearGradient
       gradientUnits="userSpaceOnUse"
       x2="407.69"
       y2="504.13"
       x1="407.63"
       y1="543.77002"
       id="a-1"
       gradientTransform="matrix(0.26458333,0,0,0.26458333,-98.129151,158.23851)"
       spreadMethod="pad">
      <stop
         id="stop818-2"
         stop-color="#c6cdd1" />
      <stop
         id="stop820-7"
         stop-color="#e0e5e7"
         offset="1" />
    </linearGradient>
  </defs>
  <sodipodi:namedview
     id="base"
     pagecolor="#ffffff"
     bordercolor="#666666"
     borderopacity="1.0"
     inkscape:pageopacity="0.0"
     inkscape:pageshadow="2"
     inkscape:zoom="11.313709"
     inkscape:cx="36.175538"
     inkscape:cy="18.631352"
     inkscape:document-units="px"
     inkscape:current-layer="layer1"
     showgrid="false"
     units="px"
     inkscape:showpageshadow="false"
     showguides="true"
     inkscape:guide-bbox="true"
     inkscape:window-width="1920"
     inkscape:window-height="1009"
     inkscape:window-x="0"
     inkscape:window-y="0"
     inkscape:window-maximized="1"
     inkscape:snap-global="false">
    <sodipodi:guide
       position="6.35,11.641667"
       orientation="0,1"
       id="guide815"
       inkscape:locked="false"
       inkscape:label=""
       inkscape:color="rgb(0,0,255)" />
    <sodipodi:guide
       position="6.35,1.0583333"
       orientation="0,1"
       id="guide817"
       inkscape:locked="false"
       inkscape:label=""
       inkscape:color="rgb(0,0,255)" />
    <sodipodi:guide
       position="1.0583333,6.35"
       orientation="1,0"
       id="guide819"
       inkscape:locked="false"
       inkscape:label=""
       inkscape:color="rgb(0,0,255)" />
    <sodipodi:guide
       position="11.641667,6.35"
       orientation="1,0"
       id="guide821"
       inkscape:locked="false"
       inkscape:label=""
       inkscape:color="rgb(0,0,255)" />
    <sodipodi:guide
       position="4.8964611,2.0053566"
       orientation="0.70710678,0.70710678"
       id="guide886"
       inkscape:locked="false"
       inkscape:label=""
       inkscape:color="rgb(0,0,255)" />
  </sodipodi:namedview>
  <metadata
     id="metadata5">
    <rdf:RDF>
      <cc:Work
         rdf:about="">
        <dc:format>image/svg+xml</dc:format>
        <dc:type
           rdf:resource="http://purl.org/dc/dcmitype/StillImage" />
        <dc:title />
      </cc:Work>
    </rdf:RDF>
  </metadata>
  <g
     inkscape:label="Capa 1"
     inkscape:groupmode="layer"
     id="layer1"
     transform="translate(0,-284.29998)">
    <rect
       style="fill:url(#a);stroke-width:0.26458332"
       width="10.583333"
       x="1.0579364"
       y="285.35791"
       rx="0.79374999"
       height="10.583333"
       id="rect840" />
    <text
       id="text842"
       y="187.03612"
       x="91.627457"
       style="font-size:3.17499995px;font-family:'Droid Sans';stroke-width:0.26458332" />
    <path
       id="path846"
       d="m 1.0579345,294.88292 v 0.26459 c 0,0.43973 0.3540125,0.79375 0.79375,0.79375 h 8.9958335 c 0.439737,0 0.79375,-0.35402 0.79375,-0.79375 v -0.26459 c 0,0.43974 -0.354013,0.79375 -0.79375,0.79375 H 1.8516845 c -0.4397375,0 -0.79375,-0.35401 -0.79375,-0.79375"
       inkscape:connector-curvature="0"
       style="opacity:0.15;stroke-width:0.26458332" />
    <g
       id="XMLID_4262_"
       transform="matrix(0.04313372,0,0,0.04313372,-0.10342995,284.29725)"
       style="fill:#f39c1f">
      <path
         style="fill:#f39c1f"
         inkscape:connector-curvature="0"
         id="XMLID_4238_"
         d="M 139.508,137.193 130,150.89 V 151 h 13 V 137.984 C 143,135.947 142.771,135 142.889,131 h -0.179 c -1.204,4 -2.125,4.389 -3.202,6.193 z" />
      <path
         style="fill:#f39c1f"
         inkscape:connector-curvature="0"
         id="XMLID_4263_"
         d="m 99.604,80.902 c -36.658,0 -66.376,29.719 -66.376,66.38 0,36.657 29.718,66.376 66.376,66.376 36.662,0 66.379,-29.719 66.379,-66.376 -0.001,-36.661 -29.717,-66.38 -66.379,-66.38 z m -8.313,107.167 c -7.857,0 -16.425,-2.287 -20.773,-5.191 l 2.653,-8.812 c 4.708,2.895 11.589,5.312 18.844,5.312 10.743,0 17.026,-5.672 17.026,-13.888 0,-7.61 -4.347,-11.955 -15.339,-16.178 -13.282,-4.715 -21.499,-11.596 -21.499,-23.071 0,-12.674 10.512,-22.096 26.332,-22.096 8.328,0 14.369,1.932 17.992,3.99 l -2.896,8.578 c -2.661,-1.457 -8.095,-3.864 -15.465,-3.864 -11.107,0 -15.331,6.635 -15.331,12.193 0,7.603 4.949,11.35 16.183,15.697 13.763,5.312 20.765,11.956 20.765,23.91 0,12.558 -9.298,23.42 -28.492,23.42 z M 148,155 v 12 h -5 v -12 h -19 v -3.326 L 141.986,127 H 148 v 24 h 4 v 4 z" />
    </g>
    <g
       id="XMLID_4256_"
       transform="matrix(0.04313372,0,0,0.04313372,-0.10342995,284.29725)"
       style="fill:#2980b9">
      <path
         style="fill:#2980b9"
         inkscape:connector-curvature="0"
         id="XMLID_4229_"
         d="m 201.466,111 h -0.241 c -1.202,5 -2.537,10.133 -4.099,15.087 L 189.151,150 H 215 v -0.211 l -8.637,-23.68 C 204.552,120.795 202.676,116 201.466,111 Z" />
      <path
         style="fill:#2980b9"
         inkscape:connector-curvature="0"
         id="XMLID_4257_"
         d="m 199.631,80.902 c -17.759,0 -33.885,6.99 -45.795,18.354 1.582,1.773 3.072,3.625 4.474,5.553 8.91,12.226 14.191,27.266 14.191,43.559 0,15.09 -4.52,29.117 -12.275,40.818 -1.646,2.479 -3.435,4.844 -5.357,7.1 11.806,10.792 27.512,17.369 44.763,17.369 36.654,0 66.369,-29.715 66.369,-66.372 0,-36.657 -29.716,-66.381 -66.37,-66.381 z m -37.418,110.022 c 10.131,8.469 23.181,13.566 37.418,13.566 -14.241,0 -27.289,-5.097 -37.418,-13.566 z M 224.526,184 215.837,158 h -28.858 l -8.456,26 h -10.861 l 27.649,-81 h 12.682 l 27.775,81 z" />
    </g>
  </g>
</svg>
