<?xml version="1.0" encoding="UTF-8" standalone="no"?>
<!-- Created with Inkscape (http://www.inkscape.org/) -->

<svg
   xmlns:dc="http://purl.org/dc/elements/1.1/"
   xmlns:cc="http://creativecommons.org/ns#"
   xmlns:rdf="http://www.w3.org/1999/02/22-rdf-syntax-ns#"
   xmlns:svg="http://www.w3.org/2000/svg"
   xmlns="http://www.w3.org/2000/svg"
   xmlns:xlink="http://www.w3.org/1999/xlink"
   xmlns:sodipodi="http://sodipodi.sourceforge.net/DTD/sodipodi-0.dtd"
   xmlns:inkscape="http://www.inkscape.org/namespaces/inkscape"
   width="285.28571"
   height="138.14285"
   viewBox="0 0 75.481844 36.550298"
   version="1.1"
   id="svg8"
   inkscape:version="0.92.5 (2060ec1f9f, 2020-04-08)"
   sodipodi:docname="zero-lliurex-jellyfin.svg">
  <defs
     id="defs2">
    <linearGradient
       inkscape:collect="always"
       xlink:href="#linear-gradient"
       id="linearGradient3870"
       gradientUnits="userSpaceOnUse"
       x1="110.25"
       y1="213.3"
       x2="496.14001"
       y2="436.09" />
    <linearGradient
       id="linear-gradient"
       x1="110.25"
       y1="213.3"
       x2="496.14001"
       y2="436.09"
       gradientUnits="userSpaceOnUse">
      <stop
         offset="0"
         stop-color="#aa5cc3"
         id="stop3836" />
      <stop
         offset="1"
         stop-color="#00a4dc"
         id="stop3838" />
    </linearGradient>
    <linearGradient
       inkscape:collect="always"
       xlink:href="#linear-gradient"
       id="linearGradient3945"
       gradientUnits="userSpaceOnUse"
       x1="110.25"
       y1="213.3"
       x2="496.14001"
       y2="436.09" />
  </defs>
  <sodipodi:namedview
     id="base"
     pagecolor="#ffffff"
     bordercolor="#666666"
     borderopacity="1.0"
     inkscape:pageopacity="0.0"
     inkscape:pageshadow="2"
     inkscape:zoom="2"
     inkscape:cx="-33.247265"
     inkscape:cy="14.271371"
     inkscape:document-units="mm"
     inkscape:current-layer="layer1"
     showgrid="false"
     units="px"
     inkscape:window-width="1920"
     inkscape:window-height="908"
     inkscape:window-x="0"
     inkscape:window-y="0"
     inkscape:window-maximized="1" />
  <metadata
     id="metadata5">
    <rdf:RDF>
      <cc:Work
         rdf:about="">
        <dc:format>image/svg+xml</dc:format>
        <dc:type
           rdf:resource="http://purl.org/dc/dcmitype/StillImage" />
        <dc:title />
      </cc:Work>
    </rdf:RDF>
  </metadata>
  <g
     inkscape:label="Capa 1"
     inkscape:groupmode="layer"
     id="layer1"
     transform="translate(6.6523813,-264.17276)">
    <g
       id="g38">
      <rect
         y="264.30505"
         x="-6.5200896"
         height="36.285713"
         width="75.217262"
         id="rect1489"
         style="opacity:1;fill:#000000;fill-opacity:1;stroke:#0000e8;stroke-width:0.26458332;stroke-opacity:1" />
      <g
         transform="matrix(0.04514814,0,0,0.04514813,-3.9973843,270.25596)"
         id="banner-dark">
        <g
           id="banner-dark-icon">
          <path
             inkscape:connector-curvature="0"
             style="fill:url(#linearGradient3945)"
             d="m 261.42,201.62 c -20.44,0 -86.24,119.29 -76.2,139.43 10.04,20.14 142.48,19.92 152.4,0 9.92,-19.92 -55.76,-139.42 -76.2,-139.43 z"
             id="inner-shape" />
          <path
             inkscape:connector-curvature="0"
             style="fill:url(#linearGradient3870)"
             d="M 261.42,23.3 C 199.83,23.3 1.57,382.73 31.8,443.43 c 30.23,60.7 429.34,60 459.24,0 C 520.94,383.43 323,23.3 261.42,23.3 Z M 411.9,390.76 c -19.59,39.33 -281.08,39.77 -300.9,0 -19.82,-39.77 110.1,-275.28 150.45,-275.28 40.35,0 170.04,235.94 150.45,275.28 z"
             id="outer-shape" />
        </g>
        <g
           transform="translate(43.8)"
           style="isolation:isolate"
           id="jellyfin-light-outlines">
          <path
             style="fill:#ffffff"
             inkscape:connector-curvature="0"
             id="path3848"
             d="m 556.64,350.75 a 67,67 0 0 1 -22.87,-27.47 8.91,8.91 0 0 1 -1.49,-4.75 7.42,7.42 0 0 1 2.83,-5.94 9.25,9.25 0 0 1 6.09,-2.38 c 3.16,0 5.94,1.69 8.31,5.05 a 48.09,48.09 0 0 0 16.34,20.34 40.59,40.59 0 0 0 24,7.58 q 20.51,0 33.27,-12.62 12.76,-12.62 12.77,-33.12 V 159 a 8.44,8.44 0 0 1 2.67,-6.39 9.56,9.56 0 0 1 6.83,-2.52 9,9 0 0 1 6.68,2.52 8.7,8.7 0 0 1 2.53,6.39 v 138.4 a 64.7,64.7 0 0 1 -8.32,32.67 59,59 0 0 1 -23,22.72 Q 608.62,361 589.9,361 a 57.21,57.21 0 0 1 -33.26,-10.25 z" />
          <path
             style="fill:#ffffff"
             inkscape:connector-curvature="0"
             id="path3850"
             d="M 831.66,279.47 A 8.77,8.77 0 0 1 825.42,282 H 713.16 q 0,17.82 7.27,31.92 a 54.91,54.91 0 0 0 20.79,22.28 q 13.51,8.18 31.93,8.17 a 54,54 0 0 0 25.54,-5.94 52.7,52.7 0 0 0 18.12,-15.15 10,10 0 0 1 6.24,-2.67 8.14,8.14 0 0 1 7.72,7.72 8.81,8.81 0 0 1 -3,6.24 74.7,74.7 0 0 1 -23.91,19 65.56,65.56 0 0 1 -30.41,7.43 q -22.87,0 -40.4,-9.8 a 69.51,69.51 0 0 1 -27.32,-27.48 q -9.79,-17.66 -9.8,-40.83 0,-24.36 9.65,-42.62 9.65,-18.26 25.69,-27.92 a 65.2,65.2 0 0 1 34.16,-9.65 70,70 0 0 1 33.41,8.3 65.78,65.78 0 0 1 25.39,24.36 q 9.81,16 10.1,38 a 8.07,8.07 0 0 1 -2.67,6.11 z M 733.5,231.8 q -14.7,11.88 -18.86,34.2 h 101.28 v -2.38 a 46.91,46.91 0 0 0 -8.92,-23.35 48.47,48.47 0 0 0 -18.56,-15.15 54,54 0 0 0 -23,-5.2 q -17.24,0 -31.94,11.88 z" />
          <path
             style="fill:#ffffff"
             inkscape:connector-curvature="0"
             id="path3852"
             d="m 888.24,355.5 a 8.92,8.92 0 0 1 -15.3,-6.38 v -202 a 8.91,8.91 0 1 1 17.82,0 v 202 a 8.65,8.65 0 0 1 -2.52,6.38 z" />
          <path
             style="fill:#ffffff"
             inkscape:connector-curvature="0"
             id="path3854"
             d="m 956.55,355.5 a 8.92,8.92 0 0 1 -15.3,-6.38 v -202 a 8.91,8.91 0 1 1 17.82,0 v 202 a 8.65,8.65 0 0 1 -2.52,6.38 z" />
          <path
             style="fill:#ffffff"
             inkscape:connector-curvature="0"
             id="path3856"
             d="m 1122.86,206.11 a 8.7,8.7 0 0 1 2.53,6.39 v 131 q 0,23.44 -9.21,40.09 a 61.58,61.58 0 0 1 -25.54,25.25 q -16.34,8.61 -36.83,8.61 a 96.73,96.73 0 0 1 -23.31,-2.68 61.72,61.72 0 0 1 -18,-7.12 q -6.24,-3.87 -6.24,-8.62 a 17.94,17.94 0 0 1 0.6,-3 8.06,8.06 0 0 1 3,-4.45 7.49,7.49 0 0 1 4.45,-1.49 7.91,7.91 0 0 1 3.56,0.89 q 19,10.39 36.24,10.4 24.65,0 39.06,-15.44 14.41,-15.44 14.4,-42.18 v -10.38 a 54.37,54.37 0 0 1 -21.38,20 62.55,62.55 0 0 1 -30.3,7.58 q -25.83,0 -39.2,-15.45 -13.37,-15.45 -13.37,-41.87 V 212.5 a 8.91,8.91 0 1 1 17.82,0 V 301 q 0,21.39 9.36,32.38 9.36,10.99 29.25,11 a 48,48 0 0 0 23.32,-6.09 49.88,49.88 0 0 0 17.82,-16 37.44,37.44 0 0 0 6.68,-21.24 V 212.5 a 9,9 0 0 1 15.29,-6.39 z" />
          <path
             style="fill:#ffffff"
             inkscape:connector-curvature="0"
             id="path3858"
             d="m 1210.18,161.41 q -5.21,6.24 -5.2,17.23 v 30.59 h 33.27 a 8.19,8.19 0 0 1 5.79,2.38 8.26,8.26 0 0 1 0,11.88 8.22,8.22 0 0 1 -5.79,2.37 H 1205 v 123.26 a 8.91,8.91 0 1 1 -17.82,0 V 225.86 h -21.68 a 7.83,7.83 0 0 1 -5.94,-2.52 8.21,8.21 0 0 1 -2.37,-5.79 8,8 0 0 1 2.37,-6.09 8.33,8.33 0 0 1 5.94,-2.23 h 21.68 v -30.59 q 0,-18.7 10.84,-29 10.84,-10.3 29,-10.24 a 46.1,46.1 0 0 1 15.45,2.52 q 7.13,2.53 7.12,8.17 a 8.07,8.07 0 0 1 -2.37,5.94 7.37,7.37 0 0 1 -5.35,2.37 18.81,18.81 0 0 1 -6.53,-1.48 42,42 0 0 0 -10.4,-1.78 q -9.57,0.04 -14.76,6.27 z m 65.82,19.46 c -2.19,-1.88 -3.27,-4.61 -3.27,-8.17 v -3 q 0,-5.34 3.41,-8.17 3.41,-2.83 9.36,-2.82 11.88,0 11.88,11 v 3 c 0,3.56 -1,6.29 -3.12,8.17 -2.12,1.88 -5.1,2.82 -9.06,2.82 -3.96,0 -7.06,-0.95 -9.2,-2.83 z m 15.59,174.63 a 8.92,8.92 0 0 1 -15.3,-6.38 V 212.5 a 8.91,8.91 0 1 1 17.82,0 v 136.62 a 8.65,8.65 0 0 1 -2.55,6.38 z" />
          <path
             style="fill:#ffffff"
             inkscape:connector-curvature="0"
             id="path3860"
             d="m 1452.53,218.88 q 12.92,16.2 12.92,42.92 v 87.32 a 8.4,8.4 0 0 1 -2.67,6.38 8.8,8.8 0 0 1 -6.24,2.53 8.64,8.64 0 0 1 -8.91,-8.91 v -86.43 q 0,-19.31 -9.65,-31.33 -9.65,-12.02 -29.85,-12 a 53.28,53.28 0 0 0 -42.77,21.83 36.24,36.24 0 0 0 -7.13,21.53 v 86.43 a 8.91,8.91 0 1 1 -17.82,0 V 216.06 a 8.91,8.91 0 1 1 17.82,0 v 16.34 q 8,-12.77 23,-21.24 A 61.84,61.84 0 0 1 1412,202.7 q 27.61,0 40.53,16.18 z" />
        </g>
      </g>
    </g>
  </g>
</svg>
