<?xml version="1.0" encoding="UTF-8" standalone="no"?>
<!-- Created with Inkscape (http://www.inkscape.org/) -->

<svg
   width="235"
   height="110"
   viewBox="0 0 62.177082 29.104167"
   version="1.1"
   id="svg1"
   xml:space="preserve"
   inkscape:version="1.3.2 (1:1.3.2+202311252150+091e20ef0f)"
   sodipodi:docname="zero-lliurex-ai2offline.svg"
   xmlns:inkscape="http://www.inkscape.org/namespaces/inkscape"
   xmlns:sodipodi="http://sodipodi.sourceforge.net/DTD/sodipodi-0.dtd"
   xmlns="http://www.w3.org/2000/svg"
   xmlns:svg="http://www.w3.org/2000/svg"><sodipodi:namedview
     id="namedview1"
     pagecolor="#ffffff"
     bordercolor="#cccccc"
     borderopacity="1"
     inkscape:showpageshadow="0"
     inkscape:pageopacity="1"
     inkscape:pagecheckerboard="0"
     inkscape:deskcolor="#d1d1d1"
     inkscape:document-units="mm"
     showguides="true"
     inkscape:zoom="2.8284272"
     inkscape:cx="171.65017"
     inkscape:cy="71.417783"
     inkscape:window-width="1920"
     inkscape:window-height="1008"
     inkscape:window-x="0"
     inkscape:window-y="22"
     inkscape:window-maximized="1"
     inkscape:current-layer="layer1" /><defs
     id="defs1"><filter
       inkscape:collect="always"
       style="color-interpolation-filters:sRGB"
       id="filter111"
       x="-0.053407173"
       y="-0.062184654"
       width="1.1068143"
       height="1.1243693"><feGaussianBlur
         inkscape:collect="always"
         stdDeviation="0.40515299"
         id="feGaussianBlur111" /></filter><filter
       inkscape:collect="always"
       style="color-interpolation-filters:sRGB"
       id="filter119"
       x="-0.048489785"
       y="-0.059978586"
       width="1.0969796"
       height="1.1199572"><feGaussianBlur
         inkscape:collect="always"
         stdDeviation="0.39124091"
         id="feGaussianBlur119" /></filter></defs><g
     inkscape:label="Capa 1"
     inkscape:groupmode="layer"
     id="layer1"><rect
       style="fill:#eeeeee;fill-opacity:1;stroke:none;stroke-width:0.529167;stroke-dasharray:none"
       id="rect44"
       width="62.177082"
       height="29.104166"
       x="0"
       y="0" /><g
       id="g2"
       transform="matrix(0.75454037,0,0,0.75454037,2.6880367,3.7805779)"><path
         id="path111"
         style="mix-blend-mode:normal;fill:#000000;fill-opacity:1;stroke:none;stroke-width:0.0467722;stroke-dasharray:none;filter:url(#filter119)"
         d="M 19.713433,2.592344 C 19.692023,2.587064 18.76414,3.10502 17.65206,3.743695 l -2.021582,1.161169 -0.0021,2.003496 c -0.0011,1.23674 0.01006,1.772273 0.04444,1.950268 h -0.04596 V 6.921279 4.947756 L 13.599592,3.777801 C 12.328495,3.044201 11.53641,2.621974 11.47569,2.645054 11.42244,2.665301 10.507023,3.181821 9.4411891,3.793304 l -1.937866,1.112077 -0.00258,2.326473 -0.00258,2.155941 -0.015502,-2.147673 -0.016537,-2.334741 -0.014469,2.368331 -0.01447,2.368331 0.3514,-0.011369 0.3514,-0.011369 L 7.8195831,9.597084 7.4997061,9.574347 V 9.55781 l 0.749308,0.070797 c 0.225818,0.021282 0.448781,0.056189 0.66921,0.097152 -0.268721,-0.03892 -0.564483,-0.051741 -1.114661,-0.052193 -0.507489,-4.76e-4 -0.954758,0.024564 -1.295011,0.067179 0.00128,-0.00406 2.57e-4,-0.00853 -0.00465,-0.013436 -0.020312,-0.02028 -0.073186,-0.022818 -0.117306,-0.00517 -0.040015,0.016015 -0.027634,0.026933 0.013953,0.032557 -0.225296,0.033249 -0.391456,0.07537 -0.476973,0.1245404 0.018845,-0.01585 0.028344,-0.0316 0.01757,-0.04238 -0.018821,-0.01882 -0.068094,8.8e-5 -0.109554,0.04186 -0.059909,0.06036 -0.053004,0.06728 0.034106,0.03411 0.020241,-0.0077 0.032177,-0.01713 0.045475,-0.02636 -0.057321,0.03849 -0.036358,0.1153466 0.091984,0.3343466 0.15686,0.267667 0.182208,0.285767 0.358118,0.249597 0.124043,-0.02551 0.249319,-0.04695 0.375171,-0.06563 -0.012068,0.01261 0.020834,0.02222 0.0894,0.02222 0.084,0 0.118501,-0.01406 0.076481,-0.03101 -0.011505,-0.0046 -0.02744,-0.0051 -0.041858,-0.0072 0.194562,-0.02534 0.389976,-0.04355 0.585494,-0.05271 -0.059587,0.01021 0.038332,0.01841 0.266134,0.0186 0.261268,2.14e-4 0.37533,-0.01012 0.267167,-0.02274 1.183071,0.03408 2.2989989,0.367758 2.9806969,0.999938 l 0.23306,0.250631 c 0.01549,0.01665 0.02592,0.02709 0.04083,0.04289 l 0.223759,0.257866 c 0.0013,0.03458 0.01885,0.06039 0.04599,0.07751 l 0.02739,0.40101 0.02791,0.396875 h -0.02687 v 0.397391 0.397392 h 4.064351 4.064352 v -0.397407 -0.397391 -0.366386 -0.257866 l 0.0155,0.272852 0.0217,0.382405 0.01188,-0.42633 c 0.01174,-0.424443 0.01303,-0.426894 0.332796,-0.763778 l 0.22841,-0.240295 c 0.519006,-0.413114 1.221654,-0.720137 1.980758,-0.886251 -0.0049,0.0103 0.01455,0.0177 0.06201,0.01964 0.06442,0.0026 0.100925,-0.01173 0.08062,-0.03204 -0.006,-0.006 -0.01879,-0.007 -0.02946,-0.0098 0.06677,-0.01329 0.133566,-0.02612 0.201022,-0.03721 0.0084,0.0078 0.03839,0.01344 0.0894,0.01344 0.084,0 0.118501,-0.01406 0.07648,-0.03101 -0.0061,-0.0025 -0.01516,-0.0019 -0.02222,-0.0036 0.180707,-0.02533 0.362678,-0.04227 0.545186,-0.05116 -0.0046,0.0077 0.09658,0.01328 0.286805,0.01344 0.18359,1.5e-4 0.288842,-0.0051 0.302307,-0.0124 0.134479,0.0073 0.268467,0.0178 0.400492,0.03514 0.05455,0.0072 0.07597,0.0091 0.124024,0.0155 -0.0053,0.0015 -0.01236,0.0012 -0.01705,0.0031 -0.04201,0.01697 -0.0076,0.03101 0.07648,0.03101 0.05401,0 0.08405,-0.0064 0.08992,-0.01499 0.08652,0.01127 0.200556,0.02712 0.263034,0.03359 -0.01919,2.65e-4 -0.03957,0.0026 -0.05891,0.01034 -0.04876,0.01951 -0.03451,0.03379 0.03669,0.03669 0.06444,0.0026 0.100398,-0.01173 0.0801,-0.03204 -0.0085,-0.0085 -0.02457,-0.01192 -0.04134,-0.01395 0.362345,0.03556 0.335782,-0.02593 0.3514,-0.295589 0.01606,-0.2772166 0.04646,-0.3342926 -0.338998,-0.397392 0.02619,-0.00522 0.04201,-0.013287 0.02894,-0.026355 C 24.818399,9.70707 24.766039,9.704532 24.72192,9.72218 24.70794,9.72777 24.70034,9.733067 24.6966,9.737683 24.60805,9.724841 24.493785,9.709553 24.366904,9.693242 c 0.08346,-8.3e-5 0.117859,-0.01359 0.07597,-0.03049 -0.04202,-0.016959 -0.110943,-0.016959 -0.152963,0 -0.01752,0.00708 -0.01899,0.013389 -0.01188,0.018604 -0.02039,-0.00263 -0.02723,-0.00395 -0.04858,-0.00672 -0.311275,-0.040397 -0.62751,-0.05461 -0.943112,-0.047583 l 0.467672,-0.01602 V 7.258205 4.90486 L 21.753099,3.753509 C 20.652602,3.120108 19.734841,2.59764 19.713431,2.59234 Z M 6.8795911,9.649794 c -0.033234,-4.15e-4 -0.068972,0.0031 -0.098702,0.010852 -0.059469,0.01549 -0.025397,0.02929 0.075447,0.03049 0.100819,0.00125 0.149384,-0.011673 0.108004,-0.028423 -0.020689,-0.00839 -0.051516,-0.012504 -0.084749,-0.012919 z m 2.639632,0.2113574 c 0.7365569,0.2011086 1.3949999,0.5047026 1.8598349,0.8733316 0.07494,0.05943 0.142729,0.110544 0.200504,0.152962 -0.0032,0.0036 -0.005,0.0077 -0.0072,0.01189 -0.324156,-0.315123 -1.280874,-0.810503 -2.0531039,-1.0381796 z m -0.920874,0.5219316 c -0.027694,0 -0.055471,0.0044 -0.076481,0.01292 -0.042016,0.01697 -0.00756,0.03101 0.076481,0.03101 0.084,0 0.118501,-0.01406 0.076481,-0.03101 -0.02101,-0.0085 -0.048788,-0.01292 -0.076481,-0.01292 z m 8.2020829,0.05788 c 0.0018,0.0015 0.0043,0.0036 0.0062,0.0052 0.0044,0.0058 0.0078,0.01026 0.01292,0.01654 -0.01053,-0.0076 -0.02106,-0.01234 -0.03152,-0.0186 0.004,-10e-4 0.0085,-0.0021 0.0124,-0.0031 z m -10.2851599,0.0031 c -0.021232,-8.71e-4 -0.045636,0.0031 -0.067696,0.01189 -0.04875,0.01951 -0.033993,0.03379 0.037207,0.03669 0.06443,0.0026 0.100408,-0.01173 0.080098,-0.03204 -0.010156,-0.01014 -0.028378,-0.01567 -0.049609,-0.01654 z m 2.444295,0 c -0.021231,-8.71e-4 -0.045119,0.0031 -0.067179,0.01189 -0.04875,0.01951 -0.03451,0.03379 0.03669,0.03669 0.06443,0.0026 0.100925,-0.01173 0.080615,-0.03204 -0.010156,-0.01014 -0.028895,-0.01567 -0.050126,-0.01654 z m 7.4972169,0.01912 c -0.0079,0.0056 -0.01373,0.0082 -0.02222,0.01447 -0.01253,0.0093 -0.02232,0.01961 -0.03359,0.02946 0.01227,-0.01416 0.027,-0.0276 0.04754,-0.04082 0.0025,-0.0016 0.0056,-0.0018 0.0083,-0.0031 z m -10.3332199,0.0021 c -0.010252,0.0043 -0.010705,0.01575 0,0.03307 0.02054,0.03323 0.062938,0.06046 0.094568,0.06046 0.087913,0 0.068674,-0.04412 -0.037207,-0.08475 -0.027205,-0.01044 -0.047108,-0.01307 -0.057361,-0.0088 z m 19.0060749,0 c -0.01026,-0.0043 -0.02965,-0.0017 -0.05684,0.0088 -0.05217,0.02002 -0.09508,0.04725 -0.09508,0.06046 0,0.0495 0.116555,0.0219 0.152445,-0.03617 0.01071,-0.01733 0.0097,-0.02879 -5.17e-4,-0.03307 z m -4.972823,0.0739 c -0.0066,0.0043 -0.01359,0.0081 -0.02015,0.0124 -0.03986,0.02608 -0.0566,0.03909 -0.09147,0.06201 0.03026,-0.0203 0.05225,-0.03734 0.08372,-0.05788 0.0089,-0.0058 0.01896,-0.01079 0.02791,-0.01654 z m -0.436149,0.30334 c -0.0544,0.04636 -0.09433,0.08958 -0.116272,0.132809 -0.0029,-0.004 -0.0061,-0.0076 -0.0093,-0.01137 0.01308,-0.01037 0.02589,-0.02415 0.03876,-0.04496 0.0075,-0.01215 0.04216,-0.04144 0.08682,-0.07648 z m -9.283671,0.159681 c -0.0025,0.0037 0.02572,0.02723 0.08268,0.07286 0.124692,0.0999 0.15658,0.112916 0.15658,0.06615 0,-0.01563 -0.06183,-0.05792 -0.137459,-0.09457 -0.06603,-0.032 -0.09935,-0.04813 -0.101803,-0.04444 z m 0.30024,0.167431 c -0.0032,0.0032 0.01522,0.02802 0.05323,0.07648 0.07984,0.10181 0.130225,0.134533 0.130225,0.08423 0,-0.0127 -0.04814,-0.06084 -0.106971,-0.10697 -0.04847,-0.03801 -0.07333,-0.0569 -0.07648,-0.05374 z m 9.418547,0.288355 -0.108004,0.101802 c -0.09927,0.09376 -0.160468,0.14769 -0.208256,0.186035 l 0.252698,-0.233577 c 0.02015,-0.01866 0.0427,-0.03597 0.06356,-0.05426 z m -0.434082,0.275952 0.01602,0.0615 c -0.0079,-0.0048 -0.01326,-0.01892 -0.01809,-0.03256 3.46e-4,-0.01004 0.0014,-0.01933 0.0021,-0.02894 z m -8.128703,0.408244 v 0.250114 0.366386 h -0.03049 l 0.01757,-0.3514 z m 8.102865,0.762744 c -0.0086,-0.01235 -0.01499,0.09256 -0.01499,0.281636 0,0.252102 0.0111,0.355498 0.02429,0.229444 0.01319,-0.126055 0.01319,-0.332314 0,-0.45837 -0.0033,-0.03151 -0.0064,-0.04859 -0.0093,-0.05271 z m -4.071587,0.65677 c -0.742195,-10e-7 -1.487216,0.0026 -2.055688,0.0072 -1.136942,0.0093 -0.224395,0.01653 2.027783,0.01654 2.252181,2e-5 3.182293,-0.0072 2.067057,-0.01654 -0.557618,-0.0047 -1.296956,-0.0072 -2.039152,-0.0072 z m -4.031278,0.05271 v 0.366903 0.366903 h 4.033862 3.764112 l -3.779615,0.01447 -4.048848,0.01602 -0.0186,0.328662 c -0.01031,0.180875 -0.0047,0.366358 0.01292,0.412378 0.02673,0.06966 0.708433,0.08372 4.067969,0.08372 h -4.043164 l -0.22996,0.208256 c 0.109728,-0.114909 0.189712,-0.208256 0.174666,-0.208256 -0.01681,0 -0.138455,0.109969 -0.269751,0.244429 -0.09017,0.09234 -0.146171,0.157906 -0.17725,0.199471 -0.231217,0.184881 -0.543525,0.3842 -0.860929,0.543119 -0.3359109,0.168185 -0.6213499,0.316449 -0.6340699,0.329179 -0.018141,0.01814 0.254836,0.535183 0.332796,0.630453 0.041537,0.05076 1.1869279,-0.545642 1.4908649,-0.77618 0.02946,-0.02235 0.05303,-0.03627 0.08165,-0.05684 -0.0077,0.0092 -0.01912,0.02099 -0.01912,0.0248 0,0.0503 0.05039,0.01757 0.130224,-0.08423 0.0178,-0.0227 0.01579,-0.02314 0.0248,-0.03566 0.08832,-0.05737 0.160057,-0.09818 0.179834,-0.09663 0.02617,0.002 0.591566,0.321978 1.281059,0.718819 -0.09742,-0.04669 -0.102706,-0.04601 5.17e-4,0.03669 0.124694,0.0999 0.156062,0.113432 0.156062,0.06666 0,-0.0062 -0.01556,-0.01885 -0.03204,-0.03152 0.182974,0.105565 0.320876,0.183223 0.520899,0.299723 0.387435,0.225655 0.697281,0.404556 0.947745,0.546736 -0.104345,-0.05019 -0.109104,-0.04937 -0.0036,0.03514 0.124701,0.0999 0.156063,0.113433 0.156063,0.06666 0,-0.0078 -0.01538,-0.02256 -0.04031,-0.03979 0.647998,0.364272 0.854397,0.451773 0.926559,0.415479 0.02173,-0.01093 0.451634,-0.258924 0.615983,-0.352434 -0.02163,0.0171 -0.03514,0.03201 -0.03514,0.04031 0,0.01681 0.05473,8.4e-4 0.121956,-0.03514 0.06722,-0.03598 0.122473,-0.0793 0.122473,-0.09612 0,-0.01259 -0.03535,-0.0022 -0.07906,0.01654 0.355291,-0.202684 0.562707,-0.319141 1.159619,-0.663525 0.110203,-0.06358 0.180504,-0.102824 0.285771,-0.163298 -0.009,0.009 -0.0217,0.01969 -0.0217,0.02481 0,0.01681 0.05473,8.4e-4 0.121956,-0.03514 0.06724,-0.03598 0.122473,-0.0793 0.122473,-0.09612 0,-0.0077 -0.01274,-0.0078 -0.03152,-0.0031 0.730088,-0.418175 1.329698,-0.756543 1.348238,-0.756543 0.01566,0 0.112462,0.06479 0.227893,0.146245 0.0069,0.01157 0.01049,0.0193 0.03669,0.05271 0.04614,0.05883 0.09429,0.10697 0.106971,0.10697 0.03679,0 0.01547,-0.0334 -0.03101,-0.07906 0.01814,0.01338 0.03156,0.0217 0.05013,0.03566 0.324728,0.244102 1.093881,0.656383 1.381828,0.740523 0.102645,0.02999 0.151853,-0.0156 0.272851,-0.253731 0.08119,-0.159791 0.148662,-0.312841 0.149862,-0.340031 0.0012,-0.02719 -0.179132,-0.126235 -0.400493,-0.219625 -0.349252,-0.147347 -0.691136,-0.350519 -0.975651,-0.570508 6.62e-4,-0.0029 0.0031,-0.0027 0.0031,-0.0067 0,-0.0116 -0.06183,-0.07342 -0.137459,-0.137459 l -0.13746,-0.116789 0.109554,0.130225 c -0.05951,-0.05193 -0.116772,-0.104532 -0.167948,-0.157097 l -0.241329,-0.248046 h -0.03617 v -0.427881 -0.427364 -10e-4 -0.365869 -0.366903 H 15.62686 Z m -0.02636,0.122473 c -0.0088,-0.01071 -0.01499,0.08056 -0.01499,0.24443 0,0.218491 0.01073,0.307684 0.02429,0.198437 0.01356,-0.109246 0.01356,-0.288144 0,-0.397391 -0.0034,-0.02731 -0.0064,-0.04191 -0.0093,-0.04548 z m 8.128703,0 c -0.0088,-0.01071 -0.0155,0.08056 -0.0155,0.24443 0,0.218491 0.01124,0.307684 0.0248,0.198437 0.01356,-0.109246 0.01356,-0.288144 0,-0.397391 -0.0034,-0.02731 -0.0064,-0.04191 -0.0093,-0.04548 z m 5.17e-4,0.75706 c -0.0086,-0.01235 -0.01499,0.09255 -0.01499,0.281637 0,0.25211 0.0111,0.355497 0.02429,0.229443 0.01319,-0.126057 0.01319,-0.332316 0,-0.45837 -0.0033,-0.03151 -0.0064,-0.04859 -0.0093,-0.05271 z M 9.5796841,16.426125 c -0.0356,0 -0.064595,0.02737 -0.064595,0.06098 0,0.03362 0.012051,0.06098 0.026871,0.06098 0.01482,0 0.043816,-0.02736 0.064596,-0.06098 0.02078,-0.03362 0.00873,-0.06098 -0.026872,-0.06098 z m 12.0938359,0 c -0.03555,0 -0.04764,0.02737 -0.02687,0.06098 0.02077,0.03362 0.05028,0.06098 0.06511,0.06098 0.01482,0 0.02687,-0.02736 0.02687,-0.06098 0,-0.03362 -0.02951,-0.06098 -0.06511,-0.06098 z m -1.396814,0.259932 c -0.0025,0.0037 0.02624,0.02723 0.0832,0.07286 0.124701,0.0999 0.156063,0.113433 0.156063,0.06666 0,-0.01563 -0.06183,-0.05843 -0.13746,-0.09509 -0.06602,-0.03199 -0.09935,-0.04813 -0.101802,-0.04444 z m -9.416997,0.07286 c 0,-0.02737 -0.359823,0.138034 -0.422713,0.194304 -0.01401,0.01252 -0.006,0.02274 0.01809,0.02274 0.06559,0 0.404626,-0.181841 0.404626,-0.217041 z" /><g
         id="g45"
         transform="translate(2.3741692,-0.29640859)"><path
           style="fill:#ffffff;fill-opacity:1;stroke:none;stroke-width:0.176777;stroke-dasharray:none"
           d="m 40.322695,28.180691 c -1.072405,0.05445 -2.186199,-0.07859 -3.231354,0.197148 -0.390761,0.328571 0.104155,0.858028 0.225287,1.217411 0.280076,0.410139 0.400574,1.001774 0.812068,1.275589 h 3.723359 c 0.558006,0.992866 1.148672,1.96849 1.66177,2.985869 -1.821728,1.062056 -3.853974,1.865122 -5.340935,3.414863 -0.562989,0.336738 -0.850998,0.975562 -1.332452,1.412239 -0.49688,0.582852 -0.843134,1.286144 -1.375477,1.837241 -0.193276,-0.327332 -0.691606,-0.05443 -0.449365,0.271207 0.427822,0.397029 -0.0018,0.921042 -0.04225,1.407791 -0.172496,0.564284 -0.02701,1.201883 -0.340998,1.715149 -0.274339,0.507609 0.138103,0.801242 0.636634,0.662016 10.069476,0.07663 20.140844,0.08293 30.209173,0.170423 0.375047,-0.218942 0.252987,-0.813282 0.312467,-1.209471 -0.01418,-0.898558 -0.375459,-1.750446 -0.395504,-2.648197 -0.142484,-0.2872 -0.50312,-0.391162 -0.633719,-0.713504 -1.73511,-2.726571 -4.45164,-4.688219 -7.381682,-5.968405 -0.793012,-0.121212 -0.365951,-0.629412 -0.08411,-1.088945 0.422462,-0.743402 0.846483,-1.485889 1.270472,-2.228423 1.300197,-0.104361 2.612784,-0.07803 3.901659,-0.144157 0.460319,-0.59982 0.770719,-1.354778 1.185159,-2.008928 -0.05123,-0.585215 -0.982564,-0.179762 -1.410761,-0.299865 -1.728616,0.02395 -3.47757,-0.04789 -5.193476,0.03592 -0.73838,1.087679 -1.320375,2.337774 -1.998567,3.487954 -0.32393,0.38569 -0.428946,1.178015 -0.901035,1.288496 -1.156656,-0.09662 -2.179628,-0.26521 -3.327138,-0.444443 l -1.250564,-0.01169 c -0.419178,0.289299 -1.021491,0.03351 -1.526081,0.159341 -0.196806,-0.05305 -0.29568,0.340539 -0.38221,0.128094 -0.453313,-0.183677 -1.091212,0.363175 -1.414214,-0.177813 -0.994574,-1.353524 -1.683322,-2.918784 -2.596401,-4.31124 -0.107193,-0.129765 -0.108883,-0.463039 -0.452479,-0.378349 -0.958393,-0.04081 -1.91823,-0.03538 -2.877282,-0.03332 z m 14.418867,10.601595 c 0.201803,0.162975 0.59397,0.41382 0.556226,0.676033 -0.127972,0.329556 0.245064,0.68995 -0.08753,0.9866 -0.317533,0.606009 -1.060596,1.053136 -1.719775,0.682076 -0.609457,-0.313103 -0.778032,-1.142269 -0.381347,-1.685249 -0.01592,-0.26162 0.06657,-0.411149 0.302627,-0.56313 0.227996,-0.143007 0.58302,0.06732 0.873871,-0.01813 0.154379,-9.97e-4 0.317586,-0.04349 0.455924,-0.0782 z m -8.187488,0.0599 c 0.710776,0.0641 1.166155,0.82076 0.996613,1.492934 -0.0036,0.328908 -0.108881,0.885965 -0.47457,0.912714 -0.530923,-0.04707 -1.212554,0.142457 -1.537647,-0.42278 -0.392074,-0.407916 -0.464971,-1.053891 -0.0656,-1.477569 0.248005,-0.334031 0.668254,-0.521709 1.081204,-0.505299 z"
           id="path44"
           transform="scale(0.26458333)"
           sodipodi:nodetypes="sccccccccccccccccccccccccccccccccsssccccccsscccccc" /><g
           id="g9"
           transform="matrix(0.2309955,0,0,0.2309955,-13.524788,-33.659225)"><path
             style="fill:#f7a45f"
             d="m 94.077507,249.48008 c 1.898012,-0.19707 4.101967,-0.21391 4.101524,-0.0313 -2.65e-4,0.10914 -1.10181,0.17938 -2.447878,0.15609 -1.346068,-0.0233 -2.090208,-0.0794 -1.653646,-0.12476 z m 10.579903,-0.0202 c 0.58019,-0.0642 1.1548,-0.25666 1.27691,-0.42772 0.15258,-0.21374 0.18859,-0.18689 0.11516,0.0859 -0.0728,0.27035 -0.47986,0.40671 -1.27691,0.42772 -1.1612,0.0306 -1.16207,0.03 -0.11516,-0.0859 z m 6.84933,-0.20084 c -0.0819,-0.21348 -0.0876,-0.5409 -0.0126,-0.72761 0.075,-0.1867 0.14576,-0.0716 0.15725,0.25586 0.02,0.56861 0.12089,0.59531 2.25045,0.59531 1.9009,0 2.24739,-0.0683 2.35055,-0.46302 0.0911,-0.34843 0.1286,-0.31569 0.1517,0.13229 0.0297,0.57569 -0.0481,0.59532 -2.35887,0.59532 -1.85609,0 -2.4228,-0.0867 -2.5385,-0.38815 z m 7.30931,-8.87227 v -9.26042 h 2.51354 2.51354 v 9.26042 9.26042 h -2.51354 -2.51354 z m 4.7625,0 v -8.99584 h -2.24896 -2.24896 v 8.99584 8.99583 h 2.24896 2.24896 z m 7.73906,9.06594 c 0.69122,-0.0545 1.82232,-0.0545 2.51354,0 0.69123,0.0545 0.12568,0.0991 -1.25677,0.0991 -1.38245,0 -1.94799,-0.0446 -1.25677,-0.0991 z m -1.06308,-7.13658 -0.0614,-6.93419 -2.05052,-0.0902 -2.05052,-0.0902 2.05882,-0.0532 c 1.45868,-0.0377 2.09633,0.0445 2.18749,0.28203 0.0708,0.18441 0.0947,3.36933 0.0531,7.07761 l -0.0756,6.74232 z m -36.817593,6.11838 c 0.0127,-0.30822 0.07539,-0.37092 0.159852,-0.15985 0.07643,0.191 0.06703,0.4192 -0.02089,0.50712 -0.08792,0.0879 -0.150453,-0.0684 -0.138964,-0.34727 z m 4.783388,-0.63941 c 0,-0.3638 0.06005,-0.51263 0.133452,-0.33073 0.0734,0.1819 0.0734,0.47956 0,0.66146 -0.0734,0.1819 -0.133452,0.0331 -0.133452,-0.33073 z m 17.706195,-0.41892 c 0.0127,-0.30823 0.0754,-0.37092 0.15985,-0.15985 0.0764,0.19099 0.067,0.4192 -0.0209,0.50711 -0.0879,0.0879 -0.15045,-0.0684 -0.13896,-0.34726 z m -22.204112,-0.37483 c 0,-0.3638 0.06005,-0.51263 0.133452,-0.33073 0.0734,0.1819 0.0734,0.47956 0,0.66146 -0.0734,0.1819 -0.133452,0.0331 -0.133452,-0.33073 z m 17.462502,-0.26458 c 0,-0.3638 0.0601,-0.51263 0.13345,-0.33073 0.0734,0.1819 0.0734,0.47956 0,0.66146 -0.0734,0.1819 -0.13345,0.0331 -0.13345,-0.33073 z m -12.700002,-0.79375 c 0,-0.3638 0.06005,-0.51263 0.133452,-0.33073 0.0734,0.1819 0.0734,0.47956 0,0.66146 -0.0734,0.1819 -0.133452,0.0331 -0.133452,-0.33073 z m 17.197912,-0.26458 c 0,-0.36381 0.0601,-0.51263 0.13346,-0.33073 0.0734,0.1819 0.0734,0.47955 0,0.66145 -0.0734,0.18191 -0.13346,0.0331 -0.13346,-0.33072 z m -21.695828,-0.26459 c 0,-0.3638 0.06005,-0.51263 0.133452,-0.33073 0.0734,0.1819 0.0734,0.47956 0,0.66146 -0.0734,0.1819 -0.133452,0.0331 -0.133452,-0.33073 z m 16.933328,-0.79375 c 0,-0.3638 0.0601,-0.51263 0.13346,-0.33073 0.0734,0.1819 0.0734,0.47956 0,0.66146 -0.0734,0.1819 -0.13346,0.0331 -0.13346,-0.33073 z m -12.170828,-0.26458 c 0,-0.3638 0.06005,-0.51263 0.133452,-0.33073 0.0734,0.1819 0.0734,0.47956 0,0.66146 -0.0734,0.1819 -0.133452,0.0331 -0.133452,-0.33073 z m -4.497917,-0.52917 c 0,-0.3638 0.06005,-0.51263 0.133452,-0.33073 0.0734,0.1819 0.0734,0.47956 0,0.66146 -0.0734,0.1819 -0.133452,0.0331 -0.133452,-0.33073 z m 21.166665,0 c 0,-0.3638 0.0601,-0.51263 0.13345,-0.33073 0.0734,0.1819 0.0734,0.47956 0,0.66146 -0.0734,0.1819 -0.13345,0.0331 -0.13345,-0.33073 z m -4.75269,-1.19062 c 0.005,-0.43657 0.0647,-0.58313 0.13177,-0.3257 0.0671,0.25743 0.0627,0.61462 -0.01,0.79375 -0.0725,0.17913 -0.12736,-0.0315 -0.12196,-0.46805 z m -11.651475,-0.13229 c 0,-0.36381 0.06005,-0.51264 0.133452,-0.33073 0.0734,0.1819 0.0734,0.47955 0,0.66145 -0.0734,0.18191 -0.133452,0.0331 -0.133452,-0.33072 z m -4.518805,-0.15435 c 0.0127,-0.30822 0.07539,-0.37091 0.159853,-0.15985 0.07643,0.191 0.06703,0.4192 -0.02089,0.50712 -0.08792,0.0879 -0.150452,-0.0684 -0.138963,-0.34727 z m 20.6375,-0.26458 c 0.0127,-0.30822 0.0754,-0.37092 0.15985,-0.15985 0.0764,0.191 0.067,0.4192 -0.0209,0.50712 -0.0879,0.0879 -0.15045,-0.0684 -0.13896,-0.34727 z m -20.372916,-1.32292 c 0.01269,-0.30822 0.07539,-0.37091 0.159852,-0.15985 0.07643,0.191 0.06703,0.4192 -0.02089,0.50712 -0.08792,0.0879 -0.150453,-0.0683 -0.138964,-0.34727 z m 4.518804,-0.11024 c 0,-0.3638 0.06005,-0.51263 0.133452,-0.33073 0.0734,0.1819 0.0734,0.47956 0,0.66146 -0.0734,0.1819 -0.133452,0.0331 -0.133452,-0.33073 z m 11.122302,-0.13229 c 0.005,-0.43656 0.0647,-0.58312 0.13178,-0.32569 0.0671,0.25743 0.0627,0.61461 -0.01,0.79375 -0.0725,0.17913 -0.12736,-0.0315 -0.12197,-0.46806 z m -5.76272,0.0957 c -0.11411,-0.18464 -0.0772,-0.23916 0.0914,-0.13496 0.15558,0.0961 0.34317,0.0252 0.41687,-0.15756 0.0959,-0.2379 0.13994,-0.2428 0.15489,-0.0173 0.0302,0.45531 -0.43805,0.67403 -0.66317,0.30978 z m 10.25083,-0.22802 c 0,-0.3638 0.0601,-0.51263 0.13346,-0.33073 0.0734,0.1819 0.0734,0.47956 0,0.66146 -0.0734,0.1819 -0.13346,0.0331 -0.13346,-0.33073 z m -5.06886,-0.77814 c 0,-0.13693 0.1177,-0.32171 0.26156,-0.41061 0.14998,-0.0927 0.19434,0.0135 0.10398,0.24896 -0.17589,0.45837 -0.36554,0.54224 -0.36554,0.16165 z m -14.795773,-0.43454 c 0.0127,-0.30822 0.07539,-0.37091 0.159852,-0.15985 0.07643,0.191 0.06703,0.4192 -0.02089,0.50712 -0.08792,0.0879 -0.150453,-0.0683 -0.138964,-0.34727 z M 114.6036,238.6449 c 0.0127,-0.30823 0.0754,-0.37092 0.15986,-0.15985 0.0764,0.19099 0.067,0.41919 -0.0209,0.50711 -0.0879,0.0879 -0.15046,-0.0683 -0.13897,-0.34726 z m -19.31458,-1.05834 c 0.0127,-0.30822 0.07539,-0.37091 0.159853,-0.15985 0.07643,0.191 0.06703,0.4192 -0.02089,0.50712 -0.08792,0.0879 -0.150452,-0.0684 -0.138963,-0.34727 z m 19.07089,-0.63941 c 0,-0.3638 0.0601,-0.51263 0.13345,-0.33072 0.0734,0.1819 0.0734,0.47955 0,0.66145 -0.0734,0.1819 -0.13345,0.0331 -0.13345,-0.33073 z m -18.806307,-0.94809 c 0.0127,-0.30822 0.07539,-0.37091 0.159853,-0.15985 0.07643,0.191 0.06703,0.4192 -0.02089,0.50712 -0.08792,0.0879 -0.150453,-0.0684 -0.138965,-0.34727 z m 18.541717,-0.90399 c 0,-0.3638 0.0601,-0.51263 0.13346,-0.33073 0.0734,0.1819 0.0734,0.47956 0,0.66146 -0.0734,0.1819 -0.13346,0.0331 -0.13346,-0.33073 z m 21.85949,0.0705 c 0.62231,-0.0559 1.57481,-0.0551 2.11667,0.002 0.54186,0.0568 0.0327,0.10258 -1.13147,0.10162 -1.16417,-9.6e-4 -1.60751,-0.0475 -0.9852,-0.10337 z m -40.136623,-0.75402 c 0.0127,-0.30822 0.07539,-0.37092 0.159852,-0.15985 0.07643,0.191 0.06703,0.4192 -0.02089,0.50712 -0.08792,0.0879 -0.150453,-0.0684 -0.138964,-0.34727 z m 30.490883,-1.16857 c 0,-0.94589 0.048,-1.33284 0.10671,-0.8599 0.0587,0.47294 0.0587,1.24685 0,1.71979 -0.0587,0.47295 -0.10671,0.086 -0.10671,-0.85989 z m -12.47833,0.26458 c 0,-0.3638 0.06,-0.51263 0.13345,-0.33073 0.0734,0.1819 0.0734,0.47956 0,0.66146 -0.0734,0.1819 -0.13345,0.0331 -0.13345,-0.33073 z m -17.74797,-0.68351 c 0.0127,-0.30822 0.07539,-0.37092 0.159853,-0.15985 0.07643,0.191 0.06703,0.4192 -0.02089,0.50712 -0.08792,0.0879 -0.150452,-0.0683 -0.138963,-0.34727 z m 17.44161,-0.98225 c 0,-0.36098 -0.39782,-0.44524 -2.44739,-0.51836 l -2.4474,-0.0873 2.4557,-0.0549 c 2.0039,-0.0448 2.48452,0.0202 2.61237,0.35338 0.0862,0.22455 0.0824,0.48252 -0.008,0.57326 -0.0907,0.0907 -0.16498,-0.029 -0.16498,-0.26606 z m -17.193863,-0.25247 c -0.0036,-0.40675 0.283443,-0.46302 2.361583,-0.46302 1.3011,0 2.42122,0.0893 2.48916,0.19844 0.0679,0.10914 -0.89457,0.15944 -2.138907,0.11178 -1.668452,-0.0639 -2.320889,0.006 -2.485106,0.26458 -0.169705,0.26768 -0.223642,0.24109 -0.22673,-0.11178 z m 33.002723,-0.39608 c 1.78263,-0.0458 4.69966,-0.0458 6.48229,0 1.78263,0.0458 0.32411,0.0832 -3.24115,0.0832 -3.56526,0 -5.02377,-0.0375 -3.24114,-0.0832 z m -10.25261,-8.64728 c 0,-0.0728 0.23813,-0.25973 0.52917,-0.41549 0.29104,-0.15576 0.52916,-0.22367 0.52916,-0.15091 0,0.0728 -0.23812,0.25973 -0.52916,0.41549 -0.29104,0.15576 -0.52917,0.22367 -0.52917,0.15091 z m -7.02703,-0.56238 c -0.49319,-0.39513 -0.48995,-0.40001 0.0817,-0.12298 0.32742,0.15866 0.59531,0.34383 0.59531,0.41147 0,0.20246 -0.13721,0.14399 -0.67703,-0.28849 z m 13.9062,-3.40637 c 0,-0.0728 0.23812,-0.25973 0.52916,-0.41549 0.29105,-0.15576 0.52917,-0.22367 0.52917,-0.15091 0,0.0728 -0.23812,0.25973 -0.52917,0.41549 -0.29104,0.15576 -0.52916,0.22367 -0.52916,0.15091 z m -32.257119,-0.24955 c 0.272268,-0.24362 1.830034,-0.95949 1.830034,-0.84099 0,0.15239 -1.466802,0.93963 -1.750749,0.93963 -0.104241,0 -0.139919,-0.0444 -0.07928,-0.0986 z m 11.471749,-0.31283 c -0.49319,-0.39513 -0.48994,-0.40001 0.0817,-0.12298 0.32742,0.15866 0.59532,0.34383 0.59532,0.41147 0,0.20246 -0.13722,0.14399 -0.67704,-0.28849 z m 31.48542,-0.52917 c -0.49319,-0.39512 -0.48995,-0.40001 0.0817,-0.12298 0.32742,0.15867 0.59531,0.34383 0.59531,0.41147 0,0.20246 -0.13721,0.144 -0.67703,-0.28849 z m -46.947968,-1.17603 c 0,-0.14552 0.126089,-0.26458 0.280198,-0.26458 0.154109,0 0.206614,0.11906 0.116677,0.26458 -0.08994,0.14552 -0.216026,0.26459 -0.280198,0.26459 -0.06417,0 -0.116677,-0.11907 -0.116677,-0.26459 z m 52.519788,0 c -0.0899,-0.14552 -0.0374,-0.26458 0.11668,-0.26458 0.15411,0 0.2802,0.11906 0.2802,0.26458 0,0.14552 -0.0525,0.26459 -0.11668,0.26459 -0.0642,0 -0.19026,-0.11907 -0.2802,-0.26459 z m -8.36812,-0.7276 c -0.32911,-0.41965 -0.31975,-0.429 0.0999,-0.0999 0.44073,0.34565 0.58089,0.56292 0.36313,0.56292 -0.0549,0 -0.2633,-0.20836 -0.46302,-0.46302 z m -35.685001,0.0985 c 0,-0.0549 0.208359,-0.2633 0.46302,-0.46302 0.419644,-0.32911 0.429003,-0.31975 0.09989,0.0999 -0.345643,0.44072 -0.562915,0.58088 -0.562915,0.36312 z m 37.413401,-3.14125 -0.50403,-0.59531 0.59532,0.50403 c 0.32742,0.27721 0.59531,0.5451 0.59531,0.59531 0,0.21173 -0.21294,0.0554 -0.6866,-0.50403 z m -38.339443,-0.7276 c 0.568389,-0.58209 1.092966,-1.05834 1.165726,-1.05834 0.07276,0 -0.332754,0.47625 -0.901143,1.05834 -0.568389,0.58208 -1.092966,1.05833 -1.165726,1.05833 -0.07276,0 0.332754,-0.47625 0.901143,-1.05833 z m 1.275311,-6.35 c 0,-0.94589 0.04802,-1.33284 0.106712,-0.8599 0.05869,0.47294 0.05869,1.24685 0,1.71979 -0.05869,0.47294 -0.106712,0.086 -0.106712,-0.85989 z m 35.189582,0 c 0,-0.94589 0.048,-1.33284 0.10671,-0.8599 0.0587,0.47294 0.0587,1.24685 0,1.71979 -0.0587,0.47294 -0.10671,0.086 -0.10671,-0.85989 z m -35.277248,-7.01146 -0.129312,-1.85209 17.66094,0.0698 17.66093,0.0698 0.036,-0.86358 c 0.0283,-0.67849 0.0616,-0.72876 0.15511,-0.23454 0.11427,0.6036 0.17431,0.57686 1.48532,-0.66134 l 1.36624,-1.29037 -1.38906,1.4634 c -1.3843,1.4584 -1.38924,1.46973 -1.44004,3.30718 l -0.051,1.84376 -0.0939,-1.65365 -0.0939,-1.65364 H 116.17021 98.732966 l -0.08175,1.65364 -0.08175,1.65365 z m -1.464678,-3.37344 -1.045884,-1.12448 1.124479,1.04588 c 1.045755,0.97267 1.246062,1.20308 1.045885,1.20308 -0.04323,0 -0.549243,-0.50602 -1.12448,-1.12448 z m 1.509434,0.33073 c 0,-0.3638 0.06005,-0.51263 0.133452,-0.33073 0.0734,0.1819 0.0734,0.47956 0,0.66146 -0.0734,0.1819 -0.133452,0.0331 -0.133452,-0.33073 z m -3.250525,-1.78594 c -0.329107,-0.41964 -0.319749,-0.429 0.0999,-0.0999 0.254661,0.19971 0.463021,0.40807 0.463021,0.46302 0,0.21776 -0.217272,0.0776 -0.562916,-0.36313 z m -1.172452,-0.7422 c -0.49319,-0.39513 -0.489944,-0.40001 0.08172,-0.12298 0.327422,0.15867 0.595312,0.34383 0.595312,0.41147 0,0.20246 -0.137215,0.14399 -0.677034,-0.28849 z m -19.03255,-2.49592 c -0.09269,-0.14998 0.01351,-0.19433 0.248968,-0.10398 0.458369,0.17589 0.542234,0.36554 0.161648,0.36554 -0.136932,0 -0.32171,-0.1177 -0.410616,-0.26156 z m 81.622079,0.15757 c 0,-0.0572 0.18478,-0.17489 0.41062,-0.26155 0.23546,-0.0904 0.34166,-0.046 0.24897,0.10398 -0.15538,0.25141 -0.65959,0.37186 -0.65959,0.15757 z m -80.218354,-0.34134 c 0.190997,-0.0764 0.4192,-0.067 0.507118,0.0209 0.08792,0.0879 -0.06835,0.15045 -0.347265,0.13897 -0.308225,-0.0127 -0.370919,-0.0754 -0.159853,-0.15986 z m 10.583334,0 c 0.190996,-0.0764 0.419199,-0.067 0.507118,0.0209 0.08792,0.0879 -0.06835,0.15045 -0.347266,0.13897 -0.308225,-0.0127 -0.370919,-0.0754 -0.159852,-0.15986 z m 57.94375,0 c 0.19099,-0.0764 0.4192,-0.067 0.50712,0.0209 0.0879,0.0879 -0.0684,0.15045 -0.34727,0.13897 -0.30822,-0.0127 -0.37092,-0.0754 -0.15985,-0.15986 z m 10.58333,0 c 0.191,-0.0764 0.4192,-0.067 0.50712,0.0209 0.0879,0.0879 -0.0683,0.15045 -0.34727,0.13897 -0.30822,-0.0127 -0.37092,-0.0754 -0.15985,-0.15986 z M 77.739487,189.9407 c 0.181901,-0.0734 0.479557,-0.0734 0.661458,0 0.181901,0.0734 0.03307,0.13345 -0.330729,0.13345 -0.363802,0 -0.51263,-0.06 -0.330729,-0.13345 z m 7.672916,0 c 0.181901,-0.0734 0.479557,-0.0734 0.661458,0 0.181901,0.0734 0.03307,0.13345 -0.330729,0.13345 -0.363802,0 -0.51263,-0.06 -0.330729,-0.13345 z m 60.854167,0 c 0.1819,-0.0734 0.47956,-0.0734 0.66146,0 0.1819,0.0734 0.0331,0.13345 -0.33073,0.13345 -0.3638,0 -0.51263,-0.06 -0.33073,-0.13345 z m 7.67291,0 c 0.18191,-0.0734 0.47956,-0.0734 0.66146,0 0.1819,0.0734 0.0331,0.13345 -0.33073,0.13345 -0.3638,0 -0.51263,-0.06 -0.33073,-0.13345 z m -73.018,-0.28342 c 0.62231,-0.0559 1.57481,-0.0551 2.116667,0.002 0.541856,0.0569 0.03269,0.10259 -1.131473,0.10163 -1.164167,-9.7e-4 -1.607504,-0.0475 -0.985194,-0.10337 z m 68.52708,0 c 0.62231,-0.0559 1.57481,-0.0551 2.11667,0.002 0.54186,0.0569 0.0327,0.10259 -1.13147,0.10163 -1.16417,-9.7e-4 -1.60751,-0.0475 -0.9852,-0.10337 z m -75.682233,-1.95543 c 0.179476,-0.18082 0.39297,-0.26212 0.474432,-0.18065 0.08146,0.0815 -0.06538,0.2294 -0.32632,0.32876 -0.377083,0.14359 -0.407474,0.1132 -0.148112,-0.14811 z m 2.402196,-0.67708 c 0.190996,-0.0764 0.419199,-0.067 0.507118,0.0209 0.08792,0.0879 -0.06835,0.15045 -0.347265,0.13897 -0.308225,-0.0127 -0.37092,-0.0754 -0.159853,-0.15986 z m 79.374997,0 c 0.191,-0.0764 0.4192,-0.067 0.50712,0.0209 0.0879,0.0879 -0.0683,0.15045 -0.34727,0.13897 -0.30822,-0.0127 -0.37092,-0.0754 -0.15985,-0.15986 z m -77.666706,-0.26719 c 0.257431,-0.0671 0.614618,-0.0627 0.79375,0.01 0.179131,0.0725 -0.03149,0.12736 -0.468057,0.12197 -0.436562,-0.005 -0.583124,-0.0647 -0.325693,-0.13177 z m 75.798086,0.008 c 0.1819,-0.0734 0.47956,-0.0734 0.66146,0 0.1819,0.0734 0.0331,0.13345 -0.33073,0.13345 -0.3638,0 -0.51263,-0.06 -0.33073,-0.13345 z"
             id="path15" /><path
             style="fill:#a4a3a4"
             d="m 79.789147,263.22047 c 0.43609,-0.07 0.891639,-0.26537 1.012331,-0.43414 0.148187,-0.20721 0.184806,-0.17798 0.112776,0.09 -0.06566,0.2443 -0.454839,0.4112 -1.012331,0.43414 -0.829665,0.0341 -0.839129,0.0266 -0.112776,-0.09 z m 4.522399,-0.0413 c -0.07695,-0.1245 0.166818,-0.16773 0.541695,-0.0961 0.415424,0.0794 0.772344,-0.013 0.913983,-0.23666 0.184908,-0.29198 0.233216,-0.27235 0.23644,0.0961 0.0029,0.33693 -0.207848,0.46302 -0.774083,0.46302 -0.427975,0 -0.84109,-0.10186 -0.918035,-0.22636 z m 2.348309,-0.0994 c -0.07623,-0.19865 -0.105319,-2.02233 -0.06464,-4.05262 l 0.07396,-3.69142 1.5875,-0.0189 1.5875,-0.0189 -1.521354,0.0977 -1.521354,0.0977 v 3.82383 3.82384 h 0.661458 c 0.625379,0 0.661458,-0.0794 0.661458,-1.45521 v -1.45521 l 1.124479,0.0445 1.124479,0.0445 -0.978886,0.103 c -0.977702,0.10287 -0.978983,0.10465 -1.058334,1.47687 -0.07401,1.27991 -0.129322,1.37963 -0.808555,1.45775 -0.436599,0.0502 -0.784713,-0.061 -0.86771,-0.27732 z m 7.086923,0.14337 c 0.254661,-0.0666 0.67138,-0.0666 0.926042,0 0.254661,0.0666 0.0463,0.121 -0.463021,0.121 -0.509323,0 -0.717683,-0.0544 -0.463021,-0.121 z m 10.318752,0 c 0.25466,-0.0666 0.67138,-0.0666 0.92604,0 0.25466,0.0666 0.0463,0.121 -0.46302,0.121 -0.50932,0 -0.71768,-0.0544 -0.46302,-0.121 z m 2.70266,-0.14337 c -0.0762,-0.19865 -0.10532,-2.02233 -0.0646,-4.05262 0.0732,-3.65569 0.08,-3.69228 0.69978,-3.77997 0.34421,-0.0487 0.7349,0.0205 0.86821,0.15383 0.14679,0.14679 -0.0739,0.19596 -0.55968,0.12467 l -0.80206,-0.11772 v 3.86649 3.86649 h 0.65116 c 0.63348,0 0.65367,-0.0611 0.74401,-2.24969 l 0.0929,-2.24968 -0.0164,2.31583 -0.0164,2.31583 -0.72911,0.0839 c -0.4366,0.0502 -0.78472,-0.061 -0.86771,-0.27732 z m 4.54619,0.1242 c -0.0788,-0.12752 0.2076,-0.18037 0.63647,-0.11742 l 0.77978,0.11445 v -3.86649 -3.86649 h -0.66146 c -0.65367,0 -0.66146,0.0265 -0.66146,2.24896 0,1.23693 -0.0893,2.24921 -0.19843,2.24952 -0.10914,3.1e-4 -0.13891,-1.04149 -0.0662,-2.3151 l 0.13229,-2.31567 h 0.79375 0.79375 v 3.96875 3.96875 l -0.70261,0.0813 c -0.38644,0.0447 -0.76711,-0.023 -0.84593,-0.15057 z m 4.76764,0.0252 c -0.097,-0.097 -0.17457,-0.30537 -0.17234,-0.46302 0.003,-0.19054 0.0692,-0.1847 0.19844,0.0174 0.10691,0.16723 0.49204,0.35938 0.85584,0.42699 l 0.66146,0.12294 -0.6835,0.036 c -0.37593,0.0198 -0.76289,-0.0433 -0.8599,-0.14036 z m 5.84288,-0.0187 c 0.76399,-0.0534 2.01414,-0.0534 2.77813,0 0.76398,0.0534 0.1389,0.0972 -1.38907,0.0972 -1.52796,0 -2.15304,-0.0437 -1.38906,-0.0972 z m 5.2162,-0.13069 c -0.0762,-0.19865 -0.10532,-2.02233 -0.0646,-4.05262 0.0726,-3.6255 0.0847,-3.69205 0.67333,-3.72663 0.49858,-0.0293 0.5097,-0.0151 0.0661,0.0846 -0.50441,0.11328 -0.53323,0.32608 -0.53323,3.93781 v 3.81806 h 0.65116 c 0.63581,0 0.65296,-0.054 0.72761,-2.29117 0.0695,-2.08392 0.11234,-2.24685 0.47332,-1.80129 0.21828,0.26943 0.25312,0.40359 0.0774,0.29815 -0.23625,-0.14179 -0.33961,0.34459 -0.39688,1.86744 -0.0763,2.02887 -0.0881,2.06039 -0.80654,2.14302 -0.4366,0.0502 -0.78471,-0.061 -0.86771,-0.27732 z m 4.36506,-0.12389 c -0.30891,-0.40713 -0.30754,-0.42831 0.009,-0.14567 0.20399,0.1819 0.64473,0.33073 0.97943,0.33073 0.60702,0 0.60854,-0.01 0.60854,-3.83646 v -3.83646 h -0.66146 c -0.65368,0 -0.66146,0.0265 -0.66146,2.24896 0,1.23693 -0.0893,2.24921 -0.19844,2.24952 -0.10914,3.1e-4 -0.1389,-1.04149 -0.0661,-2.3151 l 0.13229,-2.31567 h 0.79375 0.79375 v 3.96875 3.96875 l -0.68411,0.0795 c -0.42135,0.049 -0.82293,-0.10345 -1.04557,-0.39687 z m 4.6288,0.11874 c -0.0773,-0.20148 -0.10175,-1.60844 -0.0543,-3.12657 l 0.0863,-2.76024 0.0558,2.97656 c 0.0557,2.97366 0.0564,2.97657 0.70911,2.97657 0.65272,0 0.6534,-0.003 0.73982,-3.10886 l 0.0865,-3.10885 -0.0122,3.175 -0.0122,3.175 -0.72911,0.0839 c -0.44084,0.0507 -0.78469,-0.061 -0.86969,-0.28247 z m 6.43053,0.14377 c 0.32912,-0.0633 0.80536,-0.0609 1.05833,0.005 0.25296,0.0662 -0.0163,0.118 -0.5984,0.11507 -0.58208,-0.003 -0.78905,-0.0571 -0.45993,-0.12041 z m 4.62014,-3.83048 0.0731,-4.05218 1.5875,-0.0189 1.5875,-0.0189 -1.52136,0.0977 -1.52135,0.0977 v 3.82383 3.82384 h 0.64825 c 0.60345,0 0.65374,-0.10498 0.72761,-1.51879 0.0587,-1.12257 0.18288,-1.5261 0.47622,-1.54683 0.21828,-0.0154 0.25376,0.0208 0.0788,0.0805 -0.18409,0.0629 -0.35123,0.74214 -0.39687,1.61298 -0.078,1.48774 -0.0884,1.50532 -0.94572,1.58783 l -0.86688,0.0834 z m 4.08276,3.81917 c -0.0675,-0.10914 0.34224,-0.19843 0.91042,-0.19843 0.56819,0 1.03307,0.0893 1.03307,0.19843 0,0.10914 -0.40969,0.19844 -0.91043,0.19844 -0.50073,0 -0.96561,-0.0893 -1.03306,-0.19844 z m -6.30786,-0.80196 c 0.3909,-0.40471 0.7608,-0.70189 0.82201,-0.66042 0.15253,0.10335 -1.08009,1.39624 -1.33116,1.39624 -0.11087,0 0.11824,-0.33112 0.50915,-0.73582 z m -39.79842,-3.10064 c 4.1e-4,-2.03729 0.0419,-2.83576 0.0923,-1.77436 0.0503,1.06139 0.05,2.72826 -7.5e-4,3.70416 -0.0508,0.9759 -0.0919,0.10749 -0.0915,-1.9298 z m 35.58061,3.10885 c -0.32911,-0.41964 -0.31975,-0.429 0.0999,-0.0999 0.25466,0.19972 0.46302,0.40808 0.46302,0.46302 0,0.21776 -0.21727,0.0776 -0.56291,-0.36313 z m -59.762088,-0.39687 c 0,-0.10914 0.647817,-0.19844 1.439594,-0.19844 0.791776,0 1.494782,0.0893 1.562234,0.19844 0.06745,0.10914 -0.580364,0.19844 -1.439593,0.19844 -0.859229,0 -1.562235,-0.0893 -1.562235,-0.19844 z m 61.862888,-0.1146 c 0.191,-0.0764 0.4192,-0.067 0.50712,0.0209 0.0879,0.0879 -0.0684,0.15045 -0.34727,0.13897 -0.30822,-0.0127 -0.37092,-0.0754 -0.15985,-0.15986 z m 3.05073,-2.59738 c 9.6e-4,-1.16417 0.0475,-1.60751 0.10337,-0.9852 0.0559,0.62231 0.0551,1.57481 -0.002,2.11667 -0.0568,0.54186 -0.10258,0.0327 -0.10162,-1.13147 z m -1.65731,1.30087 c 0.0127,-0.30823 0.0754,-0.37092 0.15985,-0.15986 0.0764,0.191 0.067,0.4192 -0.0209,0.50712 -0.0879,0.0879 -0.15045,-0.0684 -0.13896,-0.34726 z m -62.553969,-0.0441 c -0.06745,-0.10914 0.33087,-0.19844 0.885161,-0.19844 0.554292,0 0.952614,0.0893 0.885162,0.19844 -0.06745,0.10914 -0.465776,0.19844 -0.885162,0.19844 -0.419386,0 -0.817708,-0.0893 -0.885161,-0.19844 z m 59.966529,-1.12448 c 0,-0.80036 0.0496,-1.12779 0.11022,-0.7276 0.0606,0.40018 0.0606,1.05502 0,1.4552 -0.0606,0.40019 -0.11022,0.0728 -0.11022,-0.7276 z m -46.179846,0.8712 c 0.329119,-0.0633 0.805369,-0.0609 1.058334,0.005 0.252964,0.0662 -0.01631,0.11801 -0.598398,0.11507 -0.582083,-0.003 -0.789054,-0.0571 -0.459936,-0.12041 z m 1.915145,-0.18143 c 0,-0.0572 0.184777,-0.17489 0.410616,-0.26156 0.23546,-0.0904 0.341663,-0.046 0.248969,0.10399 -0.155379,0.25141 -0.659585,0.37186 -0.659585,0.15757 z m 54.504161,-0.52508 c 0,-0.0549 0.20836,-0.2633 0.46302,-0.46302 0.41965,-0.32911 0.42901,-0.31975 0.0999,0.0999 -0.34564,0.44073 -0.56292,0.58089 -0.56292,0.36313 z m -63.692515,-1.75219 c 0,-0.65484 0.0516,-0.92273 0.114662,-0.59531 0.06306,0.32742 0.06306,0.8632 0,1.19062 -0.06306,0.32742 -0.114662,0.0595 -0.114662,-0.59531 z m 3.917575,0.63941 c 0.0127,-0.30822 0.07539,-0.37092 0.159853,-0.15985 0.07643,0.19099 0.06703,0.4192 -0.02089,0.50712 -0.08792,0.0879 -0.150453,-0.0684 -0.138965,-0.34727 z m 5.027333,-0.0441 c 0.317924,-0.51051 0.317924,-0.68011 0,-1.19062 -0.339345,-0.54491 -0.333533,-0.56457 0.06865,-0.23219 0.24166,0.19972 0.439382,0.57209 0.439382,0.8275 0,0.25541 -0.197722,0.62778 -0.439382,0.8275 -0.40218,0.33238 -0.407992,0.31272 -0.06865,-0.23219 z m 51.644677,-0.59531 c 0,-0.65484 0.0516,-0.92273 0.11466,-0.59531 0.0631,0.32742 0.0631,0.8632 0,1.19062 -0.0631,0.32742 -0.11466,0.0595 -0.11466,-0.59531 z m -66.482481,0.26458 c 0,-0.14552 0.119063,-0.26458 0.264583,-0.26458 0.145521,0 0.264584,0.11906 0.264584,0.26458 0,0.14552 -0.119063,0.26459 -0.264584,0.26459 -0.14552,0 -0.264583,-0.11907 -0.264583,-0.26459 z m 16.710526,-0.26458 c 0,-0.3638 0.06005,-0.51263 0.133452,-0.33073 0.0734,0.1819 0.0734,0.47956 0,0.66146 -0.0734,0.1819 -0.133452,0.0331 -0.133452,-0.33073 z m 45.222865,0.11024 c 0.0127,-0.30822 0.0754,-0.37092 0.15985,-0.15985 0.0764,0.191 0.067,0.4192 -0.0209,0.50712 -0.0879,0.0879 -0.15045,-0.0684 -0.13896,-0.34727 z m -3.98964,-0.88838 c 0,-0.13693 0.1177,-0.32171 0.26155,-0.41061 0.14998,-0.0927 0.19434,0.0135 0.10398,0.24897 -0.17589,0.45836 -0.36553,0.54223 -0.36553,0.16164 z m -0.49848,-0.86655 -0.0307,-0.71866 -2.84427,-0.085 -2.84427,-0.085 2.85257,-0.0562 c 3.00339,-0.0592 3.31233,0.062 3.02133,1.18512 -0.0821,0.31687 -0.13434,0.23575 -0.15467,-0.24017 z m 5.22723,-0.14125 c -0.32911,-0.41964 -0.31975,-0.429 0.0999,-0.0999 0.44073,0.34564 0.58089,0.56291 0.36313,0.56291 -0.0549,0 -0.2633,-0.20836 -0.46302,-0.46302 z m -63.028496,-0.66146 c 0.06745,-0.10914 0.346713,-0.19843 0.620578,-0.19843 0.273866,0 0.553126,0.0893 0.620578,0.19843 0.06745,0.10914 -0.211807,0.19844 -0.620578,0.19844 -0.40877,0 -0.68803,-0.0893 -0.620578,-0.19844 z m 31.749996,0 c 0.0675,-0.10914 0.40625,-0.19843 0.75287,-0.19843 0.34663,0 0.68542,0.0893 0.75287,0.19843 0.0675,0.10914 -0.27134,0.19844 -0.75287,0.19844 -0.48153,0 -0.82032,-0.0893 -0.75287,-0.19844 z m -19.553897,-0.12525 c 0.472943,-0.0587 1.246849,-0.0587 1.719791,0 0.472943,0.0587 0.08599,0.10671 -0.859895,0.10671 -0.945886,0 -1.332839,-0.048 -0.859896,-0.10671 z m 9.926907,0.008 c 0.25743,-0.0671 0.61462,-0.0627 0.79375,0.01 0.17913,0.0725 -0.0315,0.12736 -0.46805,0.12197 -0.43657,-0.005 -0.58313,-0.0647 -0.3257,-0.13177 z m 14.81667,0 c 0.25743,-0.0671 0.61462,-0.0627 0.79375,0.01 0.17913,0.0725 -0.0315,0.12736 -0.46806,0.12197 -0.43656,-0.005 -0.58312,-0.0647 -0.32569,-0.13177 z m 3.16996,-0.0111 c 0.69123,-0.0545 1.82232,-0.0545 2.51355,0 0.69122,0.0545 0.12567,0.0991 -1.25678,0.0991 -1.38244,0 -1.94799,-0.0446 -1.25677,-0.0991 z m 20.64254,0.0111 c 0.25743,-0.0671 0.61462,-0.0627 0.79375,0.01 0.17913,0.0725 -0.0315,0.12736 -0.46806,0.12197 -0.43656,-0.005 -0.58312,-0.0647 -0.32569,-0.13177 z m -8.97806,-46.38332 c 0,-1.09141 0.0467,-1.53789 0.10378,-0.99219 0.0571,0.5457 0.0571,1.43867 0,1.98438 -0.0571,0.5457 -0.10378,0.0992 -0.10378,-0.99219 z m 0,-6.87917 c 0,-1.0914 0.0467,-1.53789 0.10378,-0.99219 0.0571,0.54571 0.0571,1.43868 0,1.98438 -0.0571,0.5457 -0.10378,0.0992 -0.10378,-0.99219 z M 112.46605,193.191 c 0,-0.0549 0.20836,-0.26331 0.46302,-0.46302 0.41964,-0.32911 0.429,-0.31975 0.0999,0.0999 -0.34564,0.44073 -0.56291,0.58089 -0.56291,0.36313 z m 9.07143,-2.731 c -0.32222,-0.33478 -0.4895,-0.60869 -0.37173,-0.60869 0.25801,0 1.22061,1.02874 1.06621,1.13947 -0.0597,0.0428 -0.37226,-0.19601 -0.69448,-0.53078 z m -2.26576,-0.0929 c 0.32338,-0.3403 0.63914,-0.56581 0.70169,-0.50113 0.0626,0.0647 -0.20203,0.3431 -0.58796,0.61872 l -0.70169,0.50114 z m -6.32611,-6.51741 c 0.19099,-0.0764 0.41919,-0.067 0.50711,0.0209 0.0879,0.0879 -0.0683,0.15045 -0.34726,0.13897 -0.30823,-0.0127 -0.37092,-0.0754 -0.15985,-0.15986 z"
             id="path14" /><path
             style="fill:#a3cd46"
             d="m 132.20823,191.33511 c -1.10068,-1.87816 -3.96634,-4.30317 -6.5594,-5.55076 l -2.29535,-1.10435 1.08742,-1.90266 1.08743,-1.90265 2.2619,-0.0757 2.26191,-0.0757 0.61949,-1.12448 0.61948,-1.12448 -3.65784,0.004 -3.65785,0.004 -1.54126,2.76863 -1.54126,2.76863 -2.03061,-0.14952 c -1.11684,-0.0822 -2.17944,-0.19529 -2.36135,-0.25122 -0.256,-0.0787 -0.32894,-2.06144 -0.32281,-8.77511 l 0.008,-8.67341 8.75328,-5.02709 c 4.8143,-2.76489 8.8291,-5.0084 8.92177,-4.98556 0.0927,0.0228 4.06645,2.28502 8.83061,5.02708 l 8.66212,4.98557 6e-4,10.18646 6.1e-4,10.18646 -2.31272,0.0773 c -4.76094,0.15909 -9.78876,1.66667 -13.38255,4.01272 -1.07999,0.70503 -2.04445,1.41265 -2.14324,1.5725 -0.31709,0.51306 -0.61206,0.31658 -1.30829,-0.87145 z"
             id="path13" /><path
             style="fill:#f58c33"
             d="m 93.518523,248.93019 c 0.07968,-0.2605 0.747939,-4.10504 1.485026,-8.54342 0.737086,-4.43839 1.40526,-8.28265 1.48483,-8.54281 0.126744,-0.41439 0.425698,-0.46358 2.412281,-0.39687 l 2.26761,0.0761 1.7735,4.6302 c 0.97542,2.54662 1.87235,4.60913 1.99317,4.58335 0.12081,-0.0258 1.05266,-2.13913 2.07076,-4.69635 l 1.85109,-4.6495 h 2.32181 2.3218 l 0.152,0.8599 c 0.3421,1.93528 2.51781,16.41992 2.51781,16.76208 0,0.28724 -0.49642,0.36969 -2.2257,0.36969 h -2.2257 l -0.15282,-0.99219 c -0.0841,-0.5457 -0.33279,-2.48046 -0.55274,-4.29947 -0.71522,-5.91481 -0.62694,-5.79273 -1.9131,-2.64584 -0.44607,1.09141 -1.37161,3.32383 -2.05676,4.96094 l -1.24572,2.97656 -0.96529,-0.003 -0.96529,-0.003 -1.95567,-4.95829 c -1.07561,-2.72705 -2.048429,-5.06194 -2.16181,-5.18864 -0.113382,-0.1267 -0.282964,0.29002 -0.376849,0.92604 -0.09389,0.63602 -0.436025,2.94234 -0.760309,5.12515 l -0.589609,3.96875 -2.324594,0.0768 c -2.130096,0.0703 -2.312474,0.0371 -2.179726,-0.39688 z m 25.562107,-8.54342 v -8.99584 h 2.24896 2.24896 v 8.99584 8.99583 h -2.24896 -2.24896 z m 11.24479,1.91832 v -7.0777 l -1.98437,-0.13229 -1.98438,-0.13229 v -1.78641 -1.78641 l 6.28386,4.7e-4 6.28385,4.7e-4 v 1.85209 1.85208 h -1.98437 -1.98438 v 7.14375 7.14375 l -2.3151,1e-4 -2.31511,9e-5 z m -22.35729,-22.84096 c -4.43838,-2.58506 -8.192056,-4.70952 -8.341494,-4.72103 -0.149437,-0.0115 -0.923343,0.47335 -1.719791,1.07746 -1.315775,0.99802 -6.275132,3.57874 -6.454953,3.35899 -0.337494,-0.41244 -1.518105,-2.6508 -1.439572,-2.72933 0.05508,-0.0551 1.289935,-0.69586 2.744124,-1.42395 1.632128,-0.81718 3.267443,-1.8881 4.273094,-2.79832 l 1.629115,-1.47452 h 17.565627 17.56562 l 1.04589,1.07427 c 1.37282,1.41008 3.49581,2.80539 5.65354,3.71572 0.95829,0.40429 1.7381,0.83139 1.73291,0.94911 -0.005,0.11772 -0.29701,0.78 -0.6485,1.47175 -0.52381,1.0309 -0.73683,1.22915 -1.18119,1.0993 -1.24655,-0.36426 -4.57635,-2.14823 -5.98213,-3.20497 -0.83148,-0.62503 -1.59266,-1.13643 -1.69151,-1.13643 -0.0988,0 -3.65439,2.00469 -7.90119,4.45487 -4.24681,2.45017 -7.95959,4.57464 -8.25063,4.72103 -0.4431,0.22288 -1.84163,-0.49826 -8.59896,-4.43395 z m -9.260415,-14.00236 v -1.5875 h 17.462495 17.4625 v 1.5875 1.5875 h -17.4625 -17.462495 z m 0,-6.87917 v -1.5875 h 17.462495 17.4625 v 1.5875 1.5875 h -17.4625 -17.462495 z m -1.955022,-3.78231 c -3.997741,-4.61275 -12.86277,-6.14824 -20.693146,-4.53819 -0.761532,0.15659 -0.872219,0.0796 -1.551281,-1.07914 -0.565398,-0.96478 -0.653578,-1.29576 -0.388813,-1.4594 0.898267,-0.55516 4.128247,-0.91463 8.184096,-0.91083 3.650452,0.003 4.753116,0.10208 6.730985,0.60228 4.287607,1.08434 10.483051,4.52519 10.058638,5.58641 -0.09278,0.23199 -0.30676,1.07665 -0.475511,1.87701 l -0.306821,1.71971 z m 36.800967,-0.37793 c -0.54375,-2.07316 -0.56297,-2.03897 2.14054,-3.80789 4.85348,-3.17565 11.50673,-4.60115 17.71695,-3.79596 4.30462,0.55812 4.07505,0.43917 3.98098,2.06263 -0.0917,1.58314 0.17502,1.51643 -3.91567,0.97919 -6.52525,-0.85697 -13.9282,1.16622 -17.97445,4.91234 l -1.49375,1.38295 z"
             id="path12"
             sodipodi:nodetypes="cssccscscccsssccssscccssssccccccccccccccccccccccccccccccsssscsscccsscsssssssccccccccccccccccccssscccsscsssscsscs" /><path
             style="fill:#a85898"
             d="m 107.25981,203.67592 c 4.92194,-0.0403 12.89912,-0.0403 17.72709,5e-5 4.82796,0.0404 0.80092,0.0734 -8.94898,0.0733 -9.74989,-3e-5 -13.70004,-0.0331 -8.77811,-0.0734 z m -6.03855,-14.08916 c 0.26339,-0.29104 0.53842,-0.52916 0.61118,-0.52916 0.0728,0 -0.0832,0.23812 -0.3466,0.52916 -0.26339,0.29105 -0.53842,0.52917 -0.61118,0.52917 -0.0728,0 0.0832,-0.23812 0.3466,-0.52917 z m 0.92604,-0.89364 c 0,-0.0549 0.20836,-0.2633 0.46302,-0.46302 0.41964,-0.32911 0.429,-0.31975 0.0999,0.0999 -0.34564,0.44073 -0.56291,0.58089 -0.56291,0.36313 z m -21.368343,-12.26938 0.06291,-10.2526 0.07251,10.10659 0.07252,10.1066 1.385932,0.0971 1.385931,0.0971 -1.521354,0.0489 -1.521354,0.049 z m 33.869903,7.15981 c 0.25466,-0.0666 0.67138,-0.0666 0.92604,0 0.25466,0.0666 0.0463,0.121 -0.46302,0.121 -0.50932,0 -0.71768,-0.0545 -0.46302,-0.121 z m -9.98802,-5.10929 -3.70417,-0.15513 3.62241,-0.0547 c 2.19066,-0.0331 3.68704,0.0499 3.78593,0.20986 0.0899,0.14552 0.12673,0.23996 0.0818,0.20986 -0.045,-0.0301 -1.74864,-0.12453 -3.78593,-0.20986 z"
             id="path11" /><path
             style="fill:#912878"
             d="m 97.781674,191.40525 c -3.12159,-2.47552 -8.247924,-4.28622 -13.549355,-4.78584 l -3.251687,-0.30645 0.01126,-10.07091 0.01125,-10.07091 8.389266,-4.81305 c 4.614097,-2.64717 8.57789,-4.88476 8.80843,-4.97241 0.26285,-0.0999 3.691572,1.72926 9.194272,4.90509 l 8.7751,5.06447 v 8.54223 8.54223 l -1.78593,0.18317 c -0.98227,0.10075 -2.03794,0.2426 -2.34594,0.31523 -0.48063,0.11334 -0.79341,-0.28324 -2.20699,-2.79818 l -1.64699,-2.93024 h -3.5477 c -2.43048,0 -3.54769,0.0928 -3.54769,0.2947 0,0.16209 0.26004,0.7574 0.57788,1.32292 l 0.57789,1.02821 h 2.18857 2.18856 l 1.09363,1.87256 c 0.6015,1.0299 1.05324,1.90509 1.00386,1.94485 -0.0494,0.0398 -0.98274,0.49914 -2.07414,1.02082 -2.65242,1.26784 -4.92948,3.14918 -6.21771,5.13715 -0.582085,0.89826 -1.117867,1.63101 -1.190627,1.62834 -0.07276,-0.003 -0.727604,-0.47697 -1.455209,-1.05398 z"
             id="path10" /><path
             style="fill:#58585a"
             d="m 79.967231,260.95812 c 0.440945,-1.20054 1.058621,-2.89718 1.372614,-3.77031 0.47668,-1.32551 0.673098,-1.5875 1.190184,-1.5875 0.554463,0 0.755041,0.37295 1.916195,3.56294 0.7133,1.95962 1.296908,3.65626 1.296908,3.77031 0,0.11406 -0.278545,0.20738 -0.618988,0.20738 -0.403498,0 -0.72391,-0.23028 -0.92037,-0.66146 -0.267442,-0.58697 -0.462658,-0.66146 -1.733578,-0.66146 -1.307018,0 -1.446708,0.0578 -1.598213,0.66146 -0.129522,0.51606 -0.335327,0.66146 -0.936243,0.66146 h -0.770227 z m 3.45373,-0.34571 c 0.177723,-0.17772 -0.620252,-2.76314 -0.852829,-2.76314 -0.232576,0 -1.030552,2.58542 -0.852828,2.76314 0.081,0.081 0.464773,0.14728 0.852828,0.14728 0.388056,0 0.771829,-0.0663 0.852829,-0.14728 z m 3.380505,-1.30793 v -3.83646 h 1.702567 c 2.243969,0 2.997618,0.3154 3.473156,1.45353 0.337272,0.8072 0.33852,1.04525 0.0096,1.83246 -0.469244,1.12306 -1.104652,1.47651 -2.654389,1.47651 h -1.208019 v 1.45521 c 0,1.37583 -0.03608,1.45521 -0.661458,1.45521 h -0.661458 z m 3.808158,-0.99219 c 0.471651,-0.75259 -0.116896,-1.37622 -1.387709,-1.47042 l -1.097533,-0.0814 v 1.08876 1.08876 l 1.097533,-0.0814 c 0.691483,-0.0513 1.204888,-0.25266 1.387709,-0.54438 z m 2.806425,0.99219 v -3.83646 h 1.869477 c 1.888989,0 2.759355,0.2692 3.347629,1.03541 0.346859,0.45177 0.442136,1.82792 0.174789,2.52461 -0.245717,0.64033 -1.52334,1.20248 -2.732923,1.20248 h -1.071472 v 1.45521 c 0,1.44051 -0.008,1.45521 -0.79375,1.45521 h -0.79375 z m 4.072742,-0.99219 c 0.471651,-0.75259 -0.116896,-1.37622 -1.38771,-1.47042 l -1.097532,-0.0814 v 1.08876 1.08876 l 1.097532,-0.0814 c 0.691484,-0.0513 1.204888,-0.25266 1.38771,-0.54438 z m 6.246009,0.99219 v -3.83646 h 0.64786 0.64787 l 0.0797,3.83687 0.0797,3.83687 -0.72761,-4.1e-4 -0.7276,-4.1e-4 z m 3.175,0 v -3.83646 h 0.64021 c 0.51636,0 0.91302,0.43496 2.05052,2.24852 0.77567,1.23669 1.49961,2.24872 1.60875,2.24896 0.10914,2.4e-4 0.19843,-1.01159 0.19843,-2.24852 0,-2.2225 0.008,-2.24896 0.66146,-2.24896 h 0.66146 v 3.85403 3.85404 l -0.70291,-0.0837 c -0.55967,-0.0667 -0.97752,-0.52648 -2.05052,-2.25648 -0.74119,-1.19502 -1.43691,-2.17729 -1.54605,-2.18282 -0.10914,-0.006 -0.19843,1.00198 -0.19843,2.23891 0,2.2225 -0.008,2.24896 -0.66146,2.24896 h -0.66146 z m 8.09173,0.19812 c -0.66691,-2.00108 -1.21257,-3.7354 -1.21257,-3.85403 0,-0.11863 0.32367,-0.17802 0.71926,-0.13198 0.66042,0.0769 0.774,0.27312 1.38838,2.39883 0.36802,1.2733 0.75322,2.3151 0.85599,2.3151 0.10277,0 0.50845,-1.07156 0.9015,-2.38125 0.67507,-2.2494 0.75499,-2.38125 1.44351,-2.38125 h 0.72888 l -0.90214,2.84427 c -0.49617,1.56435 -1.04002,3.29076 -1.20855,3.83646 -0.23572,0.76325 -0.44432,0.99219 -0.90406,0.99219 -0.5327,0 -0.72939,-0.39533 -1.8102,-3.63834 z m 5.6666,-0.19812 v -3.83646 h 2.64583 2.64584 v 0.66146 c 0,0.64256 -0.0529,0.66146 -1.85209,0.66146 h -1.85208 v 0.92604 0.92604 h 1.5875 c 1.51695,0 1.5875,0.0294 1.5875,0.66146 0,0.63206 -0.0705,0.66146 -1.5875,0.66146 h -1.5875 v 0.91395 0.91395 l 1.78594,0.0782 c 1.62274,0.0711 1.79366,0.13263 1.87048,0.67354 0.0829,0.58355 0.0319,0.59532 -2.57968,0.59532 h -2.66424 z m 6.61458,0 v -3.83646 h 0.64021 c 0.51637,0 0.91302,0.43496 2.05052,2.24852 0.77568,1.23669 1.49961,2.24872 1.60875,2.24896 0.10914,2.4e-4 0.19844,-1.01159 0.19844,-2.24852 0,-2.2225 0.008,-2.24896 0.66146,-2.24896 h 0.66146 v 3.83646 3.83646 h -0.6599 c -0.53717,0 -0.94314,-0.43058 -2.18281,-2.31511 l -1.52292,-2.3151 -0.0764,2.3151 c -0.0747,2.26258 -0.0912,2.31511 -0.72761,2.31511 h -0.65116 z m 8.99584,0.66146 v -3.175 h -1.05834 c -0.9525,0 -1.05833,-0.0661 -1.05833,-0.66146 v -0.66146 h 2.77813 2.77812 v 0.66146 c 0,0.59531 -0.10583,0.66146 -1.05833,0.66146 h -1.05834 v 3.175 3.175 h -0.66145 -0.66146 z m 4.84998,2.54211 c -0.66237,-0.56974 -0.74595,-0.83439 -0.83777,-2.65268 -0.11938,-2.36404 0.23427,-3.44999 1.30358,-4.00295 1.24205,-0.64229 2.55294,-0.49387 3.43581,0.389 0.73565,0.73564 0.7734,0.88516 0.7734,3.06306 0,2.1779 -0.0377,2.32741 -0.7734,3.06306 -1.02747,1.02747 -2.7964,1.09118 -3.90162,0.14051 z m 2.82293,-0.95461 c 0.41734,-0.41733 0.52917,-0.88195 0.52917,-2.19839 0,-0.94007 -0.14447,-1.84853 -0.33073,-2.0797 -0.61254,-0.76024 -1.24783,-0.78199 -1.96262,-0.0672 -0.6173,0.6173 -0.6668,0.82812 -0.56604,2.41057 0.0833,1.30803 0.23303,1.82376 0.60943,2.099 0.6816,0.49839 1.09786,0.45865 1.72079,-0.16428 z m 3.43959,-2.27698 v -3.86447 l 2.14258,0.0973 c 1.86539,0.0847 2.2077,0.1777 2.64584,0.71878 0.72537,0.89581 0.66418,2.4361 -0.12628,3.1787 l -0.62953,0.59141 0.75703,1.37294 c 0.41636,0.75512 0.75918,1.46224 0.76181,1.57138 0.003,0.10914 -0.32262,0.1981 -0.72281,0.19768 -0.61699,-6.4e-4 -0.84827,-0.23191 -1.52135,-1.52135 -0.56356,-1.07963 -0.94721,-1.5206 -1.32292,-1.5206 -0.45861,0 -0.53974,0.20284 -0.60851,1.52135 -0.0739,1.41654 -0.12402,1.52136 -0.72761,1.52136 h -0.64825 z m 3.80816,-0.96417 c 0.47165,-0.75259 -0.1169,-1.37622 -1.38771,-1.47042 l -1.09754,-0.0814 v 1.08876 1.08876 l 1.09754,-0.0814 c 0.69148,-0.0513 1.20488,-0.25266 1.38771,-0.54438 z M 98.552092,210.39116 c -0.07646,-0.19924 -0.102487,-1.00291 -0.05784,-1.78593 l 0.08117,-1.42367 17.528648,-0.068 17.52864,-0.068 v 1.85397 1.85397 h -17.4708 c -14.54375,0 -17.494095,-0.0607 -17.60982,-0.36227 z m -0.10896,-8.50127 v -1.71979 h 17.594788 17.59479 v 1.71979 1.71979 H 116.03792 98.443132 Z m 12.170828,-9.12813 c -0.96807,-0.96807 -0.53407,-2.45665 0.81048,-2.77992 0.91078,-0.21897 1.9015,0.58752 1.9015,1.54791 0,1.54071 -1.65255,2.29144 -2.71198,1.23201 z m 8.73125,0 c -0.73782,-0.73782 -0.60134,-1.78006 0.32309,-2.46718 0.60548,-0.45005 0.82697,-0.48638 1.39296,-0.2285 0.37015,0.16865 0.81099,0.60949 0.97964,0.97964 0.25788,0.56599 0.22155,0.78748 -0.2285,1.39296 -0.68712,0.92443 -1.72936,1.06091 -2.46719,0.32308 z"
             id="path9" /></g></g></g><rect
       style="fill:#ffffff;fill-opacity:1;stroke:none;stroke-width:0.812465;stroke-dasharray:none"
       id="rect45"
       width="0.57746124"
       height="29.104166"
       x="0"
       y="0" /><rect
       style="fill:#ffffff;fill-opacity:1;stroke:none;stroke-width:1.11466;stroke-dasharray:none"
       id="rect46"
       width="0.51114529"
       height="61.888351"
       x="-1.7763568e-15"
       y="-62.177082"
       transform="rotate(90)" /><rect
       style="fill:#797979;fill-opacity:1;stroke:none;stroke-width:1.20627;stroke-dasharray:none"
       id="rect47"
       width="0.60141939"
       height="61.599621"
       x="28.502747"
       y="-62.177082"
       transform="rotate(90)" /><rect
       style="fill:#797979;fill-opacity:1;stroke:none;stroke-width:0.829024;stroke-dasharray:none"
       id="rect83"
       width="0.60141939"
       height="29.09536"
       x="-31.14402"
       y="-29.155142"
       transform="scale(-1)" /><g
       id="g82"
       transform="matrix(1,0,0,0.98975765,-43.812329,55.256226)"><rect
         style="fill:#d05f2d;fill-opacity:1;stroke:none;stroke-width:0.375045;stroke-dasharray:none"
         id="rect48"
         width="31.232908"
         height="29.104166"
         x="74.828751"
         y="-55.54966" /><rect
         style="fill:#de8f6c;fill-opacity:1;stroke:none;stroke-width:0.816024;stroke-dasharray:none"
         id="rect79"
         width="0.57746124"
         height="29.359737"
         x="74.828751"
         y="-55.805233" /><rect
         style="fill:#de8f6c;fill-opacity:1;stroke:none;stroke-width:0.788184;stroke-dasharray:none"
         id="rect80"
         width="0.51114529"
         height="30.944174"
         x="55.294086"
         y="-106.06166"
         transform="matrix(0,-1,-1,0,0,0)" /><rect
         style="fill:#a64c24;fill-opacity:1;stroke:none;stroke-width:0.85096;stroke-dasharray:none"
         id="rect81"
         width="0.60141939"
         height="30.655443"
         x="-27.046915"
         y="-106.06166"
         transform="rotate(90)" /><rect
         style="fill:#a64c24;fill-opacity:1;stroke:none;stroke-width:0.828506;stroke-dasharray:none"
         id="rect82"
         width="0.60141939"
         height="29.059027"
         x="105.46024"
         y="-55.805233" /></g><ellipse
       style="fill:#de8f6c;fill-opacity:1;stroke:none;stroke-width:0.529167;stroke-dasharray:none"
       id="path82"
       ry="4.556963"
       rx="2.8099606"
       cy="13.704539"
       cx="29.018888" /><path
       id="ellipse83"
       style="fill:#a64c24;stroke-width:0.529167"
       d="m 31.417869,14.359236 c 0,2.516741 0.529733,4.442696 -1.684278,4.449309 -2.435176,0.0073 -3.243845,-4.164502 -2.653646,-4.726876 1.822037,-1.736136 1.258062,-4.5569635 2.809961,-4.5569631 1.551899,-4e-7 1.527963,2.3177881 1.527963,4.8345301 z"
       sodipodi:nodetypes="sssss" /><ellipse
       style="fill:#d05f2d;fill-opacity:1;stroke:none;stroke-width:0.529167;stroke-dasharray:none"
       id="ellipse82"
       ry="4.556963"
       rx="2.8099606"
       cy="13.704539"
       cx="29.536798" /><g
       id="g1"
       transform="translate(1.8358192,1.5078472)"><path
         id="path83"
         style="opacity:0.837329;mix-blend-mode:normal;fill:#000000;fill-opacity:1;stroke:none;stroke-width:0.10695;stroke-dasharray:none;filter:url(#filter111)"
         d="m 43.197403,4.6658917 c -1.032315,-1e-6 -1.87482,0.843022 -1.87482,1.875338 0,0.247439 0.04859,0.48356 0.136425,0.700216 l -0.0057,0.00465 c -1.002072,0.798665 -1.474756,1.639082 -1.486214,2.457214 -0.01146,0.8181323 0.432246,1.5512263 1.085722,2.1445723 0.710156,0.644814 1.678494,1.155337 2.709395,1.490348 -0.475541,0.538106 -0.813683,1.122295 -1.044898,1.728577 -0.681693,-0.167055 -1.436743,-0.340886 -2.125451,-0.439766 -0.728697,-0.104622 -1.369438,-0.156822 -1.855701,0.07803 -0.243131,0.117424 -0.446917,0.363756 -0.47439,0.656291 -0.02747,0.292534 0.07827,0.591411 0.27957,0.939477 0.348144,0.601986 1.016867,1.375427 2.130619,2.420007 l -1.859318,-0.02946 -0.06253,0.02739 c -0.323152,0.140656 -0.535853,0.345909 -0.650607,0.562756 -0.114754,0.216848 -0.139682,0.419597 -0.173632,0.568441 l -0.08578,0.378788 7.90391,0.0739 0.09612,-0.115239 c 0.125902,-0.152591 0.203901,-0.342176 0.177767,-0.531233 -0.02613,-0.189058 -0.138512,-0.322684 -0.244429,-0.415996 -0.0022,-0.002 -0.0045,-0.0037 -0.0067,-0.0057 h 2.353344 c -0.0022,0.0019 -0.0045,0.0037 -0.0067,0.0057 -0.105916,0.09331 -0.217779,0.226938 -0.243912,0.415996 -0.02613,0.189057 0.05341,0.378642 0.179317,0.531233 l 0.0956,0.115239 7.90236,-0.0739 -0.08578,-0.378788 c -0.03395,-0.148844 -0.05888,-0.351593 -0.173633,-0.568441 -0.114755,-0.216847 -0.327454,-0.4221 -0.650607,-0.562756 l -0.06253,-0.02739 -1.859318,0.02946 c 1.114175,-1.044602 1.784539,-1.818013 2.132686,-2.420007 0.201296,-0.348066 0.304976,-0.646943 0.277503,-0.939477 -0.02747,-0.292535 -0.231259,-0.538867 -0.47439,-0.656291 -0.486261,-0.234848 -1.127003,-0.182648 -1.855701,-0.07803 -0.686118,0.09851 -1.436654,0.271223 -2.11615,0.437699 -0.231177,-0.602496 -0.571119,-1.182768 -1.050581,-1.719275 1.047801,-0.334639 2.034004,-0.850798 2.75487,-1.505334 0.653475,-0.593348 1.099248,-1.326439 1.087789,-2.1445723 -0.01098,-0.783886 -0.446991,-1.587985 -1.364774,-2.356446 0.114801,-0.242424 0.179317,-0.512771 0.179317,-0.797884 0,-1.032316 -0.843022,-1.875338 -1.875338,-1.875338 -0.812074,0 -1.506312,0.521913 -1.765784,1.246953 l -0.114721,0.095084 c -0.120747,0.100211 -0.248813,0.188433 -0.381889,0.265617 -0.322133,0.160093 -0.648327,0.276433 -0.972551,0.349333 -0.653272,0.117495 -1.360013,0.039723 -2.032434,-0.213424 -0.19092,-0.09617 -0.375875,-0.2134 -0.55087,-0.358634 l -0.111622,-0.094051 c -0.247196,-0.747842 -0.95443,-1.290878 -1.782837,-1.290878 z M 42.623795,15.327257 c -0.01166,0.03548 -0.0221,0.07137 -0.03307,0.10697 -0.02637,-0.02356 -0.0556,-0.04416 -0.08733,-0.06149 z"
         transform="matrix(0.80804158,0,0,0.80804158,7.0770705,0.70900295)" /><g
         id="g44"
         transform="matrix(0.9567281,0,0,0.9567281,15.99558,-31.231999)"><g
           id="g43"><path
             style="fill:#80b237;fill-opacity:1;stroke:none;stroke-width:0.341399;stroke-dasharray:none"
             d="m 137.5851,172.29344 c -3.01115,0.19421 -6.02606,0.71734 -8.91771,1.57663 -1.38287,0.66664 -0.48406,2.377 -0.4991,3.52935 0.26698,2.41551 -0.0311,4.88595 0.22964,7.27744 0.58449,1.20053 2.24635,0.48309 3.32371,0.67842 1.36768,-0.48844 2.12381,-1.94697 3.22853,-2.85072 2.24127,-2.45747 5.05948,-4.69945 6.1046,-7.97636 0.49914,-2.07825 -2.07484,-2.26709 -3.46967,-2.23476 z"
             id="path37"
             transform="scale(0.26458333)" /><path
             style="fill:#80b237;fill-opacity:1;stroke:none;stroke-width:0.341399;stroke-dasharray:none"
             d="m 90.973814,172.30277 c -1.222228,-0.0361 -3.12102,0.26051 -3.126268,1.83602 0.33942,2.36125 2.204567,4.14408 3.708806,5.86648 1.682664,1.73348 3.355435,3.51067 5.130613,5.13149 0.967559,0.42486 2.149548,0.17963 3.181963,0.16403 1.404052,-0.41105 0.610492,-2.18925 0.727732,-3.25548 -0.26664,-2.47135 0.4113,-4.85681 0.37874,-7.31007 -0.29527,-1.36632 -2.053798,-1.12596 -3.08758,-1.48781 -2.284978,-0.41262 -4.57894,-0.96818 -6.914006,-0.94466 z"
             id="path38"
             transform="scale(0.26458333)" /><path
             style="fill:#80b237;fill-opacity:1;stroke:none;stroke-width:0.170699;stroke-dasharray:none"
             d="m 89.600216,185.50098 c -0.902027,-0.0899 -1.806255,0.3135 -2.301913,1.0804 -0.573766,0.58084 -0.244769,1.67637 0.592148,1.74714 3.016151,0.0383 6.034857,0.059 9.045272,0.0807 0.864376,-0.048 1.060245,-1.03072 0.900076,-1.73049 -0.05676,-0.7649 -0.857737,-1.1084 -1.538629,-1.0517 -2.230517,-0.0895 -4.464824,-0.11285 -6.696954,-0.12602 z"
             id="path39"
             transform="scale(0.26458333)" /><path
             style="fill:#80b237;fill-opacity:1;stroke:none;stroke-width:0.170699;stroke-dasharray:none"
             d="m 136.12199,185.53498 c -1.38802,0.0557 -2.79539,-0.022 -4.17197,0.11958 -0.85862,0.16259 -0.90197,1.20928 -0.85126,1.9027 0.0765,0.79728 1.00124,0.94187 1.65321,0.84599 2.79735,-0.0563 5.60271,0.003 8.39498,-0.15058 0.8559,-0.20385 0.99149,-1.37479 0.3274,-1.87569 -0.49367,-0.53254 -1.10685,-1.06948 -1.89097,-0.89529 -1.1538,0.0178 -2.30759,0.0355 -3.46139,0.0533 z"
             id="path42"
             transform="scale(0.26458333)" /><g
             id="g42"><path
               style="fill:#aad667;fill-opacity:1;stroke:none;stroke-width:0.341399;stroke-dasharray:none"
               d="m 120.71219,145.57764 c -1.92954,0.99521 -4.05926,1.70727 -6.25887,1.49862 -1.69662,0.15903 -3.3346,-0.25129 -4.86526,-0.95985 -0.89006,-0.58103 -2.30051,-0.19928 -2.2251,1.01519 -0.78661,2.27661 -3.21167,3.93272 -5.64075,3.49067 -1.41446,-0.11219 -2.41617,-1.22411 -3.517558,-1.93356 -1.209056,-0.0855 -1.817773,1.32238 -2.65996,2.03392 -1.52056,1.65719 -2.673828,3.99273 -2.049394,6.26087 1.675739,1.01967 3.703093,1.36794 5.572071,1.95871 6.172481,1.62616 12.573991,2.67472 18.971721,2.14606 5.9707,-0.27269 11.87318,-1.8021 17.33771,-4.15896 0.94568,-0.8111 0.30309,-2.28384 -0.002,-3.31179 -0.78448,-1.81982 -2.06705,-3.51798 -3.70771,-4.60789 -1.29886,0.20415 -2.20977,1.45346 -3.57736,1.58331 -2.73709,0.6025 -5.66934,-1.5142 -5.94581,-4.30383 -0.20468,-0.62551 -0.80257,-0.95605 -1.43161,-0.71147 z m -9.41614,8.02754 c 0.74557,0.42599 -0.38651,2.19715 -0.19504,0.45109 0.069,-0.15113 -0.16597,-0.59712 0.19504,-0.45109 z m 6.74263,0.0854 c 0.90437,0.39944 -0.43118,2.09975 -0.23907,0.4395 0.07,-0.18944 -0.151,-0.58007 0.23907,-0.4395 z"
               id="path35"
               transform="scale(0.26458333)" /><path
               style="fill:#aad667;fill-opacity:1;stroke:none;stroke-width:0.341399;stroke-dasharray:none"
               d="m 133.67469,157.97935 c -2.54629,0.65428 -4.91288,1.63166 -7.50897,2.12934 -4.35793,1.03149 -8.88697,1.38484 -13.32904,1.14929 -5.8084,-0.0187 -11.41427,-1.49401 -16.976928,-3.02491 -1.075354,-0.40364 -1.90675,1.09125 -1.036199,1.81868 3.786227,4.51984 9.679077,6.6939 15.380957,7.45944 0.5154,0.0742 1.07975,0.0729 1.57197,0.11002 -0.378,0.39309 -1.43337,-0.0381 -2.07585,-0.0243 -1.26539,-0.0279 -2.57229,-0.79777 -3.78084,-0.3642 -2.99367,2.98826 -4.97102,7.15958 -4.85005,11.44578 0.008,1.99918 -0.2317,4.03919 -0.024,6.01228 0.46547,1.20509 1.90105,0.32086 2.85782,0.50142 1.09752,-0.13724 3.01245,0.5042 3.22932,-1.05182 -0.23106,-2.8613 -0.29259,-6.2315 2.00738,-8.3426 0.69727,-0.6137 -0.1704,0.42504 -0.42574,0.63579 -1.75781,2.15613 -1.51817,5.15515 -1.43647,7.74222 0.3887,1.35843 2.12221,0.67284 3.16446,0.83809 3.44818,-0.0368 6.92046,0.0733 10.35373,-0.0545 1.27521,-0.39446 0.81966,-2.04569 0.98366,-3.0981 0.0447,-2.25445 -0.58996,-4.68626 -2.35433,-6.20822 0.32135,-0.26171 0.78786,0.67226 1.079,0.91074 1.68289,2.21988 1.34462,5.16007 1.36336,7.75201 0.3552,1.38849 2.10682,0.71069 3.15969,0.87702 0.96711,-0.18384 2.35991,0.70087 2.89622,-0.45128 0.15634,-2.53892 -0.0492,-5.13139 -0.14377,-7.68739 -0.1621,-3.69203 -2.11168,-7.13651 -4.68979,-9.69402 -1.15535,-0.60966 -2.47234,0.19022 -3.71149,0.21104 -0.64537,0.0754 -1.34977,0.19908 -1.96194,0.19137 0.29338,-0.41993 1.33064,-0.13944 1.90737,-0.33507 4.62322,-0.67452 9.27274,-2.2921 12.88398,-5.33005 0.89913,-0.93701 2.19184,-1.71234 2.57132,-3.00955 0.0557,-0.60353 -0.50381,-1.16069 -1.10487,-1.10855 z"
               id="path36"
               transform="scale(0.26458333)" /><path
               style="fill:#aad667;fill-opacity:1;stroke:none;stroke-width:0.170699;stroke-dasharray:none"
               d="m 98.470754,185.74819 c -0.729837,0.44105 -0.611076,1.42909 -0.437251,2.13941 0.547074,0.84399 1.662035,0.45162 2.498397,0.55392 2.88974,0.0112 5.78159,0.0934 8.67025,0.0327 0.77555,-0.10798 1.15297,-1.14251 0.56518,-1.69503 -0.57767,-0.41527 -1.19838,-0.91395 -1.92177,-1.01186 -2.99735,-0.0287 -6.00048,-0.11183 -8.994227,-0.10668 -0.12686,0.0292 -0.253719,0.0584 -0.380579,0.0875 z"
               id="path40"
               transform="scale(0.26458333)" /><path
               style="fill:#aad667;fill-opacity:1;stroke:none;stroke-width:0.170699;stroke-dasharray:none"
               d="m 125.53745,185.70168 c -1.54731,0.0477 -3.10919,-0.0131 -4.64743,0.10233 -0.63082,0.20789 -1.24552,0.58231 -1.73469,1.03325 -0.553,0.62756 -0.0103,1.69227 0.81606,1.65362 3.3387,0.0583 6.67823,-0.0562 10.01692,-0.0905 0.7997,-0.0351 1.0719,-0.87382 1.03167,-1.55516 0.12995,-0.80328 -0.68654,-1.36513 -1.42704,-1.19752 -1.35183,0.018 -2.70366,0.036 -4.05549,0.054 z"
               id="path41"
               transform="scale(0.26458333)" /></g></g><path
           style="fill:none;fill-opacity:1;stroke:#000000;stroke-width:0.529167;stroke-dasharray:none"
           d="m 32.27906,38.299197 c -1.23386,0.786334 -2.662591,0.907665 -3.725725,0.02535 -1.35433,0.348204 -2.082007,0.687839 -2.738956,1.012711 -3.232606,2.576433 1.033876,5.029864 3.997238,5.049922"
           id="path17"
           sodipodi:nodetypes="cccc" /><circle
           style="fill:#f4d103;fill-opacity:1;stroke:#000000;stroke-width:0.508853;stroke-dasharray:none"
           id="path16"
           cx="27.123501"
           cy="38.53532"
           r="1.3297156" /><path
           style="fill:none;fill-opacity:1;stroke:#000000;stroke-width:0.529167;stroke-dasharray:none"
           d="m 28.336486,38.292598 c 1.23386,0.786334 2.818395,0.879114 3.881529,-0.0032 1.35433,0.348204 1.926203,0.71639 2.583152,1.041262 3.232606,2.576433 -1.033876,5.029864 -3.997238,5.049922"
           id="path18"
           sodipodi:nodetypes="cccc" /><circle
           style="fill:#f4d103;fill-opacity:1;stroke:#000000;stroke-width:0.508853;stroke-dasharray:none"
           id="circle16"
           cx="33.637165"
           cy="38.53532"
           r="1.3297156" /><path
           style="fill:none;fill-opacity:1;stroke:#000000;stroke-width:0.596986;stroke-dasharray:none"
           d="m 29.437711,40.410604 v 0.813625"
           id="path19" /><path
           style="fill:none;fill-opacity:1;stroke:#000000;stroke-width:0.596986;stroke-dasharray:none"
           d="m 31.231463,40.417864 v 0.813625"
           id="path20" /><path
           style="fill:none;fill-opacity:1;stroke:#000000;stroke-width:0.529167;stroke-dasharray:none"
           d="m 24.820299,41.637693 c 3.667314,1.307285 7.351558,1.513897 11.064088,-0.118454"
           id="path21"
           sodipodi:nodetypes="cc" /><path
           style="fill:none;fill-opacity:1;stroke:#000000;stroke-width:0.596986;stroke-dasharray:none"
           d="m 26.698582,38.513952 h 0.813625"
           id="path22" /><path
           style="fill:none;fill-opacity:1;stroke:#000000;stroke-width:0.596986;stroke-dasharray:none"
           d="m 33.192292,38.513952 h 0.813625"
           id="path23" /><g
           id="g27"><path
             style="fill:none;fill-opacity:1;stroke:#000000;stroke-width:0.529167;stroke-dasharray:none"
             d="m 28.036083,44.201432 c -1.419266,1.388221 -1.564808,3.217348 -1.313421,4.842001 l 1.682459,-0.01405 c -0.123554,-1.054456 -0.202739,-2.091439 0.744969,-2.724036"
             id="path24"
             sodipodi:nodetypes="cccc" /><path
             style="fill:none;fill-opacity:1;stroke:#000000;stroke-width:0.529167;stroke-dasharray:none"
             d="m 26.755791,46.018016 c -2.394812,-0.591236 -5.991125,-1.351509 -1.119994,3.038085 l 1.047619,-0.01616 z"
             id="path25"
             sodipodi:nodetypes="cccc" /><path
             style="fill:none;fill-opacity:1;stroke:#000000;stroke-width:0.529167;stroke-dasharray:none"
             d="m 28.641908,49.144705 c 0.298251,0.215461 0.817893,0.37264 0.508031,0.748189 l -6.220761,-0.05918 c 0.06387,-0.280015 0.08086,-0.569243 0.543977,-0.770819 z"
             id="path26"
             sodipodi:nodetypes="ccccc" /><path
             style="fill:none;fill-opacity:1;stroke:#000000;stroke-width:0.529167;stroke-dasharray:none"
             d="m 25.880356,49.186615 0.04038,0.607706"
             id="path27"
             sodipodi:nodetypes="cc" /></g><g
           id="g31"
           transform="matrix(-1,0,0,1,60.574346,0)"><path
             style="fill:none;fill-opacity:1;stroke:#000000;stroke-width:0.529167;stroke-dasharray:none"
             d="m 28.014542,44.226946 c -1.419266,1.388221 -1.543267,3.191834 -1.29188,4.816487 l 1.682459,-0.01405 c -0.123554,-1.054456 -0.202739,-2.091439 0.744969,-2.724036"
             id="path28"
             sodipodi:nodetypes="cccc" /><path
             style="fill:none;fill-opacity:1;stroke:#000000;stroke-width:0.529167;stroke-dasharray:none"
             d="m 26.755791,46.018016 c -2.394812,-0.591236 -5.991125,-1.351509 -1.119994,3.038085 l 1.047619,-0.01616 z"
             id="path29"
             sodipodi:nodetypes="cccc" /><path
             style="fill:none;fill-opacity:1;stroke:#000000;stroke-width:0.529167;stroke-dasharray:none"
             d="m 28.641908,49.144705 c 0.298251,0.215461 0.817893,0.37264 0.508031,0.748189 l -6.220761,-0.05918 c 0.06387,-0.280015 0.08086,-0.569243 0.543977,-0.770819 z"
             id="path30"
             sodipodi:nodetypes="ccccc" /><path
             style="fill:none;fill-opacity:1;stroke:#000000;stroke-width:0.529167;stroke-dasharray:none"
             d="m 25.880356,49.186615 0.04038,0.607706"
             id="path31"
             sodipodi:nodetypes="cc" /></g><path
           style="fill:none;fill-opacity:1;stroke:#000000;stroke-width:0.543571;stroke-dasharray:none"
           d="m 28.535502,48.984468 h 3.553823"
           id="path32" /></g><path
         d="m 39.879388,20.609119 q 0,0.618074 -0.0304,0.876449 -0.02786,0.255843 -0.182383,0.468622 -0.151986,0.21278 -0.412894,0.326769 -0.260908,0.113989 -0.607942,0.113989 -0.329302,0 -0.592743,-0.10639 -0.260909,-0.108922 -0.420494,-0.324235 -0.159584,-0.215313 -0.189982,-0.468623 -0.0304,-0.253308 -0.0304,-0.886581 v -0.701667 q 0,-0.618074 0.02786,-0.873916 0.0304,-0.258376 0.182383,-0.471156 0.154519,-0.21278 0.415427,-0.326769 0.260909,-0.113988 0.607942,-0.113988 0.329302,0 0.590211,0.108922 0.263441,0.10639 0.423026,0.321703 0.159585,0.215313 0.189982,0.468622 0.0304,0.253309 0.0304,0.886582 z m -1.066431,-1.347605 q 0,-0.28624 -0.03293,-0.364765 -0.0304,-0.08106 -0.129188,-0.08106 -0.08359,0 -0.129187,0.06586 -0.04306,0.06333 -0.04306,0.379963 v 1.915018 q 0,0.357165 0.02786,0.440757 0.0304,0.08359 0.136787,0.08359 0.108924,0 0.13932,-0.09626 0.0304,-0.09626 0.0304,-0.458489 z m 1.464127,-1.053766 h 1.806095 v 0.820721 h -0.739663 v 0.777659 h 0.658603 v 0.780193 h -0.658603 v 1.722502 h -1.066432 z m 2.06447,0 h 1.806094 v 0.820721 h -0.739663 v 0.777659 h 0.658604 v 0.780193 h -0.658604 v 1.722502 h -1.066431 z m 3.130902,0 v 3.280354 h 0.648471 v 0.820721 h -1.714904 v -4.101075 z m 1.973278,0 v 4.101075 h -1.066432 v -4.101075 z m 2.809199,0 v 4.101075 h -0.934711 l -0.554747,-1.864356 v 1.864356 h -0.891648 v -4.101075 h 0.891648 l 0.59781,1.846624 v -1.846624 z m 0.428093,0 h 1.778231 v 0.820721 h -0.711799 v 0.777659 h 0.666203 v 0.780193 h -0.666203 v 0.901781 h 0.782725 v 0.820721 h -1.849157 z"
         id="text83"
         style="font-stretch:condensed;font-size:6.42018px;font-family:Impact;-inkscape-font-specification:'Impact Condensed';text-align:center;text-anchor:middle;fill:#5b0aa4;stroke-width:0.353713"
         aria-label="OFFLINE" /></g></g></svg>
