<?xml version="1.0" encoding="UTF-8" standalone="no"?>
<!-- Created with Inkscape (http://www.inkscape.org/) -->

<svg
   xmlns:dc="http://purl.org/dc/elements/1.1/"
   xmlns:cc="http://creativecommons.org/ns#"
   xmlns:rdf="http://www.w3.org/1999/02/22-rdf-syntax-ns#"
   xmlns:svg="http://www.w3.org/2000/svg"
   xmlns="http://www.w3.org/2000/svg"
   xmlns:sodipodi="http://sodipodi.sourceforge.net/DTD/sodipodi-0.dtd"
   xmlns:inkscape="http://www.inkscape.org/namespaces/inkscape"
   width="235"
   height="110"
   id="svg10140"
   sodipodi:version="0.32"
   inkscape:version="0.92.1 unknown"
   version="1.0"
   sodipodi:docname="zero-lliurex-dvdcss.svg"
   inkscape:export-filename="/home/aberlanas/svn/lliurex-zero-installers/trunk/dvdcss.install/usr/share/banners/lliurex-neu/dvdcss.png"
   inkscape:export-xdpi="90"
   inkscape:export-ydpi="90">
  <defs
     id="defs10142" />
  <sodipodi:namedview
     id="base"
     pagecolor="#ffffff"
     bordercolor="#666666"
     borderopacity="1.0"
     inkscape:pageopacity="0.0"
     inkscape:pageshadow="2"
     inkscape:zoom="2.2262618"
     inkscape:cx="-37.59019"
     inkscape:cy="14.610176"
     inkscape:document-units="px"
     inkscape:current-layer="layer1"
     inkscape:window-width="1920"
     inkscape:window-height="1031"
     inkscape:window-x="1920"
     inkscape:window-y="0"
     width="175.57mm"
     height="82.8mm"
     units="px"
     showguides="true"
     inkscape:guide-bbox="true"
     showgrid="false"
     inkscape:window-maximized="1"
     inkscape:showpageshadow="false"
     borderlayer="true">
    <sodipodi:guide
       orientation="0,1"
       position="92.152347,21.682906"
       id="guide3013"
       inkscape:locked="false" />
  </sodipodi:namedview>
  <metadata
     id="metadata10145">
    <rdf:RDF>
      <cc:Work
         rdf:about="">
        <dc:format>image/svg+xml</dc:format>
        <dc:type
           rdf:resource="http://purl.org/dc/dcmitype/StillImage" />
        <dc:title></dc:title>
      </cc:Work>
    </rdf:RDF>
  </metadata>
  <g
     inkscape:label="Ebene 1"
     inkscape:groupmode="layer"
     id="layer1"
     transform="translate(-290.23947,-3962.2451)">
    <rect
       style="fill:#f5f5f5;fill-opacity:1;stroke:none;stroke-width:1.06666672"
       id="rect2985"
       width="250.66667"
       height="117.33334"
       x="281.40613"
       y="3958.5784" />
    <g
       id="g111551"
       transform="matrix(0.44696923,0,0,0.44696923,49.511173,2306.8291)">
      <path
         style="fill:#ffffff;fill-rule:nonzero;stroke:none;stroke-width:1.06666672"
         d="m 891.83425,3768.8868 c -16.18814,-1.6808 -49.87196,-5.1674 -90.09334,-5.1674 -40.90623,0 -75.89756,2.3657 -107.02864,7.2845 -24.34446,3.8603 -33.55927,6.3507 -33.55927,17.4333 v 76.8316 c 0,9.3395 5.85261,12.5149 31.50465,17.1846 14.94288,2.6772 48.93804,7.2223 108.83422,7.2223 43.02316,0 72.28638,-2.8021 90.59146,-4.9188 40.90622,-4.732 49.74741,-8.1564 49.74741,-19.4881 v -76.8939 c 0,-10.8958 -6.91106,-15.0052 -49.99649,-19.4881 z m 42.46277,96.382 c 0,4.1093 -3.11306,7.3469 -43.08537,11.9545 -18.11827,2.1166 -47.13246,4.8565 -89.71978,4.8565 -59.27358,0 -92.83284,-4.4207 -107.52674,-7.0978 -25.27842,-4.6075 -25.27842,-6.9738 -25.27842,-9.7132 v -76.8316 c 0,-3.6112 1.30753,-5.8525 27.20854,-9.9618 30.75751,-4.8565 65.31301,-7.2224 105.84566,-7.2224 39.84782,0 73.22033,3.4867 89.28392,5.1675 43.27219,4.483 43.27219,8.4678 43.27219,11.9544 v 76.8939"
         class="ps01"
         id="path111300"
         inkscape:connector-curvature="0" />
      <path
         style="fill:#ffffff;fill-rule:nonzero;stroke:none;stroke-width:1.06666672"
         d="m 746.14083,3791.1771 c -13.01281,0 -54.16805,0 -54.16805,0 v 42.9605 c 0,0 40.28361,0 54.04351,0 13.82222,0 15.81462,-8.1564 15.81462,-12.3275 0,-4.1716 0,-11.8298 0,-16.8732 0,-5.0435 -2.67728,-13.7598 -15.69008,-13.7598 z m 3.98475,26.2123 c 0,2.1789 -1.36975,6.4751 -10.46001,6.4751 -9.21482,0 -35.98752,0 -35.98752,0 v -22.4144 c 0,0 27.39536,0 36.04978,0 8.59216,0 10.39775,4.5453 10.39775,7.1601 0,2.6772 0,6.5997 0,8.7792"
         class="ps01"
         id="path111302"
         inkscape:connector-curvature="0" />
      <path
         style="fill:#ffffff;fill-rule:nonzero;stroke:none;stroke-width:1.06666672"
         d="m 767.43449,3798.1504 h 14.07125 v 35.9872 h -14.07125 z"
         class="ps01"
         id="path111304"
         inkscape:connector-curvature="0" />
      <path
         style="fill:#ffffff;fill-rule:nonzero;stroke:none;stroke-width:1.06666672"
         d="m 828.20235,3798.1504 -15.69007,25.7764 -15.93912,-25.7764 h -14.00898 c 0,0 10.89586,20.1103 16.4995,27.9553 5.60357,7.8451 9.3393,8.0319 12.88826,8.0319 3.54891,0 7.6582,0 13.44859,-8.0319 4.29611,-5.977 11.82982,-18.305 15.50327,-24.4064 l -4.48286,-3.5489 h -8.21859"
         class="ps01"
         id="path111306"
         inkscape:connector-curvature="0" />
      <path
         style="fill:#94b5df;fill-rule:nonzero;stroke:none;stroke-width:1.06666672"
         d="m 856.96746,3798.1504 h -20.54652 l 23.84639,18.9899 10.89591,-7.4714 -14.19578,-11.5185"
         class="ps02"
         id="path111308"
         inkscape:connector-curvature="0" />
      <path
         style="fill:#94b5df;fill-rule:nonzero;stroke:none;stroke-width:1.06666672"
         d="m 829.13626,3842.8545 h 5.41682 c 0,0 18.11827,-9.8995 33.37251,-19.6127 l -7.65826,-6.1015 c -12.14112,9.2145 -31.13107,25.7142 -31.13107,25.7142"
         class="ps02"
         id="path111310"
         inkscape:connector-curvature="0" />
      <path
         style="fill:#4f86c5;fill-rule:nonzero;stroke:none;stroke-width:1.06666672"
         d="m 871.16324,3809.6689 -10.89591,7.4714 21.41821,16.9973 h 19.61255 l -22.41438,-18.1804 c 0.62266,-0.4359 1.18299,-0.8718 1.74337,-1.3077 11.89205,-8.8409 36.29882,-30.0725 36.29882,-30.0725 h -4.85644 c 0,0 -26.58594,15.9392 -40.90622,25.0919"
         class="ps03"
         id="path111312"
         inkscape:connector-curvature="0" />
      <path
         style="fill:#ffffff;fill-rule:nonzero;stroke:none;stroke-width:1.06666672"
         d="m 700.93851,3860.9104 -3.48669,-11.3317 h -6.03943 l 6.03943,17.745 h 5.91493 l 5.85261,-17.745 h -4.73189 l -3.54896,11.3317"
         class="ps01"
         id="path111314"
         inkscape:connector-curvature="0" />
      <path
         style="fill:#ffffff;fill-rule:nonzero;stroke:none;stroke-width:1.06666672"
         d="m 803.48427,3851.7581 c -1.9924,-1.8058 -4.17157,-2.1794 -6.91111,-2.1794 h -6.97337 v 17.745 h 7.34694 c 2.61501,0 4.98098,-0.5604 6.84884,-2.4286 1.74332,-1.6807 2.61501,-4.1093 2.61501,-6.4128 0,-2.5526 -0.93391,-4.9811 -2.92631,-6.7242 z m -4.04702,10.0241 c -0.31135,0.4981 -0.68493,0.8718 -1.18299,1.1208 -0.74715,0.3737 -1.24526,0.3114 -1.9924,0.3114 h -0.80941 v -9.5887 h 0.6226 c 1.36979,0 2.24148,-0.062 3.11312,0.9964 0.80941,0.9962 1.12072,2.5525 1.12072,3.7357 0,1.1831 -0.18677,2.3657 -0.87164,3.4244"
         class="ps01"
         id="path111316"
         inkscape:connector-curvature="0" />
      <path
         style="fill:none;stroke:#ffffff;stroke-width:5.82773733;stroke-linecap:butt;stroke-linejoin:miter;stroke-miterlimit:2;stroke-dasharray:none"
         d="m 748.13323,3867.3237 v -17.745"
         class="ps04 ps10"
         id="path111318"
         inkscape:connector-curvature="0" />
      <path
         style="fill:#ffffff;fill-rule:nonzero;stroke:none;stroke-width:1.06666672"
         d="m 843.58108,3867.3237 h 14.13351 v -4.2339 h -8.52989 v -2.8644 h 6.91107 v -3.9848 h -6.91107 v -2.5526 h 8.52989 v -4.1093 h -14.13351 v 17.745"
         class="ps01 ps10"
         id="path111320"
         inkscape:connector-curvature="0" />
      <path
         style="fill:#ffffff;fill-rule:nonzero;stroke:none;stroke-width:1.06666672"
         d="m 903.22822,3849.3296 c -5.72812,0 -9.028,3.8603 -9.028,9.1527 0,5.0435 3.29988,9.09 9.028,9.09 5.72812,0 9.028,-4.0465 9.028,-9.09 0,-5.2924 -3.29988,-9.1527 -9.028,-9.1527 z m 0,14.1962 c -2.615,0 -2.80177,-3.3004 -2.80177,-4.9812 0,-1.7435 0.24904,-5.168 2.80177,-5.168 2.55274,0 2.80182,3.4245 2.80182,5.168 0,1.6808 -0.18681,4.9812 -2.80182,4.9812"
         class="ps01 ps10"
         id="path111322"
         inkscape:connector-curvature="0" />
      <path
         style="fill:#ffffff;fill-rule:nonzero;stroke:none;stroke-width:1.06666672"
         d="m 907.96017,3814.5249 c 0,-2.6148 -3.05085,-2.6148 -3.61123,-2.6148 h -4.85644 v 8.8414 h 2.80181 v -3.2376 h 1.36975 l 1.4943,3.2376 h 2.80181 l -1.74337,-3.8603 c 0.49811,-0.1868 1.74337,-0.6849 1.74337,-2.3663 z m -4.6074,1.1832 h -1.05846 v -2.1167 h 1.24521 c 1.24526,0 1.68111,0.3736 1.68111,0.9335 0,1.0587 -1.12073,1.1832 -1.86786,1.1832"
         class="ps01 ps10"
         id="path111324"
         inkscape:connector-curvature="0" />
      <path
         style="fill:#ffffff;fill-rule:nonzero;stroke:none;stroke-width:1.06666672"
         d="m 903.53952,3807.3026 c -5.29228,0 -9.58833,4.0471 -9.58833,8.9659 0,4.9812 4.29605,8.966 9.58833,8.966 5.29229,0 9.52612,-3.9848 9.52612,-8.966 0,-4.9188 -4.23383,-8.9659 -9.52612,-8.9659 z m 0,15.5033 c -3.79798,0 -6.91105,-2.8639 -6.91105,-6.5374 0,-3.5489 3.11307,-6.4751 6.91105,-6.4751 3.86027,0 6.97339,2.9262 6.97339,6.4751 0,3.6735 -3.11312,6.5374 -6.97339,6.5374"
         class="ps01 ps10"
         id="path111326"
         inkscape:connector-curvature="0" />
      <path
         style="fill:#000000;fill-rule:nonzero;stroke:none;stroke-width:1.06666672"
         d="m 892.27009,3764.4666 c -16.25041,-1.6813 -50.05876,-5.1679 -90.52918,-5.1679 -41.09298,0 -76.33336,2.3657 -107.71352,7.3468 -21.66723,3.4245 -37.35726,5.9147 -37.35726,21.7917 v 76.8316 c 0,13.6975 10.77133,17.1223 35.11583,21.4802 18.49184,3.3627 52.48701,7.347 109.70591,7.347 43.20992,0 72.65995,-2.8017 91.08953,-4.9184 21.66723,-2.5531 33.43477,-4.6698 40.65718,-7.3469 5.54137,-2.0549 13.0128,-6.0398 13.0128,-16.5619 v -76.8939 c 0,-15.6278 -13.44864,-19.6744 -53.98129,-23.9083 z m 49.56065,100.8022 c 0,11.3317 -8.84119,14.7561 -49.74741,19.4881 -18.30508,2.1167 -47.5683,4.9188 -90.59146,4.9188 -59.89618,0 -93.89134,-4.5451 -108.83422,-7.2223 -25.65204,-4.6697 -31.50465,-7.8451 -31.50465,-17.1846 v -76.8316 c 0,-11.0826 9.21481,-13.573 33.55927,-17.4333 31.13108,-4.9188 66.12241,-7.2845 107.02864,-7.2845 40.22138,0 73.9052,3.4866 90.09334,5.1674 43.08543,4.4829 49.99649,8.5923 49.99649,19.4881 v 76.8939"
         class="ps05 ps10"
         id="path111328"
         inkscape:connector-curvature="0" />
      <path
         style="fill:#000000;fill-rule:nonzero;stroke:none;stroke-width:1.06666672"
         d="m 796.07505,3853.6257 h -0.6226 v 9.5887 h 0.80941 c 0.74714,0 1.24525,0.062 1.9924,-0.3114 0.49806,-0.249 0.87164,-0.6227 1.18299,-1.1208 0.68487,-1.0587 0.87164,-2.2413 0.87164,-3.4244 0,-1.1832 -0.31131,-2.7395 -1.12072,-3.7357 -0.87164,-1.0586 -1.74333,-0.9964 -3.11312,-0.9964"
         class="ps07 ps10"
         id="path111338"
         inkscape:connector-curvature="0" />
      <path
         style="fill:#000000;fill-rule:nonzero;stroke:none;stroke-width:1.06666672"
         d="m 903.22822,3853.3766 c -2.55273,0 -2.80177,3.4245 -2.80177,5.168 0,1.6808 0.18677,4.9812 2.80177,4.9812 2.61501,0 2.80182,-3.3004 2.80182,-4.9812 0,-1.7435 -0.24908,-5.168 -2.80182,-5.168"
         class="ps07 ps12"
         id="path111342"
         inkscape:connector-curvature="0" />
      <path
         style="fill:#000000;fill-rule:nonzero;stroke:none;stroke-width:1.06666672"
         d="m 739.72783,3801.4501 c -8.65442,0 -36.04978,0 -36.04978,0 v 22.4144 c 0,0 26.7727,0 35.98752,0 9.09026,0 10.46001,-4.2962 10.46001,-6.4751 0,-2.1795 0,-6.102 0,-8.7792 0,-2.6148 -1.80559,-7.1601 -10.39775,-7.1601"
         class="ps07 ps12"
         id="path111346"
         inkscape:connector-curvature="0" />
      <path
         style="fill:#231e1f;fill-rule:nonzero;stroke:none;stroke-width:1.06666672"
         d="m 903.53952,3813.5914 h -1.24521 v 2.1167 h 1.05846 c 0.74713,0 1.86786,-0.1245 1.86786,-1.1832 0,-0.5599 -0.43585,-0.9335 -1.68111,-0.9335"
         class="ps07 ps12"
         id="path111350"
         inkscape:connector-curvature="0" />
      <path
         style="fill:none;stroke:#231e1f;stroke-width:0.24904861;stroke-linecap:butt;stroke-linejoin:miter;stroke-miterlimit:4;stroke-dasharray:none"
         d="m 903.53952,3813.5914 h -1.24521 v 2.1167 h 1.05846 c 0.74713,0 1.86786,-0.1245 1.86786,-1.1832 0,-0.5599 -0.43585,-0.9335 -1.68111,-0.9335 z"
         class="ps06 ps12"
         id="path111352"
         inkscape:connector-curvature="0" />
      <path
         style="fill:#000000;fill-rule:nonzero;stroke:none;stroke-width:1.06666672"
         d="m 891.02483,3776.4205 c -16.06359,-1.6808 -49.4361,-5.1675 -89.28392,-5.1675 -40.53265,0 -75.08815,2.3659 -105.84566,7.2224 -25.90101,4.1093 -27.20854,6.3506 -27.20854,9.9618 v 76.8316 c 0,2.7394 0,5.1057 25.27842,9.7132 14.6939,2.6771 48.25316,7.0978 107.52674,7.0978 42.58732,0 71.60151,-2.7399 89.71978,-4.8565 39.97231,-4.6076 43.08537,-7.8452 43.08537,-11.9545 v -76.8939 c 0,-3.4866 0,-7.4714 -43.27219,-11.9544 z m -187.65808,90.9032 h -5.91493 l -6.03943,-17.745 h 6.03943 l 3.48669,11.3317 3.54896,-11.3317 h 4.73189 z m 41.84012,-17.745 h 5.7904 v 17.745 h -5.7904 z m 16.62404,-27.7686 c 0,4.1711 -1.9924,12.3275 -15.81462,12.3275 -13.7599,0 -54.04351,0 -54.04351,0 v -42.9605 c 0,0 41.15524,0 54.16805,0 13.0128,0 15.69008,8.7163 15.69008,13.7598 0,5.0434 0,12.7016 0,16.8732 z m 5.60358,-23.6597 h 14.13352 v 35.9872 h -14.13352 z m 36.36108,66.7447 c -1.86786,1.8682 -4.23383,2.4286 -6.84884,2.4286 h -7.34694 v -17.745 h 6.97337 c 2.73954,0 4.91871,0.3736 6.91111,2.1794 1.9924,1.7431 2.92631,4.1716 2.92631,6.7242 0,2.3035 -0.87169,4.7321 -2.61501,6.4128 z m 53.91902,-11.2071 h -8.52989 v 2.5526 h 6.91107 v 3.9848 h -6.91107 v 2.8644 h 8.52989 v 4.2339 h -14.13351 v -17.745 h 14.13351 z m 45.51363,13.8843 c -5.72812,0 -9.028,-4.0465 -9.028,-9.09 0,-5.2924 3.29988,-9.1527 9.028,-9.1527 5.72812,0 9.028,3.8603 9.028,9.1527 0,5.0435 -3.29988,9.09 -9.028,9.09 z m 0.3113,-42.3378 c -5.29228,0 -9.58833,-3.9848 -9.58833,-8.966 0,-4.9188 4.29605,-8.9659 9.58833,-8.9659 5.29229,0 9.52612,4.0471 9.52612,8.9659 0,4.9812 -4.23383,8.966 -9.52612,8.966 z m -22.91244,-10.585 c -0.56038,0.4359 -1.12071,0.8718 -1.74337,1.3077 l 22.41438,18.1804 h -19.61255 l -13.75995,-10.8958 c -15.25424,9.7132 -33.37251,19.6127 -33.37251,19.6127 h -5.41682 c 0,0 18.98995,-16.4997 31.13107,-25.7142 l -19.36353,-15.441 c -3.67345,6.1014 -11.20716,18.4294 -15.50327,24.4064 -5.79039,8.0319 -9.89968,8.0319 -13.44859,8.0319 -3.54896,0 -7.28469,-0.1868 -12.88826,-8.0319 -5.60364,-7.845 -16.4995,-27.9553 -16.4995,-27.9553 h 14.00898 l 15.93912,25.7764 15.69007,-25.7764 h 28.76511 l 14.19578,11.5185 c 14.32028,-9.1527 40.90622,-25.0919 40.90622,-25.0919 h 4.85644 c 0,0 -24.40677,21.2316 -36.29882,30.0725"
         class="ps07 ps12"
         id="path111354"
         inkscape:connector-curvature="0" />
      <path
         style="fill:#000000;fill-rule:nonzero;stroke:none;stroke-width:1.06666672"
         d="m 903.53952,3809.7934 c -3.79798,0 -6.91105,2.9262 -6.91105,6.4751 0,3.6735 3.11307,6.5374 6.91105,6.5374 3.86027,0 6.97339,-2.8639 6.97339,-6.5374 0,-3.5489 -3.11312,-6.4751 -6.97339,-6.4751 z m 4.42065,10.9581 h -2.80181 l -1.4943,-3.2376 h -1.36975 v 3.2376 h -2.80181 v -8.8414 h 4.85644 c 0.56038,0 3.61123,0 3.61123,2.6148 0,1.6814 -1.24526,2.1795 -1.74337,2.3663 l 1.74337,3.8603"
         class="ps07 ps12"
         id="path111358"
         inkscape:connector-curvature="0" />
    </g>
  </g>
</svg>
