<?xml version="1.0" encoding="UTF-8" standalone="no"?>
<!-- Created with Inkscape (http://www.inkscape.org/) -->

<svg
   xmlns:dc="http://purl.org/dc/elements/1.1/"
   xmlns:cc="http://creativecommons.org/ns#"
   xmlns:rdf="http://www.w3.org/1999/02/22-rdf-syntax-ns#"
   xmlns:svg="http://www.w3.org/2000/svg"
   xmlns="http://www.w3.org/2000/svg"
   xmlns:xlink="http://www.w3.org/1999/xlink"
   xmlns:sodipodi="http://sodipodi.sourceforge.net/DTD/sodipodi-0.dtd"
   xmlns:inkscape="http://www.inkscape.org/namespaces/inkscape"
   width="235"
   height="110"
   id="svg2"
   version="1.1"
   inkscape:version="0.48.3.1 r9886"
   sodipodi:docname="lliurex-lab-setup.svg">
  <defs
     id="defs4">
    <linearGradient
       inkscape:collect="always"
       id="linearGradient7331">
      <stop
         style="stop-color:#ffffff;stop-opacity:1"
         offset="0"
         id="stop7333" />
      <stop
         style="stop-color:#f5f5f5;stop-opacity:1"
         offset="1"
         id="stop7335" />
    </linearGradient>
    <radialGradient
       inkscape:collect="always"
       xlink:href="#linearGradient7331"
       id="radialGradient7337"
       cx="25.449562"
       cy="1018.4064"
       fx="25.449562"
       fy="1018.4064"
       r="117.5"
       gradientTransform="matrix(-0.01187713,-1.3690206,1.4373195,-0.01242947,-1293.7675,1083.1939)"
       gradientUnits="userSpaceOnUse" />
    <linearGradient
       y2="-74.328"
       x2="29.839"
       gradientTransform="scale(1.0189,0.9814)"
       y1="-64.578"
       gradientUnits="userSpaceOnUse"
       xlink:href="#linearGradient9171"
       x1="22.235"
       id="linearGradient2374" />
    <linearGradient
       y2="-60.323"
       x2="28.947"
       gradientTransform="scale(0.91051,1.0983)"
       y1="-68.063"
       gradientUnits="userSpaceOnUse"
       xlink:href="#linearGradient9171"
       x1="38.696"
       id="linearGradient2373" />
    <linearGradient
       y2="-65.391"
       x2="14.759"
       gradientTransform="scale(1.1521,0.86795)"
       y1="-76.386"
       gradientUnits="userSpaceOnUse"
       xlink:href="#linearGradient9171"
       x1="24.321"
       id="linearGradient2372" />
    <linearGradient
       y2="-6.8783"
       x2="88.669"
       gradientTransform="scale(0.95421,1.048)"
       y1="-6.3585"
       gradientUnits="userSpaceOnUse"
       x1="89.202"
       id="linearGradient2371">
      <stop
         offset="0"
         stop-color="#fff"
         id="stop7301" />
      <stop
         offset="1"
         stop-opacity="0"
         stop-color="#fff"
         id="stop7302" />
    </linearGradient>
    <linearGradient
       y2="-17.167"
       x2="75.682"
       gradientTransform="scale(0.98568,1.0145)"
       y1="-4.4481"
       gradientUnits="userSpaceOnUse"
       xlink:href="#linearGradient6053"
       x1="88.667"
       id="linearGradient2370" />
    <linearGradient
       y2="-57.829"
       x2="22.69"
       gradientTransform="scale(1.0122,0.98792)"
       y1="-77.68"
       gradientUnits="userSpaceOnUse"
       xlink:href="#linearGradient9171"
       x1="39.07"
       id="linearGradient2369" />
    <linearGradient
       y2="-16.187"
       x2="60.567"
       gradientTransform="scale(1.0029,0.99712)"
       y1="-29.097"
       gradientUnits="userSpaceOnUse"
       xlink:href="#linearGradient7925"
       x1="71.452"
       id="linearGradient2368" />
    <linearGradient
       y2="60.886"
       x2="46.099"
       gradientTransform="scale(1.0181,0.98223)"
       y1="89.566"
       gradientUnits="userSpaceOnUse"
       xlink:href="#linearGradient6053"
       x1="31.621"
       id="linearGradient10443" />
    <linearGradient
       y2="37.499"
       x2="63.214"
       gradientTransform="scale(1.0181,0.98223)"
       y1="22.576"
       gradientUnits="userSpaceOnUse"
       xlink:href="#linearGradient6053"
       x1="67.512"
       id="linearGradient10439" />
    <linearGradient
       y2="24.944"
       x2="25.701"
       gradientTransform="scale(0.89256,1.1204)"
       y1="51.917"
       gradientUnits="userSpaceOnUse"
       xlink:href="#linearGradient7925"
       x1="68.289"
       id="linearGradient10435" />
    <linearGradient
       id="linearGradient6053">
      <stop
         offset="0"
         stop-color="#eeeeef"
         id="stop6054" />
      <stop
         offset="1"
         stop-opacity="0"
         stop-color="#eeeeef"
         id="stop6055" />
    </linearGradient>
    <linearGradient
       id="linearGradient7925">
      <stop
         offset="0"
         stop-color="#d0d0d0"
         id="stop7926" />
      <stop
         offset="1"
         stop-color="#a6a3a3"
         id="stop7927" />
    </linearGradient>
    <linearGradient
       id="linearGradient9171">
      <stop
         offset="0"
         stop-color="#fded00"
         id="stop9172" />
      <stop
         offset="1"
         stop-color="#eaa600"
         id="stop9173" />
    </linearGradient>
    <linearGradient
       inkscape:collect="always"
       xlink:href="#linearGradient7925"
       id="linearGradient3117"
       gradientUnits="userSpaceOnUse"
       gradientTransform="scale(1.0029,0.99712)"
       x1="71.452"
       y1="-29.097"
       x2="60.567"
       y2="-16.187" />
    <linearGradient
       inkscape:collect="always"
       xlink:href="#linearGradient9171"
       id="linearGradient3119"
       gradientUnits="userSpaceOnUse"
       gradientTransform="scale(1.0122,0.98792)"
       x1="39.07"
       y1="-77.68"
       x2="22.69"
       y2="-57.829" />
    <linearGradient
       inkscape:collect="always"
       xlink:href="#linearGradient6053"
       id="linearGradient3121"
       gradientUnits="userSpaceOnUse"
       gradientTransform="scale(0.98568,1.0145)"
       x1="88.667"
       y1="-4.4481"
       x2="75.682"
       y2="-17.167" />
    <linearGradient
       inkscape:collect="always"
       xlink:href="#linearGradient2371"
       id="linearGradient3123"
       gradientUnits="userSpaceOnUse"
       gradientTransform="scale(0.95421,1.048)"
       x1="89.202"
       y1="-6.3585"
       x2="88.669"
       y2="-6.8783" />
    <linearGradient
       inkscape:collect="always"
       xlink:href="#linearGradient9171"
       id="linearGradient3125"
       gradientUnits="userSpaceOnUse"
       gradientTransform="scale(1.1521,0.86795)"
       x1="24.321"
       y1="-76.386"
       x2="14.759"
       y2="-65.391" />
    <linearGradient
       inkscape:collect="always"
       xlink:href="#linearGradient9171"
       id="linearGradient3127"
       gradientUnits="userSpaceOnUse"
       gradientTransform="scale(0.91051,1.0983)"
       x1="38.696"
       y1="-68.063"
       x2="28.947"
       y2="-60.323" />
    <linearGradient
       inkscape:collect="always"
       xlink:href="#linearGradient9171"
       id="linearGradient3129"
       gradientUnits="userSpaceOnUse"
       gradientTransform="scale(1.0189,0.9814)"
       x1="22.235"
       y1="-64.578"
       x2="29.839"
       y2="-74.328" />
    <linearGradient
       inkscape:collect="always"
       xlink:href="#linearGradient9171"
       id="linearGradient3132"
       gradientUnits="userSpaceOnUse"
       gradientTransform="matrix(1.0189,0,0,0.9814,187.0368,1179.6355)"
       x1="22.235"
       y1="-64.578"
       x2="29.839"
       y2="-74.328" />
    <linearGradient
       inkscape:collect="always"
       xlink:href="#linearGradient9171"
       id="linearGradient3135"
       gradientUnits="userSpaceOnUse"
       gradientTransform="matrix(0.91051,0,0,1.0983,187.0368,1179.6355)"
       x1="38.696"
       y1="-68.063"
       x2="28.947"
       y2="-60.323" />
    <linearGradient
       inkscape:collect="always"
       xlink:href="#linearGradient9171"
       id="linearGradient3138"
       gradientUnits="userSpaceOnUse"
       gradientTransform="matrix(1.1521,0,0,0.86795,187.0368,1179.6355)"
       x1="24.321"
       y1="-76.386"
       x2="14.759"
       y2="-65.391" />
    <linearGradient
       inkscape:collect="always"
       xlink:href="#linearGradient2371"
       id="linearGradient3141"
       gradientUnits="userSpaceOnUse"
       gradientTransform="matrix(0.95421,0,0,1.048,187.0368,1179.6355)"
       x1="89.202"
       y1="-6.3585"
       x2="88.669"
       y2="-6.8783" />
    <linearGradient
       inkscape:collect="always"
       xlink:href="#linearGradient6053"
       id="linearGradient3145"
       gradientUnits="userSpaceOnUse"
       gradientTransform="matrix(0.98568,0,0,1.0145,187.0368,1179.6355)"
       x1="88.667"
       y1="-4.4481"
       x2="75.682"
       y2="-17.167" />
    <linearGradient
       inkscape:collect="always"
       xlink:href="#linearGradient9171"
       id="linearGradient3148"
       gradientUnits="userSpaceOnUse"
       gradientTransform="matrix(1.0122,0,0,0.98792,187.0368,1179.6355)"
       x1="39.07"
       y1="-77.68"
       x2="22.69"
       y2="-57.829" />
    <linearGradient
       inkscape:collect="always"
       xlink:href="#linearGradient7925"
       id="linearGradient3151"
       gradientUnits="userSpaceOnUse"
       gradientTransform="matrix(1.0029,0,0,0.99712,187.0368,1179.6355)"
       x1="71.452"
       y1="-29.097"
       x2="60.567"
       y2="-16.187" />
    <linearGradient
       inkscape:collect="always"
       xlink:href="#linearGradient7925"
       id="linearGradient3153"
       gradientUnits="userSpaceOnUse"
       gradientTransform="scale(0.89256,1.1204)"
       x1="68.289"
       y1="51.917"
       x2="25.701"
       y2="24.944" />
    <linearGradient
       inkscape:collect="always"
       xlink:href="#linearGradient6053"
       id="linearGradient3155"
       gradientUnits="userSpaceOnUse"
       gradientTransform="scale(1.0181,0.98223)"
       x1="67.512"
       y1="22.576"
       x2="63.214"
       y2="37.499" />
    <linearGradient
       inkscape:collect="always"
       xlink:href="#linearGradient6053"
       id="linearGradient3157"
       gradientUnits="userSpaceOnUse"
       gradientTransform="scale(1.0181,0.98223)"
       x1="31.621"
       y1="89.566"
       x2="46.099"
       y2="60.886" />
    <linearGradient
       inkscape:collect="always"
       xlink:href="#linearGradient6053"
       id="linearGradient3160"
       gradientUnits="userSpaceOnUse"
       gradientTransform="matrix(1.0051701,0.16173537,-0.15603706,0.96975568,194.4561,1079.6029)"
       x1="31.621"
       y1="89.566"
       x2="46.099"
       y2="60.886" />
    <linearGradient
       inkscape:collect="always"
       xlink:href="#linearGradient6053"
       id="linearGradient3163"
       gradientUnits="userSpaceOnUse"
       gradientTransform="matrix(1.0051701,0.16173537,-0.15603706,0.96975568,194.4561,1079.6029)"
       x1="67.512"
       y1="22.576"
       x2="63.214"
       y2="37.499" />
    <linearGradient
       inkscape:collect="always"
       xlink:href="#linearGradient7925"
       id="linearGradient3166"
       gradientUnits="userSpaceOnUse"
       gradientTransform="matrix(0.88122449,0.14179208,-0.17798674,1.1061709,194.4561,1079.6029)"
       x1="68.289"
       y1="51.917"
       x2="25.701"
       y2="24.944" />
  </defs>
  <sodipodi:namedview
     id="base"
     pagecolor="#ffffff"
     bordercolor="#666666"
     borderopacity="1.0"
     inkscape:pageopacity="0.0"
     inkscape:pageshadow="2"
     inkscape:zoom="1.4"
     inkscape:cx="141.78952"
     inkscape:cy="85.93569"
     inkscape:document-units="px"
     inkscape:current-layer="layer1"
     showgrid="false"
     inkscape:showpageshadow="false"
     inkscape:window-width="1278"
     inkscape:window-height="962"
     inkscape:window-x="0"
     inkscape:window-y="0"
     inkscape:window-maximized="1"
     showguides="true"
     inkscape:guide-bbox="true"
     inkscape:snap-global="false">
    <sodipodi:guide
       orientation="0,1"
       position="43.035714,20"
       id="guide3054" />
  </sodipodi:namedview>
  <metadata
     id="metadata7">
    <rdf:RDF>
      <cc:Work
         rdf:about="">
        <dc:format>image/svg+xml</dc:format>
        <dc:type
           rdf:resource="http://purl.org/dc/dcmitype/StillImage" />
        <dc:title />
      </cc:Work>
    </rdf:RDF>
  </metadata>
  <g
     inkscape:label="Capa 1"
     inkscape:groupmode="layer"
     id="layer1"
     transform="translate(0,-942.36218)">
    <rect
       style="fill:url(#radialGradient7337);fill-opacity:1;stroke:none"
       id="rect2985"
       width="235"
       height="110"
       x="0"
       y="942.36218" />
    <g
       id="g4744"
       transform="translate(-1434.0448,-396.42781)" />
    <path
       style="fill:#ffc832;stroke:none"
       d="M 312.57006,996.29613 306,1006.0884 c -3.84323,6.3916 -1.23997,12.6716 5.06355,12.3032 l 36.44917,0.042 c 6.8153,-0.025 9.29934,-6.3342 4.01737,-12.9727 l -5.9842,-9.16457 -32.97583,0 z"
       id="path3181-3"
       inkscape:connector-curvature="0" />
    <g
       style="font-size:36.92588425px;font-style:normal;font-variant:normal;font-weight:normal;font-stretch:normal;line-height:125%;letter-spacing:0px;word-spacing:0px;fill:#414141;fill-opacity:1;stroke:none;font-family:ISL_Jupiter;-inkscape-font-specification:ISL_Jupiter"
       id="text3056"
       transform="translate(0,-12)">
      <path
         d="m 24.498027,1005.1166 -14.216465,0 c -0.8862239,0 -1.6247409,-0.3077 -2.2155535,-0.9232 -0.6154317,-0.5908 -0.9231471,-1.3293 -0.9231471,-2.2155 l 0,-12.37019 2.5848119,0 0,12.37019 c -2.6e-6,0.1723 0.049232,0.3077 0.1477035,0.4062 0.098466,0.098 0.2338612,0.1477 0.4061852,0.1477 l 14.216465,0 0,2.5848"
         id="path3850"
         inkscape:connector-curvature="0" />
      <path
         d="m 28.911824,989.60771 0,15.50889 -2.584812,0 0,-15.50889 2.584812,0"
         id="path3852"
         inkscape:connector-curvature="0" />
      <path
         d="m 33.311196,992.19252 -2.584812,0 0,-2.58481 2.584812,0 0,2.58481 m 0,12.92408 -2.584812,0 0,-11.81631 2.584812,0 0,11.81631"
         id="path3854"
         inkscape:connector-curvature="0" />
      <path
         d="m 48.788335,993.30029 0,8.71451 c -0.02463,0.8616 -0.332346,1.5878 -0.923147,2.1786 -0.615443,0.6155 -1.35396,0.9232 -2.215553,0.9232 l -7.385177,0 c -0.886223,0 -1.62474,-0.2954 -2.215553,-0.8862 -0.615431,-0.6155 -0.923147,-1.3663 -0.923147,-2.2525 l 0,-8.67761 2.584812,0 0,8.67761 c -3e-6,0.1723 0.04923,0.3077 0.147704,0.4062 0.09847,0.098 0.233861,0.1477 0.406184,0.1477 l 7.385177,0 c 0.17231,0 0.307705,-0.049 0.406185,-0.1477 0.09846,-0.1477 0.147692,-0.2708 0.147703,-0.3693 l 0,-8.71451 2.584812,0"
         id="path3856"
         inkscape:connector-curvature="0" />
      <path
         d="m 53.216557,1005.1166 -2.584812,0 0,-8.67761 c 0,-0.86159 0.307716,-1.60011 0.923147,-2.21555 0.590813,-0.61542 1.32933,-0.92313 2.215553,-0.92315 l 8.677583,0 0,2.58482 -8.677583,0 c -0.172323,10e-6 -0.307718,0.0615 -0.406184,0.18463 -0.09847,0.0985 -0.147706,0.22156 -0.147704,0.36925 l 0,8.67761"
         id="path3858"
         inkscape:connector-curvature="0" />
      <path
         d="m 74.786466,993.30029 c 0.861593,2e-5 1.60011,0.30773 2.215554,0.92315 0.295394,0.32004 0.516949,0.66468 0.664665,1.03393 0.172308,0.34465 0.258468,0.73852 0.258482,1.18162 l 0,0.92315 c -1.4e-5,0.86161 -0.307729,1.60013 -0.923147,2.21555 -0.615444,0.61541 -1.353961,0.92311 -2.215554,0.92311 l -7.939065,0 0,1.4771 c -2e-6,0.1723 0.04923,0.3077 0.147704,0.4062 0.09847,0.098 0.233861,0.1477 0.406185,0.1477 l 9.60073,0 0,2.5848 -9.60073,0 c -0.886224,0 -1.637049,-0.3077 -2.252479,-0.9232 -0.590815,-0.5908 -0.886222,-1.3293 -0.886222,-2.2155 l 0,-5.53891 c 0,-0.86159 0.307716,-1.60011 0.923148,-2.21555 0.590812,-0.61542 1.329329,-0.92313 2.215553,-0.92315 l 7.385176,0 m -7.791361,2.76945 c -0.09847,0.0985 -0.147706,0.22156 -0.147704,0.36925 l 0,1.47704 7.939065,0 c 0.123076,10e-6 0.258471,-0.0492 0.406185,-0.1477 0.09846,-0.1477 0.147693,-0.28309 0.147704,-0.40619 l 0,-0.92315 c -1.1e-5,-0.0985 -0.01232,-0.17231 -0.03693,-0.22155 -0.02463,-0.0492 -0.06155,-0.0985 -0.110778,-0.1477 -0.09848,-0.12308 -0.233874,-0.18462 -0.406185,-0.18463 l -7.385176,0 c -0.172324,10e-6 -0.307719,0.0615 -0.406185,0.18463"
         id="path3860"
         inkscape:connector-curvature="0" />
      <path
         d="m 81.762576,989.60771 c 1.575501,10e-6 2.91714,0.61544 4.024922,1.84629 l 3.58181,3.988 3.544885,-3.988 c 1.156997,-1.23085 2.510945,-1.84628 4.061848,-1.84629 l 1.993997,0 0,2.58481 -1.993997,0 c -0.812386,1e-5 -1.513977,0.33234 -2.104776,0.997 l -3.76644,4.17262 3.76644,4.17266 c 0.590799,0.6646 1.29239,0.997 2.104776,0.997 l 1.993997,0 0,2.5848 -1.993997,0 c -1.57552,0 -2.929468,-0.6155 -4.061848,-1.8463 l -3.544885,-3.98801 -3.58181,3.98801 c -1.083165,1.2308 -2.424804,1.8463 -4.024922,1.8463 l -1.993997,0 0,-2.5848 1.993997,0 c 0.812367,0 1.513958,-0.3324 2.104776,-0.997 l 3.76644,-4.17266 -3.76644,-4.17262 c -0.590818,-0.66466 -1.292409,-0.99699 -2.104776,-0.997 l -1.993997,0 0,-2.58481 1.993997,0"
         id="path3862"
         inkscape:connector-curvature="0" />
      <path
         d="m 124.45755,1005.1166 -14.21646,0 c -0.88623,0 -1.62474,-0.3077 -2.21556,-0.9232 -0.61543,-0.5908 -0.92314,-1.3293 -0.92314,-2.2155 l 0,-12.37019 2.58481,0 0,12.37019 c 0,0.1723 0.0492,0.3077 0.1477,0.4062 0.0985,0.098 0.23386,0.1477 0.40619,0.1477 l 14.21646,0 0,2.5848"
         id="path3864"
         inkscape:connector-curvature="0" />
      <path
         d="m 127.20969,993.30029 9.60073,0 c 0.86159,2e-5 1.6001,0.30773 2.21555,0.92315 0.29539,0.32004 0.51695,0.66468 0.66466,1.03393 0.17231,0.34465 0.25847,0.73852 0.25849,1.18162 l 0,8.67761 -10.52388,0 c -0.88623,0 -1.63705,-0.3077 -2.25248,-0.9232 -0.59082,-0.5908 -0.88622,-1.3293 -0.88622,-2.2155 l 0,-0.9232 c 0,-0.8616 0.30771,-1.60009 0.92315,-2.21552 0.59081,-0.61543 1.32932,-0.92314 2.21555,-0.92315 l 7.93906,0 0,-1.47704 c -10e-6,-0.0985 -0.0123,-0.17231 -0.0369,-0.22155 -0.0246,-0.0492 -0.0616,-0.0985 -0.11078,-0.1477 -0.0985,-0.12308 -0.23387,-0.18462 -0.40618,-0.18463 l -9.60073,0 0,-2.58482 m 2.21555,7.20051 c -0.14771,0 -0.2831,0.062 -0.40619,0.1847 -0.0985,0.098 -0.1477,0.2215 -0.1477,0.3692 l 0,0.9232 c 0,0.1723 0.0492,0.3077 0.1477,0.4062 0.0985,0.098 0.23386,0.1477 0.40619,0.1477 l 7.93906,0 0,-2.031 -7.93906,0"
         id="path3866"
         inkscape:connector-curvature="0" />
      <path
         d="m 144.37733,993.30029 7.93907,0 c 0.86159,2e-5 1.60011,0.30773 2.21555,0.92315 0.29539,0.32004 0.51695,0.66468 0.66467,1.03393 0.1723,0.34465 0.25846,0.73852 0.25848,1.18162 l 0,5.53891 c -2e-5,0.8616 -0.30773,1.6001 -0.92315,2.2155 -0.61544,0.6155 -1.35396,0.9232 -2.21555,0.9232 l -10.52388,0 0,-15.50889 2.58481,0 0,3.69258 m 0,2.58482 0,6.64669 7.93907,0 c 0.17231,0 0.3077,-0.049 0.40618,-0.1477 0.0985,-0.1477 0.14769,-0.2831 0.1477,-0.4062 l 0,-5.53891 c -1e-5,-0.0985 -0.0123,-0.17231 -0.0369,-0.22155 -0.0246,-0.0492 -0.0616,-0.0985 -0.11078,-0.1477 -0.0985,-0.12308 -0.23387,-0.18462 -0.40618,-0.18463 l -7.93907,0"
         id="path3868"
         inkscape:connector-curvature="0" />
    </g>
    <path
       inkscape:connector-curvature="0"
       id="rect3162"
       d="m 338.3753,959.2625 -20.061,0.0157 c -0.40545,0.005 -0.77509,0.23988 -0.9294,0.61458 -0.15481,0.37473 -0.0645,0.81482 0.22037,1.10317 1.53858,1.51044 2.1064,2.69248 2.36359,4.01825 0.2577,1.32627 0.15532,2.86737 0.17348,4.86989 l 0.11044,12.0711 -15.86938,23.76441 c -0.0106,0.015 -0.0212,0.032 -0.0313,0.047 -2.06808,3.4468 -2.47555,6.9769 -1.35553,9.6899 1.11347,2.703 3.83459,4.4528 7.32828,4.2713 0.0217,0 0.0409,0.01 0.0625,0 l 36.78161,0.036 c 3.75188,-0.02 6.6011,-1.881 7.56429,-4.7453 0.95814,-2.8443 0.10086,-6.4247 -2.66263,-9.9446 l -0.0454,-0.079 -15.02066,-23.00794 -0.28391,-12.08723 c -5e-4,-0.0585 9.6e-4,-0.0998 0,-0.15733 0,-0.0106 5.1e-4,-0.0217 0,-0.0317 -0.0237,-1.90116 -0.1301,-3.39637 0.0948,-4.68028 0.23298,-1.33082 0.77407,-2.51135 2.28491,-4.05018 0.28694,-0.29036 0.36359,-0.72698 0.20474,-1.10312 -0.15885,-0.37615 -0.52143,-0.61765 -0.9299,-0.61463 z m -2.01715,2.01714 c -0.77357,1.14362 -1.3308,2.27625 -1.52848,3.40384 -0.23047,1.31668 -0.17953,2.63993 -0.14171,4.05042 h -4.49117 c -0.0368,0 -0.0736,0 -0.11043,0 -0.55725,0.0302 -0.9758,0.49873 -0.94554,1.05547 0.0302,0.55723 0.49873,0.99193 1.05597,0.96167 h 4.52243 l 0.18962,7.69036 h -4.71205 c -0.0368,0 -0.0736,0 -0.11043,0 -0.55725,0.0303 -0.9758,0.49874 -0.94554,1.05548 0.0302,0.55723 0.49873,0.99192 1.05597,0.96167 h 4.75895 l 0.0474,1.87493 c 0.004,0.18457 0.0585,0.36461 0.15784,0.52043 l 3.59254,5.49974 h -4.83762 c -0.0368,0 -0.0736,0 -0.11044,0 -0.55724,0.0303 -0.97579,0.49874 -0.94554,1.05598 0.0303,0.55669 0.49875,0.99139 1.05598,0.96119 h 5.49974 c 0.2007,0 0.3878,-0.053 0.5517,-0.1579 l 3.95511,6.0671 h -4.64851 c -0.0317,0 -0.063,0 -0.0948,0 -0.55673,0.026 -0.98738,0.4992 -0.96116,1.0559 0.0263,0.5573 0.49873,0.98747 1.05597,0.96117 h 5.49975 c 0.14523,0 0.28088,-0.038 0.40947,-0.094 l 3.83156,5.86241 h -4.36712 c -0.0313,0 -0.063,0 -0.0948,0 -0.55674,0.026 -0.9874,0.4987 -0.96117,1.056 0.0263,0.5567 0.49873,0.9874 1.05598,0.9611 h 5.50175 c 0.0504,6e-4 0.1059,-0.01 0.15633,-0.015 l 0.0756,0.1104 c 0.0151,0.027 0.0353,0.053 0.0504,0.079 2.52142,3.18 3.07614,6.0998 2.39535,8.117 -0.68078,2.012 -2.5416,3.3586 -5.67321,3.3737 l -36.82902,-0.036 h -0.0636 c -2.84367,0.1664 -4.59001,-1.0489 -5.40493,-3.0258 -0.81493,-1.9768 -0.58649,-4.8512 1.22894,-7.8779 l 16.01108,-24.00103 c 0.11346,-0.16742 0.17398,-0.3651 0.17347,-0.56732 L 322.15934,969.869 c -0.0171,-1.91326 0.10641,-3.54765 -0.22037,-5.23247 -0.21583,-1.11296 -0.78012,-2.22288 -1.56026,-3.34064 l 15.97931,-0.0157 z"
       style="fill:#414141;fill-opacity:1" />
    <path
       style="fill:#ffc832;stroke:none;fill-opacity:1"
       d="M 187.8125 49.125 C 184.47742 52.337066 181.23252 55.214684 179.03125 56.875 C 174.50511 56.788 170.19905 59.5142 168.5625 64 C 167.32043 67.4063 167.92757 71.0182 169.8125 73.8125 L 172.40625 66.71875 C 173.05226 64.94605 175.00883 64.0407 176.78125 64.6875 L 181.9375 66.5625 C 183.71002 67.2083 184.61545 69.1651 183.96875 70.9375 L 181.28125 78.3125 C 184.7432 77.5057 187.75413 75.05535 189.0625 71.46875 C 190.10178 68.61985 189.86252 65.607 188.65625 63.0625 C 191.55104 59.610117 197.05916 53.776864 202.09375 49.125 L 187.8125 49.125 z "
       transform="translate(0,942.36218)"
       id="path1683-0" />
    <path
       d="m 208.39425,964.22898 c -3.46254,0.80625 -6.47259,3.27206 -7.78096,6.85885 -0.83051,2.27606 -0.81031,4.64145 -0.17098,6.80283 -3.49784,5.03916 -15.99822,17.47994 -21.66555,21.75454 -4.52614,-0.087 -8.81824,2.6209 -10.45479,7.1067 -1.24207,3.4063 -0.63797,7.0176 1.24696,9.8119 l 2.58958,-7.0984 c 0.64601,-1.7727 2.59379,-2.679 4.36621,-2.0322 l 5.15892,1.882 c 1.77252,0.6458 2.67883,2.5937 2.03213,4.3661 l -2.69854,7.3988 c 3.46195,-0.8068 6.47259,-3.2724 7.78096,-6.859 1.03928,-2.8489 0.80195,-5.85 -0.40432,-8.3945 4.60055,-5.4867 15.80729,-17.00484 21.21161,-20.19816 4.88936,0.56049 9.72409,-2.24831 11.48327,-7.07158 1.24286,-3.40683 0.63862,-7.01767 -1.24628,-9.81195 l -2.58962,7.0988 c -0.64666,1.77239 -2.59378,2.67879 -4.3662,2.03216 l -5.15891,-1.88207 c -1.77308,-0.6469 -2.67949,-2.59396 -2.0328,-4.36635 l 2.69921,-7.39847 z"
       id="path1683"
       inkscape:connector-curvature="0"
       style="fill:none;fill-opacity:1;stroke:#414141;stroke-width:1.93664240999999993;stroke-linecap:round;stroke-linejoin:round;stroke-miterlimit:4;stroke-opacity:1;stroke-dasharray:none" />
    <g
       style="font-size:30.25291443px;font-style:normal;font-variant:normal;font-weight:normal;font-stretch:normal;line-height:125%;letter-spacing:0px;word-spacing:0px;fill:#414141;fill-opacity:1;stroke:none;font-family:ISL_Jupiter;-inkscape-font-specification:ISL_Jupiter"
       id="text3939">
      <path
         d="m 52.185276,1005.4205 c 0,-0.6858 0.242023,-1.2908 0.72607,-1.8152 0.504214,-0.5042 1.119356,-0.7563 1.845428,-0.7563 l 7.865758,0 0,2.1177 -7.865758,0 c -0.141183,0 -0.25211,0.05 -0.332782,0.1512 -0.08068,0.081 -0.121014,0.1816 -0.121012,0.3026 l 0,0.7563 c -2e-6,0.1412 0.04033,0.2521 0.121012,0.3328 0.121009,0.081 0.231936,0.121 0.332782,0.121 l 6.050583,0 c 0.705892,0 1.310949,0.2521 1.815175,0.7563 0.242012,0.2622 0.423529,0.5446 0.544552,0.8471 0.141169,0.2824 0.211759,0.6051 0.21177,0.9681 l 0,0.7563 c -1.1e-5,0.7059 -0.252118,1.311 -0.756322,1.8152 -0.504226,0.5042 -1.109283,0.7563 -1.815175,0.7563 l -7.865758,0 0,-2.1177 7.865758,0 c 0.141171,0 0.252098,-0.04 0.332782,-0.121 0.08067,-0.121 0.121002,-0.2319 0.121011,-0.3328 l 0,-0.7563 c -9e-6,-0.081 -0.04035,-0.1815 -0.121011,-0.3025 -0.100852,-0.1009 -0.211779,-0.1513 -0.332782,-0.1513 l -6.050583,0 c -0.726072,0 -1.33113,-0.2521 -1.815175,-0.7563 -0.504216,-0.4841 -0.756323,-1.0891 -0.756323,-1.8152 l 0,-0.7563"
         style=""
         id="path3944" />
      <path
         d="m 73.511217,1002.849 c 0.705892,0 1.31095,0.2521 1.815175,0.7563 0.242012,0.2622 0.42353,0.5446 0.544552,0.8471 0.141169,0.2823 0.211759,0.605 0.211771,0.9681 l 0,0.7563 c -1.2e-5,0.7059 -0.252119,1.311 -0.756323,1.8152 -0.504225,0.5042 -1.109283,0.7563 -1.815175,0.7563 l -6.504377,0 0,1.2101 c -2e-6,0.1412 0.04033,0.2521 0.121012,0.3328 0.08067,0.081 0.191599,0.121 0.332782,0.121 l 7.865758,0 0,2.1177 -7.865758,0 c -0.726072,0 -1.341214,-0.2521 -1.845428,-0.7563 -0.484047,-0.4841 -0.72607,-1.0891 -0.72607,-1.8152 l 0,-4.5379 c 0,-0.7059 0.252108,-1.311 0.756323,-1.8152 0.484046,-0.5042 1.089103,-0.7563 1.815175,-0.7563 l 6.050583,0 m -6.383365,2.2689 c -0.08068,0.081 -0.121014,0.1816 -0.121012,0.3026 l 0,1.2101 6.504377,0 c 0.100834,0 0.211761,-0.04 0.332782,-0.121 0.08067,-0.121 0.121003,-0.232 0.121012,-0.3328 l 0,-0.7563 c -9e-6,-0.081 -0.01009,-0.1412 -0.03025,-0.1815 -0.02018,-0.04 -0.05043,-0.081 -0.09076,-0.1211 -0.08068,-0.1008 -0.191611,-0.1512 -0.332782,-0.1512 l -6.050583,0 c -0.141183,0 -0.25211,0.05 -0.332782,0.1512"
         style=""
         id="path3946" />
      <path
         d="m 76.080351,1002.849 1.512646,0 0,-3.02532 2.117704,0 0,3.02532 5.29426,0 0,2.1177 -5.29426,0 0,4.9917 c -3e-6,0.1412 0.04033,0.2521 0.121011,0.3328 0.08067,0.081 0.1916,0.121 0.332782,0.121 l 4.840467,0 0,2.1177 -4.840467,0 c -0.726071,0 -1.341213,-0.2521 -1.845427,-0.7563 -0.484047,-0.4841 -0.72607,-1.0891 -0.72607,-1.8152 l 0,-4.9917 -1.512646,0 0,-2.1177"
         style=""
         id="path3948" />
      <path
         d="m 97.708822,1002.849 0,7.1397 c -0.02018,0.7059 -0.272287,1.3008 -0.756323,1.7849 -0.504225,0.5042 -1.109283,0.7563 -1.815175,0.7563 l -6.050583,0 c -0.726072,0 -1.331129,-0.242 -1.815175,-0.7261 -0.504215,-0.5042 -0.756322,-1.1193 -0.756322,-1.8454 l 0,-7.1094 2.117704,0 0,7.1094 c -3e-6,0.1412 0.04033,0.2521 0.121011,0.3328 0.08067,0.081 0.1916,0.121 0.332782,0.121 l 6.050583,0 c 0.141172,0 0.252099,-0.04 0.332782,-0.121 0.08067,-0.121 0.121003,-0.2219 0.121012,-0.3025 l 0,-7.1397 2.117704,0"
         style=""
         id="path3950" />
      <path
         d="m 110.41268,1009.9584 c -10e-6,0.7059 -0.25212,1.311 -0.75632,1.8152 -0.50422,0.5042 -1.10928,0.7563 -1.81517,0.7563 l -6.50438,0 0,4.5379 -2.117705,0 0,-14.2188 8.622085,0 c 0.70589,0 1.31095,0.2521 1.81517,0.7563 0.24201,0.2622 0.42353,0.5446 0.54455,0.8471 0.14117,0.2823 0.21176,0.605 0.21177,0.9681 l 0,4.5379 m -2.23871,-4.8405 c -0.0807,-0.1008 -0.19161,-0.1512 -0.33278,-0.1512 l -6.50438,0 0,5.4455 6.50438,0 c 0.14117,0 0.25209,-0.04 0.33278,-0.121 0.0807,-0.121 0.121,-0.2319 0.12101,-0.3328 l 0,-4.5379 c -10e-6,-0.081 -0.0101,-0.1412 -0.0302,-0.1815 -0.0202,-0.04 -0.0504,-0.081 -0.0908,-0.1211"
         style=""
         id="path3952" />
    </g>
  </g>
</svg>
