<?xml version="1.0" encoding="UTF-8" standalone="no"?>
<!-- Created with Inkscape (http://www.inkscape.org/) -->

<svg
   width="48"
   height="48"
   viewBox="0 0 12.7 12.7"
   version="1.1"
   id="svg904"
   inkscape:version="1.1 (1:1.1+202105261517+ce6663b3b7)"
   sodipodi:docname="qemu.svg"
   xmlns:inkscape="http://www.inkscape.org/namespaces/inkscape"
   xmlns:sodipodi="http://sodipodi.sourceforge.net/DTD/sodipodi-0.dtd"
   xmlns="http://www.w3.org/2000/svg"
   xmlns:svg="http://www.w3.org/2000/svg">
  <sodipodi:namedview
     id="namedview906"
     pagecolor="#ffffff"
     bordercolor="#666666"
     borderopacity="1.0"
     inkscape:pageshadow="2"
     inkscape:pageopacity="0.0"
     inkscape:pagecheckerboard="0"
     inkscape:document-units="mm"
     showgrid="false"
     units="px"
     inkscape:zoom="2.3518518"
     inkscape:cx="62.291339"
     inkscape:cy="20.409449"
     inkscape:window-width="1920"
     inkscape:window-height="879"
     inkscape:window-x="0"
     inkscape:window-y="0"
     inkscape:window-maximized="1"
     inkscape:current-layer="layer1" />
  <defs
     id="defs901">
    <radialGradient
       id="cvfa"
       cx="117"
       cy="98.300003"
       r="55.900002"
       gradientTransform="matrix(0.974,1.51,-0.836,0.54,79.6,-130)"
       gradientUnits="userSpaceOnUse"
       inkscape:collect="always">
      <stop
         offset="0"
         id="stop9" />
      <stop
         style="stop-opacity:.897"
         offset="1"
         id="stop11" />
    </radialGradient>
    <linearGradient
       id="cvfb"
       x1="143"
       x2="143"
       y1="832"
       y2="879"
       gradientUnits="userSpaceOnUse"
       inkscape:collect="always">
      <stop
         style="stop-color:#fff"
         offset="0"
         id="stop4" />
      <stop
         style="stop-color:#fff;stop-opacity:0"
         offset="1"
         id="stop6" />
    </linearGradient>
  </defs>
  <g
     inkscape:label="Capa 1"
     inkscape:groupmode="layer"
     id="layer1">
    <g
       id="g861"
       transform="matrix(0.10659132,0,0,0.10659132,-6.2224462,-5.5139337)">
      <path
         d="m 118,55.9 c -30.9,0 -55.9,24.9 -55.9,55.6 0,30.7 25,55.6 55.9,55.6 10.1,0 19.5,-2.65 27.7,-7.31 l 2.91,7.31 h 22.5 l -8.81,-21.8 c 7.22,-9.36 11.5,-21.1 11.5,-33.8 0,-30.7 -25,-55.6 -55.8,-55.6 z"
         style="fill:url(#cvfa)"
         inkscape:connector-curvature="0"
         id="path18" />
      <ellipse
         transform="matrix(1.05,0,0,1.29,-31.6,-1017)"
         cx="142"
         cy="856"
         rx="35.400002"
         ry="24.6"
         style="fill:url(#cvfb)"
         id="ellipse20" />
      <circle
         transform="translate(7.67,-778)"
         cx="116"
         cy="856"
         r="6.5700002"
         id="circle22" />
      <rect
         transform="matrix(0.99,0.143,-0.19,0.982,0,0)"
         x="125"
         y="65.300003"
         width="37.599998"
         height="5.5"
         id="rect24" />
      <rect
         x="145"
         y="89"
         width="6.5700002"
         height="2.9000001"
         id="rect26" />
      <path
         d="m 103,65 c -0.057,2.19 -3.87,0.283 -4.03,2.78 -4.22,-1.88 0.329,2.87 -0.0937,3.31 h -0.0312 l -0.312,-0.0312 c -0.204,-0.0728 -0.5,-0.199 -0.938,-0.469 -2.95,2.35 -3.02,7.23 -6.06,9.94 -1.99,4.31 -2.48,8.98 -3.94,13.5 -0.718,4.3 -1.35,8.6 -0.281,12.9 0.321,3.5 -0.689,8.26 2.5,10.7 4.73,3.88 8.66,8.8 12.6,13.5 6.22,7.65 11.7,15.9 16.6,24.4 0.324,-2.12 1.11,4.26 2.53,4.69 -0.492,-3.19 -1.13,-8.26 -1.44,-12.2 -1.58,-10.3 -6.65,-19.6 -8.56,-29.8 -0.0587,-0.43 -0.128,-0.872 -0.188,-1.31 v -1.28 h -0.156 c -0.626,-5.04 -0.85,-10.5 2.81,-14.4 3.74,-3.77 9.31,-4.72 13.8,-7.34 1,-0.591 2.05,-1.07 3.12,-1.41 0.009,-0.003 0.0228,0.003 0.0312,0 3.12,-0.963 6.45,-0.933 9.69,-0.406 0.0479,0.008 0.108,0.0233 0.156,0.0312 0.295,0.0493 0.614,0.099 0.906,0.156 2.37,0.211 7.14,1.14 8,-0.5 -3.27,-2.79 -7.99,-2.59 -12,-3.69 -0.631,-0.115 -1.41,-0.24 -2.19,-0.312 l -3.91,-0.875 -0.969,-0.25 v 0.0312 l -14,-2.72 c -0.222,-0.202 -0.464,-0.409 -0.688,-0.562 l 13.6,1.69 v -0.0625 c 0.48,0.107 0.956,0.194 1.44,0.25 v 0.0312 l 9.62,1.78 c 1.66,0.62 3.43,1.08 5.09,1.19 2.74,0.399 6.23,4.49 7.12,4.69 -0.441,-4.31 -4.74,-6.24 -8.31,-7.5 -4.17,-2.03 -10.4,-1.95 -11.1,-7.56 -0.176,-0.391 -0.349,-0.781 -0.562,-1.16 l -1.62,-2.16 0.0625,-0.0312 c -2.22,-2.62 -5.34,-4.52 -8.66,-5.25 -3.29,-1.14 -6.99,-2.27 -10.5,-2.72 -1.18,3.48 -2.5,-2.76 -5.34,-0.906 -2.49,0.295 -2.15,0.953 -4,-0.625 z m 17.9,10.2 c 0.902,-0.0238 1.93,0.142 2.97,0.5 2.76,0.954 4.56,2.97 4.03,4.5 -0.53,1.53 -3.21,1.99 -5.97,1.03 -2.76,-0.96 -4.56,-2.93 -4.03,-4.47 0.331,-0.959 1.5,-1.52 3,-1.56 z"
         style="fill:#ff6600"
         inkscape:connector-curvature="0"
         id="path28" />
    </g>
  </g>
</svg>
