<?xml version="1.0" encoding="UTF-8" standalone="no"?>
<svg
   viewBox="0 0 64 64"
   height="64"
   width="64"
   version="1.1"
   id="svg31"
   sodipodi:docname="azure-cli.svg"
   inkscape:version="1.4 (1:1.4+202410161351+e7c3feb100)"
   xmlns:inkscape="http://www.inkscape.org/namespaces/inkscape"
   xmlns:sodipodi="http://sodipodi.sourceforge.net/DTD/sodipodi-0.dtd"
   xmlns="http://www.w3.org/2000/svg"
   xmlns:svg="http://www.w3.org/2000/svg">
  <sodipodi:namedview
     id="namedview33"
     pagecolor="#ffffff"
     bordercolor="#666666"
     borderopacity="1.0"
     inkscape:pageshadow="2"
     inkscape:pageopacity="0.0"
     inkscape:pagecheckerboard="0"
     showgrid="false"
     inkscape:zoom="1.765625"
     inkscape:cx="-28.60177"
     inkscape:cy="36.530973"
     inkscape:window-width="1239"
     inkscape:window-height="1008"
     inkscape:window-x="0"
     inkscape:window-y="0"
     inkscape:window-maximized="0"
     inkscape:current-layer="svg31"
     inkscape:showpageshadow="0"
     inkscape:deskcolor="#d1d1d1" />
  <defs
     id="defs17">
    <linearGradient
       id="a"
       x1="3.2172999"
       y1="15"
       x2="44.7812"
       y2="15"
       gradientUnits="userSpaceOnUse">
      <stop
         offset="0"
         stop-color="#d93025"
         id="stop2" />
      <stop
         offset="1"
         stop-color="#ea4335"
         id="stop4" />
    </linearGradient>
    <linearGradient
       id="b"
       x1="20.721901"
       y1="47.6791"
       x2="41.503899"
       y2="11.6837"
       gradientUnits="userSpaceOnUse">
      <stop
         offset="0"
         stop-color="#fcc934"
         id="stop7" />
      <stop
         offset="1"
         stop-color="#fbbc04"
         id="stop9" />
    </linearGradient>
    <linearGradient
       id="c"
       x1="26.598101"
       y1="46.501499"
       x2="5.8161001"
       y2="10.506"
       gradientUnits="userSpaceOnUse">
      <stop
         offset="0"
         stop-color="#1e8e3e"
         id="stop12" />
      <stop
         offset="1"
         stop-color="#34a853"
         id="stop14" />
    </linearGradient>
    <linearGradient
       id="e399c19f-b68f-429d-b176-18c2117ff73c"
       x1="-1032.172"
       x2="-1059.213"
       y1="145.312"
       y2="65.426003"
       gradientTransform="matrix(1.5625,0,0,-1.5625,1622.432,195.65156)"
       gradientUnits="userSpaceOnUse">
      <stop
         offset="0"
         stop-color="#114a8b"
         id="stop1" />
      <stop
         offset="1"
         stop-color="#0669bc"
         id="stop2-3" />
    </linearGradient>
    <linearGradient
       id="ac2a6fc2-ca48-4327-9a3c-d4dcc3256e15"
       x1="-1023.725"
       x2="-1029.98"
       y1="108.083"
       y2="105.968"
       gradientTransform="matrix(1.5625,0,0,-1.5625,1622.432,195.65156)"
       gradientUnits="userSpaceOnUse">
      <stop
         offset="0"
         stop-opacity=".3"
         id="stop3" />
      <stop
         offset=".071"
         stop-opacity=".2"
         id="stop4-6" />
      <stop
         offset=".321"
         stop-opacity=".1"
         id="stop5" />
      <stop
         offset=".623"
         stop-opacity=".05"
         id="stop6" />
      <stop
         offset="1"
         stop-opacity="0"
         id="stop7-7" />
    </linearGradient>
    <linearGradient
       id="a7fee970-a784-4bb1-af8d-63d18e5f7db9"
       x1="-1027.165"
       x2="-997.48199"
       y1="147.642"
       y2="68.560997"
       gradientTransform="matrix(1.5625,0,0,-1.5625,1622.432,195.65156)"
       gradientUnits="userSpaceOnUse">
      <stop
         offset="0"
         stop-color="#3ccbf4"
         id="stop8" />
      <stop
         offset="1"
         stop-color="#2892df"
         id="stop9-5" />
    </linearGradient>
  </defs>
  <g
     id="g1"
     transform="matrix(0.40680886,0,0,0.40680886,24.781289,22.327802)">
    <path
       fill="url(#e399c19f-b68f-429d-b176-18c2117ff73c)"
       d="M -5.164872,-40.998438 H 35.519503 L -6.714872,84.1375 a 6.4875,6.4875 0 0 1 -6.145312,4.412499 h -31.6625 a 6.4765625,6.4765625 0 0 1 -6.1375,-8.546875 L -11.311747,-36.585938 A 6.4875,6.4875 0 0 1 -5.164872,-41 Z"
       id="path9"
       style="fill:url(#e399c19f-b68f-429d-b176-18c2117ff73c);stroke-width:1.5625" />
    <path
       fill="#0078d4"
       d="m 53.955441,42.934375 h -64.515625 a 2.9859375,2.9859375 0 0 0 -2.039063,5.170312 l 41.45625,38.69375 a 6.5171875,6.5171875 0 0 0 4.446875,1.751562 h 36.53125 z"
       id="path10"
       style="stroke-width:1.5625" />
    <path
       fill="url(#ac2a6fc2-ca48-4327-9a3c-d4dcc3256e15)"
       d="M -5.164872,-40.998438 A 6.434375,6.434375 0 0 0 -11.325809,-36.5 L -50.611747,79.896875 a 6.46875,6.46875 0 0 0 6.10625,8.653124 h 32.479687 a 6.9421875,6.9421875 0 0 0 5.3281255,-4.53125 L 1.1366905,60.929687 29.121066,87.031249 a 6.6203125,6.6203125 0 0 0 4.165625,1.51875 h 36.395312 l -15.9625,-45.615624 -46.5328125,0.01094 28.4796875,-83.94375 z"
       id="path11"
       style="fill:url(#ac2a6fc2-ca48-4327-9a3c-d4dcc3256e15);stroke-width:1.5625" />
    <path
       fill="url(#a7fee970-a784-4bb1-af8d-63d18e5f7db9)"
       d="m 46.799191,-36.592188 a 6.4765625,6.4765625 0 0 0 -6.137501,-4.40625 H -4.680497 a 6.478125,6.478125 0 0 1 6.1375,4.40625 l 39.35,116.59375 a 6.478125,6.478125 0 0 1 -6.1375,8.55 h 45.34375 a 6.478125,6.478125 0 0 0 6.135938,-8.55 z"
       id="path12"
       style="fill:url(#a7fee970-a784-4bb1-af8d-63d18e5f7db9);stroke-width:1.5625" />
  </g>
</svg>
