<?xml version="1.0" encoding="UTF-8" standalone="no"?>
<!-- Generator: Adobe Illustrator 25.0.1, SVG Export Plug-In . SVG Version: 6.00 Build 0)  -->

<svg
   version="1.0"
   id="Layer_1"
   x="0px"
   y="0px"
   viewBox="0 0 235 110"
   xml:space="preserve"
   sodipodi:docname="zero-lliurex-webex.svg"
   width="235"
   height="110"
   inkscape:version="1.1 (1:1.1+202105261517+ce6663b3b7)"
   xmlns:inkscape="http://www.inkscape.org/namespaces/inkscape"
   xmlns:sodipodi="http://sodipodi.sourceforge.net/DTD/sodipodi-0.dtd"
   xmlns:xlink="http://www.w3.org/1999/xlink"
   xmlns="http://www.w3.org/2000/svg"
   xmlns:svg="http://www.w3.org/2000/svg"><defs
   id="defs530" /><sodipodi:namedview
   id="namedview528"
   pagecolor="#ffffff"
   bordercolor="#666666"
   borderopacity="1.0"
   inkscape:pageshadow="2"
   inkscape:pageopacity="0.0"
   inkscape:pagecheckerboard="0"
   showgrid="false"
   width="235px"
   inkscape:zoom="2.4444444"
   inkscape:cx="117"
   inkscape:cy="83.863638"
   inkscape:window-width="1920"
   inkscape:window-height="879"
   inkscape:window-x="0"
   inkscape:window-y="0"
   inkscape:window-maximized="1"
   inkscape:current-layer="Layer_1" />
<style
   type="text/css"
   id="style2">
	.st0{clip-path:url(#SVGID_2_);}
	.st1{fill:url(#SVGID_3_);}
	.st2{fill:url(#SVGID_4_);}
	.st3{fill:url(#SVGID_5_);}
	.st4{fill:url(#SVGID_6_);}
	.st5{fill:url(#SVGID_7_);}
	.st6{fill:url(#SVGID_8_);}
	.st7{fill:url(#SVGID_9_);}
	.st8{fill:url(#SVGID_10_);}
	.st9{fill:url(#SVGID_11_);}
	.st10{fill:url(#SVGID_12_);}
	.st11{fill:url(#SVGID_13_);}
	.st12{fill:url(#SVGID_14_);}
	.st13{fill:url(#SVGID_15_);}
	.st14{fill:url(#SVGID_16_);}
	.st15{fill:url(#SVGID_17_);}
	.st16{fill:url(#SVGID_18_);}
	.st17{fill:url(#SVGID_19_);}
	.st18{fill:url(#SVGID_20_);}
	.st19{fill:url(#SVGID_21_);}
	.st20{fill:url(#SVGID_22_);}
	.st21{fill:url(#SVGID_23_);}
	.st22{fill:url(#SVGID_24_);}
	.st23{fill:url(#SVGID_25_);}
	.st24{fill:url(#SVGID_26_);}
	.st25{fill:url(#SVGID_27_);}
	.st26{fill:url(#SVGID_28_);}
	.st27{fill:url(#SVGID_29_);}
	.st28{fill:url(#SVGID_30_);}
	.st29{fill:url(#SVGID_31_);}
	.st30{fill:url(#SVGID_32_);}
	.st31{fill:url(#SVGID_33_);}
	.st32{fill:url(#SVGID_34_);}
	.st33{fill:url(#SVGID_35_);}
	.st34{fill:url(#SVGID_36_);}
	.st35{fill:url(#SVGID_37_);}
	.st36{fill:none;}
</style>


<rect
   style="fill:#ffffff;fill-rule:evenodd;stroke-width:1.23994"
   id="rect309"
   width="256.08139"
   height="129.26898"
   x="-10.134767"
   y="-9.3150816" /><g
   id="g812"
   transform="matrix(1.2333328,0,0,1.2333328,-15.699942,-28.249964)"><g
     id="g523">
	<defs
   id="defs5">
		<rect
   id="SVGID_1_"
   x="21.1"
   y="43.599998"
   width="173.7"
   height="47.799999" />
	</defs>
	<clipPath
   id="SVGID_2_">
		<use
   xlink:href="#SVGID_1_"
   style="overflow:visible"
   id="use7"
   x="0"
   y="0"
   width="100%"
   height="100%" />
	</clipPath>
	<g
   class="st0"
   clip-path="url(#SVGID_2_)"
   id="g521">
		<path
   d="m 103.8,52.2 h 4.6 l -6.7,20.2 h -5.3 l -5,-15.2 -5,15.3 H 81.2 L 74.5,52.2 h 4.7 L 84,67.6 88.9,52.2 h 5 L 99,67.7 Z"
   id="path10" />
		<path
   d="m 128.1,64 h -14.9 c 0.1,1 0.5,2 1.1,2.9 0.6,0.7 1.3,1.3 2.1,1.7 0.9,0.4 1.8,0.6 2.7,0.6 1.1,0 2.1,-0.2 3.1,-0.6 1,-0.4 1.9,-0.9 2.8,-1.6 l 2.2,3.1 c -1.1,1 -2.4,1.7 -3.8,2.2 -1.5,0.4 -3,0.7 -4.5,0.7 -1.9,0 -3.7,-0.4 -5.4,-1.3 -1.6,-0.9 -2.8,-2.2 -3.6,-3.8 -0.9,-1.7 -1.3,-3.7 -1.3,-5.6 0,-1.9 0.4,-3.8 1.3,-5.6 0.8,-1.6 2.1,-2.9 3.6,-3.8 1.6,-0.9 3.4,-1.4 5.2,-1.3 3.5,-0.1 6.8,1.9 8.3,5.1 0.8,1.7 1.3,3.6 1.2,5.6 -0.1,0.6 -0.1,1.1 -0.1,1.7 z m -4.4,-3.4 c -0.1,-1.4 -0.8,-2.7 -1.7,-3.7 -0.9,-0.9 -2.1,-1.3 -3.4,-1.3 -1.3,-0.1 -2.7,0.4 -3.6,1.4 -1,1 -1.6,2.3 -1.7,3.6 z"
   id="path12" />
		<path
   d="m 146.9,53.1 c 1.5,0.9 2.8,2.2 3.6,3.8 1.8,3.4 1.8,7.6 0,11 -0.8,1.6 -2.1,2.9 -3.6,3.8 -1.5,0.9 -3.3,1.4 -5.1,1.3 -1.3,0 -2.5,-0.2 -3.6,-0.7 -1.1,-0.5 -2,-1.2 -2.7,-2.2 v 2.4 H 131 V 43.7 h 4.4 v 11 c 1.5,-1.9 3.9,-3 6.4,-2.9 1.8,-0.1 3.5,0.3 5.1,1.3 z M 144.5,68 c 0.9,-0.6 1.7,-1.4 2.1,-2.3 0.5,-1 0.7,-2.1 0.7,-3.3 0,-1.1 -0.2,-2.3 -0.7,-3.3 -0.5,-1 -1.2,-1.8 -2.1,-2.3 -2,-1.1 -4.4,-1.1 -6.4,0 -0.9,0.6 -1.6,1.4 -2.1,2.3 -0.5,1 -0.8,2.2 -0.7,3.3 0,1.2 0.2,2.3 0.7,3.3 0.5,1 1.2,1.8 2.1,2.3 1,0.6 2.1,0.9 3.2,0.9 1.2,0 2.3,-0.4 3.2,-0.9 z"
   id="path14" />
		<path
   d="m 173.8,64 h -14.9 c 0.1,1 0.5,2 1.1,2.9 0.5,0.7 1.3,1.3 2.1,1.7 0.9,0.4 1.8,0.6 2.7,0.6 1.1,0 2.1,-0.2 3.1,-0.6 1,-0.4 1.9,-0.9 2.8,-1.6 l 2.2,3.1 c -1.1,1 -2.4,1.7 -3.9,2.2 -1.5,0.4 -3,0.7 -4.5,0.7 -1.9,0 -3.7,-0.4 -5.4,-1.3 -1.6,-0.9 -2.8,-2.2 -3.6,-3.8 -0.9,-1.7 -1.3,-3.7 -1.3,-5.6 0,-1.9 0.4,-3.8 1.3,-5.6 0.8,-1.6 2.1,-2.9 3.6,-3.8 1.6,-0.9 3.4,-1.4 5.2,-1.3 3.6,-0.1 6.8,1.9 8.4,5.1 0.9,1.7 1.3,3.6 1.3,5.6 -0.1,0.5 -0.1,1 -0.2,1.7 z m -4.5,-3.4 c -0.1,-1.4 -0.8,-2.7 -1.7,-3.7 -0.9,-0.9 -2.2,-1.4 -3.4,-1.3 -1.3,-0.1 -2.7,0.4 -3.6,1.4 -1,1 -1.6,2.3 -1.7,3.6 z"
   id="path16" />
		<path
   d="m 194.9,72.5 h -5.4 l -5.1,-7 -5,7 h -5.2 l 7.6,-10.3 -7.6,-9.9 h 5.4 l 4.9,6.8 4.9,-6.8 h 5.2 l -7.5,9.9 z"
   id="path18" />
		<path
   d="m 141.7,89.2 h -0.9 v -8.1 h 1.1 v 3.1 c 0.2,-0.3 0.5,-0.6 0.9,-0.7 0.3,-0.2 0.7,-0.2 1.1,-0.2 0.4,0 0.8,0.1 1.1,0.2 0.3,0.2 0.6,0.4 0.9,0.7 0.4,0.6 0.7,1.4 0.6,2.2 0,0.9 -0.3,1.8 -0.9,2.5 -0.2,0.2 -0.5,0.4 -0.9,0.6 -0.3,0.1 -0.7,0.2 -1,0.2 -0.4,0 -0.8,-0.1 -1.1,-0.2 -0.3,-0.2 -0.6,-0.4 -0.9,-0.7 z m 3.6,-3 c 0,-0.6 -0.2,-1.2 -0.6,-1.7 -0.2,-0.2 -0.3,-0.3 -0.6,-0.4 -0.2,-0.1 -0.4,-0.1 -0.6,-0.1 -0.3,0 -0.5,0.1 -0.7,0.1 -0.2,0.1 -0.4,0.2 -0.6,0.4 -0.3,0.4 -0.5,1 -0.4,1.5 0,0.6 0.2,1.2 0.6,1.7 0.1,0.2 0.3,0.3 0.6,0.4 0.2,0.1 0.4,0.1 0.7,0.1 0.2,0 0.5,-0.1 0.7,-0.1 0.2,-0.1 0.4,-0.3 0.6,-0.5 0.3,-0.3 0.4,-0.9 0.3,-1.4 z"
   id="path20" />
		<path
   d="m 152.3,83.3 -2,6 c -0.2,0.6 -0.4,1.1 -0.8,1.6 -0.1,0.2 -0.3,0.3 -0.5,0.4 -0.2,0.1 -0.4,0.1 -0.6,0.1 -0.2,0 -0.5,0 -0.7,-0.1 v -0.9 c 0.2,0.1 0.4,0.1 0.6,0.1 0.1,0 0.2,0 0.3,-0.1 0.1,0 0.2,-0.1 0.2,-0.2 0.2,-0.3 0.4,-0.7 0.5,-1 h -0.4 l -2.1,-5.9 h 1.2 l 1.7,5 1.7,-5 z"
   id="path22" />
		<path
   d="m 167.2,81.1 h -2 v 8.2 h 2 z"
   id="path24" />
		<path
   d="m 183.8,83.4 c -0.5,-0.3 -1.1,-0.4 -1.7,-0.4 -1.2,-0.1 -2.2,0.8 -2.3,2 0,0 0,0.1 0,0.1 0,1.2 0.9,2.1 2,2.2 0.1,0 0.2,0 0.2,0 0.6,0 1.2,-0.1 1.7,-0.4 v 2.2 c -0.6,0.2 -1.2,0.3 -1.9,0.3 -2.3,0 -4.2,-1.9 -4.2,-4.2 0,-2.3 1.9,-4.2 4.2,-4.2 0.6,0 1.3,0.1 1.9,0.3 v 2.1 z"
   id="path26" />
		<path
   d="m 162.3,83.4 c -0.5,-0.3 -1.1,-0.4 -1.7,-0.4 -1.2,-0.1 -2.2,0.8 -2.3,2 0,0.1 0,0.1 0,0.2 0,1.2 0.9,2.1 2,2.2 0.1,0 0.2,0 0.2,0 0.6,0 1.2,-0.1 1.7,-0.4 v 2.2 c -0.6,0.2 -1.3,0.3 -1.9,0.3 -2.3,0 -4.2,-1.9 -4.2,-4.2 0,-2.3 1.9,-4.2 4.2,-4.2 0.6,0 1.3,0.1 1.9,0.3 v 2 z"
   id="path28" />
		<path
   d="m 190.3,83 c -0.6,0 -1.1,0.3 -1.5,0.7 -0.2,0.2 -0.3,0.4 -0.4,0.7 -0.1,0.2 -0.2,0.5 -0.1,0.8 0,0.3 0,0.5 0.1,0.8 0.1,0.2 0.2,0.5 0.4,0.7 0.2,0.2 0.4,0.4 0.7,0.5 0.3,0.1 0.5,0.2 0.8,0.2 0.3,0 0.6,-0.1 0.8,-0.2 0.3,-0.1 0.5,-0.3 0.7,-0.5 0.2,-0.2 0.3,-0.4 0.4,-0.7 0.1,-0.2 0.2,-0.5 0.1,-0.8 0,-0.3 0,-0.5 -0.1,-0.8 -0.1,-0.2 -0.2,-0.5 -0.4,-0.7 -0.2,-0.2 -0.4,-0.4 -0.7,-0.5 -0.2,-0.1 -0.5,-0.2 -0.8,-0.2 z m 4.3,2.1 c 0,2.4 -1.9,4.4 -4.2,4.4 -2.3,0 -4.4,-1.9 -4.4,-4.2 0,-2.4 1.9,-4.4 4.2,-4.4 0,0 0,0 0.1,0 2.3,-0.1 4.3,1.8 4.3,4.2 0,0 0,0 0,0 z"
   id="path30" />
		<path
   d="m 175,82.9 c -0.5,-0.1 -1.1,-0.2 -1.6,-0.2 -0.8,0 -1.3,0.2 -1.3,0.7 0,0.5 0.6,0.7 0.9,0.8 l 0.6,0.2 c 1.1,0.2 2,1.2 2,2.3 0,2 -1.8,2.7 -3.4,2.7 -0.7,0 -1.5,-0.1 -2.2,-0.2 v -1.9 c 0.6,0.2 1.3,0.3 2,0.3 1.1,0 1.5,-0.3 1.5,-0.7 0,-0.4 -0.4,-0.7 -0.9,-0.8 L 172.2,86 c -1.2,-0.2 -2,-1.2 -2.1,-2.4 0,-1.5 1.1,-2.5 3,-2.5 0.7,0 1.3,0.1 2,0.2 v 1.6 z"
   id="path32" />
		
			<linearGradient
   id="SVGID_3_"
   gradientUnits="userSpaceOnUse"
   x1="30.1052"
   y1="-120.8282"
   x2="63.875198"
   y2="-107.1782"
   gradientTransform="matrix(1,0,0,-1,-7,-56.22)">
			<stop
   offset="0.13"
   style="stop-color:#1CBBF3"
   id="stop34" />
			<stop
   offset="0.34"
   style="stop-color:#1F99A5"
   id="stop36" />
			<stop
   offset="0.45"
   style="stop-color:#209CA6"
   id="stop38" />
			<stop
   offset="0.51"
   style="stop-color:#24A4AA"
   id="stop40" />
			<stop
   offset="0.57"
   style="stop-color:#2BB3B0"
   id="stop42" />
			<stop
   offset="0.6"
   style="stop-color:#30BDB4"
   id="stop44" />
			<stop
   offset="0.79"
   style="stop-color:#38BA90"
   id="stop46" />
			<stop
   offset="1"
   style="stop-color:#60F05A"
   id="stop48" />
		</linearGradient>
		<path
   class="st1"
   d="m 31.1,59.3 c 0.5,1.7 1.2,3.3 2,4.9 0.3,0.7 0.8,1.3 1.4,1.8 l 0.4,0.2 c 1,0.2 1.5,-0.6 1.9,-1.3 0.5,-1.2 0.9,-2.4 1.2,-3.6 0.1,-0.2 0.1,-0.4 0.2,-0.7 0.1,-0.4 0.2,-0.9 0.3,-1.3 l 4.4,-11.7 c 0.9,-1.2 2.1,-2.2 3.5,-2.9 1.3,-0.7 2.8,-1.1 4.3,-1.1 2.2,0 4.3,0.8 6,2.1 2.9,2.2 4.6,6.5 4.6,6.5 0.2,0.6 0.4,1.2 0.4,1.8 0,0.6 -0.1,1.1 -0.3,1.7 -0.3,0.5 -0.6,1 -0.9,1.4 -0.4,0.4 -0.9,0.7 -1.4,0.9 -0.5,0.2 -1.1,0.3 -1.7,0.3 -0.6,0 -1.2,-0.1 -1.8,-0.4 -0.6,-0.3 -1.1,-0.7 -1.5,-1.1 0,0 0,-0.1 -0.1,-0.1 C 53.7,56.3 53.5,55.9 53.3,55.5 53.1,55 52.8,54.5 52.5,54 52.3,53.8 52.2,53.5 52,53.3 51.9,53.1 51.7,52.8 51.4,52.7 51,52.4 50.5,52.3 50.1,52.5 L 50,52.4 c -0.5,0.4 -0.8,0.9 -1,1.5 -0.6,1.5 -1.1,3 -1.5,4.6 l -0.2,0.9 -1.8,5.9 -2.5,5.6 c -0.9,1.2 -2.1,2.1 -3.5,2.8 -1.3,0.6 -2.8,1 -4.3,1 C 29,74.8 26.1,69.2 26.1,69.2 22.6,63.4 21.6,55.8 21.3,53.3 21.2,53 21.2,52.7 21.2,52.4 c 0,-0.8 0.2,-1.5 0.6,-2.2 0.4,-0.7 0.9,-1.2 1.6,-1.6 0.7,-0.3 1.5,-0.5 2.3,-0.5 1.3,0.1 2.5,0.7 3.3,1.8 0.5,0.9 0.8,1.8 0.8,2.8 0.2,2.3 0.7,4.5 1.3,6.6 z"
   id="path51"
   style="fill:url(#SVGID_3_)" />
		
			<radialGradient
   id="SVGID_4_"
   cx="-364.93771"
   cy="515.71973"
   r="0.62"
   gradientTransform="matrix(7.08,25.23,19.17,-5.38,-7257.0903,12038.27)"
   gradientUnits="userSpaceOnUse">
			<stop
   offset="0"
   style="stop-color:#227B60"
   id="stop53" />
			<stop
   offset="0.14"
   style="stop-color:#227B60;stop-opacity:0.81"
   id="stop55" />
			<stop
   offset="0.58"
   style="stop-color:#227B60;stop-opacity:0.23"
   id="stop57" />
			<stop
   offset="0.78"
   style="stop-color:#227B60;stop-opacity:0"
   id="stop59" />
		</radialGradient>
		<path
   class="st2"
   d="m 31.1,59.3 c 0.5,1.7 1.2,3.3 2,4.9 0.3,0.7 0.8,1.3 1.4,1.8 l 0.4,0.2 c 1,0.2 1.5,-0.6 1.9,-1.3 0.5,-1.2 0.9,-2.4 1.2,-3.6 0.1,-0.2 0.1,-0.4 0.2,-0.7 0.1,-0.4 0.2,-0.9 0.3,-1.3 l 4.4,-11.7 c 0.9,-1.2 2.1,-2.2 3.5,-2.9 1.3,-0.7 2.8,-1.1 4.3,-1.1 2.2,0 4.3,0.8 6,2.1 2.9,2.2 4.6,6.5 4.6,6.5 0.2,0.6 0.4,1.2 0.4,1.8 0,0.6 -0.1,1.1 -0.3,1.7 -0.3,0.5 -0.6,1 -0.9,1.4 -0.4,0.4 -0.9,0.7 -1.4,0.9 -0.5,0.2 -1.1,0.3 -1.7,0.3 -0.6,0 -1.2,-0.1 -1.8,-0.4 -0.6,-0.3 -1.1,-0.7 -1.5,-1.1 0,0 0,-0.1 -0.1,-0.1 C 53.7,56.3 53.5,55.9 53.3,55.5 53.1,55 52.8,54.5 52.5,54 52.3,53.8 52.2,53.5 52,53.3 51.9,53.1 51.7,52.8 51.4,52.7 51,52.4 50.5,52.3 50.1,52.5 L 50,52.4 c -0.5,0.4 -0.8,0.9 -1,1.5 -0.6,1.5 -1.1,3 -1.5,4.6 l -0.2,0.9 -1.8,5.9 -2.5,5.6 c -0.9,1.2 -2.1,2.1 -3.5,2.8 -1.3,0.6 -2.8,1 -4.3,1 C 29,74.8 26.1,69.2 26.1,69.2 22.6,63.4 21.6,55.8 21.3,53.3 21.2,53 21.2,52.7 21.2,52.4 c 0,-0.8 0.2,-1.5 0.6,-2.2 0.4,-0.7 0.9,-1.2 1.6,-1.6 0.7,-0.3 1.5,-0.5 2.3,-0.5 1.3,0.1 2.5,0.7 3.3,1.8 0.5,0.9 0.8,1.8 0.8,2.8 0.2,2.3 0.7,4.5 1.3,6.6 z"
   id="path62"
   style="fill:url(#SVGID_4_)" />
		
			<radialGradient
   id="SVGID_5_"
   cx="-357.7804"
   cy="535.04279"
   r="0.62"
   gradientTransform="matrix(-0.35,17.71,13.46,0.27,-7279.3003,6247.5898)"
   gradientUnits="userSpaceOnUse">
			<stop
   offset="0"
   style="stop-color:#227B60"
   id="stop64" />
			<stop
   offset="0.25"
   style="stop-color:#227B60;stop-opacity:0.7"
   id="stop66" />
			<stop
   offset="0.71"
   style="stop-color:#227B60;stop-opacity:0.2"
   id="stop68" />
			<stop
   offset="0.92"
   style="stop-color:#227B60;stop-opacity:0"
   id="stop70" />
		</radialGradient>
		<path
   class="st3"
   d="m 31.1,59.3 c 0.5,1.7 1.2,3.3 2,4.9 0.3,0.7 0.8,1.3 1.4,1.8 l 0.4,0.2 c 1,0.2 1.5,-0.6 1.9,-1.3 0.5,-1.2 0.9,-2.4 1.2,-3.6 0.1,-0.2 0.1,-0.4 0.2,-0.7 0.1,-0.4 0.2,-0.9 0.3,-1.3 l 4.4,-11.7 c 0.9,-1.2 2.1,-2.2 3.5,-2.9 1.3,-0.7 2.8,-1.1 4.3,-1.1 2.2,0 4.3,0.8 6,2.1 2.9,2.2 4.6,6.5 4.6,6.5 0.2,0.6 0.4,1.2 0.4,1.8 0,0.6 -0.1,1.1 -0.3,1.7 -0.3,0.5 -0.6,1 -0.9,1.4 -0.4,0.4 -0.9,0.7 -1.4,0.9 -0.5,0.2 -1.1,0.3 -1.7,0.3 -0.6,0 -1.2,-0.1 -1.8,-0.4 -0.6,-0.3 -1.1,-0.7 -1.5,-1.1 0,0 0,-0.1 -0.1,-0.1 C 53.7,56.3 53.5,55.9 53.3,55.5 53.1,55 52.8,54.5 52.5,54 52.3,53.8 52.2,53.5 52,53.3 51.9,53.1 51.7,52.8 51.4,52.7 51,52.4 50.5,52.3 50.1,52.5 L 50,52.4 c -0.5,0.4 -0.8,0.9 -1,1.5 -0.6,1.5 -1.1,3 -1.5,4.6 l -0.2,0.9 -1.8,5.9 -2.5,5.6 c -0.9,1.2 -2.1,2.1 -3.5,2.8 -1.3,0.6 -2.8,1 -4.3,1 C 29,74.8 26.1,69.2 26.1,69.2 22.6,63.4 21.6,55.8 21.3,53.3 21.2,53 21.2,52.7 21.2,52.4 c 0,-0.8 0.2,-1.5 0.6,-2.2 0.4,-0.7 0.9,-1.2 1.6,-1.6 0.7,-0.3 1.5,-0.5 2.3,-0.5 1.3,0.1 2.5,0.7 3.3,1.8 0.5,0.9 0.8,1.8 0.8,2.8 0.2,2.3 0.7,4.5 1.3,6.6 z"
   id="path73"
   style="fill:url(#SVGID_5_)" />
		
			<radialGradient
   id="SVGID_6_"
   cx="-354.29721"
   cy="537.37372"
   r="0.62"
   gradientTransform="matrix(0.4,16.51,11.72,-0.29,-6108.9302,6060.6201)"
   gradientUnits="userSpaceOnUse">
			<stop
   offset="0"
   style="stop-color:#227B60"
   id="stop75" />
			<stop
   offset="7.000000e-02"
   style="stop-color:#227B60;stop-opacity:0.9"
   id="stop77" />
			<stop
   offset="0.34"
   style="stop-color:#227B60;stop-opacity:0.51"
   id="stop79" />
			<stop
   offset="0.59"
   style="stop-color:#227B60;stop-opacity:0.23"
   id="stop81" />
			<stop
   offset="0.79"
   style="stop-color:#227B60;stop-opacity:6.000000e-02"
   id="stop83" />
			<stop
   offset="0.92"
   style="stop-color:#227B60;stop-opacity:0"
   id="stop85" />
		</radialGradient>
		<path
   class="st4"
   d="m 31.1,59.3 c 0.5,1.7 1.2,3.3 2,4.9 0.3,0.7 0.8,1.3 1.4,1.8 l 0.4,0.2 c 1,0.2 1.5,-0.6 1.9,-1.3 0.5,-1.2 0.9,-2.4 1.2,-3.6 0.1,-0.2 0.1,-0.4 0.2,-0.7 0.1,-0.4 0.2,-0.9 0.3,-1.3 l 4.4,-11.7 c 0.9,-1.2 2.1,-2.2 3.5,-2.9 1.3,-0.7 2.8,-1.1 4.3,-1.1 2.2,0 4.3,0.8 6,2.1 2.9,2.2 4.6,6.5 4.6,6.5 0.2,0.6 0.4,1.2 0.4,1.8 0,0.6 -0.1,1.1 -0.3,1.7 -0.3,0.5 -0.6,1 -0.9,1.4 -0.4,0.4 -0.9,0.7 -1.4,0.9 -0.5,0.2 -1.1,0.3 -1.7,0.3 -0.6,0 -1.2,-0.1 -1.8,-0.4 -0.6,-0.3 -1.1,-0.7 -1.5,-1.1 0,0 0,-0.1 -0.1,-0.1 C 53.7,56.3 53.5,55.9 53.3,55.5 53.1,55 52.8,54.5 52.5,54 52.3,53.8 52.2,53.5 52,53.3 51.9,53.1 51.7,52.8 51.4,52.7 51,52.4 50.5,52.3 50.1,52.5 L 50,52.4 c -0.5,0.4 -0.8,0.9 -1,1.5 -0.6,1.5 -1.1,3 -1.5,4.6 l -0.2,0.9 -1.8,5.9 -2.5,5.6 c -0.9,1.2 -2.1,2.1 -3.5,2.8 -1.3,0.6 -2.8,1 -4.3,1 C 29,74.8 26.1,69.2 26.1,69.2 22.6,63.4 21.6,55.8 21.3,53.3 21.2,53 21.2,52.7 21.2,52.4 c 0,-0.8 0.2,-1.5 0.6,-2.2 0.4,-0.7 0.9,-1.2 1.6,-1.6 0.7,-0.3 1.5,-0.5 2.3,-0.5 1.3,0.1 2.5,0.7 3.3,1.8 0.5,0.9 0.8,1.8 0.8,2.8 0.2,2.3 0.7,4.5 1.3,6.6 z"
   id="path88"
   style="fill:url(#SVGID_6_)" />
		
			<radialGradient
   id="SVGID_7_"
   cx="-345.5249"
   cy="545.22522"
   r="0.62"
   gradientTransform="matrix(0.33,13.33,9.47,-0.23,-5001.1699,4786.9502)"
   gradientUnits="userSpaceOnUse">
			<stop
   offset="0"
   style="stop-color:#227B60"
   id="stop90" />
			<stop
   offset="0.36"
   style="stop-color:#227B60;stop-opacity:0.63"
   id="stop92" />
			<stop
   offset="0.92"
   style="stop-color:#227B60;stop-opacity:0"
   id="stop94" />
		</radialGradient>
		<path
   class="st5"
   d="m 31.1,59.3 c 0.5,1.7 1.2,3.3 2,4.9 0.3,0.7 0.8,1.3 1.4,1.8 l 0.4,0.2 c 1,0.2 1.5,-0.6 1.9,-1.3 0.5,-1.2 0.9,-2.4 1.2,-3.6 0.1,-0.2 0.1,-0.4 0.2,-0.7 0.1,-0.4 0.2,-0.9 0.3,-1.3 l 4.4,-11.7 c 0.9,-1.2 2.1,-2.2 3.5,-2.9 1.3,-0.7 2.8,-1.1 4.3,-1.1 2.2,0 4.3,0.8 6,2.1 2.9,2.2 4.6,6.5 4.6,6.5 0.2,0.6 0.4,1.2 0.4,1.8 0,0.6 -0.1,1.1 -0.3,1.7 -0.3,0.5 -0.6,1 -0.9,1.4 -0.4,0.4 -0.9,0.7 -1.4,0.9 -0.5,0.2 -1.1,0.3 -1.7,0.3 -0.6,0 -1.2,-0.1 -1.8,-0.4 -0.6,-0.3 -1.1,-0.7 -1.5,-1.1 0,0 0,-0.1 -0.1,-0.1 C 53.7,56.3 53.5,55.9 53.3,55.5 53.1,55 52.8,54.5 52.5,54 52.3,53.8 52.2,53.5 52,53.3 51.9,53.1 51.7,52.8 51.4,52.7 51,52.4 50.5,52.3 50.1,52.5 L 50,52.4 c -0.5,0.4 -0.8,0.9 -1,1.5 -0.6,1.5 -1.1,3 -1.5,4.6 l -0.2,0.9 -1.8,5.9 -2.5,5.6 c -0.9,1.2 -2.1,2.1 -3.5,2.8 -1.3,0.6 -2.8,1 -4.3,1 C 29,74.8 26.1,69.2 26.1,69.2 22.6,63.4 21.6,55.8 21.3,53.3 21.2,53 21.2,52.7 21.2,52.4 c 0,-0.8 0.2,-1.5 0.6,-2.2 0.4,-0.7 0.9,-1.2 1.6,-1.6 0.7,-0.3 1.5,-0.5 2.3,-0.5 1.3,0.1 2.5,0.7 3.3,1.8 0.5,0.9 0.8,1.8 0.8,2.8 0.2,2.3 0.7,4.5 1.3,6.6 z"
   id="path97"
   style="fill:url(#SVGID_7_)" />
		
			<radialGradient
   id="SVGID_8_"
   cx="-333.99249"
   cy="561.2583"
   r="0.62"
   gradientTransform="matrix(0.26,10.63,6.8,-0.17,-3682.4502,3701.1702)"
   gradientUnits="userSpaceOnUse">
			<stop
   offset="0"
   style="stop-color:#20735A"
   id="stop99" />
			<stop
   offset="0.15"
   style="stop-color:#20745A;stop-opacity:0.93"
   id="stop101" />
			<stop
   offset="0.38"
   style="stop-color:#21755C;stop-opacity:0.74"
   id="stop103" />
			<stop
   offset="0.67"
   style="stop-color:#21785D;stop-opacity:0.43"
   id="stop105" />
			<stop
   offset="1"
   style="stop-color:#227B60;stop-opacity:0"
   id="stop107" />
		</radialGradient>
		<path
   class="st6"
   d="m 31.1,59.3 c 0.5,1.7 1.2,3.3 2,4.9 0.3,0.7 0.8,1.3 1.4,1.8 l 0.4,0.2 c 1,0.2 1.5,-0.6 1.9,-1.3 0.5,-1.2 0.9,-2.4 1.2,-3.6 0.1,-0.2 0.1,-0.4 0.2,-0.7 0.1,-0.4 0.2,-0.9 0.3,-1.3 l 4.4,-11.7 c 0.9,-1.2 2.1,-2.2 3.5,-2.9 1.3,-0.7 2.8,-1.1 4.3,-1.1 2.2,0 4.3,0.8 6,2.1 2.9,2.2 4.6,6.5 4.6,6.5 0.2,0.6 0.4,1.2 0.4,1.8 0,0.6 -0.1,1.1 -0.3,1.7 -0.3,0.5 -0.6,1 -0.9,1.4 -0.4,0.4 -0.9,0.7 -1.4,0.9 -0.5,0.2 -1.1,0.3 -1.7,0.3 -0.6,0 -1.2,-0.1 -1.8,-0.4 -0.6,-0.3 -1.1,-0.7 -1.5,-1.1 0,0 0,-0.1 -0.1,-0.1 C 53.7,56.3 53.5,55.9 53.3,55.5 53.1,55 52.8,54.5 52.5,54 52.3,53.8 52.2,53.5 52,53.3 51.9,53.1 51.7,52.8 51.4,52.7 51,52.4 50.5,52.3 50.1,52.5 L 50,52.4 c -0.5,0.4 -0.8,0.9 -1,1.5 -0.6,1.5 -1.1,3 -1.5,4.6 l -0.2,0.9 -1.8,5.9 -2.5,5.6 c -0.9,1.2 -2.1,2.1 -3.5,2.8 -1.3,0.6 -2.8,1 -4.3,1 C 29,74.8 26.1,69.2 26.1,69.2 22.6,63.4 21.6,55.8 21.3,53.3 21.2,53 21.2,52.7 21.2,52.4 c 0,-0.8 0.2,-1.5 0.6,-2.2 0.4,-0.7 0.9,-1.2 1.6,-1.6 0.7,-0.3 1.5,-0.5 2.3,-0.5 1.3,0.1 2.5,0.7 3.3,1.8 0.5,0.9 0.8,1.8 0.8,2.8 0.2,2.3 0.7,4.5 1.3,6.6 z"
   id="path110"
   style="fill:url(#SVGID_8_)" />
		
			<radialGradient
   id="SVGID_9_"
   cx="-355.4729"
   cy="474.4451"
   r="0.62"
   gradientTransform="matrix(15.66,6.91,5.18,-11.74,3157.9001,8083.3496)"
   gradientUnits="userSpaceOnUse">
			<stop
   offset="0"
   style="stop-color:#227A61"
   id="stop112" />
			<stop
   offset="0.36"
   style="stop-color:#227A61;stop-opacity:0.56"
   id="stop114" />
			<stop
   offset="0.72"
   style="stop-color:#227A61;stop-opacity:0.16"
   id="stop116" />
			<stop
   offset="0.9"
   style="stop-color:#227A61;stop-opacity:0"
   id="stop118" />
		</radialGradient>
		<path
   class="st7"
   d="m 31.1,59.3 c 0.5,1.7 1.2,3.3 2,4.9 0.3,0.7 0.8,1.3 1.4,1.8 l 0.4,0.2 c 1,0.2 1.5,-0.6 1.9,-1.3 0.5,-1.2 0.9,-2.4 1.2,-3.6 0.1,-0.2 0.1,-0.4 0.2,-0.7 0.1,-0.4 0.2,-0.9 0.3,-1.3 l 4.4,-11.7 c 0.9,-1.2 2.1,-2.2 3.5,-2.9 1.3,-0.7 2.8,-1.1 4.3,-1.1 2.2,0 4.3,0.8 6,2.1 2.9,2.2 4.6,6.5 4.6,6.5 0.2,0.6 0.4,1.2 0.4,1.8 0,0.6 -0.1,1.1 -0.3,1.7 -0.3,0.5 -0.6,1 -0.9,1.4 -0.4,0.4 -0.9,0.7 -1.4,0.9 -0.5,0.2 -1.1,0.3 -1.7,0.3 -0.6,0 -1.2,-0.1 -1.8,-0.4 -0.6,-0.3 -1.1,-0.7 -1.5,-1.1 0,0 0,-0.1 -0.1,-0.1 C 53.7,56.3 53.5,55.9 53.3,55.5 53.1,55 52.8,54.5 52.5,54 52.3,53.8 52.2,53.5 52,53.3 51.9,53.1 51.7,52.8 51.4,52.7 51,52.4 50.5,52.3 50.1,52.5 L 50,52.4 c -0.5,0.4 -0.8,0.9 -1,1.5 -0.6,1.5 -1.1,3 -1.5,4.6 l -0.2,0.9 -1.8,5.9 -2.5,5.6 c -0.9,1.2 -2.1,2.1 -3.5,2.8 -1.3,0.6 -2.8,1 -4.3,1 C 29,74.8 26.1,69.2 26.1,69.2 22.6,63.4 21.6,55.8 21.3,53.3 21.2,53 21.2,52.7 21.2,52.4 c 0,-0.8 0.2,-1.5 0.6,-2.2 0.4,-0.7 0.9,-1.2 1.6,-1.6 0.7,-0.3 1.5,-0.5 2.3,-0.5 1.3,0.1 2.5,0.7 3.3,1.8 0.5,0.9 0.8,1.8 0.8,2.8 0.2,2.3 0.7,4.5 1.3,6.6 z"
   id="path121"
   style="fill:url(#SVGID_9_)" />
		
			<radialGradient
   id="SVGID_10_"
   cx="-361.19559"
   cy="491.73749"
   r="0.62"
   gradientTransform="matrix(18.63,13.18,12.05,-17.04,849.1897,13179.32)"
   gradientUnits="userSpaceOnUse">
			<stop
   offset="0"
   style="stop-color:#3CD9C3"
   id="stop123" />
			<stop
   offset="7.000000e-02"
   style="stop-color:#3BD7C1;stop-opacity:0.9"
   id="stop125" />
			<stop
   offset="0.41"
   style="stop-color:#38CEB9;stop-opacity:0.42"
   id="stop127" />
			<stop
   offset="0.65"
   style="stop-color:#36C8B4;stop-opacity:0.12"
   id="stop129" />
			<stop
   offset="0.76"
   style="stop-color:#35C6B2;stop-opacity:0"
   id="stop131" />
		</radialGradient>
		<path
   class="st8"
   d="m 31.1,59.3 c 0.5,1.7 1.2,3.3 2,4.9 0.3,0.7 0.8,1.3 1.4,1.8 l 0.4,0.2 c 1,0.2 1.5,-0.6 1.9,-1.3 0.5,-1.2 0.9,-2.4 1.2,-3.6 0.1,-0.2 0.1,-0.4 0.2,-0.7 0.1,-0.4 0.2,-0.9 0.3,-1.3 l 4.4,-11.7 c 0.9,-1.2 2.1,-2.2 3.5,-2.9 1.3,-0.7 2.8,-1.1 4.3,-1.1 2.2,0 4.3,0.8 6,2.1 2.9,2.2 4.6,6.5 4.6,6.5 0.2,0.6 0.4,1.2 0.4,1.8 0,0.6 -0.1,1.1 -0.3,1.7 -0.3,0.5 -0.6,1 -0.9,1.4 -0.4,0.4 -0.9,0.7 -1.4,0.9 -0.5,0.2 -1.1,0.3 -1.7,0.3 -0.6,0 -1.2,-0.1 -1.8,-0.4 -0.6,-0.3 -1.1,-0.7 -1.5,-1.1 0,0 0,-0.1 -0.1,-0.1 C 53.7,56.3 53.5,55.9 53.3,55.5 53.1,55 52.8,54.5 52.5,54 52.3,53.8 52.2,53.5 52,53.3 51.9,53.1 51.7,52.8 51.4,52.7 51,52.4 50.5,52.3 50.1,52.5 L 50,52.4 c -0.5,0.4 -0.8,0.9 -1,1.5 -0.6,1.5 -1.1,3 -1.5,4.6 l -0.2,0.9 -1.8,5.9 -2.5,5.6 c -0.9,1.2 -2.1,2.1 -3.5,2.8 -1.3,0.6 -2.8,1 -4.3,1 C 29,74.8 26.1,69.2 26.1,69.2 22.6,63.4 21.6,55.8 21.3,53.3 21.2,53 21.2,52.7 21.2,52.4 c 0,-0.8 0.2,-1.5 0.6,-2.2 0.4,-0.7 0.9,-1.2 1.6,-1.6 0.7,-0.3 1.5,-0.5 2.3,-0.5 1.3,0.1 2.5,0.7 3.3,1.8 0.5,0.9 0.8,1.8 0.8,2.8 0.2,2.3 0.7,4.5 1.3,6.6 z"
   id="path134"
   style="fill:url(#SVGID_10_)" />
		
			<radialGradient
   id="SVGID_11_"
   cx="-385.14981"
   cy="501.50439"
   r="0.62"
   gradientTransform="matrix(3310.55,2341.6101,1643.22,-2323.1799,427962,2035670.3)"
   gradientUnits="userSpaceOnUse">
			<stop
   offset="0"
   style="stop-color:#3CD9C3"
   id="stop136" />
			<stop
   offset="7.000000e-02"
   style="stop-color:#3BD7C1;stop-opacity:0.9"
   id="stop138" />
			<stop
   offset="0.41"
   style="stop-color:#38CEB9;stop-opacity:0.42"
   id="stop140" />
			<stop
   offset="0.65"
   style="stop-color:#36C8B4;stop-opacity:0.12"
   id="stop142" />
			<stop
   offset="0.76"
   style="stop-color:#35C6B2;stop-opacity:0"
   id="stop144" />
		</radialGradient>
		<path
   class="st9"
   d="m 31.1,59.3 c 0.5,1.7 1.2,3.3 2,4.9 0.3,0.7 0.8,1.3 1.4,1.8 l 0.4,0.2 c 1,0.2 1.5,-0.6 1.9,-1.3 0.5,-1.2 0.9,-2.4 1.2,-3.6 0.1,-0.2 0.1,-0.4 0.2,-0.7 0.1,-0.4 0.2,-0.9 0.3,-1.3 l 4.4,-11.7 c 0.9,-1.2 2.1,-2.2 3.5,-2.9 1.3,-0.7 2.8,-1.1 4.3,-1.1 2.2,0 4.3,0.8 6,2.1 2.9,2.2 4.6,6.5 4.6,6.5 0.2,0.6 0.4,1.2 0.4,1.8 0,0.6 -0.1,1.1 -0.3,1.7 -0.3,0.5 -0.6,1 -0.9,1.4 -0.4,0.4 -0.9,0.7 -1.4,0.9 -0.5,0.2 -1.1,0.3 -1.7,0.3 -0.6,0 -1.2,-0.1 -1.8,-0.4 -0.6,-0.3 -1.1,-0.7 -1.5,-1.1 0,0 0,-0.1 -0.1,-0.1 C 53.7,56.3 53.5,55.9 53.3,55.5 53.1,55 52.8,54.5 52.5,54 52.3,53.8 52.2,53.5 52,53.3 51.9,53.1 51.7,52.8 51.4,52.7 51,52.4 50.5,52.3 50.1,52.5 L 50,52.4 c -0.5,0.4 -0.8,0.9 -1,1.5 -0.6,1.5 -1.1,3 -1.5,4.6 l -0.2,0.9 -1.8,5.9 -2.5,5.6 c -0.9,1.2 -2.1,2.1 -3.5,2.8 -1.3,0.6 -2.8,1 -4.3,1 C 29,74.8 26.1,69.2 26.1,69.2 22.6,63.4 21.6,55.8 21.3,53.3 21.2,53 21.2,52.7 21.2,52.4 c 0,-0.8 0.2,-1.5 0.6,-2.2 0.4,-0.7 0.9,-1.2 1.6,-1.6 0.7,-0.3 1.5,-0.5 2.3,-0.5 1.3,0.1 2.5,0.7 3.3,1.8 0.5,0.9 0.8,1.8 0.8,2.8 0.2,2.3 0.7,4.5 1.3,6.6 z"
   id="path147"
   style="fill:url(#SVGID_11_)" />
		
			<radialGradient
   id="SVGID_12_"
   cx="-365.81271"
   cy="524.63037"
   r="0.62"
   gradientTransform="matrix(-3.83,19.76,24.42,4.73,-14161.86,4806)"
   gradientUnits="userSpaceOnUse">
			<stop
   offset="0"
   style="stop-color:#237F66;stop-opacity:0.8"
   id="stop149" />
			<stop
   offset="6.000000e-02"
   style="stop-color:#2C8C70;stop-opacity:0.65"
   id="stop151" />
			<stop
   offset="0.21"
   style="stop-color:#3DA785;stop-opacity:0.37"
   id="stop153" />
			<stop
   offset="0.35"
   style="stop-color:#4ABA93;stop-opacity:0.17"
   id="stop155" />
			<stop
   offset="0.47"
   style="stop-color:#51C59C;stop-opacity:4.000000e-02"
   id="stop157" />
			<stop
   offset="0.56"
   style="stop-color:#54C99F;stop-opacity:0"
   id="stop159" />
		</radialGradient>
		<path
   class="st10"
   d="m 31.1,59.3 c 0.5,1.7 1.2,3.3 2,4.9 0.3,0.7 0.8,1.3 1.4,1.8 l 0.4,0.2 c 1,0.2 1.5,-0.6 1.9,-1.3 0.5,-1.2 0.9,-2.4 1.2,-3.6 0.1,-0.2 0.1,-0.4 0.2,-0.7 0.1,-0.4 0.2,-0.9 0.3,-1.3 l 4.4,-11.7 c 0.9,-1.2 2.1,-2.2 3.5,-2.9 1.3,-0.7 2.8,-1.1 4.3,-1.1 2.2,0 4.3,0.8 6,2.1 2.9,2.2 4.6,6.5 4.6,6.5 0.2,0.6 0.4,1.2 0.4,1.8 0,0.6 -0.1,1.1 -0.3,1.7 -0.3,0.5 -0.6,1 -0.9,1.4 -0.4,0.4 -0.9,0.7 -1.4,0.9 -0.5,0.2 -1.1,0.3 -1.7,0.3 -0.6,0 -1.2,-0.1 -1.8,-0.4 -0.6,-0.3 -1.1,-0.7 -1.5,-1.1 0,0 0,-0.1 -0.1,-0.1 C 53.7,56.3 53.5,55.9 53.3,55.5 53.1,55 52.8,54.5 52.5,54 52.3,53.8 52.2,53.5 52,53.3 51.9,53.1 51.7,52.8 51.4,52.7 51,52.4 50.5,52.3 50.1,52.5 L 50,52.4 c -0.5,0.4 -0.8,0.9 -1,1.5 -0.6,1.5 -1.1,3 -1.5,4.6 l -0.2,0.9 -1.8,5.9 -2.5,5.6 c -0.9,1.2 -2.1,2.1 -3.5,2.8 -1.3,0.6 -2.8,1 -4.3,1 C 29,74.8 26.1,69.2 26.1,69.2 22.6,63.4 21.6,55.8 21.3,53.3 21.2,53 21.2,52.7 21.2,52.4 c 0,-0.8 0.2,-1.5 0.6,-2.2 0.4,-0.7 0.9,-1.2 1.6,-1.6 0.7,-0.3 1.5,-0.5 2.3,-0.5 1.3,0.1 2.5,0.7 3.3,1.8 0.5,0.9 0.8,1.8 0.8,2.8 0.2,2.3 0.7,4.5 1.3,6.6 z"
   id="path162"
   style="fill:url(#SVGID_12_)" />
		
			<radialGradient
   id="SVGID_13_"
   cx="-398.77521"
   cy="480.02411"
   r="0.62"
   gradientTransform="matrix(16.62,-20.39,-22.02,-17.95,17241.711,545.3405)"
   gradientUnits="userSpaceOnUse">
			<stop
   offset="0"
   style="stop-color:#167C8A"
   id="stop164" />
			<stop
   offset="4.000000e-02"
   style="stop-color:#167C8A;stop-opacity:0.93"
   id="stop166" />
			<stop
   offset="0.33"
   style="stop-color:#177F8D;stop-opacity:0.43"
   id="stop168" />
			<stop
   offset="0.54"
   style="stop-color:#17818F;stop-opacity:0.12"
   id="stop170" />
			<stop
   offset="0.65"
   style="stop-color:#178290;stop-opacity:0"
   id="stop172" />
		</radialGradient>
		<path
   class="st11"
   d="m 31.1,59.3 c 0.5,1.7 1.2,3.3 2,4.9 0.3,0.7 0.8,1.3 1.4,1.8 l 0.4,0.2 c 1,0.2 1.5,-0.6 1.9,-1.3 0.5,-1.2 0.9,-2.4 1.2,-3.6 0.1,-0.2 0.1,-0.4 0.2,-0.7 0.1,-0.4 0.2,-0.9 0.3,-1.3 l 4.4,-11.7 c 0.9,-1.2 2.1,-2.2 3.5,-2.9 1.3,-0.7 2.8,-1.1 4.3,-1.1 2.2,0 4.3,0.8 6,2.1 2.9,2.2 4.6,6.5 4.6,6.5 0.2,0.6 0.4,1.2 0.4,1.8 0,0.6 -0.1,1.1 -0.3,1.7 -0.3,0.5 -0.6,1 -0.9,1.4 -0.4,0.4 -0.9,0.7 -1.4,0.9 -0.5,0.2 -1.1,0.3 -1.7,0.3 -0.6,0 -1.2,-0.1 -1.8,-0.4 -0.6,-0.3 -1.1,-0.7 -1.5,-1.1 0,0 0,-0.1 -0.1,-0.1 C 53.7,56.3 53.5,55.9 53.3,55.5 53.1,55 52.8,54.5 52.5,54 52.3,53.8 52.2,53.5 52,53.3 51.9,53.1 51.7,52.8 51.4,52.7 51,52.4 50.5,52.3 50.1,52.5 L 50,52.4 c -0.5,0.4 -0.8,0.9 -1,1.5 -0.6,1.5 -1.1,3 -1.5,4.6 l -0.2,0.9 -1.8,5.9 -2.5,5.6 c -0.9,1.2 -2.1,2.1 -3.5,2.8 -1.3,0.6 -2.8,1 -4.3,1 C 29,74.8 26.1,69.2 26.1,69.2 22.6,63.4 21.6,55.8 21.3,53.3 21.2,53 21.2,52.7 21.2,52.4 c 0,-0.8 0.2,-1.5 0.6,-2.2 0.4,-0.7 0.9,-1.2 1.6,-1.6 0.7,-0.3 1.5,-0.5 2.3,-0.5 1.3,0.1 2.5,0.7 3.3,1.8 0.5,0.9 0.8,1.8 0.8,2.8 0.2,2.3 0.7,4.5 1.3,6.6 z"
   id="path175"
   style="fill:url(#SVGID_13_)" />
		
			<radialGradient
   id="SVGID_14_"
   cx="-389.67068"
   cy="468.89182"
   r="0.62"
   gradientTransform="matrix(21.84,-13.47,-10.64,-17.26,13542.74,2905.5701)"
   gradientUnits="userSpaceOnUse">
			<stop
   offset="5.000000e-02"
   style="stop-color:#177D87"
   id="stop177" />
			<stop
   offset="0.11"
   style="stop-color:#177E89;stop-opacity:0.8"
   id="stop179" />
			<stop
   offset="0.21"
   style="stop-color:#177F8B;stop-opacity:0.52"
   id="stop181" />
			<stop
   offset="0.32"
   style="stop-color:#17818D;stop-opacity:0.29"
   id="stop183" />
			<stop
   offset="0.42"
   style="stop-color:#17818F;stop-opacity:0.13"
   id="stop185" />
			<stop
   offset="0.51"
   style="stop-color:#178290;stop-opacity:3.000000e-02"
   id="stop187" />
			<stop
   offset="0.6"
   style="stop-color:#178290;stop-opacity:0"
   id="stop189" />
		</radialGradient>
		<path
   class="st12"
   d="m 31.1,59.3 c 0.5,1.7 1.2,3.3 2,4.9 0.3,0.7 0.8,1.3 1.4,1.8 l 0.4,0.2 c 1,0.2 1.5,-0.6 1.9,-1.3 0.5,-1.2 0.9,-2.4 1.2,-3.6 0.1,-0.2 0.1,-0.4 0.2,-0.7 0.1,-0.4 0.2,-0.9 0.3,-1.3 l 4.4,-11.7 c 0.9,-1.2 2.1,-2.2 3.5,-2.9 1.3,-0.7 2.8,-1.1 4.3,-1.1 2.2,0 4.3,0.8 6,2.1 2.9,2.2 4.6,6.5 4.6,6.5 0.2,0.6 0.4,1.2 0.4,1.8 0,0.6 -0.1,1.1 -0.3,1.7 -0.3,0.5 -0.6,1 -0.9,1.4 -0.4,0.4 -0.9,0.7 -1.4,0.9 -0.5,0.2 -1.1,0.3 -1.7,0.3 -0.6,0 -1.2,-0.1 -1.8,-0.4 -0.6,-0.3 -1.1,-0.7 -1.5,-1.1 0,0 0,-0.1 -0.1,-0.1 C 53.7,56.3 53.5,55.9 53.3,55.5 53.1,55 52.8,54.5 52.5,54 52.3,53.8 52.2,53.5 52,53.3 51.9,53.1 51.7,52.8 51.4,52.7 51,52.4 50.5,52.3 50.1,52.5 L 50,52.4 c -0.5,0.4 -0.8,0.9 -1,1.5 -0.6,1.5 -1.1,3 -1.5,4.6 l -0.2,0.9 -1.8,5.9 -2.5,5.6 c -0.9,1.2 -2.1,2.1 -3.5,2.8 -1.3,0.6 -2.8,1 -4.3,1 C 29,74.8 26.1,69.2 26.1,69.2 22.6,63.4 21.6,55.8 21.3,53.3 21.2,53 21.2,52.7 21.2,52.4 c 0,-0.8 0.2,-1.5 0.6,-2.2 0.4,-0.7 0.9,-1.2 1.6,-1.6 0.7,-0.3 1.5,-0.5 2.3,-0.5 1.3,0.1 2.5,0.7 3.3,1.8 0.5,0.9 0.8,1.8 0.8,2.8 0.2,2.3 0.7,4.5 1.3,6.6 z"
   id="path192"
   style="fill:url(#SVGID_14_)" />
		
			<radialGradient
   id="SVGID_15_"
   cx="-437.79361"
   cy="510.5567"
   r="0.62"
   gradientTransform="matrix(-9.94,-11.62,-9.15,7.82,359.93,-9018.6104)"
   gradientUnits="userSpaceOnUse">
			<stop
   offset="0.26"
   style="stop-color:#177F8A"
   id="stop194" />
			<stop
   offset="0.27"
   style="stop-color:#177F8A;stop-opacity:0.98"
   id="stop196" />
			<stop
   offset="0.38"
   style="stop-color:#17808C;stop-opacity:0.68"
   id="stop198" />
			<stop
   offset="0.5"
   style="stop-color:#17818D;stop-opacity:0.43"
   id="stop200" />
			<stop
   offset="0.62"
   style="stop-color:#17818F;stop-opacity:0.24"
   id="stop202" />
			<stop
   offset="0.74"
   style="stop-color:#17828F;stop-opacity:0.11"
   id="stop204" />
			<stop
   offset="0.86"
   style="stop-color:#178290;stop-opacity:3.000000e-02"
   id="stop206" />
			<stop
   offset="1"
   style="stop-color:#178290;stop-opacity:0"
   id="stop208" />
		</radialGradient>
		<path
   class="st13"
   d="m 31.1,59.3 c 0.5,1.7 1.2,3.3 2,4.9 0.3,0.7 0.8,1.3 1.4,1.8 l 0.4,0.2 c 1,0.2 1.5,-0.6 1.9,-1.3 0.5,-1.2 0.9,-2.4 1.2,-3.6 0.1,-0.2 0.1,-0.4 0.2,-0.7 0.1,-0.4 0.2,-0.9 0.3,-1.3 l 4.4,-11.7 c 0.9,-1.2 2.1,-2.2 3.5,-2.9 1.3,-0.7 2.8,-1.1 4.3,-1.1 2.2,0 4.3,0.8 6,2.1 2.9,2.2 4.6,6.5 4.6,6.5 0.2,0.6 0.4,1.2 0.4,1.8 0,0.6 -0.1,1.1 -0.3,1.7 -0.3,0.5 -0.6,1 -0.9,1.4 -0.4,0.4 -0.9,0.7 -1.4,0.9 -0.5,0.2 -1.1,0.3 -1.7,0.3 -0.6,0 -1.2,-0.1 -1.8,-0.4 -0.6,-0.3 -1.1,-0.7 -1.5,-1.1 0,0 0,-0.1 -0.1,-0.1 C 53.7,56.3 53.5,55.9 53.3,55.5 53.1,55 52.8,54.5 52.5,54 52.3,53.8 52.2,53.5 52,53.3 51.9,53.1 51.7,52.8 51.4,52.7 51,52.4 50.5,52.3 50.1,52.5 L 50,52.4 c -0.5,0.4 -0.8,0.9 -1,1.5 -0.6,1.5 -1.1,3 -1.5,4.6 l -0.2,0.9 -1.8,5.9 -2.5,5.6 c -0.9,1.2 -2.1,2.1 -3.5,2.8 -1.3,0.6 -2.8,1 -4.3,1 C 29,74.8 26.1,69.2 26.1,69.2 22.6,63.4 21.6,55.8 21.3,53.3 21.2,53 21.2,52.7 21.2,52.4 c 0,-0.8 0.2,-1.5 0.6,-2.2 0.4,-0.7 0.9,-1.2 1.6,-1.6 0.7,-0.3 1.5,-0.5 2.3,-0.5 1.3,0.1 2.5,0.7 3.3,1.8 0.5,0.9 0.8,1.8 0.8,2.8 0.2,2.3 0.7,4.5 1.3,6.6 z"
   id="path211"
   style="fill:url(#SVGID_15_)" />
		
			<radialGradient
   id="SVGID_16_"
   cx="-424.2619"
   cy="541.7818"
   r="0.62"
   gradientTransform="matrix(-14.2364,-1.7203,-1.7203,14.2364,-5070.5723,-8378.6113)"
   gradientUnits="userSpaceOnUse">
			<stop
   offset="0"
   style="stop-color:#13656E"
   id="stop213" />
			<stop
   offset="0.11"
   style="stop-color:#13646E;stop-opacity:0.73"
   id="stop215" />
			<stop
   offset="0.27"
   style="stop-color:#12646E;stop-opacity:0.41"
   id="stop217" />
			<stop
   offset="0.42"
   style="stop-color:#12636E;stop-opacity:0.18"
   id="stop219" />
			<stop
   offset="0.55"
   style="stop-color:#12636E;stop-opacity:5.000000e-02"
   id="stop221" />
			<stop
   offset="0.66"
   style="stop-color:#12636E;stop-opacity:0"
   id="stop223" />
		</radialGradient>
		<path
   class="st14"
   d="m 31.1,59.3 c 0.5,1.7 1.2,3.3 2,4.9 0.3,0.7 0.8,1.3 1.4,1.8 l 0.4,0.2 c 1,0.2 1.5,-0.6 1.9,-1.3 0.5,-1.2 0.9,-2.4 1.2,-3.6 0.1,-0.2 0.1,-0.4 0.2,-0.7 0.1,-0.4 0.2,-0.9 0.3,-1.3 l 4.4,-11.7 c 0.9,-1.2 2.1,-2.2 3.5,-2.9 1.3,-0.7 2.8,-1.1 4.3,-1.1 2.2,0 4.3,0.8 6,2.1 2.9,2.2 4.6,6.5 4.6,6.5 0.2,0.6 0.4,1.2 0.4,1.8 0,0.6 -0.1,1.1 -0.3,1.7 -0.3,0.5 -0.6,1 -0.9,1.4 -0.4,0.4 -0.9,0.7 -1.4,0.9 -0.5,0.2 -1.1,0.3 -1.7,0.3 -0.6,0 -1.2,-0.1 -1.8,-0.4 -0.6,-0.3 -1.1,-0.7 -1.5,-1.1 0,0 0,-0.1 -0.1,-0.1 C 53.7,56.3 53.5,55.9 53.3,55.5 53.1,55 52.8,54.5 52.5,54 52.3,53.8 52.2,53.5 52,53.3 51.9,53.1 51.7,52.8 51.4,52.7 51,52.4 50.5,52.3 50.1,52.5 L 50,52.4 c -0.5,0.4 -0.8,0.9 -1,1.5 -0.6,1.5 -1.1,3 -1.5,4.6 l -0.2,0.9 -1.8,5.9 -2.5,5.6 c -0.9,1.2 -2.1,2.1 -3.5,2.8 -1.3,0.6 -2.8,1 -4.3,1 C 29,74.8 26.1,69.2 26.1,69.2 22.6,63.4 21.6,55.8 21.3,53.3 21.2,53 21.2,52.7 21.2,52.4 c 0,-0.8 0.2,-1.5 0.6,-2.2 0.4,-0.7 0.9,-1.2 1.6,-1.6 0.7,-0.3 1.5,-0.5 2.3,-0.5 1.3,0.1 2.5,0.7 3.3,1.8 0.5,0.9 0.8,1.8 0.8,2.8 0.2,2.3 0.7,4.5 1.3,6.6 z"
   id="path226"
   style="fill:url(#SVGID_16_)" />
		
			<radialGradient
   id="SVGID_17_"
   cx="-462.3103"
   cy="496.25989"
   r="0.62"
   gradientTransform="matrix(-4.91,-8.74,-7.35,4.13,1413.96,-6024.3701)"
   gradientUnits="userSpaceOnUse">
			<stop
   offset="0.13"
   style="stop-color:#146A73"
   id="stop228" />
			<stop
   offset="0.24"
   style="stop-color:#156F79;stop-opacity:0.79"
   id="stop230" />
			<stop
   offset="0.45"
   style="stop-color:#167783;stop-opacity:0.45"
   id="stop232" />
			<stop
   offset="0.65"
   style="stop-color:#167D8A;stop-opacity:0.2"
   id="stop234" />
			<stop
   offset="0.82"
   style="stop-color:#17818E;stop-opacity:5.000000e-02"
   id="stop236" />
			<stop
   offset="0.95"
   style="stop-color:#178290;stop-opacity:0"
   id="stop238" />
		</radialGradient>
		<path
   class="st15"
   d="m 31.1,59.3 c 0.5,1.7 1.2,3.3 2,4.9 0.3,0.7 0.8,1.3 1.4,1.8 l 0.4,0.2 c 1,0.2 1.5,-0.6 1.9,-1.3 0.5,-1.2 0.9,-2.4 1.2,-3.6 0.1,-0.2 0.1,-0.4 0.2,-0.7 0.1,-0.4 0.2,-0.9 0.3,-1.3 l 4.4,-11.7 c 0.9,-1.2 2.1,-2.2 3.5,-2.9 1.3,-0.7 2.8,-1.1 4.3,-1.1 2.2,0 4.3,0.8 6,2.1 2.9,2.2 4.6,6.5 4.6,6.5 0.2,0.6 0.4,1.2 0.4,1.8 0,0.6 -0.1,1.1 -0.3,1.7 -0.3,0.5 -0.6,1 -0.9,1.4 -0.4,0.4 -0.9,0.7 -1.4,0.9 -0.5,0.2 -1.1,0.3 -1.7,0.3 -0.6,0 -1.2,-0.1 -1.8,-0.4 -0.6,-0.3 -1.1,-0.7 -1.5,-1.1 0,0 0,-0.1 -0.1,-0.1 C 53.7,56.3 53.5,55.9 53.3,55.5 53.1,55 52.8,54.5 52.5,54 52.3,53.8 52.2,53.5 52,53.3 51.9,53.1 51.7,52.8 51.4,52.7 51,52.4 50.5,52.3 50.1,52.5 L 50,52.4 c -0.5,0.4 -0.8,0.9 -1,1.5 -0.6,1.5 -1.1,3 -1.5,4.6 l -0.2,0.9 -1.8,5.9 -2.5,5.6 c -0.9,1.2 -2.1,2.1 -3.5,2.8 -1.3,0.6 -2.8,1 -4.3,1 C 29,74.8 26.1,69.2 26.1,69.2 22.6,63.4 21.6,55.8 21.3,53.3 21.2,53 21.2,52.7 21.2,52.4 c 0,-0.8 0.2,-1.5 0.6,-2.2 0.4,-0.7 0.9,-1.2 1.6,-1.6 0.7,-0.3 1.5,-0.5 2.3,-0.5 1.3,0.1 2.5,0.7 3.3,1.8 0.5,0.9 0.8,1.8 0.8,2.8 0.2,2.3 0.7,4.5 1.3,6.6 z"
   id="path241"
   style="fill:url(#SVGID_17_)" />
		
			<radialGradient
   id="SVGID_18_"
   cx="-418.73529"
   cy="414.5235"
   r="0.62"
   gradientTransform="matrix(5.28,-7.82,-6.2,-4.18,4815.96,-1478.9102)"
   gradientUnits="userSpaceOnUse">
			<stop
   offset="0"
   style="stop-color:#198E9C"
   id="stop243" />
			<stop
   offset="0.1"
   style="stop-color:#198E9C;stop-opacity:0.87"
   id="stop245" />
			<stop
   offset="0.41"
   style="stop-color:#198E9C;stop-opacity:0.5"
   id="stop247" />
			<stop
   offset="0.67"
   style="stop-color:#198E9C;stop-opacity:0.23"
   id="stop249" />
			<stop
   offset="0.88"
   style="stop-color:#198E9C;stop-opacity:6.000000e-02"
   id="stop251" />
			<stop
   offset="1"
   style="stop-color:#198E9C;stop-opacity:0"
   id="stop253" />
		</radialGradient>
		<path
   class="st16"
   d="m 31.1,59.3 c 0.5,1.7 1.2,3.3 2,4.9 0.3,0.7 0.8,1.3 1.4,1.8 l 0.4,0.2 c 1,0.2 1.5,-0.6 1.9,-1.3 0.5,-1.2 0.9,-2.4 1.2,-3.6 0.1,-0.2 0.1,-0.4 0.2,-0.7 0.1,-0.4 0.2,-0.9 0.3,-1.3 l 4.4,-11.7 c 0.9,-1.2 2.1,-2.2 3.5,-2.9 1.3,-0.7 2.8,-1.1 4.3,-1.1 2.2,0 4.3,0.8 6,2.1 2.9,2.2 4.6,6.5 4.6,6.5 0.2,0.6 0.4,1.2 0.4,1.8 0,0.6 -0.1,1.1 -0.3,1.7 -0.3,0.5 -0.6,1 -0.9,1.4 -0.4,0.4 -0.9,0.7 -1.4,0.9 -0.5,0.2 -1.1,0.3 -1.7,0.3 -0.6,0 -1.2,-0.1 -1.8,-0.4 -0.6,-0.3 -1.1,-0.7 -1.5,-1.1 0,0 0,-0.1 -0.1,-0.1 C 53.7,56.3 53.5,55.9 53.3,55.5 53.1,55 52.8,54.5 52.5,54 52.3,53.8 52.2,53.5 52,53.3 51.9,53.1 51.7,52.8 51.4,52.7 51,52.4 50.5,52.3 50.1,52.5 L 50,52.4 c -0.5,0.4 -0.8,0.9 -1,1.5 -0.6,1.5 -1.1,3 -1.5,4.6 l -0.2,0.9 -1.8,5.9 -2.5,5.6 c -0.9,1.2 -2.1,2.1 -3.5,2.8 -1.3,0.6 -2.8,1 -4.3,1 C 29,74.8 26.1,69.2 26.1,69.2 22.6,63.4 21.6,55.8 21.3,53.3 21.2,53 21.2,52.7 21.2,52.4 c 0,-0.8 0.2,-1.5 0.6,-2.2 0.4,-0.7 0.9,-1.2 1.6,-1.6 0.7,-0.3 1.5,-0.5 2.3,-0.5 1.3,0.1 2.5,0.7 3.3,1.8 0.5,0.9 0.8,1.8 0.8,2.8 0.2,2.3 0.7,4.5 1.3,6.6 z"
   id="path256"
   style="fill:url(#SVGID_18_)" />
		
			<linearGradient
   id="SVGID_19_"
   gradientUnits="userSpaceOnUse"
   x1="32.2794"
   y1="-99.109001"
   x2="47.179401"
   y2="-112.899"
   gradientTransform="matrix(1,0,0,-1,-7,-56.22)">
			<stop
   offset="0.13"
   style="stop-color:#2BF9FF"
   id="stop258" />
			<stop
   offset="0.27"
   style="stop-color:#29F9FF;stop-opacity:0.64"
   id="stop260" />
			<stop
   offset="0.4"
   style="stop-color:#27FAFF;stop-opacity:0.3"
   id="stop262" />
			<stop
   offset="0.49"
   style="stop-color:#26FAFF;stop-opacity:8.000000e-02"
   id="stop264" />
			<stop
   offset="0.54"
   style="stop-color:#26FAFF;stop-opacity:0"
   id="stop266" />
		</linearGradient>
		<path
   class="st17"
   d="m 31.1,59.3 c 0.5,1.7 1.2,3.3 2,4.9 0.3,0.7 0.8,1.3 1.4,1.8 l 0.4,0.2 c 1,0.2 1.5,-0.6 1.9,-1.3 0.5,-1.2 0.9,-2.4 1.2,-3.6 0.1,-0.2 0.1,-0.4 0.2,-0.7 0.1,-0.4 0.2,-0.9 0.3,-1.3 l 4.4,-11.7 c 0.9,-1.2 2.1,-2.2 3.5,-2.9 1.3,-0.7 2.8,-1.1 4.3,-1.1 2.2,0 4.3,0.8 6,2.1 2.9,2.2 4.6,6.5 4.6,6.5 0.2,0.6 0.4,1.2 0.4,1.8 0,0.6 -0.1,1.1 -0.3,1.7 -0.3,0.5 -0.6,1 -0.9,1.4 -0.4,0.4 -0.9,0.7 -1.4,0.9 -0.5,0.2 -1.1,0.3 -1.7,0.3 -0.6,0 -1.2,-0.1 -1.8,-0.4 -0.6,-0.3 -1.1,-0.7 -1.5,-1.1 0,0 0,-0.1 -0.1,-0.1 C 53.7,56.3 53.5,55.9 53.3,55.5 53.1,55 52.8,54.5 52.5,54 52.3,53.8 52.2,53.5 52,53.3 51.9,53.1 51.7,52.8 51.4,52.7 51,52.4 50.5,52.3 50.1,52.5 L 50,52.4 c -0.5,0.4 -0.8,0.9 -1,1.5 -0.6,1.5 -1.1,3 -1.5,4.6 l -0.2,0.9 -1.8,5.9 -2.5,5.6 c -0.9,1.2 -2.1,2.1 -3.5,2.8 -1.3,0.6 -2.8,1 -4.3,1 C 29,74.8 26.1,69.2 26.1,69.2 22.6,63.4 21.6,55.8 21.3,53.3 21.2,53 21.2,52.7 21.2,52.4 c 0,-0.8 0.2,-1.5 0.6,-2.2 0.4,-0.7 0.9,-1.2 1.6,-1.6 0.7,-0.3 1.5,-0.5 2.3,-0.5 1.3,0.1 2.5,0.7 3.3,1.8 0.5,0.9 0.8,1.8 0.8,2.8 0.2,2.3 0.7,4.5 1.3,6.6 z"
   id="path269"
   style="fill:url(#SVGID_19_)" />
		
			<linearGradient
   id="SVGID_20_"
   gradientUnits="userSpaceOnUse"
   x1="23.841999"
   y1="-121.6219"
   x2="41.242001"
   y2="-116.6919"
   gradientTransform="matrix(1,0,0,-1,-7,-56.22)">
			<stop
   offset="0"
   style="stop-color:#26FAFF"
   id="stop271" />
			<stop
   offset="6.000000e-02"
   style="stop-color:#26FAFF;stop-opacity:0.88"
   id="stop273" />
			<stop
   offset="0.24"
   style="stop-color:#26FAFF;stop-opacity:0.51"
   id="stop275" />
			<stop
   offset="0.39"
   style="stop-color:#26FAFF;stop-opacity:0.23"
   id="stop277" />
			<stop
   offset="0.5"
   style="stop-color:#26FAFF;stop-opacity:6.000000e-02"
   id="stop279" />
			<stop
   offset="0.55"
   style="stop-color:#26FAFF;stop-opacity:0"
   id="stop281" />
		</linearGradient>
		<path
   class="st18"
   d="m 31.1,59.3 c 0.5,1.7 1.2,3.3 2,4.9 0.3,0.7 0.8,1.3 1.4,1.8 l 0.4,0.2 c 1,0.2 1.5,-0.6 1.9,-1.3 0.5,-1.2 0.9,-2.4 1.2,-3.6 0.1,-0.2 0.1,-0.4 0.2,-0.7 0.1,-0.4 0.2,-0.9 0.3,-1.3 l 4.4,-11.7 c 0.9,-1.2 2.1,-2.2 3.5,-2.9 1.3,-0.7 2.8,-1.1 4.3,-1.1 2.2,0 4.3,0.8 6,2.1 2.9,2.2 4.6,6.5 4.6,6.5 0.2,0.6 0.4,1.2 0.4,1.8 0,0.6 -0.1,1.1 -0.3,1.7 -0.3,0.5 -0.6,1 -0.9,1.4 -0.4,0.4 -0.9,0.7 -1.4,0.9 -0.5,0.2 -1.1,0.3 -1.7,0.3 -0.6,0 -1.2,-0.1 -1.8,-0.4 -0.6,-0.3 -1.1,-0.7 -1.5,-1.1 0,0 0,-0.1 -0.1,-0.1 C 53.7,56.3 53.5,55.9 53.3,55.5 53.1,55 52.8,54.5 52.5,54 52.3,53.8 52.2,53.5 52,53.3 51.9,53.1 51.7,52.8 51.4,52.7 51,52.4 50.5,52.3 50.1,52.5 L 50,52.4 c -0.5,0.4 -0.8,0.9 -1,1.5 -0.6,1.5 -1.1,3 -1.5,4.6 l -0.2,0.9 -1.8,5.9 -2.5,5.6 c -0.9,1.2 -2.1,2.1 -3.5,2.8 -1.3,0.6 -2.8,1 -4.3,1 C 29,74.8 26.1,69.2 26.1,69.2 22.6,63.4 21.6,55.8 21.3,53.3 21.2,53 21.2,52.7 21.2,52.4 c 0,-0.8 0.2,-1.5 0.6,-2.2 0.4,-0.7 0.9,-1.2 1.6,-1.6 0.7,-0.3 1.5,-0.5 2.3,-0.5 1.3,0.1 2.5,0.7 3.3,1.8 0.5,0.9 0.8,1.8 0.8,2.8 0.2,2.3 0.7,4.5 1.3,6.6 z"
   id="path284"
   style="fill:url(#SVGID_20_)" />
		
			<linearGradient
   id="SVGID_21_"
   gradientUnits="userSpaceOnUse"
   x1="28.452999"
   y1="-121.0305"
   x2="48.063"
   y2="-114.0305"
   gradientTransform="matrix(1,0,0,-1,-7,-56.22)">
			<stop
   offset="0"
   style="stop-color:#21DEFF"
   id="stop286" />
			<stop
   offset="4.000000e-02"
   style="stop-color:#21DEFF;stop-opacity:0.88"
   id="stop288" />
			<stop
   offset="0.17"
   style="stop-color:#21DEFF;stop-opacity:0.51"
   id="stop290" />
			<stop
   offset="0.27"
   style="stop-color:#21DEFF;stop-opacity:0.23"
   id="stop292" />
			<stop
   offset="0.34"
   style="stop-color:#21DEFF;stop-opacity:6.000000e-02"
   id="stop294" />
			<stop
   offset="0.38"
   style="stop-color:#21DEFF;stop-opacity:0"
   id="stop296" />
		</linearGradient>
		<path
   class="st19"
   d="m 31.1,59.3 c 0.5,1.7 1.2,3.3 2,4.9 0.3,0.7 0.8,1.3 1.4,1.8 l 0.4,0.2 c 1,0.2 1.5,-0.6 1.9,-1.3 0.5,-1.2 0.9,-2.4 1.2,-3.6 0.1,-0.2 0.1,-0.4 0.2,-0.7 0.1,-0.4 0.2,-0.9 0.3,-1.3 l 4.4,-11.7 c 0.9,-1.2 2.1,-2.2 3.5,-2.9 1.3,-0.7 2.8,-1.1 4.3,-1.1 2.2,0 4.3,0.8 6,2.1 2.9,2.2 4.6,6.5 4.6,6.5 0.2,0.6 0.4,1.2 0.4,1.8 0,0.6 -0.1,1.1 -0.3,1.7 -0.3,0.5 -0.6,1 -0.9,1.4 -0.4,0.4 -0.9,0.7 -1.4,0.9 -0.5,0.2 -1.1,0.3 -1.7,0.3 -0.6,0 -1.2,-0.1 -1.8,-0.4 -0.6,-0.3 -1.1,-0.7 -1.5,-1.1 0,0 0,-0.1 -0.1,-0.1 C 53.7,56.3 53.5,55.9 53.3,55.5 53.1,55 52.8,54.5 52.5,54 52.3,53.8 52.2,53.5 52,53.3 51.9,53.1 51.7,52.8 51.4,52.7 51,52.4 50.5,52.3 50.1,52.5 L 50,52.4 c -0.5,0.4 -0.8,0.9 -1,1.5 -0.6,1.5 -1.1,3 -1.5,4.6 l -0.2,0.9 -1.8,5.9 -2.5,5.6 c -0.9,1.2 -2.1,2.1 -3.5,2.8 -1.3,0.6 -2.8,1 -4.3,1 C 29,74.8 26.1,69.2 26.1,69.2 22.6,63.4 21.6,55.8 21.3,53.3 21.2,53 21.2,52.7 21.2,52.4 c 0,-0.8 0.2,-1.5 0.6,-2.2 0.4,-0.7 0.9,-1.2 1.6,-1.6 0.7,-0.3 1.5,-0.5 2.3,-0.5 1.3,0.1 2.5,0.7 3.3,1.8 0.5,0.9 0.8,1.8 0.8,2.8 0.2,2.3 0.7,4.5 1.3,6.6 z"
   id="path299"
   style="fill:url(#SVGID_21_)" />
		
			<linearGradient
   id="SVGID_22_"
   gradientUnits="userSpaceOnUse"
   x1="47.1054"
   y1="-110.8805"
   x2="58.075401"
   y2="-128.7706"
   gradientTransform="matrix(1,0,0,-1,-7,-56.22)">
			<stop
   offset="0.62"
   style="stop-color:#21DEFF;stop-opacity:0"
   id="stop301" />
			<stop
   offset="0.66"
   style="stop-color:#21DEFF;stop-opacity:6.000000e-02"
   id="stop303" />
			<stop
   offset="0.73"
   style="stop-color:#21DEFF;stop-opacity:0.23"
   id="stop305" />
			<stop
   offset="0.83"
   style="stop-color:#21DEFF;stop-opacity:0.51"
   id="stop307" />
			<stop
   offset="0.96"
   style="stop-color:#21DEFF;stop-opacity:0.88"
   id="stop309" />
			<stop
   offset="1"
   style="stop-color:#21DEFF"
   id="stop311" />
		</linearGradient>
		<path
   class="st20"
   d="m 31.1,59.3 c 0.5,1.7 1.2,3.3 2,4.9 0.3,0.7 0.8,1.3 1.4,1.8 l 0.4,0.2 c 1,0.2 1.5,-0.6 1.9,-1.3 0.5,-1.2 0.9,-2.4 1.2,-3.6 0.1,-0.2 0.1,-0.4 0.2,-0.7 0.1,-0.4 0.2,-0.9 0.3,-1.3 l 4.4,-11.7 c 0.9,-1.2 2.1,-2.2 3.5,-2.9 1.3,-0.7 2.8,-1.1 4.3,-1.1 2.2,0 4.3,0.8 6,2.1 2.9,2.2 4.6,6.5 4.6,6.5 0.2,0.6 0.4,1.2 0.4,1.8 0,0.6 -0.1,1.1 -0.3,1.7 -0.3,0.5 -0.6,1 -0.9,1.4 -0.4,0.4 -0.9,0.7 -1.4,0.9 -0.5,0.2 -1.1,0.3 -1.7,0.3 -0.6,0 -1.2,-0.1 -1.8,-0.4 -0.6,-0.3 -1.1,-0.7 -1.5,-1.1 0,0 0,-0.1 -0.1,-0.1 C 53.7,56.3 53.5,55.9 53.3,55.5 53.1,55 52.8,54.5 52.5,54 52.3,53.8 52.2,53.5 52,53.3 51.9,53.1 51.7,52.8 51.4,52.7 51,52.4 50.5,52.3 50.1,52.5 L 50,52.4 c -0.5,0.4 -0.8,0.9 -1,1.5 -0.6,1.5 -1.1,3 -1.5,4.6 l -0.2,0.9 -1.8,5.9 -2.5,5.6 c -0.9,1.2 -2.1,2.1 -3.5,2.8 -1.3,0.6 -2.8,1 -4.3,1 C 29,74.8 26.1,69.2 26.1,69.2 22.6,63.4 21.6,55.8 21.3,53.3 21.2,53 21.2,52.7 21.2,52.4 c 0,-0.8 0.2,-1.5 0.6,-2.2 0.4,-0.7 0.9,-1.2 1.6,-1.6 0.7,-0.3 1.5,-0.5 2.3,-0.5 1.3,0.1 2.5,0.7 3.3,1.8 0.5,0.9 0.8,1.8 0.8,2.8 0.2,2.3 0.7,4.5 1.3,6.6 z"
   id="path314"
   style="fill:url(#SVGID_22_)" />
		
			<linearGradient
   id="SVGID_23_"
   gradientUnits="userSpaceOnUse"
   x1="59.279701"
   y1="-117.5842"
   x2="57.5597"
   y2="-109.1642"
   gradientTransform="matrix(1,0,0,-1,-7,-56.22)">
			<stop
   offset="0"
   style="stop-color:#44B044"
   id="stop316" />
			<stop
   offset="0.11"
   style="stop-color:#44B044;stop-opacity:0.8"
   id="stop318" />
			<stop
   offset="0.27"
   style="stop-color:#44B044;stop-opacity:0.52"
   id="stop320" />
			<stop
   offset="0.43"
   style="stop-color:#44B044;stop-opacity:0.29"
   id="stop322" />
			<stop
   offset="0.58"
   style="stop-color:#44B044;stop-opacity:0.13"
   id="stop324" />
			<stop
   offset="0.7"
   style="stop-color:#44B044;stop-opacity:3.000000e-02"
   id="stop326" />
			<stop
   offset="0.8"
   style="stop-color:#44B044;stop-opacity:0"
   id="stop328" />
		</linearGradient>
		<path
   class="st21"
   d="m 40.1,54.9 2.8,-7.4 c 0.9,-1.2 2.1,-2.2 3.5,-2.9 1.4,-0.6 2.9,-1 4.4,-1 2.2,0 4.3,0.8 6,2.1 2.9,2.2 4.6,6.5 4.6,6.5 0.2,0.6 0.4,1.2 0.4,1.8 0,0.6 -0.1,1.1 -0.3,1.7 -0.3,0.5 -0.6,1 -0.9,1.4 -0.4,0.4 -0.9,0.7 -1.4,0.9 -0.5,0.2 -1.1,0.3 -1.7,0.3 -0.6,0 -1.2,-0.1 -1.8,-0.4 -0.6,-0.3 -1.1,-0.7 -1.5,-1.1 0,0 0,-0.1 -0.1,-0.1 C 53.8,56.3 53.6,55.9 53.4,55.5 53.2,55 52.9,54.5 52.6,54 52.4,53.8 52.3,53.5 52.1,53.3 52,53.1 51.8,52.8 51.5,52.7 51.1,52.4 50.6,52.3 50.2,52.5 L 50,52.4 c -0.5,0.4 -0.8,0.9 -1,1.5 -0.6,1.5 -1.1,3 -1.5,4.6 l -0.2,0.9 -1.8,5.9 z"
   id="path331"
   style="fill:url(#SVGID_23_)" />
		
			<linearGradient
   id="SVGID_24_"
   gradientUnits="userSpaceOnUse"
   x1="35.23"
   y1="-108.8201"
   x2="71.550003"
   y2="-120.8401"
   gradientTransform="matrix(1,0,0,-1,-7,-56.22)">
			<stop
   offset="0"
   style="stop-color:#3066FB"
   id="stop333" />
			<stop
   offset="0.38"
   style="stop-color:#2F64F7"
   id="stop335" />
			<stop
   offset="0.74"
   style="stop-color:#2857D9"
   id="stop337" />
			<stop
   offset="1"
   style="stop-color:#3C7EFF"
   id="stop339" />
		</linearGradient>
		<path
   class="st22"
   d="m 60.3,48.3 c -0.3,0 -0.7,0.1 -1,0.1 0.8,1.2 1.5,2.4 2,3.7 0.2,0.6 0.4,1.2 0.4,1.8 0,0.6 -0.1,1.1 -0.3,1.7 -0.3,0.5 -0.6,1 -0.9,1.4 -0.4,0.4 -0.9,0.8 -1.4,0.9 -0.5,0.2 -1.1,0.3 -1.7,0.3 -0.8,0 -1.5,-0.2 -2.2,-0.6 l -0.4,1.7 c -0.3,1.3 -0.8,2.5 -1.4,3.7 -0.3,0.7 -0.7,1.4 -1.1,2.1 -0.3,0.4 -0.7,0.8 -1.2,1 -0.2,0 -0.4,0.1 -0.5,0.1 -0.2,0 -0.4,-0.1 -0.6,-0.2 -0.3,-0.3 -0.6,-0.6 -0.8,-1 -0.2,-0.4 -0.4,-0.8 -0.6,-1.3 -0.4,-0.9 -1,-3.2 -1,-3.2 L 47,58.1 46.4,55.7 46,54.1 c -0.5,-2.2 -1.4,-4.3 -2.7,-6.2 -1.2,-1.8 -3,-3.1 -5,-3.8 -1.5,-0.5 -3.2,-0.6 -4.8,-0.4 -2.8,0.6 -5.2,2.3 -6.8,4.7 0.4,0.1 0.8,0.3 1.2,0.5 0.5,0.3 0.9,0.7 1.2,1.1 0.5,0.9 0.8,1.8 0.8,2.8 0.2,2.1 0.6,4.3 1.2,6.3 0.6,-2.3 1.6,-4.4 2.9,-6.4 0.2,-0.2 0.4,-0.4 0.6,-0.6 C 34.7,52 34.9,52 35,52 c 0.3,0 0.5,0.1 0.7,0.2 0.1,0 0.1,0.1 0.1,0.1 0.2,0.2 0.4,0.4 0.6,0.6 0.3,0.6 0.6,1.2 0.9,1.8 0.5,1.4 0.9,3.1 0.9,3.1 l 1.2,4.9 c 0.4,1.7 1,3.4 1.7,5 1.9,4.4 4.8,5.6 4.8,5.6 1.4,0.7 3,1.2 4.6,1.2 1.5,0.1 3.1,-0.3 4.4,-0.9 1.5,-0.8 2.8,-1.8 3.9,-3.1 0.6,-0.9 1.2,-1.8 1.7,-2.8 1.2,-2.3 2,-4.7 2.7,-7.2 0.4,-1.5 0.8,-3.1 1,-4.7 0.1,-0.8 0.2,-1.5 0.3,-2.3 0.1,-0.7 0.1,-1.5 -0.1,-2.2 -0.1,-0.1 -0.1,-0.2 -0.1,-0.4 -0.4,-0.9 -1,-1.7 -1.9,-2.2 -0.6,-0.2 -1.4,-0.4 -2.1,-0.4 z"
   id="path342"
   style="fill:url(#SVGID_24_)" />
		
			<radialGradient
   id="SVGID_25_"
   cx="-374.25821"
   cy="527.5332"
   r="0.62"
   gradientTransform="matrix(-4.76,31.17,20.57,3.14,-12579.46,10066.34)"
   gradientUnits="userSpaceOnUse">
			<stop
   offset="0"
   style="stop-color:#1A3D9C"
   id="stop344" />
			<stop
   offset="0.4"
   style="stop-color:#1A3D9C;stop-opacity:0.42"
   id="stop346" />
			<stop
   offset="0.7"
   style="stop-color:#1A3D9C;stop-opacity:0"
   id="stop348" />
		</radialGradient>
		<path
   class="st23"
   d="m 60.3,48.3 c -0.3,0 -0.7,0.1 -1,0.1 0.8,1.2 1.5,2.4 2,3.7 0.2,0.6 0.4,1.2 0.4,1.8 0,0.6 -0.1,1.1 -0.3,1.7 -0.3,0.5 -0.6,1 -0.9,1.4 -0.4,0.4 -0.9,0.8 -1.4,0.9 -0.5,0.2 -1.1,0.3 -1.7,0.3 -0.8,0 -1.5,-0.2 -2.2,-0.6 l -0.4,1.7 c -0.3,1.3 -0.8,2.5 -1.4,3.7 -0.3,0.7 -0.7,1.4 -1.1,2.1 -0.3,0.4 -0.7,0.8 -1.2,1 -0.2,0 -0.4,0.1 -0.5,0.1 -0.2,0 -0.4,-0.1 -0.6,-0.2 -0.3,-0.3 -0.6,-0.6 -0.8,-1 -0.2,-0.4 -0.4,-0.8 -0.6,-1.3 -0.4,-0.9 -1,-3.2 -1,-3.2 L 47,58.1 46.4,55.7 46,54.1 c -0.5,-2.2 -1.4,-4.3 -2.7,-6.2 -1.2,-1.8 -3,-3.1 -5,-3.8 -1.5,-0.5 -3.2,-0.6 -4.8,-0.4 -2.8,0.6 -5.2,2.3 -6.8,4.7 0.4,0.1 0.8,0.3 1.2,0.5 0.5,0.3 0.9,0.7 1.2,1.1 0.5,0.9 0.8,1.8 0.8,2.8 0.2,2.1 0.6,4.3 1.2,6.3 0.6,-2.3 1.6,-4.4 2.9,-6.4 0.2,-0.2 0.4,-0.4 0.6,-0.6 C 34.7,52 34.9,52 35,52 c 0.3,0 0.5,0.1 0.7,0.2 0.1,0 0.1,0.1 0.1,0.1 0.2,0.2 0.4,0.4 0.6,0.6 0.3,0.6 0.6,1.2 0.9,1.8 0.5,1.4 0.9,3.1 0.9,3.1 l 1.2,4.9 c 0.4,1.7 1,3.4 1.7,5 1.9,4.4 4.8,5.6 4.8,5.6 1.4,0.7 3,1.2 4.6,1.2 1.5,0.1 3.1,-0.3 4.4,-0.9 1.5,-0.8 2.8,-1.8 3.9,-3.1 0.6,-0.9 1.2,-1.8 1.7,-2.8 1.2,-2.3 2,-4.7 2.7,-7.2 0.4,-1.5 0.8,-3.1 1,-4.7 0.1,-0.8 0.2,-1.5 0.3,-2.3 0.1,-0.7 0.1,-1.5 -0.1,-2.2 -0.1,-0.1 -0.1,-0.2 -0.1,-0.4 -0.4,-0.9 -1,-1.7 -1.9,-2.2 -0.6,-0.2 -1.4,-0.4 -2.1,-0.4 z"
   id="path351"
   style="fill:url(#SVGID_25_)" />
		
			<radialGradient
   id="SVGID_26_"
   cx="-385.73279"
   cy="502.40421"
   r="0.62"
   gradientTransform="matrix(-586.04,3834.26,2067.3999,315.99,-1252891.4,1289776.3)"
   gradientUnits="userSpaceOnUse">
			<stop
   offset="0"
   style="stop-color:#1A3D9C"
   id="stop353" />
			<stop
   offset="0.4"
   style="stop-color:#1A3D9C;stop-opacity:0.42"
   id="stop355" />
			<stop
   offset="0.7"
   style="stop-color:#1A3D9C;stop-opacity:0"
   id="stop357" />
		</radialGradient>
		<path
   class="st24"
   d="m 60.3,48.3 c -0.3,0 -0.7,0.1 -1,0.1 0.8,1.2 1.5,2.4 2,3.7 0.2,0.6 0.4,1.2 0.4,1.8 0,0.6 -0.1,1.1 -0.3,1.7 -0.3,0.5 -0.6,1 -0.9,1.4 -0.4,0.4 -0.9,0.8 -1.4,0.9 -0.5,0.2 -1.1,0.3 -1.7,0.3 -0.8,0 -1.5,-0.2 -2.2,-0.6 l -0.4,1.7 c -0.3,1.3 -0.8,2.5 -1.4,3.7 -0.3,0.7 -0.7,1.4 -1.1,2.1 -0.3,0.4 -0.7,0.8 -1.2,1 -0.2,0 -0.4,0.1 -0.5,0.1 -0.2,0 -0.4,-0.1 -0.6,-0.2 -0.3,-0.3 -0.6,-0.6 -0.8,-1 -0.2,-0.4 -0.4,-0.8 -0.6,-1.3 -0.4,-0.9 -1,-3.2 -1,-3.2 L 47,58.1 46.4,55.7 46,54.1 c -0.5,-2.2 -1.4,-4.3 -2.7,-6.2 -1.2,-1.8 -3,-3.1 -5,-3.8 -1.5,-0.5 -3.2,-0.6 -4.8,-0.4 -2.8,0.6 -5.2,2.3 -6.8,4.7 0.4,0.1 0.8,0.3 1.2,0.5 0.5,0.3 0.9,0.7 1.2,1.1 0.5,0.9 0.8,1.8 0.8,2.8 0.2,2.1 0.6,4.3 1.2,6.3 0.6,-2.3 1.6,-4.4 2.9,-6.4 0.2,-0.2 0.4,-0.4 0.6,-0.6 C 34.7,52 34.9,52 35,52 c 0.3,0 0.5,0.1 0.7,0.2 0.1,0 0.1,0.1 0.1,0.1 0.2,0.2 0.4,0.4 0.6,0.6 0.3,0.6 0.6,1.2 0.9,1.8 0.5,1.4 0.9,3.1 0.9,3.1 l 1.2,4.9 c 0.4,1.7 1,3.4 1.7,5 1.9,4.4 4.8,5.6 4.8,5.6 1.4,0.7 3,1.2 4.6,1.2 1.5,0.1 3.1,-0.3 4.4,-0.9 1.5,-0.8 2.8,-1.8 3.9,-3.1 0.6,-0.9 1.2,-1.8 1.7,-2.8 1.2,-2.3 2,-4.7 2.7,-7.2 0.4,-1.5 0.8,-3.1 1,-4.7 0.1,-0.8 0.2,-1.5 0.3,-2.3 0.1,-0.7 0.1,-1.5 -0.1,-2.2 -0.1,-0.1 -0.1,-0.2 -0.1,-0.4 -0.4,-0.9 -1,-1.7 -1.9,-2.2 -0.6,-0.2 -1.4,-0.4 -2.1,-0.4 z"
   id="path360"
   style="fill:url(#SVGID_26_)" />
		
			<radialGradient
   id="SVGID_27_"
   cx="-386.5419"
   cy="502.6998"
   r="0.62"
   gradientTransform="matrix(-692.01,4567.2998,1886.86,285.89,-1205623.3,1590805.5)"
   gradientUnits="userSpaceOnUse">
			<stop
   offset="0"
   style="stop-color:#1A3D9C"
   id="stop362" />
			<stop
   offset="0.4"
   style="stop-color:#1A3D9C;stop-opacity:0.42"
   id="stop364" />
			<stop
   offset="0.7"
   style="stop-color:#1A3D9C;stop-opacity:0"
   id="stop366" />
		</radialGradient>
		<path
   class="st25"
   d="m 60.3,48.3 c -0.3,0 -0.7,0.1 -1,0.1 0.8,1.2 1.5,2.4 2,3.7 0.2,0.6 0.4,1.2 0.4,1.8 0,0.6 -0.1,1.1 -0.3,1.7 -0.3,0.5 -0.6,1 -0.9,1.4 -0.4,0.4 -0.9,0.8 -1.4,0.9 -0.5,0.2 -1.1,0.3 -1.7,0.3 -0.8,0 -1.5,-0.2 -2.2,-0.6 l -0.4,1.7 c -0.3,1.3 -0.8,2.5 -1.4,3.7 -0.3,0.7 -0.7,1.4 -1.1,2.1 -0.3,0.4 -0.7,0.8 -1.2,1 -0.2,0 -0.4,0.1 -0.5,0.1 -0.2,0 -0.4,-0.1 -0.6,-0.2 -0.3,-0.3 -0.6,-0.6 -0.8,-1 -0.2,-0.4 -0.4,-0.8 -0.6,-1.3 -0.4,-0.9 -1,-3.2 -1,-3.2 L 47,58.1 46.4,55.7 46,54.1 c -0.5,-2.2 -1.4,-4.3 -2.7,-6.2 -1.2,-1.8 -3,-3.1 -5,-3.8 -1.5,-0.5 -3.2,-0.6 -4.8,-0.4 -2.8,0.6 -5.2,2.3 -6.8,4.7 0.4,0.1 0.8,0.3 1.2,0.5 0.5,0.3 0.9,0.7 1.2,1.1 0.5,0.9 0.8,1.8 0.8,2.8 0.2,2.1 0.6,4.3 1.2,6.3 0.6,-2.3 1.6,-4.4 2.9,-6.4 0.2,-0.2 0.4,-0.4 0.6,-0.6 C 34.7,52 34.9,52 35,52 c 0.3,0 0.5,0.1 0.7,0.2 0.1,0 0.1,0.1 0.1,0.1 0.2,0.2 0.4,0.4 0.6,0.6 0.3,0.6 0.6,1.2 0.9,1.8 0.5,1.4 0.9,3.1 0.9,3.1 l 1.2,4.9 c 0.4,1.7 1,3.4 1.7,5 1.9,4.4 4.8,5.6 4.8,5.6 1.4,0.7 3,1.2 4.6,1.2 1.5,0.1 3.1,-0.3 4.4,-0.9 1.5,-0.8 2.8,-1.8 3.9,-3.1 0.6,-0.9 1.2,-1.8 1.7,-2.8 1.2,-2.3 2,-4.7 2.7,-7.2 0.4,-1.5 0.8,-3.1 1,-4.7 0.1,-0.8 0.2,-1.5 0.3,-2.3 0.1,-0.7 0.1,-1.5 -0.1,-2.2 -0.1,-0.1 -0.1,-0.2 -0.1,-0.4 -0.4,-0.9 -1,-1.7 -1.9,-2.2 -0.6,-0.2 -1.4,-0.4 -2.1,-0.4 z"
   id="path369"
   style="fill:url(#SVGID_27_)" />
		
			<radialGradient
   id="SVGID_28_"
   cx="-367.8046"
   cy="521.20972"
   r="0.62"
   gradientTransform="matrix(3.32,27.36,19.09,-2.31,-8677.6299,11324.99)"
   gradientUnits="userSpaceOnUse">
			<stop
   offset="0"
   style="stop-color:#1A3D9C"
   id="stop371" />
			<stop
   offset="0.16"
   style="stop-color:#1A3D9C;stop-opacity:0.69"
   id="stop373" />
			<stop
   offset="0.33"
   style="stop-color:#1A3D9C;stop-opacity:0.4"
   id="stop375" />
			<stop
   offset="0.49"
   style="stop-color:#1A3D9C;stop-opacity:0.18"
   id="stop377" />
			<stop
   offset="0.61"
   style="stop-color:#1A3D9C;stop-opacity:5.000000e-02"
   id="stop379" />
			<stop
   offset="0.7"
   style="stop-color:#1A3D9C;stop-opacity:0"
   id="stop381" />
		</radialGradient>
		<path
   class="st26"
   d="m 60.3,48.3 c -0.3,0 -0.7,0.1 -1,0.1 0.8,1.2 1.5,2.4 2,3.7 0.2,0.6 0.4,1.2 0.4,1.8 0,0.6 -0.1,1.1 -0.3,1.7 -0.3,0.5 -0.6,1 -0.9,1.4 -0.4,0.4 -0.9,0.8 -1.4,0.9 -0.5,0.2 -1.1,0.3 -1.7,0.3 -0.8,0 -1.5,-0.2 -2.2,-0.6 l -0.4,1.7 c -0.3,1.3 -0.8,2.5 -1.4,3.7 -0.3,0.7 -0.7,1.4 -1.1,2.1 -0.3,0.4 -0.7,0.8 -1.2,1 -0.2,0 -0.4,0.1 -0.5,0.1 -0.2,0 -0.4,-0.1 -0.6,-0.2 -0.3,-0.3 -0.6,-0.6 -0.8,-1 -0.2,-0.4 -0.4,-0.8 -0.6,-1.3 -0.4,-0.9 -1,-3.2 -1,-3.2 L 47,58.1 46.4,55.7 46,54.1 c -0.5,-2.2 -1.4,-4.3 -2.7,-6.2 -1.2,-1.8 -3,-3.1 -5,-3.8 -1.5,-0.5 -3.2,-0.6 -4.8,-0.4 -2.8,0.6 -5.2,2.3 -6.8,4.7 0.4,0.1 0.8,0.3 1.2,0.5 0.5,0.3 0.9,0.7 1.2,1.1 0.5,0.9 0.8,1.8 0.8,2.8 0.2,2.1 0.6,4.3 1.2,6.3 0.6,-2.3 1.6,-4.4 2.9,-6.4 0.2,-0.2 0.4,-0.4 0.6,-0.6 C 34.7,52 34.9,52 35,52 c 0.3,0 0.5,0.1 0.7,0.2 0.1,0 0.1,0.1 0.1,0.1 0.2,0.2 0.4,0.4 0.6,0.6 0.3,0.6 0.6,1.2 0.9,1.8 0.5,1.4 0.9,3.1 0.9,3.1 l 1.2,4.9 c 0.4,1.7 1,3.4 1.7,5 1.9,4.4 4.8,5.6 4.8,5.6 1.4,0.7 3,1.2 4.6,1.2 1.5,0.1 3.1,-0.3 4.4,-0.9 1.5,-0.8 2.8,-1.8 3.9,-3.1 0.6,-0.9 1.2,-1.8 1.7,-2.8 1.2,-2.3 2,-4.7 2.7,-7.2 0.4,-1.5 0.8,-3.1 1,-4.7 0.1,-0.8 0.2,-1.5 0.3,-2.3 0.1,-0.7 0.1,-1.5 -0.1,-2.2 -0.1,-0.1 -0.1,-0.2 -0.1,-0.4 -0.4,-0.9 -1,-1.7 -1.9,-2.2 -0.6,-0.2 -1.4,-0.4 -2.1,-0.4 z"
   id="path384"
   style="fill:url(#SVGID_28_)" />
		
			<radialGradient
   id="SVGID_29_"
   cx="-365.39459"
   cy="516.86292"
   r="0.62"
   gradientTransform="matrix(7.02,25.54,17.37,-4.77,-6358.3003,11857.67)"
   gradientUnits="userSpaceOnUse">
			<stop
   offset="0"
   style="stop-color:#18388F"
   id="stop386" />
			<stop
   offset="0.37"
   style="stop-color:#193B96;stop-opacity:0.45"
   id="stop388" />
			<stop
   offset="0.7"
   style="stop-color:#1A3D9C;stop-opacity:0"
   id="stop390" />
		</radialGradient>
		<path
   class="st27"
   d="m 60.3,48.3 c -0.3,0 -0.7,0.1 -1,0.1 0.8,1.2 1.5,2.4 2,3.7 0.2,0.6 0.4,1.2 0.4,1.8 0,0.6 -0.1,1.1 -0.3,1.7 -0.3,0.5 -0.6,1 -0.9,1.4 -0.4,0.4 -0.9,0.8 -1.4,0.9 -0.5,0.2 -1.1,0.3 -1.7,0.3 -0.8,0 -1.5,-0.2 -2.2,-0.6 l -0.4,1.7 c -0.3,1.3 -0.8,2.5 -1.4,3.7 -0.3,0.7 -0.7,1.4 -1.1,2.1 -0.3,0.4 -0.7,0.8 -1.2,1 -0.2,0 -0.4,0.1 -0.5,0.1 -0.2,0 -0.4,-0.1 -0.6,-0.2 -0.3,-0.3 -0.6,-0.6 -0.8,-1 -0.2,-0.4 -0.4,-0.8 -0.6,-1.3 -0.4,-0.9 -1,-3.2 -1,-3.2 L 47,58.1 46.4,55.7 46,54.1 c -0.5,-2.2 -1.4,-4.3 -2.7,-6.2 -1.2,-1.8 -3,-3.1 -5,-3.8 -1.5,-0.5 -3.2,-0.6 -4.8,-0.4 -2.8,0.6 -5.2,2.3 -6.8,4.7 0.4,0.1 0.8,0.3 1.2,0.5 0.5,0.3 0.9,0.7 1.2,1.1 0.5,0.9 0.8,1.8 0.8,2.8 0.2,2.1 0.6,4.3 1.2,6.3 0.6,-2.3 1.6,-4.4 2.9,-6.4 0.2,-0.2 0.4,-0.4 0.6,-0.6 C 34.7,52 34.9,52 35,52 c 0.3,0 0.5,0.1 0.7,0.2 0.1,0 0.1,0.1 0.1,0.1 0.2,0.2 0.4,0.4 0.6,0.6 0.3,0.6 0.6,1.2 0.9,1.8 0.5,1.4 0.9,3.1 0.9,3.1 l 1.2,4.9 c 0.4,1.7 1,3.4 1.7,5 1.9,4.4 4.8,5.6 4.8,5.6 1.4,0.7 3,1.2 4.6,1.2 1.5,0.1 3.1,-0.3 4.4,-0.9 1.5,-0.8 2.8,-1.8 3.9,-3.1 0.6,-0.9 1.2,-1.8 1.7,-2.8 1.2,-2.3 2,-4.7 2.7,-7.2 0.4,-1.5 0.8,-3.1 1,-4.7 0.1,-0.8 0.2,-1.5 0.3,-2.3 0.1,-0.7 0.1,-1.5 -0.1,-2.2 -0.1,-0.1 -0.1,-0.2 -0.1,-0.4 -0.4,-0.9 -1,-1.7 -1.9,-2.2 -0.6,-0.2 -1.4,-0.4 -2.1,-0.4 z"
   id="path393"
   style="fill:url(#SVGID_29_)" />
		
			<radialGradient
   id="SVGID_30_"
   cx="-336.1041"
   cy="523.80872"
   r="0.62"
   gradientTransform="matrix(3.26,11.87,11.28,-3.1,-4759.9897,5677.9097)"
   gradientUnits="userSpaceOnUse">
			<stop
   offset="0"
   style="stop-color:#18388F"
   id="stop395" />
			<stop
   offset="9.000000e-02"
   style="stop-color:#183992;stop-opacity:0.78"
   id="stop397" />
			<stop
   offset="0.22"
   style="stop-color:#193B96;stop-opacity:0.5"
   id="stop399" />
			<stop
   offset="0.35"
   style="stop-color:#193C98;stop-opacity:0.28"
   id="stop401" />
			<stop
   offset="0.47"
   style="stop-color:#1A3C9A;stop-opacity:0.13"
   id="stop403" />
			<stop
   offset="0.59"
   style="stop-color:#1A3D9C;stop-opacity:3.000000e-02"
   id="stop405" />
			<stop
   offset="0.7"
   style="stop-color:#1A3D9C;stop-opacity:0"
   id="stop407" />
		</radialGradient>
		<path
   class="st28"
   d="m 60.3,48.3 c -0.3,0 -0.7,0.1 -1,0.1 0.8,1.2 1.5,2.4 2,3.7 0.2,0.6 0.4,1.2 0.4,1.8 0,0.6 -0.1,1.1 -0.3,1.7 -0.3,0.5 -0.6,1 -0.9,1.4 -0.4,0.4 -0.9,0.8 -1.4,0.9 -0.5,0.2 -1.1,0.3 -1.7,0.3 -0.8,0 -1.5,-0.2 -2.2,-0.6 l -0.4,1.7 c -0.3,1.3 -0.8,2.5 -1.4,3.7 -0.3,0.7 -0.7,1.4 -1.1,2.1 -0.3,0.4 -0.7,0.8 -1.2,1 -0.2,0 -0.4,0.1 -0.5,0.1 -0.2,0 -0.4,-0.1 -0.6,-0.2 -0.3,-0.3 -0.6,-0.6 -0.8,-1 -0.2,-0.4 -0.4,-0.8 -0.6,-1.3 -0.4,-0.9 -1,-3.2 -1,-3.2 L 47,58.1 46.4,55.7 46,54.1 c -0.5,-2.2 -1.4,-4.3 -2.7,-6.2 -1.2,-1.8 -3,-3.1 -5,-3.8 -1.5,-0.5 -3.2,-0.6 -4.8,-0.4 -2.8,0.6 -5.2,2.3 -6.8,4.7 0.4,0.1 0.8,0.3 1.2,0.5 0.5,0.3 0.9,0.7 1.2,1.1 0.5,0.9 0.8,1.8 0.8,2.8 0.2,2.1 0.6,4.3 1.2,6.3 0.6,-2.3 1.6,-4.4 2.9,-6.4 0.2,-0.2 0.4,-0.4 0.6,-0.6 C 34.7,52 34.9,52 35,52 c 0.3,0 0.5,0.1 0.7,0.2 0.1,0 0.1,0.1 0.1,0.1 0.2,0.2 0.4,0.4 0.6,0.6 0.3,0.6 0.6,1.2 0.9,1.8 0.5,1.4 0.9,3.1 0.9,3.1 l 1.2,4.9 c 0.4,1.7 1,3.4 1.7,5 1.9,4.4 4.8,5.6 4.8,5.6 1.4,0.7 3,1.2 4.6,1.2 1.5,0.1 3.1,-0.3 4.4,-0.9 1.5,-0.8 2.8,-1.8 3.9,-3.1 0.6,-0.9 1.2,-1.8 1.7,-2.8 1.2,-2.3 2,-4.7 2.7,-7.2 0.4,-1.5 0.8,-3.1 1,-4.7 0.1,-0.8 0.2,-1.5 0.3,-2.3 0.1,-0.7 0.1,-1.5 -0.1,-2.2 -0.1,-0.1 -0.1,-0.2 -0.1,-0.4 -0.4,-0.9 -1,-1.7 -1.9,-2.2 -0.6,-0.2 -1.4,-0.4 -2.1,-0.4 z"
   id="path410"
   style="fill:url(#SVGID_30_)" />
		
			<radialGradient
   id="SVGID_31_"
   cx="-336.1741"
   cy="523.81873"
   r="0.62"
   gradientTransform="matrix(3.26,11.87,11.28,-3.1,-4759.6899,5680.0098)"
   gradientUnits="userSpaceOnUse">
			<stop
   offset="0"
   style="stop-color:#1A3D9C;stop-opacity:0.8"
   id="stop412" />
			<stop
   offset="1.000000e-02"
   style="stop-color:#1A3D9C;stop-opacity:0.78"
   id="stop414" />
			<stop
   offset="0.24"
   style="stop-color:#1A3D9C;stop-opacity:0.45"
   id="stop416" />
			<stop
   offset="0.44"
   style="stop-color:#1A3D9C;stop-opacity:0.2"
   id="stop418" />
			<stop
   offset="0.6"
   style="stop-color:#1A3D9C;stop-opacity:5.000000e-02"
   id="stop420" />
			<stop
   offset="0.7"
   style="stop-color:#1A3D9C;stop-opacity:0"
   id="stop422" />
		</radialGradient>
		<path
   class="st29"
   d="m 60.3,48.3 c -0.3,0 -0.7,0.1 -1,0.1 0.8,1.2 1.5,2.4 2,3.7 0.2,0.6 0.4,1.2 0.4,1.8 0,0.6 -0.1,1.1 -0.3,1.7 -0.3,0.5 -0.6,1 -0.9,1.4 -0.4,0.4 -0.9,0.8 -1.4,0.9 -0.5,0.2 -1.1,0.3 -1.7,0.3 -0.8,0 -1.5,-0.2 -2.2,-0.6 l -0.4,1.7 c -0.3,1.3 -0.8,2.5 -1.4,3.7 -0.3,0.7 -0.7,1.4 -1.1,2.1 -0.3,0.4 -0.7,0.8 -1.2,1 -0.2,0 -0.4,0.1 -0.5,0.1 -0.2,0 -0.4,-0.1 -0.6,-0.2 -0.3,-0.3 -0.6,-0.6 -0.8,-1 -0.2,-0.4 -0.4,-0.8 -0.6,-1.3 -0.4,-0.9 -1,-3.2 -1,-3.2 L 47,58.1 46.4,55.7 46,54.1 c -0.5,-2.2 -1.4,-4.3 -2.7,-6.2 -1.2,-1.8 -3,-3.1 -5,-3.8 -1.5,-0.5 -3.2,-0.6 -4.8,-0.4 -2.8,0.6 -5.2,2.3 -6.8,4.7 0.4,0.1 0.8,0.3 1.2,0.5 0.5,0.3 0.9,0.7 1.2,1.1 0.5,0.9 0.8,1.8 0.8,2.8 0.2,2.1 0.6,4.3 1.2,6.3 0.6,-2.3 1.6,-4.4 2.9,-6.4 0.2,-0.2 0.4,-0.4 0.6,-0.6 C 34.7,52 34.9,52 35,52 c 0.3,0 0.5,0.1 0.7,0.2 0.1,0 0.1,0.1 0.1,0.1 0.2,0.2 0.4,0.4 0.6,0.6 0.3,0.6 0.6,1.2 0.9,1.8 0.5,1.4 0.9,3.1 0.9,3.1 l 1.2,4.9 c 0.4,1.7 1,3.4 1.7,5 1.9,4.4 4.8,5.6 4.8,5.6 1.4,0.7 3,1.2 4.6,1.2 1.5,0.1 3.1,-0.3 4.4,-0.9 1.5,-0.8 2.8,-1.8 3.9,-3.1 0.6,-0.9 1.2,-1.8 1.7,-2.8 1.2,-2.3 2,-4.7 2.7,-7.2 0.4,-1.5 0.8,-3.1 1,-4.7 0.1,-0.8 0.2,-1.5 0.3,-2.3 0.1,-0.7 0.1,-1.5 -0.1,-2.2 -0.1,-0.1 -0.1,-0.2 -0.1,-0.4 -0.4,-0.9 -1,-1.7 -1.9,-2.2 -0.6,-0.2 -1.4,-0.4 -2.1,-0.4 z"
   id="path425"
   style="fill:url(#SVGID_31_)" />
		
			<radialGradient
   id="SVGID_32_"
   cx="-366.9581"
   cy="511.8017"
   r="0.62"
   gradientTransform="matrix(11.47,27.06,17.96,-7.61,-4948.0698,13885.729)"
   gradientUnits="userSpaceOnUse">
			<stop
   offset="0"
   style="stop-color:#1A3D9C"
   id="stop427" />
			<stop
   offset="0.4"
   style="stop-color:#1A3D9C;stop-opacity:0.56"
   id="stop429" />
			<stop
   offset="0.48"
   style="stop-color:#1A3D9C;stop-opacity:0.43"
   id="stop431" />
			<stop
   offset="0.69"
   style="stop-color:#1A3D9C;stop-opacity:0.12"
   id="stop433" />
			<stop
   offset="0.79"
   style="stop-color:#1A3D9C;stop-opacity:0"
   id="stop435" />
		</radialGradient>
		<path
   class="st30"
   d="m 60.3,48.3 c -0.3,0 -0.7,0.1 -1,0.1 0.8,1.2 1.5,2.4 2,3.7 0.2,0.6 0.4,1.2 0.4,1.8 0,0.6 -0.1,1.1 -0.3,1.7 -0.3,0.5 -0.6,1 -0.9,1.4 -0.4,0.4 -0.9,0.8 -1.4,0.9 -0.5,0.2 -1.1,0.3 -1.7,0.3 -0.8,0 -1.5,-0.2 -2.2,-0.6 l -0.4,1.7 c -0.3,1.3 -0.8,2.5 -1.4,3.7 -0.3,0.7 -0.7,1.4 -1.1,2.1 -0.3,0.4 -0.7,0.8 -1.2,1 -0.2,0 -0.4,0.1 -0.5,0.1 -0.2,0 -0.4,-0.1 -0.6,-0.2 -0.3,-0.3 -0.6,-0.6 -0.8,-1 -0.2,-0.4 -0.4,-0.8 -0.6,-1.3 -0.4,-0.9 -1,-3.2 -1,-3.2 L 47,58.1 46.4,55.7 46,54.1 c -0.5,-2.2 -1.4,-4.3 -2.7,-6.2 -1.2,-1.8 -3,-3.1 -5,-3.8 -1.5,-0.5 -3.2,-0.6 -4.8,-0.4 -2.8,0.6 -5.2,2.3 -6.8,4.7 0.4,0.1 0.8,0.3 1.2,0.5 0.5,0.3 0.9,0.7 1.2,1.1 0.5,0.9 0.8,1.8 0.8,2.8 0.2,2.1 0.6,4.3 1.2,6.3 0.6,-2.3 1.6,-4.4 2.9,-6.4 0.2,-0.2 0.4,-0.4 0.6,-0.6 C 34.7,52 34.9,52 35,52 c 0.3,0 0.5,0.1 0.7,0.2 0.1,0 0.1,0.1 0.1,0.1 0.2,0.2 0.4,0.4 0.6,0.6 0.3,0.6 0.6,1.2 0.9,1.8 0.5,1.4 0.9,3.1 0.9,3.1 l 1.2,4.9 c 0.4,1.7 1,3.4 1.7,5 1.9,4.4 4.8,5.6 4.8,5.6 1.4,0.7 3,1.2 4.6,1.2 1.5,0.1 3.1,-0.3 4.4,-0.9 1.5,-0.8 2.8,-1.8 3.9,-3.1 0.6,-0.9 1.2,-1.8 1.7,-2.8 1.2,-2.3 2,-4.7 2.7,-7.2 0.4,-1.5 0.8,-3.1 1,-4.7 0.1,-0.8 0.2,-1.5 0.3,-2.3 0.1,-0.7 0.1,-1.5 -0.1,-2.2 -0.1,-0.1 -0.1,-0.2 -0.1,-0.4 -0.4,-0.9 -1,-1.7 -1.9,-2.2 -0.6,-0.2 -1.4,-0.4 -2.1,-0.4 z"
   id="path438"
   style="fill:url(#SVGID_32_)" />
		
			<radialGradient
   id="SVGID_33_"
   cx="-359.92831"
   cy="522.09198"
   r="0.62"
   gradientTransform="matrix(5.24,21.16,13.97,-3.46,-5374.8701,9479)"
   gradientUnits="userSpaceOnUse">
			<stop
   offset="0"
   style="stop-color:#1A3D9C"
   id="stop440" />
			<stop
   offset="6.000000e-02"
   style="stop-color:#1A3D9C;stop-opacity:0.88"
   id="stop442" />
			<stop
   offset="0.21"
   style="stop-color:#1A3D9C;stop-opacity:0.61"
   id="stop444" />
			<stop
   offset="0.36"
   style="stop-color:#1A3D9C;stop-opacity:0.39"
   id="stop446" />
			<stop
   offset="0.51"
   style="stop-color:#1A3D9C;stop-opacity:0.22"
   id="stop448" />
			<stop
   offset="0.67"
   style="stop-color:#1A3D9C;stop-opacity:0.1"
   id="stop450" />
			<stop
   offset="0.83"
   style="stop-color:#1A3D9C;stop-opacity:2.000000e-02"
   id="stop452" />
			<stop
   offset="1"
   style="stop-color:#1A3D9C;stop-opacity:0"
   id="stop454" />
		</radialGradient>
		<path
   class="st31"
   d="m 60.3,48.3 c -0.3,0 -0.7,0.1 -1,0.1 0.8,1.2 1.5,2.4 2,3.7 0.2,0.6 0.4,1.2 0.4,1.8 0,0.6 -0.1,1.1 -0.3,1.7 -0.3,0.5 -0.6,1 -0.9,1.4 -0.4,0.4 -0.9,0.8 -1.4,0.9 -0.5,0.2 -1.1,0.3 -1.7,0.3 -0.8,0 -1.5,-0.2 -2.2,-0.6 l -0.4,1.7 c -0.3,1.3 -0.8,2.5 -1.4,3.7 -0.3,0.7 -0.7,1.4 -1.1,2.1 -0.3,0.4 -0.7,0.8 -1.2,1 -0.2,0 -0.4,0.1 -0.5,0.1 -0.2,0 -0.4,-0.1 -0.6,-0.2 -0.3,-0.3 -0.6,-0.6 -0.8,-1 -0.2,-0.4 -0.4,-0.8 -0.6,-1.3 -0.4,-0.9 -1,-3.2 -1,-3.2 L 47,58.1 46.4,55.7 46,54.1 c -0.5,-2.2 -1.4,-4.3 -2.7,-6.2 -1.2,-1.8 -3,-3.1 -5,-3.8 -1.5,-0.5 -3.2,-0.6 -4.8,-0.4 -2.8,0.6 -5.2,2.3 -6.8,4.7 0.4,0.1 0.8,0.3 1.2,0.5 0.5,0.3 0.9,0.7 1.2,1.1 0.5,0.9 0.8,1.8 0.8,2.8 0.2,2.1 0.6,4.3 1.2,6.3 0.6,-2.3 1.6,-4.4 2.9,-6.4 0.2,-0.2 0.4,-0.4 0.6,-0.6 C 34.7,52 34.9,52 35,52 c 0.3,0 0.5,0.1 0.7,0.2 0.1,0 0.1,0.1 0.1,0.1 0.2,0.2 0.4,0.4 0.6,0.6 0.3,0.6 0.6,1.2 0.9,1.8 0.5,1.4 0.9,3.1 0.9,3.1 l 1.2,4.9 c 0.4,1.7 1,3.4 1.7,5 1.9,4.4 4.8,5.6 4.8,5.6 1.4,0.7 3,1.2 4.6,1.2 1.5,0.1 3.1,-0.3 4.4,-0.9 1.5,-0.8 2.8,-1.8 3.9,-3.1 0.6,-0.9 1.2,-1.8 1.7,-2.8 1.2,-2.3 2,-4.7 2.7,-7.2 0.4,-1.5 0.8,-3.1 1,-4.7 0.1,-0.8 0.2,-1.5 0.3,-2.3 0.1,-0.7 0.1,-1.5 -0.1,-2.2 -0.1,-0.1 -0.1,-0.2 -0.1,-0.4 -0.4,-0.9 -1,-1.7 -1.9,-2.2 -0.6,-0.2 -1.4,-0.4 -2.1,-0.4 z"
   id="path457"
   style="fill:url(#SVGID_33_)" />
		
			<radialGradient
   id="SVGID_34_"
   cx="-359.92831"
   cy="522.09198"
   r="0.62"
   gradientTransform="matrix(5.24,21.16,13.97,-3.46,-5374.8701,9479)"
   gradientUnits="userSpaceOnUse">
			<stop
   offset="0"
   style="stop-color:#1B3E9E"
   id="stop459" />
			<stop
   offset="6.000000e-02"
   style="stop-color:#1B3E9E;stop-opacity:0.87"
   id="stop461" />
			<stop
   offset="0.21"
   style="stop-color:#1B3E9D;stop-opacity:0.61"
   id="stop463" />
			<stop
   offset="0.36"
   style="stop-color:#1A3D9D;stop-opacity:0.39"
   id="stop465" />
			<stop
   offset="0.52"
   style="stop-color:#1A3D9C;stop-opacity:0.22"
   id="stop467" />
			<stop
   offset="0.67"
   style="stop-color:#1A3D9C;stop-opacity:0.1"
   id="stop469" />
			<stop
   offset="0.83"
   style="stop-color:#1A3D9C;stop-opacity:2.000000e-02"
   id="stop471" />
			<stop
   offset="1"
   style="stop-color:#1A3D9C;stop-opacity:0"
   id="stop473" />
		</radialGradient>
		<path
   class="st32"
   d="m 60.3,48.3 c -0.3,0 -0.7,0.1 -1,0.1 0.8,1.2 1.5,2.4 2,3.7 0.2,0.6 0.4,1.2 0.4,1.8 0,0.6 -0.1,1.1 -0.3,1.7 -0.3,0.5 -0.6,1 -0.9,1.4 -0.4,0.4 -0.9,0.8 -1.4,0.9 -0.5,0.2 -1.1,0.3 -1.7,0.3 -0.8,0 -1.5,-0.2 -2.2,-0.6 l -0.4,1.7 c -0.3,1.3 -0.8,2.5 -1.4,3.7 -0.3,0.7 -0.7,1.4 -1.1,2.1 -0.3,0.4 -0.7,0.8 -1.2,1 -0.2,0 -0.4,0.1 -0.5,0.1 -0.2,0 -0.4,-0.1 -0.6,-0.2 -0.3,-0.3 -0.6,-0.6 -0.8,-1 -0.2,-0.4 -0.4,-0.8 -0.6,-1.3 -0.4,-0.9 -1,-3.2 -1,-3.2 L 47,58.1 46.4,55.7 46,54.1 c -0.5,-2.2 -1.4,-4.3 -2.7,-6.2 -1.2,-1.8 -3,-3.1 -5,-3.8 -1.5,-0.5 -3.2,-0.6 -4.8,-0.4 -2.8,0.6 -5.2,2.3 -6.8,4.7 0.4,0.1 0.8,0.3 1.2,0.5 0.5,0.3 0.9,0.7 1.2,1.1 0.5,0.9 0.8,1.8 0.8,2.8 0.2,2.1 0.6,4.3 1.2,6.3 0.6,-2.3 1.6,-4.4 2.9,-6.4 0.2,-0.2 0.4,-0.4 0.6,-0.6 C 34.7,52 34.9,52 35,52 c 0.3,0 0.5,0.1 0.7,0.2 0.1,0 0.1,0.1 0.1,0.1 0.2,0.2 0.4,0.4 0.6,0.6 0.3,0.6 0.6,1.2 0.9,1.8 0.5,1.4 0.9,3.1 0.9,3.1 l 1.2,4.9 c 0.4,1.7 1,3.4 1.7,5 1.9,4.4 4.8,5.6 4.8,5.6 1.4,0.7 3,1.2 4.6,1.2 1.5,0.1 3.1,-0.3 4.4,-0.9 1.5,-0.8 2.8,-1.8 3.9,-3.1 0.6,-0.9 1.2,-1.8 1.7,-2.8 1.2,-2.3 2,-4.7 2.7,-7.2 0.4,-1.5 0.8,-3.1 1,-4.7 0.1,-0.8 0.2,-1.5 0.3,-2.3 0.1,-0.7 0.1,-1.5 -0.1,-2.2 -0.1,-0.1 -0.1,-0.2 -0.1,-0.4 -0.4,-0.9 -1,-1.7 -1.9,-2.2 -0.6,-0.2 -1.4,-0.4 -2.1,-0.4 z"
   id="path476"
   style="fill:url(#SVGID_34_)" />
		
			<radialGradient
   id="SVGID_35_"
   cx="-350.35751"
   cy="527.51782"
   r="0.62"
   gradientTransform="matrix(4.01,16.19,10.69,-2.64,-4200.6396,7120.9902)"
   gradientUnits="userSpaceOnUse">
			<stop
   offset="0"
   style="stop-color:#183991"
   id="stop478" />
			<stop
   offset="3.000000e-02"
   style="stop-color:#183992;stop-opacity:0.95"
   id="stop480" />
			<stop
   offset="0.18"
   style="stop-color:#193A95;stop-opacity:0.66"
   id="stop482" />
			<stop
   offset="0.34"
   style="stop-color:#193B97;stop-opacity:0.42"
   id="stop484" />
			<stop
   offset="0.5"
   style="stop-color:#1A3C99;stop-opacity:0.24"
   id="stop486" />
			<stop
   offset="0.66"
   style="stop-color:#1A3D9B;stop-opacity:0.1"
   id="stop488" />
			<stop
   offset="0.82"
   style="stop-color:#1A3D9C;stop-opacity:3.000000e-02"
   id="stop490" />
			<stop
   offset="1"
   style="stop-color:#1A3D9C;stop-opacity:0"
   id="stop492" />
		</radialGradient>
		<path
   class="st33"
   d="m 60.3,48.3 c -0.3,0 -0.7,0.1 -1,0.1 0.8,1.2 1.5,2.4 2,3.7 0.2,0.6 0.4,1.2 0.4,1.8 0,0.6 -0.1,1.1 -0.3,1.7 -0.3,0.5 -0.6,1 -0.9,1.4 -0.4,0.4 -0.9,0.8 -1.4,0.9 -0.5,0.2 -1.1,0.3 -1.7,0.3 -0.8,0 -1.5,-0.2 -2.2,-0.6 l -0.4,1.7 c -0.3,1.3 -0.8,2.5 -1.4,3.7 -0.3,0.7 -0.7,1.4 -1.1,2.1 -0.3,0.4 -0.7,0.8 -1.2,1 -0.2,0 -0.4,0.1 -0.5,0.1 -0.2,0 -0.4,-0.1 -0.6,-0.2 -0.3,-0.3 -0.6,-0.6 -0.8,-1 -0.2,-0.4 -0.4,-0.8 -0.6,-1.3 -0.4,-0.9 -1,-3.2 -1,-3.2 L 47,58.1 46.4,55.7 46,54.1 c -0.5,-2.2 -1.4,-4.3 -2.7,-6.2 -1.2,-1.8 -3,-3.1 -5,-3.8 -1.5,-0.5 -3.2,-0.6 -4.8,-0.4 -2.8,0.6 -5.2,2.3 -6.8,4.7 0.4,0.1 0.8,0.3 1.2,0.5 0.5,0.3 0.9,0.7 1.2,1.1 0.5,0.9 0.8,1.8 0.8,2.8 0.2,2.1 0.6,4.3 1.2,6.3 0.6,-2.3 1.6,-4.4 2.9,-6.4 0.2,-0.2 0.4,-0.4 0.6,-0.6 C 34.7,52 34.9,52 35,52 c 0.3,0 0.5,0.1 0.7,0.2 0.1,0 0.1,0.1 0.1,0.1 0.2,0.2 0.4,0.4 0.6,0.6 0.3,0.6 0.6,1.2 0.9,1.8 0.5,1.4 0.9,3.1 0.9,3.1 l 1.2,4.9 c 0.4,1.7 1,3.4 1.7,5 1.9,4.4 4.8,5.6 4.8,5.6 1.4,0.7 3,1.2 4.6,1.2 1.5,0.1 3.1,-0.3 4.4,-0.9 1.5,-0.8 2.8,-1.8 3.9,-3.1 0.6,-0.9 1.2,-1.8 1.7,-2.8 1.2,-2.3 2,-4.7 2.7,-7.2 0.4,-1.5 0.8,-3.1 1,-4.7 0.1,-0.8 0.2,-1.5 0.3,-2.3 0.1,-0.7 0.1,-1.5 -0.1,-2.2 -0.1,-0.1 -0.1,-0.2 -0.1,-0.4 -0.4,-0.9 -1,-1.7 -1.9,-2.2 -0.6,-0.2 -1.4,-0.4 -2.1,-0.4 z"
   id="path495"
   style="fill:url(#SVGID_35_)" />
		
			<radialGradient
   id="SVGID_36_"
   cx="-344.26819"
   cy="537.01617"
   r="0.62"
   gradientTransform="matrix(0.66,13.16,11.59,-0.58,-5960.9102,4898.7397)"
   gradientUnits="userSpaceOnUse">
			<stop
   offset="4.000000e-02"
   style="stop-color:#2453D6;stop-opacity:0.6"
   id="stop497" />
			<stop
   offset="0.2"
   style="stop-color:#2453D6;stop-opacity:0.49"
   id="stop499" />
			<stop
   offset="0.52"
   style="stop-color:#2453D6;stop-opacity:0.2"
   id="stop501" />
			<stop
   offset="0.73"
   style="stop-color:#2453D6;stop-opacity:0"
   id="stop503" />
		</radialGradient>
		<path
   class="st34"
   d="m 60.3,48.3 c -0.3,0 -0.7,0.1 -1,0.1 0.8,1.2 1.5,2.4 2,3.7 0.2,0.6 0.4,1.2 0.4,1.8 0,0.6 -0.1,1.1 -0.3,1.7 -0.3,0.5 -0.6,1 -0.9,1.4 -0.4,0.4 -0.9,0.8 -1.4,0.9 -0.5,0.2 -1.1,0.3 -1.7,0.3 -0.8,0 -1.5,-0.2 -2.2,-0.6 l -0.4,1.7 c -0.3,1.3 -0.8,2.5 -1.4,3.7 -0.3,0.7 -0.7,1.4 -1.1,2.1 -0.3,0.4 -0.7,0.8 -1.2,1 -0.2,0 -0.4,0.1 -0.5,0.1 -0.2,0 -0.4,-0.1 -0.6,-0.2 -0.3,-0.3 -0.6,-0.6 -0.8,-1 -0.2,-0.4 -0.4,-0.8 -0.6,-1.3 -0.4,-0.9 -1,-3.2 -1,-3.2 L 47,58.1 46.4,55.7 46,54.1 c -0.5,-2.2 -1.4,-4.3 -2.7,-6.2 -1.2,-1.8 -3,-3.1 -5,-3.8 -1.5,-0.5 -3.2,-0.6 -4.8,-0.4 -2.8,0.6 -5.2,2.3 -6.8,4.7 0.4,0.1 0.8,0.3 1.2,0.5 0.5,0.3 0.9,0.7 1.2,1.1 0.5,0.9 0.8,1.8 0.8,2.8 0.2,2.1 0.6,4.3 1.2,6.3 0.6,-2.3 1.6,-4.4 2.9,-6.4 0.2,-0.2 0.4,-0.4 0.6,-0.6 C 34.7,52 34.9,52 35,52 c 0.3,0 0.5,0.1 0.7,0.2 0.1,0 0.1,0.1 0.1,0.1 0.2,0.2 0.4,0.4 0.6,0.6 0.3,0.6 0.6,1.2 0.9,1.8 0.5,1.4 0.9,3.1 0.9,3.1 l 1.2,4.9 c 0.4,1.7 1,3.4 1.7,5 1.9,4.4 4.8,5.6 4.8,5.6 1.4,0.7 3,1.2 4.6,1.2 1.5,0.1 3.1,-0.3 4.4,-0.9 1.5,-0.8 2.8,-1.8 3.9,-3.1 0.6,-0.9 1.2,-1.8 1.7,-2.8 1.2,-2.3 2,-4.7 2.7,-7.2 0.4,-1.5 0.8,-3.1 1,-4.7 0.1,-0.8 0.2,-1.5 0.3,-2.3 0.1,-0.7 0.1,-1.5 -0.1,-2.2 -0.1,-0.1 -0.1,-0.2 -0.1,-0.4 -0.4,-0.9 -1,-1.7 -1.9,-2.2 -0.6,-0.2 -1.4,-0.4 -2.1,-0.4 z"
   id="path506"
   style="fill:url(#SVGID_36_)" />
		
			<linearGradient
   id="SVGID_37_"
   gradientUnits="userSpaceOnUse"
   x1="58.841099"
   y1="-94.038597"
   x2="49.661098"
   y2="-116.7086"
   gradientTransform="matrix(1,0,0,-1,-7,-56.22)">
			<stop
   offset="0"
   style="stop-color:#3774FF"
   id="stop508" />
			<stop
   offset="5.000000e-02"
   style="stop-color:#3774FF;stop-opacity:0.91"
   id="stop510" />
			<stop
   offset="0.16"
   style="stop-color:#3774FF;stop-opacity:0.66"
   id="stop512" />
			<stop
   offset="0.32"
   style="stop-color:#3774FF;stop-opacity:0.28"
   id="stop514" />
			<stop
   offset="0.43"
   style="stop-color:#3774FF;stop-opacity:0"
   id="stop516" />
		</linearGradient>
		<path
   class="st35"
   d="m 60.3,48.3 c -0.3,0 -0.7,0.1 -1,0.1 0.8,1.2 1.5,2.4 2,3.7 0.2,0.6 0.4,1.2 0.4,1.8 0,0.6 -0.1,1.1 -0.3,1.7 -0.3,0.5 -0.6,1 -0.9,1.4 -0.4,0.4 -0.9,0.8 -1.4,0.9 -0.5,0.2 -1.1,0.3 -1.7,0.3 -0.8,0 -1.5,-0.2 -2.2,-0.6 l -0.4,1.7 c -0.3,1.3 -0.8,2.5 -1.4,3.7 -0.3,0.7 -0.7,1.4 -1.1,2.1 -0.3,0.4 -0.7,0.8 -1.2,1 -0.2,0 -0.4,0.1 -0.5,0.1 -0.2,0 -0.4,-0.1 -0.6,-0.2 -0.3,-0.3 -0.6,-0.6 -0.8,-1 -0.2,-0.4 -0.4,-0.8 -0.6,-1.3 -0.4,-0.9 -1,-3.2 -1,-3.2 L 47,58.1 46.4,55.7 46,54.1 c -0.5,-2.2 -1.4,-4.3 -2.7,-6.2 -1.2,-1.8 -3,-3.1 -5,-3.8 -1.5,-0.5 -3.2,-0.6 -4.8,-0.4 -2.8,0.6 -5.2,2.3 -6.8,4.7 0.4,0.1 0.8,0.3 1.2,0.5 0.5,0.3 0.9,0.7 1.2,1.1 0.5,0.9 0.8,1.8 0.8,2.8 0.2,2.1 0.6,4.3 1.2,6.3 0.6,-2.3 1.6,-4.4 2.9,-6.4 0.2,-0.2 0.4,-0.4 0.6,-0.6 C 34.7,52 34.9,52 35,52 c 0.3,0 0.5,0.1 0.7,0.2 0.1,0 0.1,0.1 0.1,0.1 0.2,0.2 0.4,0.4 0.6,0.6 0.3,0.6 0.6,1.2 0.9,1.8 0.5,1.4 0.9,3.1 0.9,3.1 l 1.2,4.9 c 0.4,1.7 1,3.4 1.7,5 1.9,4.4 4.8,5.6 4.8,5.6 1.4,0.7 3,1.2 4.6,1.2 1.5,0.1 3.1,-0.3 4.4,-0.9 1.5,-0.8 2.8,-1.8 3.9,-3.1 0.6,-0.9 1.2,-1.8 1.7,-2.8 1.2,-2.3 2,-4.7 2.7,-7.2 0.4,-1.5 0.8,-3.1 1,-4.7 0.1,-0.8 0.2,-1.5 0.3,-2.3 0.1,-0.7 0.1,-1.5 -0.1,-2.2 -0.1,-0.1 -0.1,-0.2 -0.1,-0.4 -0.4,-0.9 -1,-1.7 -1.9,-2.2 -0.6,-0.2 -1.4,-0.4 -2.1,-0.4 z"
   id="path519"
   style="fill:url(#SVGID_37_)" />
	</g>
</g><rect
     x="15"
     y="39"
     class="st36"
     width="186"
     height="57"
     id="rect525" /></g></svg>
